%TF.GenerationSoftware,KiCad,Pcbnew,(6.0.7)*%
%TF.CreationDate,2022-09-20T14:36:04+02:00*%
%TF.ProjectId,CANpaca-EB-schematics,43414e70-6163-4612-9d45-422d73636865,rev?*%
%TF.SameCoordinates,Original*%
%TF.FileFunction,Copper,L1,Top*%
%TF.FilePolarity,Positive*%
%FSLAX46Y46*%
G04 Gerber Fmt 4.6, Leading zero omitted, Abs format (unit mm)*
G04 Created by KiCad (PCBNEW (6.0.7)) date 2022-09-20 14:36:04*
%MOMM*%
%LPD*%
G01*
G04 APERTURE LIST*
G04 Aperture macros list*
%AMRoundRect*
0 Rectangle with rounded corners*
0 $1 Rounding radius*
0 $2 $3 $4 $5 $6 $7 $8 $9 X,Y pos of 4 corners*
0 Add a 4 corners polygon primitive as box body*
4,1,4,$2,$3,$4,$5,$6,$7,$8,$9,$2,$3,0*
0 Add four circle primitives for the rounded corners*
1,1,$1+$1,$2,$3*
1,1,$1+$1,$4,$5*
1,1,$1+$1,$6,$7*
1,1,$1+$1,$8,$9*
0 Add four rect primitives between the rounded corners*
20,1,$1+$1,$2,$3,$4,$5,0*
20,1,$1+$1,$4,$5,$6,$7,0*
20,1,$1+$1,$6,$7,$8,$9,0*
20,1,$1+$1,$8,$9,$2,$3,0*%
%AMFreePoly0*
4,1,9,2.975000,-2.350000,1.425000,-2.350000,1.425000,-2.100000,-1.650000,-2.100000,-1.650000,2.100000,1.425000,2.100000,1.425000,2.350000,2.975000,2.350000,2.975000,-2.350000,2.975000,-2.350000,$1*%
G04 Aperture macros list end*
%TA.AperFunction,SMDPad,CuDef*%
%ADD10RoundRect,0.150000X0.325000X0.150000X-0.325000X0.150000X-0.325000X-0.150000X0.325000X-0.150000X0*%
%TD*%
%TA.AperFunction,SMDPad,CuDef*%
%ADD11RoundRect,0.150000X0.150000X0.325000X-0.150000X0.325000X-0.150000X-0.325000X0.150000X-0.325000X0*%
%TD*%
%TA.AperFunction,SMDPad,CuDef*%
%ADD12RoundRect,0.062500X0.362500X0.062500X-0.362500X0.062500X-0.362500X-0.062500X0.362500X-0.062500X0*%
%TD*%
%TA.AperFunction,SMDPad,CuDef*%
%ADD13RoundRect,0.062500X0.062500X0.362500X-0.062500X0.362500X-0.062500X-0.362500X0.062500X-0.362500X0*%
%TD*%
%TA.AperFunction,SMDPad,CuDef*%
%ADD14R,3.600000X4.100000*%
%TD*%
%TA.AperFunction,SMDPad,CuDef*%
%ADD15R,3.200000X3.200000*%
%TD*%
%TA.AperFunction,SMDPad,CuDef*%
%ADD16RoundRect,0.050000X-0.050000X-0.387500X0.050000X-0.387500X0.050000X0.387500X-0.050000X0.387500X0*%
%TD*%
%TA.AperFunction,SMDPad,CuDef*%
%ADD17RoundRect,0.050000X-0.387500X-0.050000X0.387500X-0.050000X0.387500X0.050000X-0.387500X0.050000X0*%
%TD*%
%TA.AperFunction,ComponentPad*%
%ADD18C,1.270000*%
%TD*%
%TA.AperFunction,SMDPad,CuDef*%
%ADD19RoundRect,0.225000X0.225000X0.250000X-0.225000X0.250000X-0.225000X-0.250000X0.225000X-0.250000X0*%
%TD*%
%TA.AperFunction,SMDPad,CuDef*%
%ADD20RoundRect,0.200000X0.275000X-0.200000X0.275000X0.200000X-0.275000X0.200000X-0.275000X-0.200000X0*%
%TD*%
%TA.AperFunction,SMDPad,CuDef*%
%ADD21RoundRect,0.225000X-0.250000X0.225000X-0.250000X-0.225000X0.250000X-0.225000X0.250000X0.225000X0*%
%TD*%
%TA.AperFunction,ComponentPad*%
%ADD22C,1.000000*%
%TD*%
%TA.AperFunction,ComponentPad*%
%ADD23C,2.000000*%
%TD*%
%TA.AperFunction,SMDPad,CuDef*%
%ADD24R,1.600000X0.760000*%
%TD*%
%TA.AperFunction,SMDPad,CuDef*%
%ADD25R,1.100000X1.100000*%
%TD*%
%TA.AperFunction,SMDPad,CuDef*%
%ADD26RoundRect,0.250000X-1.000000X1.950000X-1.000000X-1.950000X1.000000X-1.950000X1.000000X1.950000X0*%
%TD*%
%TA.AperFunction,SMDPad,CuDef*%
%ADD27RoundRect,0.200000X-0.275000X0.200000X-0.275000X-0.200000X0.275000X-0.200000X0.275000X0.200000X0*%
%TD*%
%TA.AperFunction,SMDPad,CuDef*%
%ADD28RoundRect,0.225000X0.250000X-0.225000X0.250000X0.225000X-0.250000X0.225000X-0.250000X-0.225000X0*%
%TD*%
%TA.AperFunction,SMDPad,CuDef*%
%ADD29R,0.600000X1.150000*%
%TD*%
%TA.AperFunction,SMDPad,CuDef*%
%ADD30R,0.300000X1.150000*%
%TD*%
%TA.AperFunction,SMDPad,CuDef*%
%ADD31R,2.180000X2.000000*%
%TD*%
%TA.AperFunction,SMDPad,CuDef*%
%ADD32RoundRect,0.150000X0.150000X-0.825000X0.150000X0.825000X-0.150000X0.825000X-0.150000X-0.825000X0*%
%TD*%
%TA.AperFunction,ComponentPad*%
%ADD33C,1.425000*%
%TD*%
%TA.AperFunction,SMDPad,CuDef*%
%ADD34RoundRect,0.150000X-0.150000X0.512500X-0.150000X-0.512500X0.150000X-0.512500X0.150000X0.512500X0*%
%TD*%
%TA.AperFunction,SMDPad,CuDef*%
%ADD35R,1.400000X1.200000*%
%TD*%
%TA.AperFunction,SMDPad,CuDef*%
%ADD36RoundRect,0.218750X0.218750X0.256250X-0.218750X0.256250X-0.218750X-0.256250X0.218750X-0.256250X0*%
%TD*%
%TA.AperFunction,ComponentPad*%
%ADD37R,1.700000X1.700000*%
%TD*%
%TA.AperFunction,ComponentPad*%
%ADD38O,1.700000X1.700000*%
%TD*%
%TA.AperFunction,SMDPad,CuDef*%
%ADD39R,1.150000X0.700000*%
%TD*%
%TA.AperFunction,SMDPad,CuDef*%
%ADD40FreePoly0,0.000000*%
%TD*%
%TA.AperFunction,SMDPad,CuDef*%
%ADD41RoundRect,0.225000X-0.225000X-0.250000X0.225000X-0.250000X0.225000X0.250000X-0.225000X0.250000X0*%
%TD*%
%TA.AperFunction,SMDPad,CuDef*%
%ADD42RoundRect,0.200000X0.200000X0.275000X-0.200000X0.275000X-0.200000X-0.275000X0.200000X-0.275000X0*%
%TD*%
%TA.AperFunction,ComponentPad*%
%ADD43RoundRect,0.250001X-0.499999X-0.499999X0.499999X-0.499999X0.499999X0.499999X-0.499999X0.499999X0*%
%TD*%
%TA.AperFunction,ComponentPad*%
%ADD44C,1.500000*%
%TD*%
%TA.AperFunction,ViaPad*%
%ADD45C,0.508000*%
%TD*%
%TA.AperFunction,Conductor*%
%ADD46C,0.200000*%
%TD*%
%TA.AperFunction,Conductor*%
%ADD47C,0.152400*%
%TD*%
%TA.AperFunction,Conductor*%
%ADD48C,0.500000*%
%TD*%
%TA.AperFunction,Conductor*%
%ADD49C,0.350000*%
%TD*%
%TA.AperFunction,Conductor*%
%ADD50C,1.500000*%
%TD*%
%TA.AperFunction,Conductor*%
%ADD51C,0.520000*%
%TD*%
%TA.AperFunction,Conductor*%
%ADD52C,3.000000*%
%TD*%
G04 APERTURE END LIST*
D10*
%TO.P,U11,1,Vdd_I/O*%
%TO.N,3V3*%
X105500000Y-69500000D03*
%TO.P,U11,2,GND*%
%TO.N,GND*%
X105500000Y-68700000D03*
%TO.P,U11,3,RES*%
%TO.N,unconnected-(U11-Pad3)*%
X105500000Y-67900000D03*
%TO.P,U11,4,GND*%
%TO.N,GND*%
X105500000Y-67100000D03*
%TO.P,U11,5,GND*%
X105500000Y-66300000D03*
%TO.P,U11,6,Vs*%
%TO.N,3V3*%
X105500000Y-65500000D03*
D11*
%TO.P,U11,7,~{CS}*%
%TO.N,CS_ADXL*%
X104500000Y-65500000D03*
D10*
%TO.P,U11,8,INT1*%
%TO.N,unconnected-(U11-Pad8)*%
X103500000Y-65500000D03*
%TO.P,U11,9,INT2*%
%TO.N,unconnected-(U11-Pad9)*%
X103500000Y-66300000D03*
%TO.P,U11,10,NC*%
%TO.N,unconnected-(U11-Pad10)*%
X103500000Y-67100000D03*
%TO.P,U11,11,RES*%
%TO.N,GND*%
X103500000Y-67900000D03*
%TO.P,U11,12,SDO/ADDR*%
%TO.N,MISO*%
X103500000Y-68700000D03*
%TO.P,U11,13,SDA/SDI/SDIO*%
%TO.N,MOSI_2*%
X103500000Y-69500000D03*
D11*
%TO.P,U11,14,SCL/SCLK*%
%TO.N,SCK*%
X104500000Y-69500000D03*
%TD*%
D12*
%TO.P,U3,1,CLK*%
%TO.N,GND*%
X84700000Y-61500000D03*
%TO.P,U3,2,~{CS}_CFG3*%
%TO.N,CS_E*%
X84700000Y-61000000D03*
%TO.P,U3,3,SCK_CFG2*%
%TO.N,SCK*%
X84700000Y-60500000D03*
%TO.P,U3,4,SDI_CFG1*%
%TO.N,MOSI*%
X84700000Y-60000000D03*
%TO.P,U3,5,SDO_CFG0*%
%TO.N,MISO*%
X84700000Y-59500000D03*
%TO.P,U3,6,STEP*%
%TO.N,STEP_E*%
X84700000Y-59000000D03*
%TO.P,U3,7,DIR*%
%TO.N,DIR_E*%
X84700000Y-58500000D03*
%TO.P,U3,8,VCC_IO*%
%TO.N,3V3*%
X84700000Y-58000000D03*
%TO.P,U3,9,DNC*%
%TO.N,unconnected-(U3-Pad9)*%
X84700000Y-57500000D03*
%TO.P,U3,10,SPI_MODE*%
%TO.N,unconnected-(U3-Pad10)*%
X84700000Y-57000000D03*
D13*
%TO.P,U3,11,NC*%
%TO.N,GND*%
X84000000Y-56300000D03*
%TO.P,U3,12,GNDP*%
X83500000Y-56300000D03*
%TO.P,U3,13,OB1*%
%TO.N,Net-(J8-Pad3)*%
X83000000Y-56300000D03*
%TO.P,U3,14,BRB*%
%TO.N,Net-(C17-Pad1)*%
X82500000Y-56300000D03*
%TO.P,U3,15,OB2*%
%TO.N,Net-(J8-Pad4)*%
X82000000Y-56300000D03*
%TO.P,U3,16,VS*%
%TO.N,DC_IN*%
X81500000Y-56300000D03*
%TO.P,U3,17,DCO*%
%TO.N,unconnected-(U3-Pad17)*%
X81000000Y-56300000D03*
%TO.P,U3,18,DCEN_CFG4*%
%TO.N,unconnected-(U3-Pad18)*%
X80500000Y-56300000D03*
D12*
%TO.P,U3,19,DCIN_CFG5*%
%TO.N,unconnected-(U3-Pad19)*%
X79800000Y-57000000D03*
%TO.P,U3,20,DIAG0*%
%TO.N,unconnected-(U3-Pad20)*%
X79800000Y-57500000D03*
%TO.P,U3,21,DIAG1*%
%TO.N,DIAG1_E*%
X79800000Y-58000000D03*
%TO.P,U3,22,~{DRV_EN}_CFG6*%
%TO.N,EN_E*%
X79800000Y-58500000D03*
%TO.P,U3,23,AIN_IREF*%
%TO.N,unconnected-(U3-Pad23)*%
X79800000Y-59000000D03*
%TO.P,U3,24,GNDA*%
%TO.N,GND*%
X79800000Y-59500000D03*
%TO.P,U3,25,5VOUT*%
%TO.N,Net-(C11-Pad2)*%
X79800000Y-60000000D03*
%TO.P,U3,26,VCC*%
%TO.N,Net-(C10-Pad2)*%
X79800000Y-60500000D03*
%TO.P,U3,27,CPO*%
%TO.N,Net-(C7-Pad1)*%
X79800000Y-61000000D03*
%TO.P,U3,28,CPI*%
%TO.N,Net-(C7-Pad2)*%
X79800000Y-61500000D03*
D13*
%TO.P,U3,29,VCP*%
%TO.N,Net-(C6-Pad2)*%
X80500000Y-62200000D03*
%TO.P,U3,30,VSA*%
%TO.N,DC_IN*%
X81000000Y-62200000D03*
%TO.P,U3,31,VS*%
X81500000Y-62200000D03*
%TO.P,U3,32,OA2*%
%TO.N,MOTOR_A2*%
X82000000Y-62200000D03*
%TO.P,U3,33,BRA*%
%TO.N,Net-(C16-Pad1)*%
X82500000Y-62200000D03*
%TO.P,U3,34,OA1*%
%TO.N,MOTOR_A1*%
X83000000Y-62200000D03*
%TO.P,U3,35,GNDP*%
%TO.N,GND*%
X83500000Y-62200000D03*
%TO.P,U3,36,TST_MODE*%
X84000000Y-62200000D03*
D14*
%TO.P,U3,37,EP*%
X82250000Y-59250000D03*
%TD*%
D15*
%TO.P,U10,57,GND*%
%TO.N,GND*%
X101000000Y-51000000D03*
D16*
%TO.P,U10,56,QSPI_SS*%
%TO.N,QSPI_SS*%
X98400000Y-47562500D03*
%TO.P,U10,55,QSPI_SD1*%
%TO.N,QSPI_SD1*%
X98800000Y-47562500D03*
%TO.P,U10,54,QSPI_SD2*%
%TO.N,QSPI_SD2*%
X99200000Y-47562500D03*
%TO.P,U10,53,QSPI_SD0*%
%TO.N,QSPI_SD0*%
X99600000Y-47562500D03*
%TO.P,U10,52,QSPI_SCLK*%
%TO.N,QSPI_SCLK*%
X100000000Y-47562500D03*
%TO.P,U10,51,QSPI_SD3*%
%TO.N,QSPI_SD3*%
X100400000Y-47562500D03*
%TO.P,U10,50,DVDD*%
%TO.N,1V1*%
X100800000Y-47562500D03*
%TO.P,U10,49,IOVDD*%
%TO.N,3V3*%
X101200000Y-47562500D03*
%TO.P,U10,48,USB_VDD*%
X101600000Y-47562500D03*
%TO.P,U10,47,USB_DP*%
%TO.N,USB_P*%
X102000000Y-47562500D03*
%TO.P,U10,46,USB_DM*%
%TO.N,USB_N*%
X102400000Y-47562500D03*
%TO.P,U10,45,VREG_VOUT*%
%TO.N,1V1*%
X102800000Y-47562500D03*
%TO.P,U10,44,VREG_IN*%
%TO.N,3V3*%
X103200000Y-47562500D03*
%TO.P,U10,43,ADC_AVDD*%
%TO.N,AVDD*%
X103600000Y-47562500D03*
D17*
%TO.P,U10,42,IOVDD*%
%TO.N,3V3*%
X104437500Y-48400000D03*
%TO.P,U10,41,GPIO29_ADC3*%
%TO.N,TH_0*%
X104437500Y-48800000D03*
%TO.P,U10,40,GPIO28_ADC2*%
%TO.N,unconnected-(U10-Pad40)*%
X104437500Y-49200000D03*
%TO.P,U10,39,GPIO27_ADC1*%
%TO.N,unconnected-(U10-Pad39)*%
X104437500Y-49600000D03*
%TO.P,U10,38,GPIO26_ADC0*%
%TO.N,unconnected-(U10-Pad38)*%
X104437500Y-50000000D03*
%TO.P,U10,37,GPIO25*%
%TO.N,unconnected-(U10-Pad37)*%
X104437500Y-50400000D03*
%TO.P,U10,36,GPIO24*%
%TO.N,unconnected-(U10-Pad36)*%
X104437500Y-50800000D03*
%TO.P,U10,35,GPIO23*%
%TO.N,unconnected-(U10-Pad35)*%
X104437500Y-51200000D03*
%TO.P,U10,34,GPIO22*%
%TO.N,unconnected-(U10-Pad34)*%
X104437500Y-51600000D03*
%TO.P,U10,33,IOVDD*%
%TO.N,3V3*%
X104437500Y-52000000D03*
%TO.P,U10,32,GPIO21*%
%TO.N,unconnected-(U10-Pad32)*%
X104437500Y-52400000D03*
%TO.P,U10,31,GPIO20*%
%TO.N,unconnected-(U10-Pad31)*%
X104437500Y-52800000D03*
%TO.P,U10,30,GPIO19*%
%TO.N,unconnected-(U10-Pad30)*%
X104437500Y-53200000D03*
%TO.P,U10,29,GPIO18*%
%TO.N,RUNOUT*%
X104437500Y-53600000D03*
D16*
%TO.P,U10,28,GPIO17*%
%TO.N,RGB*%
X103600000Y-54437500D03*
%TO.P,U10,27,GPIO16*%
%TO.N,CS_ADXL*%
X103200000Y-54437500D03*
%TO.P,U10,26,RUN*%
%TO.N,RUN*%
X102800000Y-54437500D03*
%TO.P,U10,25,SWD*%
%TO.N,SWDIO*%
X102400000Y-54437500D03*
%TO.P,U10,24,SWCLK*%
%TO.N,SWCLK*%
X102000000Y-54437500D03*
%TO.P,U10,23,DVDD*%
%TO.N,1V1*%
X101600000Y-54437500D03*
%TO.P,U10,22,IOVDD*%
%TO.N,3V3*%
X101200000Y-54437500D03*
%TO.P,U10,21,XOUT*%
%TO.N,Net-(R28-Pad2)*%
X100800000Y-54437500D03*
%TO.P,U10,20,XIN*%
%TO.N,Net-(C47-Pad2)*%
X100400000Y-54437500D03*
%TO.P,U10,19,TESTEN*%
%TO.N,GND*%
X100000000Y-54437500D03*
%TO.P,U10,18,GPIO15*%
%TO.N,CS_MAX*%
X99600000Y-54437500D03*
%TO.P,U10,17,GPIO14*%
%TO.N,HOT_0*%
X99200000Y-54437500D03*
%TO.P,U10,16,GPIO13*%
%TO.N,SERVO*%
X98800000Y-54437500D03*
%TO.P,U10,15,GPIO12*%
%TO.N,PROBE*%
X98400000Y-54437500D03*
D17*
%TO.P,U10,14,GPIO11*%
%TO.N,FAN_1*%
X97562500Y-53600000D03*
%TO.P,U10,13,GPIO10*%
%TO.N,FAN_0*%
X97562500Y-53200000D03*
%TO.P,U10,12,GPIO9*%
%TO.N,CS_E*%
X97562500Y-52800000D03*
%TO.P,U10,11,GPIO8*%
%TO.N,SCK*%
X97562500Y-52400000D03*
%TO.P,U10,10,IOVDD*%
%TO.N,3V3*%
X97562500Y-52000000D03*
%TO.P,U10,9,GPIO7*%
%TO.N,MOSI*%
X97562500Y-51600000D03*
%TO.P,U10,8,GPIO6*%
%TO.N,MISO*%
X97562500Y-51200000D03*
%TO.P,U10,7,GPIO5*%
%TO.N,DIAG1_E*%
X97562500Y-50800000D03*
%TO.P,U10,6,GPIO4*%
%TO.N,STEP_E*%
X97562500Y-50400000D03*
%TO.P,U10,5,GPIO3*%
%TO.N,DIR_E*%
X97562500Y-50000000D03*
%TO.P,U10,4,GPIO2*%
%TO.N,EN_E*%
X97562500Y-49600000D03*
%TO.P,U10,3,GPIO1*%
%TO.N,CAN_RX*%
X97562500Y-49200000D03*
%TO.P,U10,2,GPIO0*%
%TO.N,CAN_TX*%
X97562500Y-48800000D03*
%TO.P,U10,1,IOVDD*%
%TO.N,3V3*%
X97562500Y-48400000D03*
%TD*%
D18*
%TO.P,F1,1*%
%TO.N,VBUS*%
X114050000Y-43450000D03*
%TO.P,F1,2*%
%TO.N,Net-(C20-Pad2)*%
X112450000Y-48550000D03*
%TD*%
D19*
%TO.P,C39,1*%
%TO.N,GND*%
X108025000Y-50500000D03*
%TO.P,C39,2*%
%TO.N,3V3*%
X106475000Y-50500000D03*
%TD*%
D20*
%TO.P,R34,1*%
%TO.N,MISO*%
X101250000Y-67075000D03*
%TO.P,R34,2*%
%TO.N,3V3*%
X101250000Y-65425000D03*
%TD*%
D21*
%TO.P,C35,1*%
%TO.N,GND*%
X107000000Y-43725000D03*
%TO.P,C35,2*%
%TO.N,1V1*%
X107000000Y-45275000D03*
%TD*%
D22*
%TO.P,J14,1,1*%
%TO.N,GND*%
X101250000Y-69250000D03*
%TO.P,J14,2,2*%
%TO.N,5V*%
X101250000Y-70500000D03*
%TO.P,J14,3,3*%
%TO.N,SERVO*%
X101250000Y-71750000D03*
%TO.P,J14,4,4*%
%TO.N,GND*%
X101250000Y-73000000D03*
%TO.P,J14,5,5*%
%TO.N,PROBE*%
X101250000Y-74250000D03*
%TD*%
D23*
%TO.P,J6,1,Pin_1*%
%TO.N,Net-(J6-Pad1)*%
X90000000Y-72250000D03*
%TO.P,J6,2,Pin_2*%
%TO.N,DC_IN*%
X93500000Y-72250000D03*
%TD*%
D24*
%TO.P,SW1,1*%
%TO.N,GND*%
X89690000Y-56555000D03*
%TO.P,SW1,2*%
%TO.N,CAN_OUT*%
X89690000Y-57825000D03*
%TO.P,SW1,3*%
%TO.N,GND*%
X89690000Y-59095000D03*
%TO.P,SW1,4*%
%TO.N,3V3*%
X89690000Y-60365000D03*
%TO.P,SW1,5*%
%TO.N,4300R*%
X89690000Y-61635000D03*
%TO.P,SW1,6*%
%TO.N,430R*%
X89690000Y-62905000D03*
%TO.P,SW1,7*%
%TO.N,FORCE_N*%
X89690000Y-64175000D03*
%TO.P,SW1,8*%
%TO.N,FORCE_P*%
X89690000Y-65445000D03*
%TO.P,SW1,9*%
%TO.N,RTDIN_P*%
X97310000Y-65445000D03*
%TO.P,SW1,10*%
%TO.N,RTDIN_N*%
X97310000Y-64175000D03*
%TO.P,SW1,11*%
%TO.N,ISENSOR*%
X97310000Y-62905000D03*
%TO.P,SW1,12*%
X97310000Y-61635000D03*
%TO.P,SW1,13*%
%TO.N,THO_IN*%
X97310000Y-60365000D03*
%TO.P,SW1,14*%
%TO.N,BOOT_IN*%
X97310000Y-59095000D03*
%TO.P,SW1,15*%
%TO.N,CAN_P*%
X97310000Y-57825000D03*
%TO.P,SW1,16*%
%TO.N,RUN*%
X97310000Y-56555000D03*
%TD*%
D20*
%TO.P,R28,1*%
%TO.N,Net-(C48-Pad2)*%
X99000000Y-58325000D03*
%TO.P,R28,2*%
%TO.N,Net-(R28-Pad2)*%
X99000000Y-56675000D03*
%TD*%
D25*
%TO.P,D5,1,K*%
%TO.N,USB_5V*%
X114250000Y-51350000D03*
%TO.P,D5,2,A*%
%TO.N,Net-(C20-Pad2)*%
X114250000Y-54150000D03*
%TD*%
D21*
%TO.P,C36,1*%
%TO.N,GND*%
X108500000Y-43725000D03*
%TO.P,C36,2*%
%TO.N,1V1*%
X108500000Y-45275000D03*
%TD*%
D26*
%TO.P,C12,1*%
%TO.N,DC_IN*%
X79250000Y-43550000D03*
%TO.P,C12,2*%
%TO.N,GND*%
X79250000Y-51950000D03*
%TD*%
D20*
%TO.P,R32,1*%
%TO.N,SCK*%
X107250000Y-70075000D03*
%TO.P,R32,2*%
%TO.N,3V3*%
X107250000Y-68425000D03*
%TD*%
D27*
%TO.P,R16,1*%
%TO.N,3V3*%
X95250000Y-43675000D03*
%TO.P,R16,2*%
%TO.N,QSPI_SS*%
X95250000Y-45325000D03*
%TD*%
D19*
%TO.P,C40,1*%
%TO.N,GND*%
X108025000Y-52000000D03*
%TO.P,C40,2*%
%TO.N,3V3*%
X106475000Y-52000000D03*
%TD*%
D22*
%TO.P,J16,1,1*%
%TO.N,3V3*%
X110500000Y-74250000D03*
%TO.P,J16,2,2*%
%TO.N,GND*%
X109250000Y-74250000D03*
%TO.P,J16,3,3*%
%TO.N,RUNOUT*%
X108000000Y-74250000D03*
%TD*%
%TO.P,J13,1,1*%
%TO.N,5V*%
X105000000Y-72000000D03*
%TO.P,J13,2,2*%
%TO.N,GND*%
X105000000Y-73250000D03*
%TO.P,J13,3,3*%
%TO.N,RGB*%
X105000000Y-74500000D03*
%TD*%
D27*
%TO.P,R29,1*%
%TO.N,RUN*%
X104250000Y-60675000D03*
%TO.P,R29,2*%
%TO.N,3V3*%
X104250000Y-62325000D03*
%TD*%
D28*
%TO.P,C29,1*%
%TO.N,GND*%
X98250000Y-45275000D03*
%TO.P,C29,2*%
%TO.N,3V3*%
X98250000Y-43725000D03*
%TD*%
D29*
%TO.P,J9,A1/B12,GND*%
%TO.N,GND*%
X104950000Y-39887500D03*
%TO.P,J9,A4/B9,VBUS*%
%TO.N,VBUS*%
X104150000Y-39887500D03*
D30*
%TO.P,J9,A5,CC1*%
%TO.N,Net-(J9-PadA5)*%
X103000000Y-39887500D03*
%TO.P,J9,A6,DP1*%
%TO.N,DP*%
X102000000Y-39887500D03*
%TO.P,J9,A7,DN1*%
%TO.N,DN*%
X101500000Y-39887500D03*
%TO.P,J9,A8,SBU1*%
%TO.N,unconnected-(J9-PadA8)*%
X100500000Y-39887500D03*
D29*
%TO.P,J9,B1/A12,GND*%
%TO.N,GND*%
X98550000Y-39887500D03*
%TO.P,J9,B4/A9,VBUS*%
%TO.N,VBUS*%
X99350000Y-39887500D03*
D30*
%TO.P,J9,B5,CC2*%
%TO.N,Net-(J9-PadB5)*%
X100000000Y-39887500D03*
%TO.P,J9,B6,DP2*%
%TO.N,DP*%
X101000000Y-39887500D03*
%TO.P,J9,B7,DN2*%
%TO.N,DN*%
X102500000Y-39887500D03*
%TO.P,J9,B8,SBU2*%
%TO.N,unconnected-(J9-PadB8)*%
X103500000Y-39887500D03*
D31*
%TO.P,J9,S1,GND*%
%TO.N,GND*%
X106860000Y-39312500D03*
%TO.P,J9,S2,GND*%
X96640000Y-39312500D03*
%TO.P,J9,S3,GND*%
X106860000Y-35382500D03*
%TO.P,J9,S4,GND*%
X96640000Y-35382500D03*
%TD*%
D32*
%TO.P,U1,1,TXD*%
%TO.N,CAN_TX*%
X86595000Y-52975000D03*
%TO.P,U1,2,GND*%
%TO.N,GND*%
X87865000Y-52975000D03*
%TO.P,U1,3,VCC*%
%TO.N,5V*%
X89135000Y-52975000D03*
%TO.P,U1,4,RXD*%
%TO.N,CAN_RX*%
X90405000Y-52975000D03*
%TO.P,U1,5,VREF*%
%TO.N,Net-(C2-Pad2)*%
X90405000Y-48025000D03*
%TO.P,U1,6,CANL*%
%TO.N,CAN_N*%
X89135000Y-48025000D03*
%TO.P,U1,7,CANH*%
%TO.N,CAN_P*%
X87865000Y-48025000D03*
%TO.P,U1,8,S*%
%TO.N,GND*%
X86595000Y-48025000D03*
%TD*%
D33*
%TO.P,J5,1,1*%
%TO.N,Net-(C15-Pad2)*%
X113250000Y-67000000D03*
%TO.P,J5,2,2*%
%TO.N,Net-(D3-Pad2)*%
X110750000Y-67000000D03*
%TD*%
D19*
%TO.P,C38,1*%
%TO.N,GND*%
X108025000Y-49000000D03*
%TO.P,C38,2*%
%TO.N,3V3*%
X106475000Y-49000000D03*
%TD*%
D34*
%TO.P,U7,1,I/O1*%
%TO.N,DN*%
X103200000Y-43112500D03*
%TO.P,U7,2,GND*%
%TO.N,GND*%
X102250000Y-43112500D03*
%TO.P,U7,3,I/O2*%
%TO.N,DP*%
X101300000Y-43112500D03*
%TO.P,U7,4,I/O2*%
%TO.N,Net-(R23-Pad1)*%
X101300000Y-45387500D03*
%TO.P,U7,5,VBUS*%
%TO.N,VBUS*%
X102250000Y-45387500D03*
%TO.P,U7,6,I/O1*%
%TO.N,Net-(R18-Pad2)*%
X103200000Y-45387500D03*
%TD*%
D33*
%TO.P,J2,1,1*%
%TO.N,Net-(C15-Pad2)*%
X113250000Y-59000000D03*
%TO.P,J2,2,2*%
%TO.N,Net-(D1-Pad2)*%
X110750000Y-59000000D03*
%TD*%
D35*
%TO.P,Y1,1,1*%
%TO.N,Net-(C47-Pad2)*%
X103100000Y-56650000D03*
%TO.P,Y1,2,2*%
%TO.N,GND*%
X100900000Y-56650000D03*
%TO.P,Y1,3,3*%
%TO.N,Net-(C48-Pad2)*%
X100900000Y-58350000D03*
%TO.P,Y1,4,4*%
%TO.N,GND*%
X103100000Y-58350000D03*
%TD*%
D28*
%TO.P,C51,1*%
%TO.N,GND*%
X102750000Y-62275000D03*
%TO.P,C51,2*%
%TO.N,RUN*%
X102750000Y-60725000D03*
%TD*%
D21*
%TO.P,C37,1*%
%TO.N,GND*%
X110000000Y-43725000D03*
%TO.P,C37,2*%
%TO.N,1V1*%
X110000000Y-45275000D03*
%TD*%
D36*
%TO.P,L4,1,1*%
%TO.N,3V3*%
X108037500Y-47500000D03*
%TO.P,L4,2,2*%
%TO.N,AVDD*%
X106462500Y-47500000D03*
%TD*%
D33*
%TO.P,J17,1,1*%
%TO.N,GND*%
X83250000Y-72750000D03*
%TO.P,J17,2,2*%
%TO.N,Net-(J17-Pad2)*%
X85750000Y-72750000D03*
%TD*%
D28*
%TO.P,C20,1*%
%TO.N,GND*%
X112250000Y-52775000D03*
%TO.P,C20,2*%
%TO.N,Net-(C20-Pad2)*%
X112250000Y-51225000D03*
%TD*%
D21*
%TO.P,C53,1*%
%TO.N,3V3*%
X107250000Y-65475000D03*
%TO.P,C53,2*%
%TO.N,GND*%
X107250000Y-67025000D03*
%TD*%
D19*
%TO.P,C41,1*%
%TO.N,GND*%
X108025000Y-53500000D03*
%TO.P,C41,2*%
%TO.N,3V3*%
X106475000Y-53500000D03*
%TD*%
D37*
%TO.P,J4,1,Pin_1*%
%TO.N,DC_IN*%
X108725000Y-62500000D03*
D38*
%TO.P,J4,2,Pin_2*%
%TO.N,Net-(C15-Pad2)*%
X111265000Y-62500000D03*
%TO.P,J4,3,Pin_3*%
%TO.N,5V*%
X113805000Y-62500000D03*
%TD*%
D20*
%TO.P,R3,1*%
%TO.N,3V3*%
X92500000Y-45825000D03*
%TO.P,R3,2*%
%TO.N,Net-(C2-Pad2)*%
X92500000Y-44175000D03*
%TD*%
D33*
%TO.P,J8,1,1*%
%TO.N,MOTOR_A2*%
X76750000Y-56500000D03*
%TO.P,J8,2,2*%
%TO.N,MOTOR_A1*%
X76750000Y-59000000D03*
%TO.P,J8,3,3*%
%TO.N,Net-(J8-Pad3)*%
X76750000Y-61500000D03*
%TO.P,J8,4,4*%
%TO.N,Net-(J8-Pad4)*%
X76750000Y-64000000D03*
%TD*%
D39*
%TO.P,Q3,1,S*%
%TO.N,GND*%
X81415000Y-64840000D03*
%TO.P,Q3,2,S*%
X81415000Y-66110000D03*
%TO.P,Q3,3,S*%
X81415000Y-67390000D03*
%TO.P,Q3,4,G*%
%TO.N,Net-(Q3-Pad4)*%
X81415000Y-68660000D03*
D40*
%TO.P,Q3,5,D*%
%TO.N,Net-(J6-Pad1)*%
X84685000Y-66750000D03*
%TD*%
D22*
%TO.P,J12,1,1*%
%TO.N,FORCE_P*%
X97500000Y-70875000D03*
%TO.P,J12,2,2*%
%TO.N,RTDIN_P*%
X97500000Y-72125000D03*
%TO.P,J12,3,3*%
%TO.N,RTDIN_N*%
X97500000Y-73375000D03*
%TO.P,J12,4,4*%
%TO.N,FORCE_N*%
X97500000Y-74625000D03*
%TD*%
D37*
%TO.P,J11,1,Pin_1*%
%TO.N,USB_5V*%
X92750000Y-53275000D03*
D38*
%TO.P,J11,2,Pin_2*%
%TO.N,5V*%
X92750000Y-50735000D03*
%TO.P,J11,3,Pin_3*%
%TO.N,DC_5V*%
X92750000Y-48195000D03*
%TD*%
D27*
%TO.P,R23,1*%
%TO.N,Net-(R23-Pad1)*%
X99750000Y-43675000D03*
%TO.P,R23,2*%
%TO.N,USB_P*%
X99750000Y-45325000D03*
%TD*%
D41*
%TO.P,C54,1*%
%TO.N,GND*%
X104725000Y-64000000D03*
%TO.P,C54,2*%
%TO.N,3V3*%
X106275000Y-64000000D03*
%TD*%
D42*
%TO.P,R35,1*%
%TO.N,CS_ADXL*%
X102825000Y-64000000D03*
%TO.P,R35,2*%
%TO.N,3V3*%
X101175000Y-64000000D03*
%TD*%
D21*
%TO.P,C27,1*%
%TO.N,3V3*%
X96750000Y-43725000D03*
%TO.P,C27,2*%
%TO.N,GND*%
X96750000Y-45275000D03*
%TD*%
D20*
%TO.P,R18,1*%
%TO.N,USB_N*%
X104750000Y-45325000D03*
%TO.P,R18,2*%
%TO.N,Net-(R18-Pad2)*%
X104750000Y-43675000D03*
%TD*%
D43*
%TO.P,J7,1,Pin_1*%
%TO.N,DC_IN*%
X87000000Y-40585000D03*
D44*
%TO.P,J7,2,Pin_2*%
%TO.N,GND*%
X90000000Y-40585000D03*
%TO.P,J7,3,Pin_3*%
%TO.N,CAN_P*%
X87000000Y-43585000D03*
%TO.P,J7,4,Pin_4*%
%TO.N,CAN_N*%
X90000000Y-43585000D03*
%TD*%
D45*
%TO.N,GND*%
X77495479Y-65664490D03*
X100250000Y-53553500D03*
X93500000Y-40500000D03*
X110750000Y-52750000D03*
X94000000Y-69500000D03*
X90695245Y-56634407D03*
X95000000Y-47000000D03*
X85250000Y-51328500D03*
X86250000Y-45250000D03*
X107750000Y-46500000D03*
X103250000Y-50000000D03*
X104648586Y-63203500D03*
X105250000Y-59371500D03*
X104571500Y-67970792D03*
X77667052Y-67091990D03*
X80954130Y-72250000D03*
X92000000Y-73500000D03*
X80500000Y-67500000D03*
X112250000Y-68250000D03*
X103750000Y-63500000D03*
X106000000Y-58333616D03*
X113250000Y-55500000D03*
X110000000Y-42500000D03*
X114250000Y-41750000D03*
X107500000Y-37500000D03*
X102250000Y-41750000D03*
X76750000Y-36000000D03*
%TO.N,3V3*%
X95000000Y-59000000D03*
X82500000Y-70250000D03*
X91196500Y-59928500D03*
X109250000Y-53500000D03*
X106343016Y-69458688D03*
%TO.N,CS_MAX*%
X91750000Y-60578500D03*
X98533223Y-53466979D03*
%TO.N,FAN_0*%
X96736906Y-54446500D03*
%TO.N,HOT_0*%
X98393300Y-55820875D03*
%TO.N,BOOT_IN*%
X104250000Y-59250000D03*
X109750000Y-54196500D03*
%TO.N,CAN_P*%
X91446498Y-54046500D03*
X95033764Y-58033764D03*
%TO.N,Net-(C6-Pad2)*%
X80000000Y-63500000D03*
X90943417Y-60753720D03*
%TO.N,MOSI*%
X87184035Y-56934036D03*
%TO.N,FORCE_P*%
X91335374Y-67914626D03*
%TO.N,3V3*%
X86250000Y-62250000D03*
%TO.N,SERVO*%
X106250000Y-61796500D03*
X97760456Y-55303500D03*
%TO.N,PROBE*%
X95902685Y-58001986D03*
%TO.N,SCK*%
X102500000Y-75000000D03*
X85750000Y-60553500D03*
X85750000Y-63000000D03*
%TO.N,430R*%
X91928977Y-62097294D03*
%TO.N,FORCE_N*%
X90750000Y-66500000D03*
%TO.N,430R*%
X101500000Y-61250000D03*
%TO.N,4300R*%
X99304167Y-64700933D03*
X93750000Y-60303500D03*
%TO.N,MISO*%
X99082857Y-63027098D03*
X84921500Y-55653386D03*
X95635292Y-56750000D03*
X92908508Y-60159726D03*
%TO.N,MOSI*%
X91750000Y-67250000D03*
X99500000Y-67250000D03*
%TO.N,THO_IN*%
X90068990Y-67431010D03*
%TO.N,HOT_0*%
X82500000Y-66750000D03*
%TO.N,Net-(Q2-Pad1)*%
X110000000Y-68250000D03*
X113250000Y-65000000D03*
%TO.N,FAN_1*%
X110000000Y-64246500D03*
%TO.N,3V3*%
X85536780Y-56734237D03*
%TO.N,DC_IN*%
X87118403Y-61671903D03*
%TO.N,Net-(C7-Pad2)*%
X82581498Y-64733822D03*
X79500000Y-64196500D03*
%TO.N,Net-(C7-Pad1)*%
X78553500Y-64000000D03*
%TO.N,Net-(C10-Pad2)*%
X84750000Y-49250000D03*
X77271452Y-62542905D03*
%TO.N,Net-(C11-Pad2)*%
X85250000Y-52250000D03*
X77179209Y-60288022D03*
%TO.N,5V*%
X78500000Y-65500000D03*
X77500000Y-72250000D03*
%TO.N,Net-(J8-Pad3)*%
X83750000Y-54849161D03*
%TO.N,Net-(J8-Pad4)*%
X82250000Y-55000000D03*
%TO.N,Net-(C17-Pad1)*%
X84750000Y-53000000D03*
%TO.N,Net-(C16-Pad1)*%
X93875996Y-57625995D03*
X85000000Y-63246500D03*
%TO.N,MOTOR_A1*%
X85000000Y-62107000D03*
%TO.N,MOTOR_A2*%
X82000000Y-63246500D03*
%TO.N,TH_0*%
X87072673Y-63935860D03*
X105500000Y-49250000D03*
%TO.N,EN_E*%
X79000000Y-58553500D03*
X98686817Y-51809074D03*
%TO.N,DIR_E*%
X94750000Y-50750000D03*
%TO.N,DIAG1_E*%
X78963220Y-57765763D03*
X93607477Y-54608367D03*
%TO.N,DIR_E*%
X86090280Y-57500000D03*
%TO.N,STEP_E*%
X98540383Y-51028500D03*
X85871472Y-58614634D03*
%TO.N,FAN_1*%
X97500000Y-54000000D03*
%TO.N,Net-(C2-Pad2)*%
X91462500Y-45212500D03*
X91750000Y-49898500D03*
%TO.N,GND*%
X92750000Y-37500000D03*
X93930064Y-39046500D03*
%TO.N,CAN_N*%
X85609592Y-54049143D03*
X88500000Y-49250000D03*
%TO.N,DC_IN*%
X90500000Y-69500000D03*
%TO.N,3V3*%
X104250000Y-61528500D03*
X98250000Y-41750000D03*
X99500000Y-70500000D03*
X100750000Y-63000000D03*
X109500000Y-46750000D03*
X102227918Y-68522082D03*
%TO.N,Net-(C19-Pad2)*%
X92000000Y-35000000D03*
X95000000Y-35500000D03*
X91016384Y-37516384D03*
X83750000Y-35000000D03*
%TO.N,Net-(C20-Pad2)*%
X111500000Y-51250000D03*
%TO.N,Net-(C23-Pad2)*%
X89750000Y-38000000D03*
X91250000Y-40000000D03*
X83500000Y-35750000D03*
%TO.N,1V1*%
X101783970Y-53464823D03*
X101046500Y-48500000D03*
X102646500Y-48446500D03*
%TO.N,Net-(C47-Pad2)*%
X101802812Y-55644376D03*
X99346500Y-55825423D03*
X104750000Y-57000000D03*
%TO.N,Net-(C48-Pad2)*%
X99883459Y-59248111D03*
%TO.N,RTDIN_P*%
X95090897Y-68159103D03*
%TO.N,RTDIN_N*%
X94250000Y-68000000D03*
%TO.N,RUN*%
X96332603Y-55881068D03*
X102789633Y-55556865D03*
X101250000Y-60500000D03*
%TO.N,USB_5V*%
X114250000Y-52750000D03*
X94003479Y-53250000D03*
%TO.N,Net-(J9-PadB5)*%
X100211784Y-38880575D03*
%TO.N,Net-(J9-PadA5)*%
X103750000Y-38453500D03*
%TO.N,FORCE_P*%
X97525968Y-66474032D03*
%TO.N,FORCE_N*%
X93513735Y-67733349D03*
%TO.N,RUNOUT*%
X109000000Y-68500000D03*
X109958232Y-72695695D03*
%TO.N,Net-(Q3-Pad4)*%
X80953630Y-69693839D03*
%TO.N,FAN_0*%
X106500000Y-55303000D03*
%TO.N,QSPI_SS*%
X97635643Y-47203500D03*
X94722528Y-51698486D03*
X94500000Y-46250000D03*
X98946498Y-49601500D03*
%TO.N,MOSI_2*%
X104504521Y-70495479D03*
%TO.N,CS_ADXL*%
X103750000Y-64500000D03*
%TO.N,ISENSOR*%
X98557331Y-64990445D03*
%TO.N,QSPI_SD1*%
X96758192Y-46975424D03*
%TO.N,QSPI_SD2*%
X96141384Y-46358616D03*
%TO.N,QSPI_SD0*%
X99682339Y-46178500D03*
%TO.N,QSPI_SCLK*%
X100337945Y-46662055D03*
%TO.N,QSPI_SD3*%
X99500000Y-48500500D03*
%TO.N,CAN_OUT*%
X88500000Y-57750000D03*
%TD*%
D46*
%TO.N,GND*%
X77495479Y-65664490D02*
X77495479Y-66920417D01*
X77495479Y-66920417D02*
X77667052Y-67091990D01*
X90000000Y-40585000D02*
X88465000Y-42120000D01*
X88465000Y-42120000D02*
X88465000Y-48696000D01*
%TO.N,SCK*%
X102700521Y-71049479D02*
X105799479Y-71049479D01*
X105799479Y-71006962D02*
X105799479Y-71049479D01*
X105799479Y-71049479D02*
X106275521Y-71049479D01*
X104500000Y-69500000D02*
X104500000Y-69707483D01*
X104500000Y-69707483D02*
X105799479Y-71006962D01*
X102500000Y-75000000D02*
X102500000Y-71250000D01*
X102500000Y-71250000D02*
X102700521Y-71049479D01*
X106275521Y-71049479D02*
X107250000Y-70075000D01*
%TO.N,3V3*%
X107250000Y-68425000D02*
X107250000Y-68551704D01*
X107250000Y-68551704D02*
X106343016Y-69458688D01*
X107250000Y-68425000D02*
X107250000Y-68242463D01*
X107250000Y-68242463D02*
X108025000Y-67467463D01*
X108025000Y-67467463D02*
X108025000Y-66250000D01*
%TO.N,RGB*%
X105000000Y-74500000D02*
X108202562Y-71297438D01*
X108202562Y-71297438D02*
X108202562Y-67855586D01*
X108202562Y-67855586D02*
X108425000Y-67633147D01*
X108425000Y-67633147D02*
X108425000Y-66084315D01*
X108425000Y-66084315D02*
X108202562Y-65861877D01*
X108202562Y-65861877D02*
X108202562Y-64927562D01*
X108202562Y-64927562D02*
X107025000Y-63750000D01*
X107025000Y-63750000D02*
X107025000Y-57862500D01*
X107025000Y-57862500D02*
X103600000Y-54437500D01*
%TO.N,Net-(C47-Pad2)*%
X101802812Y-55644376D02*
X102094376Y-55644376D01*
X102094376Y-55644376D02*
X103100000Y-56650000D01*
%TO.N,1V1*%
X101783970Y-53464823D02*
X101600000Y-53648793D01*
X101600000Y-53648793D02*
X101600000Y-54437500D01*
%TO.N,3V3*%
X104437500Y-52000000D02*
X103800000Y-52000000D01*
X103800000Y-52000000D02*
X102900000Y-52900000D01*
X102900000Y-52900000D02*
X101566025Y-52900000D01*
X101566025Y-52900000D02*
X101196000Y-53270025D01*
%TO.N,GND*%
X100000000Y-53803500D02*
X100250000Y-53553500D01*
X100000000Y-54437500D02*
X100000000Y-53803500D01*
%TO.N,CS_MAX*%
X99161954Y-53466979D02*
X99600000Y-53905025D01*
X98533223Y-53466979D02*
X99161954Y-53466979D01*
X99600000Y-53905025D02*
X99600000Y-54437500D01*
%TO.N,HOT_0*%
X99200000Y-55135661D02*
X99200000Y-54437500D01*
X98514786Y-55820875D02*
X99200000Y-55135661D01*
X98393300Y-55820875D02*
X98514786Y-55820875D01*
%TO.N,GND*%
X93500000Y-40500000D02*
X93500000Y-39476564D01*
X93500000Y-39476564D02*
X93930064Y-39046500D01*
X101250000Y-73000000D02*
X102100000Y-72150000D01*
X102100000Y-70100000D02*
X101250000Y-69250000D01*
X102100000Y-72150000D02*
X102100000Y-70100000D01*
%TO.N,Net-(C47-Pad2)*%
X99346500Y-55825423D02*
X99346500Y-55737815D01*
X99346500Y-55737815D02*
X99734315Y-55350000D01*
X99734315Y-55350000D02*
X100400000Y-55350000D01*
X100400000Y-55350000D02*
X100400000Y-54437500D01*
%TO.N,Net-(R28-Pad2)*%
X99000000Y-56675000D02*
X99825000Y-56675000D01*
X99825000Y-56675000D02*
X99900000Y-56600000D01*
X99900000Y-56600000D02*
X99900000Y-55750000D01*
X99900000Y-55750000D02*
X101000000Y-55750000D01*
X101250000Y-55500000D02*
X100800000Y-55050000D01*
X101000000Y-55750000D02*
X101250000Y-55500000D01*
X100800000Y-55050000D02*
X100800000Y-54437500D01*
%TO.N,GND*%
X85055592Y-54278618D02*
X85263487Y-54486513D01*
X85263487Y-54486513D02*
X85380117Y-54603143D01*
X84000000Y-56300000D02*
X84000000Y-55750000D01*
X84000000Y-55750000D02*
X85263487Y-54486513D01*
%TO.N,MISO*%
X85918134Y-55168134D02*
X85406752Y-55168134D01*
X85406752Y-55168134D02*
X84921500Y-55653386D01*
%TO.N,GND*%
X90615838Y-56555000D02*
X90695245Y-56634407D01*
X89690000Y-56555000D02*
X90615838Y-56555000D01*
%TO.N,CS_E*%
X85782975Y-61304000D02*
X85441652Y-61304000D01*
X85441652Y-61304000D02*
X85137652Y-61000000D01*
X85137652Y-61000000D02*
X84700000Y-61000000D01*
X88590000Y-56876525D02*
X87946000Y-57520525D01*
X88590000Y-55875000D02*
X88590000Y-56876525D01*
X87946000Y-59140975D02*
X85782975Y-61304000D01*
X92802944Y-56500000D02*
X92177943Y-55875000D01*
X94365217Y-56500000D02*
X92802944Y-56500000D01*
X87946000Y-57520525D02*
X87946000Y-59140975D01*
X96666526Y-52800000D02*
X96156979Y-53309547D01*
X96156979Y-54708238D02*
X94365217Y-56500000D01*
X92177943Y-55875000D02*
X88590000Y-55875000D01*
X96156979Y-53309547D02*
X96156979Y-54708238D01*
X97562500Y-52800000D02*
X96666526Y-52800000D01*
%TO.N,SCK*%
X85750000Y-60553500D02*
X85935557Y-60553500D01*
X88190000Y-56710839D02*
X88190000Y-55709315D01*
X88190000Y-55709315D02*
X88424315Y-55475000D01*
X88424315Y-55475000D02*
X92343628Y-55475000D01*
X92343628Y-55475000D02*
X92968629Y-56100000D01*
X85935557Y-60553500D02*
X87546000Y-58943057D01*
X87546000Y-58943057D02*
X87546000Y-57354839D01*
X87546000Y-57354839D02*
X88190000Y-56710839D01*
X92968629Y-56100000D02*
X94199531Y-56100000D01*
X94199531Y-56100000D02*
X95756979Y-54542552D01*
X95756979Y-54542552D02*
X95756979Y-53143861D01*
X95756979Y-53143861D02*
X96500840Y-52400000D01*
X96500840Y-52400000D02*
X97562500Y-52400000D01*
%TO.N,MOSI*%
X87450000Y-56700000D02*
X87450000Y-55883630D01*
X87450000Y-55883630D02*
X88258630Y-55075000D01*
X88258630Y-55075000D02*
X92509314Y-55075000D01*
X92509314Y-55075000D02*
X93134314Y-55700000D01*
X96735154Y-51600000D02*
X97562500Y-51600000D01*
X93134314Y-55700000D02*
X94033845Y-55700000D01*
X94033845Y-55700000D02*
X95356979Y-54376866D01*
X95356979Y-54376866D02*
X95356979Y-52978175D01*
X95356979Y-52978175D02*
X96735154Y-51600000D01*
%TO.N,MISO*%
X97562500Y-51200000D02*
X96569468Y-51200000D01*
X96569468Y-51200000D02*
X94956979Y-52812489D01*
X94956979Y-52812489D02*
X94956979Y-54211180D01*
X94956979Y-54211180D02*
X93868159Y-55300000D01*
X93868159Y-55300000D02*
X93300000Y-55300000D01*
X93300000Y-55300000D02*
X92675000Y-54675000D01*
X92675000Y-54675000D02*
X86411268Y-54675000D01*
X86411268Y-54675000D02*
X85918134Y-55168134D01*
%TO.N,GND*%
X96750000Y-45275000D02*
X96100000Y-44625000D01*
X94767893Y-44625000D02*
X93946000Y-45446893D01*
X93946000Y-46696000D02*
X94250000Y-47000000D01*
X96100000Y-44625000D02*
X94767893Y-44625000D01*
X93946000Y-45446893D02*
X93946000Y-46696000D01*
X94250000Y-47000000D02*
X95000000Y-47000000D01*
%TO.N,QSPI_SD1*%
X96758192Y-46975424D02*
X96758192Y-46741808D01*
X96758192Y-46741808D02*
X96850000Y-46650000D01*
X98800000Y-46800000D02*
X98800000Y-47562500D01*
X96850000Y-46650000D02*
X98650000Y-46650000D01*
X98650000Y-46650000D02*
X98800000Y-46800000D01*
%TO.N,QSPI_SD2*%
X96141384Y-46358616D02*
X96250000Y-46250000D01*
X99000000Y-46250000D02*
X99200000Y-46450000D01*
X96250000Y-46250000D02*
X99000000Y-46250000D01*
X99200000Y-46450000D02*
X99200000Y-47562500D01*
%TO.N,QSPI_SS*%
X94500000Y-46250000D02*
X95250000Y-45500000D01*
X95250000Y-45500000D02*
X95250000Y-45325000D01*
%TO.N,GND*%
X86270582Y-54250000D02*
X87250000Y-54250000D01*
X85380117Y-54603143D02*
X85917439Y-54603143D01*
X85917439Y-54603143D02*
X86270582Y-54250000D01*
X85055592Y-53819668D02*
X85055592Y-54278618D01*
X85804000Y-53071260D02*
X85055592Y-53819668D01*
X85804000Y-51882500D02*
X85804000Y-53071260D01*
X85250000Y-51328500D02*
X85804000Y-51882500D01*
X87250000Y-54250000D02*
X87865000Y-53635000D01*
X87865000Y-53635000D02*
X87865000Y-52975000D01*
X87000000Y-42000000D02*
X88585000Y-42000000D01*
X85950000Y-44950000D02*
X85950000Y-43050000D01*
X88585000Y-42000000D02*
X90000000Y-40585000D01*
X86250000Y-45250000D02*
X85950000Y-44950000D01*
X85950000Y-43050000D02*
X87000000Y-42000000D01*
X110296462Y-46196000D02*
X108054000Y-46196000D01*
X110775000Y-45717462D02*
X110296462Y-46196000D01*
X110775000Y-45000000D02*
X110775000Y-45717462D01*
X108054000Y-46196000D02*
X107750000Y-46500000D01*
X110750000Y-44475000D02*
X110750000Y-44500000D01*
X110000000Y-43725000D02*
X110750000Y-44475000D01*
X110750000Y-44500000D02*
X110775000Y-44525000D01*
X110775000Y-44525000D02*
X110775000Y-45000000D01*
X102250000Y-51000000D02*
X103250000Y-50000000D01*
X101000000Y-51000000D02*
X102250000Y-51000000D01*
X104648586Y-63203500D02*
X104046500Y-63203500D01*
X104046500Y-63203500D02*
X103750000Y-63500000D01*
X103750000Y-63500000D02*
X103987500Y-63262500D01*
X105250000Y-59083616D02*
X106000000Y-58333616D01*
X105250000Y-59371500D02*
X105250000Y-59083616D01*
%TO.N,CS_ADXL*%
X103200000Y-54437500D02*
X103200000Y-54969975D01*
X103200000Y-54969975D02*
X104480025Y-56250000D01*
X104480025Y-56250000D02*
X104783475Y-56250000D01*
X104783475Y-56250000D02*
X106625000Y-58091525D01*
X106625000Y-59625000D02*
X106325000Y-59925000D01*
X106325000Y-59925000D02*
X101041525Y-59925000D01*
X101041525Y-59925000D02*
X100696000Y-60270525D01*
X102282538Y-63025000D02*
X102775000Y-63025000D01*
X102775000Y-63025000D02*
X102825000Y-63075000D01*
X102825000Y-63075000D02*
X102825000Y-64000000D01*
X106625000Y-58091525D02*
X106625000Y-59625000D01*
X100696000Y-60270525D02*
X100696000Y-61438462D01*
X100696000Y-61438462D02*
X102282538Y-63025000D01*
%TO.N,GND*%
X106000000Y-58333616D02*
X105983616Y-58350000D01*
X105983616Y-58350000D02*
X103100000Y-58350000D01*
%TO.N,BOOT_IN*%
X104250000Y-59250000D02*
X100665045Y-59250000D01*
X100665045Y-59250000D02*
X99915045Y-60000000D01*
X99915045Y-60000000D02*
X98725000Y-60000000D01*
X98725000Y-60000000D02*
X97820000Y-59095000D01*
X97820000Y-59095000D02*
X97310000Y-59095000D01*
%TO.N,GND*%
X104500708Y-67900000D02*
X104571500Y-67970792D01*
X103500000Y-67900000D02*
X104500708Y-67900000D01*
X80954130Y-72250000D02*
X81454130Y-72750000D01*
X81454130Y-72750000D02*
X83250000Y-72750000D01*
X80610000Y-67390000D02*
X80500000Y-67500000D01*
X81415000Y-67390000D02*
X80610000Y-67390000D01*
X112250000Y-68250000D02*
X112250000Y-71250000D01*
X112250000Y-71250000D02*
X109250000Y-74250000D01*
X103000000Y-62275000D02*
X103987500Y-63262500D01*
X103987500Y-63262500D02*
X104725000Y-64000000D01*
X102750000Y-62275000D02*
X103000000Y-62275000D01*
X103100000Y-58350000D02*
X103000000Y-58350000D01*
X103000000Y-58350000D02*
X101300000Y-56650000D01*
X101300000Y-56650000D02*
X100900000Y-56650000D01*
X114250000Y-38500000D02*
X113000000Y-37250000D01*
X114250000Y-41750000D02*
X114250000Y-38500000D01*
X113000000Y-37250000D02*
X107750000Y-37250000D01*
X107750000Y-37250000D02*
X107500000Y-37500000D01*
X106860000Y-38140000D02*
X107500000Y-37500000D01*
X106860000Y-39312500D02*
X106860000Y-38140000D01*
X102250000Y-43112500D02*
X102250000Y-41750000D01*
D47*
%TO.N,DN*%
X102500000Y-39887500D02*
X102500000Y-40664900D01*
X102500000Y-40664900D02*
X102573800Y-40738700D01*
X102573800Y-40738700D02*
X103250000Y-40738700D01*
X103250000Y-40738700D02*
X103250000Y-43062500D01*
X103250000Y-43062500D02*
X103200000Y-43112500D01*
%TO.N,CAN_P*%
X95750000Y-58750000D02*
X95965000Y-58750000D01*
X95033764Y-58033764D02*
X95750000Y-58750000D01*
X95965000Y-58750000D02*
X96890000Y-57825000D01*
X96890000Y-57825000D02*
X97310000Y-57825000D01*
D46*
%TO.N,PROBE*%
X95778956Y-55651946D02*
X96103481Y-55327421D01*
X98087500Y-54750000D02*
X98400000Y-54437500D01*
X95902685Y-58001986D02*
X96210000Y-57694671D01*
X95778956Y-56110189D02*
X95778956Y-55651946D01*
X96210000Y-57694671D02*
X96210000Y-56541233D01*
X96210000Y-56541233D02*
X95778956Y-56110189D01*
X96103481Y-55327421D02*
X96922579Y-55327421D01*
X96922579Y-55327421D02*
X97500000Y-54750000D01*
X97500000Y-54750000D02*
X98087500Y-54750000D01*
%TO.N,3V3*%
X91196500Y-59928500D02*
X90126500Y-59928500D01*
X90126500Y-59928500D02*
X89690000Y-60365000D01*
X108475000Y-54275000D02*
X109250000Y-53500000D01*
X107250000Y-54275000D02*
X108475000Y-54275000D01*
X106475000Y-53500000D02*
X107250000Y-54275000D01*
X106343016Y-69458688D02*
X105541312Y-69458688D01*
X105541312Y-69458688D02*
X105500000Y-69500000D01*
%TO.N,GND*%
X105500000Y-68700000D02*
X105811396Y-68700000D01*
X105811396Y-68700000D02*
X106275000Y-68236396D01*
X106275000Y-68236396D02*
X106275000Y-67275000D01*
X106275000Y-67275000D02*
X106100000Y-67100000D01*
X106100000Y-67100000D02*
X105500000Y-67100000D01*
%TO.N,3V3*%
X107250000Y-68175000D02*
X107317462Y-68175000D01*
X108025000Y-66250000D02*
X107250000Y-65475000D01*
%TO.N,FAN_0*%
X96736906Y-54446500D02*
X96736906Y-53493119D01*
X96736906Y-53493119D02*
X97030025Y-53200000D01*
X97030025Y-53200000D02*
X97562500Y-53200000D01*
%TO.N,DIAG1_E*%
X93607477Y-54608367D02*
X93994106Y-54608367D01*
X93994106Y-54608367D02*
X94556979Y-54045494D01*
X94556979Y-54045494D02*
X94556979Y-52646803D01*
X94556979Y-52646803D02*
X96403782Y-50800000D01*
X96403782Y-50800000D02*
X97562500Y-50800000D01*
%TO.N,RUN*%
X96332603Y-55881068D02*
X96636068Y-55881068D01*
X96636068Y-55881068D02*
X97310000Y-56555000D01*
%TO.N,MISO*%
X95635292Y-56750000D02*
X95385292Y-57000000D01*
X95385292Y-57000000D02*
X93716525Y-57000000D01*
X93716525Y-57000000D02*
X92908508Y-57808017D01*
X92908508Y-57808017D02*
X92908508Y-60159726D01*
%TO.N,BOOT_IN*%
X97278800Y-59126200D02*
X97310000Y-59095000D01*
%TO.N,SERVO*%
X98594975Y-55175000D02*
X98800000Y-54969975D01*
X98205025Y-55175000D02*
X98594975Y-55175000D01*
X98180025Y-55150000D02*
X98205025Y-55175000D01*
X97913956Y-55150000D02*
X98180025Y-55150000D01*
X97760456Y-55303500D02*
X97913956Y-55150000D01*
X98800000Y-54969975D02*
X98800000Y-54437500D01*
%TO.N,FAN_1*%
X97500000Y-54000000D02*
X97500000Y-53662500D01*
X97500000Y-53662500D02*
X97562500Y-53600000D01*
%TO.N,Net-(C48-Pad2)*%
X99883459Y-59248111D02*
X100001889Y-59248111D01*
X100001889Y-59248111D02*
X100900000Y-58350000D01*
%TO.N,USB_5V*%
X94003479Y-53250000D02*
X92775000Y-53250000D01*
X92775000Y-53250000D02*
X92750000Y-53275000D01*
%TO.N,Net-(C6-Pad2)*%
X80500000Y-63000000D02*
X80000000Y-63500000D01*
X80500000Y-62200000D02*
X80500000Y-63000000D01*
%TO.N,Net-(C7-Pad2)*%
X79250000Y-62050000D02*
X79800000Y-61500000D01*
X79500000Y-64196500D02*
X79250000Y-63946500D01*
X79250000Y-63946500D02*
X79250000Y-62050000D01*
%TO.N,4300R*%
X89690000Y-61635000D02*
X89781706Y-61543294D01*
X89781706Y-61543294D02*
X91849465Y-61543294D01*
X91849465Y-61543294D02*
X92679033Y-60713726D01*
X92679033Y-60713726D02*
X93339774Y-60713726D01*
X93339774Y-60713726D02*
X93750000Y-60303500D01*
%TO.N,430R*%
X91121271Y-62905000D02*
X89690000Y-62905000D01*
X91928977Y-62097294D02*
X91121271Y-62905000D01*
%TO.N,MOSI*%
X87450000Y-56885153D02*
X87450000Y-56700000D01*
X87450000Y-56700000D02*
X87418071Y-56700000D01*
X87418071Y-56700000D02*
X87184035Y-56934036D01*
%TO.N,MISO*%
X84700000Y-59500000D02*
X85769581Y-59500000D01*
X85769581Y-59500000D02*
X86644280Y-58625301D01*
X86644280Y-58625301D02*
X86644280Y-57270525D01*
X86644280Y-57270525D02*
X86319755Y-56946000D01*
X86090780Y-55340780D02*
X85918134Y-55168134D01*
X86319755Y-56946000D02*
X86137738Y-56946000D01*
X86137738Y-56946000D02*
X86090780Y-56899042D01*
X86090780Y-56899042D02*
X86090780Y-55340780D01*
%TO.N,MOSI*%
X84700000Y-60000000D02*
X85923371Y-60000000D01*
X85923371Y-60000000D02*
X87146000Y-58777371D01*
X87146000Y-58777371D02*
X87146000Y-57189153D01*
X87146000Y-57189153D02*
X87450000Y-56885153D01*
D47*
%TO.N,FORCE_P*%
X89690000Y-66269252D02*
X91335374Y-67914626D01*
X89690000Y-65445000D02*
X89690000Y-66269252D01*
D46*
%TO.N,THO_IN*%
X90068990Y-67431010D02*
X91387980Y-68750000D01*
X91387980Y-68750000D02*
X91713609Y-68750000D01*
X91713609Y-68750000D02*
X96210000Y-64253609D01*
X96210000Y-64253609D02*
X96210000Y-60955000D01*
X96210000Y-60955000D02*
X96800000Y-60365000D01*
X96800000Y-60365000D02*
X97310000Y-60365000D01*
D47*
%TO.N,FORCE_N*%
X89690000Y-64175000D02*
X89325000Y-64175000D01*
X88661400Y-66772529D02*
X91138871Y-69250000D01*
X89325000Y-64175000D02*
X88661400Y-64838600D01*
X88661400Y-64838600D02*
X88661400Y-66772529D01*
X91138871Y-69250000D02*
X93250000Y-69250000D01*
X93250000Y-69250000D02*
X93513735Y-68986265D01*
X93513735Y-68986265D02*
X93513735Y-67733349D01*
D46*
%TO.N,3V3*%
X86250000Y-61756831D02*
X86250000Y-62250000D01*
X87641831Y-60365000D02*
X86250000Y-61756831D01*
X89690000Y-60365000D02*
X87641831Y-60365000D01*
%TO.N,SCK*%
X85750000Y-60553500D02*
X85696500Y-60500000D01*
X85696500Y-60500000D02*
X84700000Y-60500000D01*
%TO.N,STEP_E*%
X85486106Y-59000000D02*
X84700000Y-59000000D01*
X85871472Y-58614634D02*
X85486106Y-59000000D01*
%TO.N,DIR_E*%
X85203338Y-58500000D02*
X84700000Y-58500000D01*
X85936780Y-57653500D02*
X85936780Y-57766558D01*
X85936780Y-57766558D02*
X85203338Y-58500000D01*
X86090280Y-57500000D02*
X85936780Y-57653500D01*
%TO.N,3V3*%
X85536780Y-56734237D02*
X85536780Y-57600872D01*
X85536780Y-57600872D02*
X85137652Y-58000000D01*
X85137652Y-58000000D02*
X84700000Y-58000000D01*
D48*
%TO.N,DC_IN*%
X81000000Y-63250000D02*
X81700000Y-63950000D01*
X81700000Y-63950000D02*
X86300000Y-63950000D01*
X86300000Y-63950000D02*
X86368673Y-63881327D01*
X86368673Y-63881327D02*
X86368673Y-63644253D01*
X86368673Y-63644253D02*
X86781066Y-63231860D01*
X86781066Y-63231860D02*
X86981860Y-63231860D01*
D47*
%TO.N,FORCE_N*%
X90750000Y-64815000D02*
X90750000Y-66500000D01*
X90110000Y-64175000D02*
X90750000Y-64815000D01*
X89690000Y-64175000D02*
X90110000Y-64175000D01*
D46*
%TO.N,430R*%
X90110000Y-62905000D02*
X89690000Y-62905000D01*
D48*
%TO.N,DC_IN*%
X86981860Y-63231860D02*
X87364280Y-63231860D01*
X87364280Y-63231860D02*
X88110000Y-63977580D01*
X88110000Y-63977580D02*
X88110000Y-67602284D01*
X88110000Y-67602284D02*
X90007716Y-69500000D01*
X90007716Y-69500000D02*
X90500000Y-69500000D01*
D46*
%TO.N,MISO*%
X99722902Y-63027098D02*
X99082857Y-63027098D01*
X100304000Y-62446000D02*
X99722902Y-63027098D01*
X101137852Y-62446000D02*
X100304000Y-62446000D01*
X102025000Y-63333148D02*
X101137852Y-62446000D01*
X102025000Y-66475000D02*
X102025000Y-63333148D01*
X102000000Y-66500000D02*
X102025000Y-66475000D01*
X101425000Y-67075000D02*
X102000000Y-66500000D01*
X101250000Y-67075000D02*
X101425000Y-67075000D01*
%TO.N,3V3*%
X100750000Y-63000000D02*
X101175000Y-63425000D01*
X101175000Y-63425000D02*
X101175000Y-64000000D01*
%TO.N,GND*%
X81415000Y-66110000D02*
X81415000Y-67390000D01*
X81415000Y-64840000D02*
X81415000Y-66110000D01*
%TO.N,3V3*%
X97562500Y-52000000D02*
X98094268Y-52000000D01*
X98094268Y-52000000D02*
X98457342Y-52363074D01*
X98979475Y-52696000D02*
X99283475Y-53000000D01*
X98457342Y-52363074D02*
X98863074Y-52363074D01*
X99283475Y-53000000D02*
X100925975Y-53000000D01*
X98863074Y-52363074D02*
X98979475Y-52479475D01*
X98979475Y-52479475D02*
X98979475Y-52696000D01*
X100925975Y-53000000D02*
X101196000Y-53270025D01*
%TO.N,EN_E*%
X98750000Y-51750000D02*
X99094383Y-51405617D01*
X98745891Y-51750000D02*
X98750000Y-51750000D01*
X98686817Y-51809074D02*
X98745891Y-51750000D01*
X99094383Y-50599408D02*
X98094975Y-49600000D01*
X99094383Y-51405617D02*
X99094383Y-50599408D01*
X98094975Y-49600000D02*
X97562500Y-49600000D01*
%TO.N,Net-(C15-Pad2)*%
X113250000Y-67000000D02*
X111265000Y-65015000D01*
X111265000Y-65015000D02*
X111265000Y-62500000D01*
%TO.N,Net-(C17-Pad1)*%
X84750000Y-53000000D02*
X84500000Y-53000000D01*
X82804000Y-54696000D02*
X82804000Y-55229475D01*
X84500000Y-53000000D02*
X82804000Y-54696000D01*
X82804000Y-55229475D02*
X82500000Y-55533475D01*
X82500000Y-55533475D02*
X82500000Y-56300000D01*
D48*
%TO.N,DC_IN*%
X87118403Y-61671903D02*
X86981860Y-61808446D01*
X86981860Y-61808446D02*
X86981860Y-63231860D01*
D46*
%TO.N,MOTOR_A1*%
X84212652Y-62925000D02*
X83287348Y-62925000D01*
X85000000Y-62107000D02*
X85000000Y-62137652D01*
X85000000Y-62137652D02*
X84212652Y-62925000D01*
X83287348Y-62925000D02*
X83000000Y-62637652D01*
X83000000Y-62637652D02*
X83000000Y-62200000D01*
%TO.N,Net-(C7-Pad1)*%
X79800000Y-61000000D02*
X79000000Y-61000000D01*
X79000000Y-61000000D02*
X78553500Y-61446500D01*
X78553500Y-61446500D02*
X78553500Y-64000000D01*
%TO.N,Net-(C10-Pad2)*%
X79800000Y-60500000D02*
X78500000Y-60500000D01*
X78500000Y-60500000D02*
X77762500Y-61237500D01*
X77762500Y-61237500D02*
X77762500Y-62051857D01*
X77762500Y-62051857D02*
X77271452Y-62542905D01*
%TO.N,GND*%
X84000000Y-56300000D02*
X83500000Y-56300000D01*
X83500000Y-56300000D02*
X83500000Y-58000000D01*
X83500000Y-58000000D02*
X82250000Y-59250000D01*
X83500000Y-62200000D02*
X83500000Y-60500000D01*
X83500000Y-60500000D02*
X82250000Y-59250000D01*
X79800000Y-59500000D02*
X82000000Y-59500000D01*
X82000000Y-59500000D02*
X82250000Y-59250000D01*
%TO.N,Net-(C11-Pad2)*%
X77467231Y-60000000D02*
X77179209Y-60288022D01*
X79800000Y-60000000D02*
X77467231Y-60000000D01*
%TO.N,DIAG1_E*%
X78963220Y-57765763D02*
X79197457Y-58000000D01*
X79197457Y-58000000D02*
X79800000Y-58000000D01*
%TO.N,Net-(J8-Pad3)*%
X83000000Y-55599161D02*
X83750000Y-54849161D01*
X83000000Y-56300000D02*
X83000000Y-55599161D01*
X83750000Y-54750000D02*
X83750000Y-54849161D01*
%TO.N,Net-(J8-Pad4)*%
X82000000Y-55250000D02*
X82250000Y-55000000D01*
X82000000Y-56300000D02*
X82000000Y-55250000D01*
D49*
%TO.N,DC_IN*%
X80500000Y-54756282D02*
X80500000Y-54750000D01*
X81500000Y-55756282D02*
X80500000Y-54756282D01*
X81500000Y-56300000D02*
X81500000Y-55756282D01*
X80500000Y-54750000D02*
X75000000Y-54750000D01*
X75000000Y-54750000D02*
X74750000Y-54500000D01*
D50*
X74750000Y-49000000D02*
X74750000Y-54500000D01*
X74750000Y-54500000D02*
X74750000Y-71650524D01*
D46*
%TO.N,Net-(C16-Pad1)*%
X84921500Y-63325000D02*
X85000000Y-63246500D01*
X83121663Y-63325000D02*
X84921500Y-63325000D01*
X82500000Y-62703337D02*
X83121663Y-63325000D01*
X82500000Y-62200000D02*
X82500000Y-62703337D01*
%TO.N,GND*%
X84000000Y-62200000D02*
X84700000Y-61500000D01*
X83500000Y-62200000D02*
X84000000Y-62200000D01*
%TO.N,MOTOR_A2*%
X82000000Y-63246500D02*
X82000000Y-62200000D01*
D49*
%TO.N,DC_IN*%
X81500000Y-62750000D02*
X81500000Y-62200000D01*
X81000000Y-63250000D02*
X81000000Y-62200000D01*
X81000000Y-63250000D02*
X81500000Y-62750000D01*
D46*
%TO.N,TH_0*%
X105050000Y-48800000D02*
X105500000Y-49250000D01*
X104437500Y-48800000D02*
X105050000Y-48800000D01*
%TO.N,EN_E*%
X79000000Y-58553500D02*
X79746500Y-58553500D01*
X79746500Y-58553500D02*
X79800000Y-58500000D01*
%TO.N,STEP_E*%
X98094975Y-50400000D02*
X97562500Y-50400000D01*
X98540383Y-51028500D02*
X98540383Y-50845408D01*
X98540383Y-50845408D02*
X98094975Y-50400000D01*
%TO.N,3V3*%
X101750000Y-49000000D02*
X101696000Y-49054000D01*
X101696000Y-49054000D02*
X99196000Y-49054000D01*
X99196000Y-49054000D02*
X98542000Y-48400000D01*
X98542000Y-48400000D02*
X97562500Y-48400000D01*
%TO.N,DIR_E*%
X95100000Y-50400000D02*
X94750000Y-50750000D01*
X96630025Y-50400000D02*
X95100000Y-50400000D01*
X97030025Y-50000000D02*
X96630025Y-50400000D01*
X97562500Y-50000000D02*
X97030025Y-50000000D01*
%TO.N,CAN_RX*%
X97562500Y-49200000D02*
X97000000Y-49200000D01*
X95500000Y-49750000D02*
X94500000Y-49750000D01*
X97000000Y-49200000D02*
X96455000Y-49745000D01*
X96455000Y-49745000D02*
X95505000Y-49745000D01*
X95505000Y-49745000D02*
X95500000Y-49750000D01*
X94500000Y-49750000D02*
X94000000Y-50250000D01*
X94000000Y-50250000D02*
X94000000Y-51250000D01*
X94000000Y-51250000D02*
X93125000Y-52125000D01*
X91255000Y-52125000D02*
X90405000Y-52975000D01*
X93125000Y-52125000D02*
X91255000Y-52125000D01*
%TO.N,CAN_OUT*%
X88500000Y-57750000D02*
X89195000Y-57750000D01*
X89195000Y-57750000D02*
X89270000Y-57825000D01*
X89270000Y-57825000D02*
X89690000Y-57825000D01*
%TO.N,Net-(C2-Pad2)*%
X90405000Y-46270000D02*
X91462500Y-45212500D01*
X91462500Y-45212500D02*
X92500000Y-44175000D01*
%TO.N,GND*%
X97975000Y-39312500D02*
X98550000Y-39887500D01*
X93796500Y-39046500D02*
X93930064Y-39046500D01*
X105500000Y-67100000D02*
X105500000Y-66300000D01*
X104230698Y-67480698D02*
X103811396Y-67900000D01*
X104950000Y-39887500D02*
X106285000Y-39887500D01*
X103811396Y-67900000D02*
X103500000Y-67900000D01*
X106285000Y-39887500D02*
X106860000Y-39312500D01*
X96640000Y-39312500D02*
X97975000Y-39312500D01*
X92750000Y-37500000D02*
X93750000Y-38500000D01*
X93750000Y-38500000D02*
X93750000Y-39000000D01*
X104611396Y-67100000D02*
X104230698Y-67480698D01*
X93750000Y-39000000D02*
X93796500Y-39046500D01*
X105500000Y-67100000D02*
X104611396Y-67100000D01*
D51*
%TO.N,5V*%
X90807330Y-50735000D02*
X89135000Y-52407330D01*
X89135000Y-52975000D02*
X89135000Y-53900000D01*
X89135000Y-52407330D02*
X89135000Y-52975000D01*
X92750000Y-50735000D02*
X90807330Y-50735000D01*
D46*
%TO.N,Net-(C2-Pad2)*%
X90405000Y-48025000D02*
X90405000Y-46270000D01*
D47*
%TO.N,CAN_P*%
X87865000Y-48025000D02*
X87865000Y-48425333D01*
X87000000Y-43585000D02*
X87865000Y-44450000D01*
X87865000Y-44450000D02*
X87865000Y-48025000D01*
%TO.N,CAN_N*%
X89135000Y-44450000D02*
X89135000Y-48025000D01*
X89135000Y-48865000D02*
X89135000Y-48025000D01*
X90000000Y-43585000D02*
X89135000Y-44450000D01*
X89135000Y-47885000D02*
X89135000Y-47525000D01*
X89135000Y-48025000D02*
X89135000Y-48365000D01*
D50*
%TO.N,DC_IN*%
X77968476Y-74869000D02*
X93000000Y-74869000D01*
X84500000Y-40750000D02*
X84500000Y-44750000D01*
X87000000Y-40585000D02*
X84665000Y-40585000D01*
X93500000Y-74369000D02*
X93500000Y-72250000D01*
X76750000Y-47000000D02*
X74750000Y-49000000D01*
X84665000Y-40585000D02*
X84500000Y-40750000D01*
X79250000Y-47000000D02*
X76750000Y-47000000D01*
X74750000Y-71650524D02*
X77968476Y-74869000D01*
X84500000Y-44750000D02*
X82250000Y-47000000D01*
X82250000Y-47000000D02*
X79250000Y-47000000D01*
X79250000Y-47000000D02*
X79250000Y-43550000D01*
X93000000Y-74869000D02*
X93500000Y-74369000D01*
D46*
%TO.N,3V3*%
X96750000Y-43725000D02*
X95300000Y-43725000D01*
X101196000Y-53270025D02*
X101196000Y-53746000D01*
X101196000Y-53746000D02*
X101200000Y-53750000D01*
X94650000Y-43675000D02*
X92500000Y-45825000D01*
X103500000Y-48500000D02*
X103750000Y-48500000D01*
X108037500Y-47500000D02*
X107975000Y-47500000D01*
X101250000Y-65425000D02*
X100475000Y-66200000D01*
X103200000Y-48200000D02*
X103500000Y-48500000D01*
X103750000Y-48500000D02*
X103850000Y-48400000D01*
X106275000Y-64000000D02*
X104600000Y-62325000D01*
X105525000Y-65475000D02*
X105500000Y-65500000D01*
X100475000Y-67482107D02*
X101242893Y-68250000D01*
X105500000Y-65500000D02*
X105500000Y-64775000D01*
X95075000Y-48400000D02*
X97650000Y-48400000D01*
X106475000Y-50500000D02*
X106475000Y-52000000D01*
X106475000Y-49000000D02*
X106537500Y-49000000D01*
X105875000Y-48400000D02*
X104437500Y-48400000D01*
X101250000Y-64075000D02*
X101175000Y-64000000D01*
X95300000Y-43725000D02*
X95250000Y-43675000D01*
X107250000Y-65475000D02*
X105525000Y-65475000D01*
X103000000Y-49000000D02*
X101750000Y-49000000D01*
X103200000Y-48800000D02*
X103000000Y-49000000D01*
X98250000Y-41750000D02*
X98250000Y-43725000D01*
X106475000Y-52000000D02*
X106475000Y-53500000D01*
X105500000Y-64775000D02*
X106275000Y-64000000D01*
X101600000Y-48850000D02*
X101600000Y-47562500D01*
X92500000Y-45825000D02*
X95075000Y-48400000D01*
X108750000Y-47500000D02*
X109500000Y-46750000D01*
X101200000Y-53750000D02*
X101200000Y-54437500D01*
X108037500Y-47500000D02*
X108750000Y-47500000D01*
X101750000Y-49000000D02*
X101600000Y-48850000D01*
X103850000Y-48400000D02*
X104437500Y-48400000D01*
X101955836Y-68250000D02*
X102227918Y-68522082D01*
X106475000Y-49000000D02*
X106475000Y-50500000D01*
X104600000Y-62325000D02*
X104250000Y-62325000D01*
X106537500Y-49000000D02*
X108037500Y-47500000D01*
X106475000Y-49000000D02*
X105875000Y-48400000D01*
X104250000Y-61528500D02*
X104250000Y-62325000D01*
X101200000Y-47562500D02*
X101600000Y-47562500D01*
X106475000Y-52000000D02*
X104437500Y-52000000D01*
X103200000Y-48200000D02*
X103200000Y-48800000D01*
X101250000Y-65425000D02*
X101250000Y-64075000D01*
X103200000Y-47562500D02*
X103200000Y-48200000D01*
X101242893Y-68250000D02*
X101955836Y-68250000D01*
X95250000Y-43675000D02*
X94650000Y-43675000D01*
X100475000Y-66200000D02*
X100475000Y-67482107D01*
X98250000Y-43725000D02*
X96750000Y-43725000D01*
%TO.N,Net-(C19-Pad2)*%
X91016384Y-37733616D02*
X90196000Y-38554000D01*
X90196000Y-38554000D02*
X87304000Y-38554000D01*
X92000000Y-35000000D02*
X94500000Y-35000000D01*
X94500000Y-35000000D02*
X95000000Y-35500000D01*
X91016384Y-37516384D02*
X91016384Y-37733616D01*
X87304000Y-38554000D02*
X83750000Y-35000000D01*
%TO.N,Net-(C20-Pad2)*%
X111500000Y-51250000D02*
X112225000Y-51250000D01*
X112225000Y-51250000D02*
X112250000Y-51225000D01*
X114250000Y-54150000D02*
X114250000Y-53557538D01*
X112250000Y-51557538D02*
X112250000Y-51225000D01*
X114250000Y-53557538D02*
X112250000Y-51557538D01*
X113925000Y-54150000D02*
X114250000Y-54150000D01*
X112450000Y-48550000D02*
X112450000Y-51025000D01*
X112450000Y-51025000D02*
X112250000Y-51225000D01*
%TO.N,1V1*%
X100800000Y-48253500D02*
X100800000Y-47562500D01*
X108500000Y-45275000D02*
X107000000Y-45275000D01*
X101046500Y-48500000D02*
X100800000Y-48253500D01*
X102800000Y-48293000D02*
X102646500Y-48446500D01*
X105525000Y-46750000D02*
X103000000Y-46750000D01*
X102800000Y-46950000D02*
X102800000Y-47562500D01*
X103000000Y-46750000D02*
X102800000Y-46950000D01*
X107000000Y-45275000D02*
X105525000Y-46750000D01*
X110000000Y-45275000D02*
X108500000Y-45275000D01*
X102800000Y-47562500D02*
X102800000Y-48293000D01*
%TO.N,Net-(C47-Pad2)*%
X103450000Y-57000000D02*
X103100000Y-56650000D01*
X104750000Y-57000000D02*
X103450000Y-57000000D01*
%TO.N,Net-(C48-Pad2)*%
X99025000Y-58350000D02*
X99000000Y-58325000D01*
X100900000Y-58350000D02*
X99025000Y-58350000D01*
D47*
%TO.N,RTDIN_P*%
X96723800Y-69792006D02*
X95090897Y-68159103D01*
X97310000Y-65445000D02*
X97310000Y-65940000D01*
X96723800Y-71348800D02*
X96723800Y-69792006D01*
X97500000Y-72125000D02*
X96723800Y-71348800D01*
X97310000Y-65940000D02*
X95090897Y-68159103D01*
%TO.N,RTDIN_N*%
X97310000Y-64175000D02*
X96890000Y-64175000D01*
X94250000Y-66815000D02*
X94250000Y-68000000D01*
X97500000Y-73375000D02*
X96352400Y-72227400D01*
X96890000Y-64175000D02*
X94250000Y-66815000D01*
X96352400Y-70102400D02*
X94250000Y-68000000D01*
X96352400Y-72227400D02*
X96352400Y-70102400D01*
D46*
%TO.N,RUN*%
X102750000Y-60725000D02*
X104200000Y-60725000D01*
X102800000Y-55546498D02*
X102800000Y-54250000D01*
X102750000Y-60725000D02*
X102525000Y-60500000D01*
X102525000Y-60500000D02*
X101250000Y-60500000D01*
X104200000Y-60725000D02*
X104250000Y-60675000D01*
X102789633Y-55556865D02*
X102800000Y-55546498D01*
%TO.N,USB_5V*%
X114250000Y-52750000D02*
X114250000Y-51350000D01*
%TO.N,VBUS*%
X102250000Y-45387500D02*
X102250000Y-45038604D01*
X100525000Y-41775000D02*
X99350000Y-40600000D01*
X110750000Y-41500000D02*
X110500000Y-41750000D01*
X114050000Y-43450000D02*
X112100000Y-41500000D01*
X103975000Y-40062500D02*
X104150000Y-39887500D01*
X104150000Y-40650000D02*
X104150000Y-39887500D01*
X112100000Y-41500000D02*
X110750000Y-41500000D01*
X102250000Y-45038604D02*
X101636396Y-44425000D01*
X110500000Y-41750000D02*
X105250000Y-41750000D01*
X101636396Y-44425000D02*
X101200000Y-44425000D01*
X103300000Y-44425000D02*
X103975000Y-43750000D01*
X105250000Y-41750000D02*
X104150000Y-40650000D01*
X99350000Y-40600000D02*
X99350000Y-39887500D01*
X101200000Y-44425000D02*
X100525000Y-43750000D01*
X100525000Y-43750000D02*
X100525000Y-41775000D01*
X102250000Y-45038604D02*
X102863604Y-44425000D01*
X103975000Y-43750000D02*
X103975000Y-40062500D01*
X102863604Y-44425000D02*
X103300000Y-44425000D01*
D52*
%TO.N,Net-(J6-Pad1)*%
X84685000Y-66750000D02*
X84685000Y-66935000D01*
X84685000Y-66935000D02*
X90000000Y-72250000D01*
D46*
%TO.N,Net-(J9-PadB5)*%
X100000000Y-39887500D02*
X100000000Y-39092359D01*
X100000000Y-39092359D02*
X100211784Y-38880575D01*
%TO.N,Net-(J9-PadA5)*%
X103000000Y-38925000D02*
X103278500Y-38925000D01*
X103278500Y-38925000D02*
X103750000Y-38453500D01*
X103000000Y-39887500D02*
X103000000Y-38925000D01*
D47*
%TO.N,DN*%
X101500000Y-39160100D02*
X101660100Y-39000000D01*
X103200000Y-42614900D02*
X103200000Y-43112500D01*
X101660100Y-39000000D02*
X102294700Y-39000000D01*
X102294700Y-39000000D02*
X102500000Y-39205300D01*
X101500000Y-39887500D02*
X101500000Y-39160100D01*
X102500000Y-39205300D02*
X102500000Y-39887500D01*
%TO.N,DP*%
X102000000Y-39887500D02*
X102000000Y-40614900D01*
X101300000Y-43112500D02*
X101300000Y-40873800D01*
X101117300Y-40691100D02*
X101000000Y-40573800D01*
X101000000Y-40573800D02*
X101000000Y-39887500D01*
X102000000Y-40614900D02*
X101923800Y-40691100D01*
X101923800Y-40691100D02*
X101117300Y-40691100D01*
X101300000Y-40873800D02*
X101117300Y-40691100D01*
%TO.N,FORCE_P*%
X97500000Y-66500000D02*
X97525968Y-66474032D01*
X97500000Y-70875000D02*
X97500000Y-66500000D01*
%TO.N,FORCE_N*%
X97500000Y-74625000D02*
X96375000Y-74625000D01*
X96000000Y-74250000D02*
X96000000Y-70500000D01*
X93500000Y-68000000D02*
X93500000Y-67747084D01*
X96375000Y-74625000D02*
X96000000Y-74250000D01*
X93500000Y-67747084D02*
X93513735Y-67733349D01*
X96000000Y-70500000D02*
X93500000Y-68000000D01*
D46*
%TO.N,RUNOUT*%
X107500000Y-63500000D02*
X108750000Y-64750000D01*
X104437500Y-53600000D02*
X104437500Y-54709314D01*
X107500000Y-63250000D02*
X107500000Y-63500000D01*
X109000000Y-65000000D02*
X109000000Y-68500000D01*
X109554305Y-72695695D02*
X108000000Y-74250000D01*
X108750000Y-64750000D02*
X109000000Y-65000000D01*
X104437500Y-54709314D02*
X106614093Y-56885907D01*
X107500000Y-57771814D02*
X107500000Y-63250000D01*
X106614093Y-56885907D02*
X107500000Y-57771814D01*
X109958232Y-72695695D02*
X109554305Y-72695695D01*
%TO.N,AVDD*%
X106462500Y-47500000D02*
X103662500Y-47500000D01*
X103662500Y-47500000D02*
X103600000Y-47562500D01*
%TO.N,Net-(Q3-Pad4)*%
X80953630Y-69693839D02*
X80953630Y-69121370D01*
X81317731Y-68562731D02*
X81415000Y-68660000D01*
X80953630Y-69121370D02*
X81415000Y-68660000D01*
%TO.N,QSPI_SS*%
X98041000Y-47203500D02*
X98400000Y-47562500D01*
X97635643Y-47203500D02*
X98041000Y-47203500D01*
D47*
%TO.N,USB_N*%
X103748800Y-46326200D02*
X102673800Y-46326200D01*
X102673800Y-46326200D02*
X102400000Y-46600000D01*
X104750000Y-45325000D02*
X103748800Y-46326200D01*
X102400000Y-46600000D02*
X102400000Y-47562500D01*
X104750000Y-45325000D02*
X104750000Y-45500000D01*
D46*
%TO.N,Net-(R18-Pad2)*%
X103200000Y-45225000D02*
X104750000Y-43675000D01*
X103200000Y-45387500D02*
X103200000Y-45225000D01*
%TO.N,Net-(R23-Pad1)*%
X101300000Y-45225000D02*
X99750000Y-43675000D01*
X99750000Y-43675000D02*
X99750000Y-43837500D01*
X101300000Y-45387500D02*
X101300000Y-45225000D01*
D47*
%TO.N,USB_P*%
X100751200Y-46326200D02*
X101826200Y-46326200D01*
X99750000Y-45325000D02*
X100751200Y-46326200D01*
X102000000Y-46500000D02*
X102000000Y-47562500D01*
X99750000Y-45325000D02*
X99750000Y-45352738D01*
X101826200Y-46326200D02*
X102000000Y-46500000D01*
D46*
%TO.N,MOSI_2*%
X103500000Y-69750000D02*
X103500000Y-69500000D01*
X104245479Y-70495479D02*
X103500000Y-69750000D01*
X104504521Y-70495479D02*
X104245479Y-70495479D01*
%TO.N,MISO*%
X103188604Y-68700000D02*
X101563604Y-67075000D01*
X103500000Y-68700000D02*
X103188604Y-68700000D01*
X101563604Y-67075000D02*
X101250000Y-67075000D01*
%TO.N,CS_ADXL*%
X103111396Y-64000000D02*
X103680698Y-64569302D01*
X103680698Y-64569302D02*
X104500000Y-65388604D01*
X104500000Y-65388604D02*
X104500000Y-65500000D01*
X102825000Y-64000000D02*
X103111396Y-64000000D01*
X103680698Y-64569302D02*
X103750000Y-64500000D01*
%TO.N,ISENSOR*%
X97820000Y-62905000D02*
X98557331Y-63642331D01*
X98557331Y-63642331D02*
X98557331Y-64990445D01*
X97310000Y-62905000D02*
X97820000Y-62905000D01*
X97310000Y-62905000D02*
X97310000Y-61635000D01*
%TO.N,CAN_TX*%
X96289314Y-49345000D02*
X96834314Y-48800000D01*
X96834314Y-48800000D02*
X97562500Y-48800000D01*
X86595000Y-52975000D02*
X86595000Y-52633604D01*
X86595000Y-52633604D02*
X89883604Y-49345000D01*
X89883604Y-49345000D02*
X96289314Y-49345000D01*
X86595000Y-52405000D02*
X86595000Y-52975000D01*
%TO.N,QSPI_SD0*%
X99600000Y-46260839D02*
X99600000Y-47562500D01*
X99682339Y-46178500D02*
X99600000Y-46260839D01*
%TO.N,QSPI_SCLK*%
X100000000Y-47562500D02*
X100000000Y-47000000D01*
X100000000Y-47000000D02*
X100337945Y-46662055D01*
%TO.N,QSPI_SD3*%
X99999500Y-48500500D02*
X100400000Y-48100000D01*
X99500000Y-48500500D02*
X99999500Y-48500500D01*
X100400000Y-48100000D02*
X100400000Y-47562500D01*
%TD*%
%TA.AperFunction,Conductor*%
%TO.N,GND*%
G36*
X100190986Y-63527768D02*
G01*
X100222558Y-63551541D01*
X100232367Y-63561699D01*
X100265298Y-63624597D01*
X100267200Y-63660746D01*
X100266500Y-63668365D01*
X100266501Y-64331634D01*
X100266764Y-64334492D01*
X100266764Y-64334501D01*
X100269898Y-64368612D01*
X100273247Y-64405062D01*
X100273496Y-64405857D01*
X100270056Y-64444866D01*
X100294598Y-64475035D01*
X100298646Y-64486110D01*
X100321465Y-64558924D01*
X100324528Y-64568699D01*
X100394272Y-64683860D01*
X100394798Y-64684729D01*
X100412977Y-64753358D01*
X100394798Y-64815270D01*
X100324528Y-64931301D01*
X100322257Y-64938548D01*
X100322256Y-64938550D01*
X100305809Y-64991032D01*
X100273247Y-65094938D01*
X100266500Y-65168365D01*
X100266501Y-65356614D01*
X100266501Y-65495760D01*
X100246499Y-65563880D01*
X100229596Y-65584855D01*
X100078766Y-65735685D01*
X100066375Y-65746552D01*
X100041013Y-65766013D01*
X100016526Y-65797925D01*
X100016523Y-65797928D01*
X100016517Y-65797936D01*
X99981052Y-65844155D01*
X99943476Y-65893124D01*
X99882162Y-66041149D01*
X99882162Y-66041150D01*
X99880414Y-66054426D01*
X99876236Y-66086165D01*
X99866500Y-66160115D01*
X99866500Y-66160120D01*
X99861250Y-66200000D01*
X99865017Y-66228611D01*
X99865422Y-66231690D01*
X99866500Y-66248136D01*
X99866500Y-66392445D01*
X99846498Y-66460566D01*
X99792842Y-66507059D01*
X99722568Y-66517163D01*
X99698233Y-66511144D01*
X99681853Y-66505311D01*
X99681851Y-66505311D01*
X99675219Y-66502949D01*
X99668231Y-66502116D01*
X99668228Y-66502115D01*
X99552655Y-66488334D01*
X99505357Y-66482694D01*
X99498354Y-66483430D01*
X99498353Y-66483430D01*
X99453958Y-66488096D01*
X99335228Y-66500575D01*
X99325071Y-66504033D01*
X99179956Y-66553434D01*
X99179953Y-66553435D01*
X99173289Y-66555704D01*
X99027588Y-66645340D01*
X99022557Y-66650267D01*
X99022554Y-66650269D01*
X99000935Y-66671440D01*
X98905366Y-66765028D01*
X98901547Y-66770953D01*
X98901546Y-66770955D01*
X98864857Y-66827885D01*
X98812698Y-66908820D01*
X98810287Y-66915443D01*
X98810286Y-66915446D01*
X98756600Y-67062947D01*
X98756599Y-67062952D01*
X98754190Y-67069570D01*
X98732750Y-67239286D01*
X98749443Y-67409536D01*
X98803440Y-67571856D01*
X98807087Y-67577878D01*
X98807088Y-67577880D01*
X98888406Y-67712154D01*
X98888409Y-67712157D01*
X98892056Y-67718180D01*
X99010889Y-67841234D01*
X99154030Y-67934903D01*
X99160634Y-67937359D01*
X99160636Y-67937360D01*
X99307757Y-67992074D01*
X99307759Y-67992074D01*
X99314367Y-67994532D01*
X99393454Y-68005085D01*
X99476949Y-68016226D01*
X99476953Y-68016226D01*
X99483930Y-68017157D01*
X99490941Y-68016519D01*
X99490945Y-68016519D01*
X99647273Y-68002292D01*
X99647275Y-68002292D01*
X99654292Y-68001653D01*
X99660990Y-67999477D01*
X99660993Y-67999476D01*
X99810289Y-67950966D01*
X99810291Y-67950965D01*
X99816985Y-67948790D01*
X99865254Y-67920016D01*
X99894529Y-67902565D01*
X99963284Y-67884865D01*
X100030694Y-67907147D01*
X100040288Y-67915149D01*
X100041013Y-67916094D01*
X100046109Y-67920005D01*
X100046123Y-67920016D01*
X100066379Y-67935559D01*
X100078770Y-67946426D01*
X100778578Y-68646234D01*
X100789445Y-68658625D01*
X100808906Y-68683987D01*
X100815456Y-68689013D01*
X100840814Y-68708471D01*
X100840830Y-68708485D01*
X100882371Y-68740360D01*
X100936017Y-68781524D01*
X101084042Y-68842838D01*
X101177535Y-68855147D01*
X101242461Y-68883868D01*
X101250183Y-68890973D01*
X101520115Y-69160905D01*
X101554141Y-69223217D01*
X101549076Y-69294032D01*
X101520115Y-69339095D01*
X101404078Y-69455132D01*
X101341766Y-69489158D01*
X101301813Y-69491347D01*
X101263205Y-69487289D01*
X101263202Y-69487289D01*
X101257075Y-69486645D01*
X101197028Y-69492110D01*
X101127376Y-69478365D01*
X101096514Y-69455724D01*
X100393121Y-68752331D01*
X100380741Y-68745571D01*
X100374353Y-68750353D01*
X100321997Y-68845586D01*
X100317166Y-68856858D01*
X100261120Y-69033538D01*
X100258570Y-69045532D01*
X100237909Y-69229733D01*
X100237738Y-69242002D01*
X100253248Y-69426705D01*
X100255461Y-69438764D01*
X100306554Y-69616945D01*
X100311066Y-69628342D01*
X100395793Y-69793205D01*
X100404681Y-69806996D01*
X100424770Y-69875092D01*
X100409185Y-69935952D01*
X100349466Y-70044582D01*
X100343004Y-70056336D01*
X100292658Y-70106395D01*
X100223241Y-70121288D01*
X100156792Y-70096287D01*
X100125735Y-70062405D01*
X100105081Y-70029352D01*
X100101348Y-70023378D01*
X100088159Y-70010096D01*
X100017559Y-69939002D01*
X99980809Y-69901994D01*
X99900050Y-69850743D01*
X99842316Y-69814104D01*
X99842313Y-69814102D01*
X99836373Y-69810333D01*
X99827002Y-69806996D01*
X99681854Y-69755311D01*
X99681849Y-69755310D01*
X99675219Y-69752949D01*
X99668231Y-69752116D01*
X99668228Y-69752115D01*
X99552655Y-69738334D01*
X99505357Y-69732694D01*
X99498354Y-69733430D01*
X99498353Y-69733430D01*
X99454787Y-69738009D01*
X99335228Y-69750575D01*
X99325664Y-69753831D01*
X99179956Y-69803434D01*
X99179953Y-69803435D01*
X99173289Y-69805704D01*
X99027588Y-69895340D01*
X99022557Y-69900267D01*
X99022554Y-69900269D01*
X98982795Y-69939204D01*
X98905366Y-70015028D01*
X98901547Y-70020953D01*
X98901546Y-70020955D01*
X98882968Y-70049782D01*
X98812698Y-70158820D01*
X98810287Y-70165443D01*
X98810286Y-70165446D01*
X98756600Y-70312947D01*
X98756599Y-70312952D01*
X98754190Y-70319570D01*
X98732750Y-70489286D01*
X98749443Y-70659536D01*
X98803440Y-70821856D01*
X98807087Y-70827878D01*
X98807088Y-70827880D01*
X98888406Y-70962154D01*
X98888409Y-70962157D01*
X98892056Y-70968180D01*
X99010889Y-71091234D01*
X99033972Y-71106339D01*
X99146585Y-71180031D01*
X99154030Y-71184903D01*
X99160634Y-71187359D01*
X99160636Y-71187360D01*
X99307757Y-71242074D01*
X99307759Y-71242074D01*
X99314367Y-71244532D01*
X99393454Y-71255085D01*
X99476949Y-71266226D01*
X99476953Y-71266226D01*
X99483930Y-71267157D01*
X99490941Y-71266519D01*
X99490945Y-71266519D01*
X99647273Y-71252292D01*
X99647275Y-71252292D01*
X99654292Y-71251653D01*
X99660990Y-71249477D01*
X99660993Y-71249476D01*
X99810289Y-71200966D01*
X99810291Y-71200965D01*
X99816985Y-71198790D01*
X99886644Y-71157265D01*
X99957872Y-71114805D01*
X99957874Y-71114804D01*
X99963924Y-71111197D01*
X100087805Y-70993227D01*
X100094269Y-70983499D01*
X100127817Y-70933004D01*
X100182174Y-70887333D01*
X100252594Y-70878301D01*
X100316718Y-70908774D01*
X100344829Y-70945133D01*
X100398187Y-71048956D01*
X100402013Y-71053783D01*
X100404407Y-71057498D01*
X100424495Y-71125593D01*
X100408910Y-71186452D01*
X100318567Y-71350787D01*
X100316706Y-71356654D01*
X100316705Y-71356656D01*
X100271186Y-71500151D01*
X100258765Y-71539306D01*
X100236719Y-71735851D01*
X100237235Y-71741995D01*
X100246218Y-71848970D01*
X100253268Y-71932934D01*
X100268442Y-71985851D01*
X100304132Y-72110316D01*
X100307783Y-72123050D01*
X100398187Y-72298956D01*
X100402014Y-72303785D01*
X100404717Y-72307979D01*
X100424804Y-72376075D01*
X100409218Y-72436933D01*
X100321998Y-72595585D01*
X100317166Y-72606858D01*
X100261120Y-72783538D01*
X100258570Y-72795532D01*
X100237909Y-72979733D01*
X100237738Y-72992002D01*
X100253248Y-73176705D01*
X100255461Y-73188764D01*
X100306554Y-73366945D01*
X100311066Y-73378342D01*
X100395793Y-73543205D01*
X100404681Y-73556996D01*
X100424770Y-73625092D01*
X100409185Y-73685952D01*
X100318567Y-73850787D01*
X100316706Y-73856654D01*
X100316705Y-73856656D01*
X100271186Y-74000151D01*
X100258765Y-74039306D01*
X100236719Y-74235851D01*
X100237235Y-74241995D01*
X100251365Y-74410267D01*
X100253268Y-74432934D01*
X100266722Y-74479854D01*
X100301463Y-74601009D01*
X100307783Y-74623050D01*
X100398187Y-74798956D01*
X100521035Y-74953953D01*
X100525728Y-74957947D01*
X100525729Y-74957948D01*
X100663315Y-75075042D01*
X100671650Y-75082136D01*
X100844294Y-75178624D01*
X101032392Y-75239740D01*
X101038508Y-75240469D01*
X101044532Y-75241794D01*
X101044237Y-75243137D01*
X101103083Y-75268314D01*
X101142895Y-75327098D01*
X101144607Y-75398074D01*
X101107674Y-75458708D01*
X101043823Y-75489749D01*
X101022890Y-75491500D01*
X98359563Y-75491500D01*
X98291442Y-75471498D01*
X98244949Y-75417842D01*
X98234845Y-75347568D01*
X98264182Y-75283169D01*
X98264339Y-75282988D01*
X98303469Y-75237655D01*
X98324049Y-75213813D01*
X98324050Y-75213811D01*
X98328078Y-75209145D01*
X98425769Y-75037179D01*
X98488197Y-74849513D01*
X98512985Y-74653295D01*
X98513380Y-74625000D01*
X98494080Y-74428167D01*
X98491642Y-74420090D01*
X98442760Y-74258188D01*
X98436916Y-74238831D01*
X98344066Y-74064204D01*
X98344588Y-74063927D01*
X98324801Y-74000151D01*
X98341230Y-73935993D01*
X98422723Y-73792542D01*
X98422725Y-73792537D01*
X98425769Y-73787179D01*
X98488197Y-73599513D01*
X98512985Y-73403295D01*
X98513380Y-73375000D01*
X98494080Y-73178167D01*
X98491374Y-73169202D01*
X98455105Y-73049076D01*
X98436916Y-72988831D01*
X98344066Y-72814204D01*
X98344588Y-72813927D01*
X98324801Y-72750151D01*
X98341230Y-72685993D01*
X98422723Y-72542542D01*
X98422725Y-72542537D01*
X98425769Y-72537179D01*
X98488197Y-72349513D01*
X98512985Y-72153295D01*
X98513380Y-72125000D01*
X98494080Y-71928167D01*
X98436916Y-71738831D01*
X98344066Y-71564204D01*
X98344588Y-71563927D01*
X98324801Y-71500151D01*
X98341230Y-71435993D01*
X98422723Y-71292542D01*
X98422725Y-71292537D01*
X98425769Y-71287179D01*
X98488197Y-71099513D01*
X98512985Y-70903295D01*
X98513380Y-70875000D01*
X98494080Y-70678167D01*
X98436916Y-70488831D01*
X98344066Y-70314204D01*
X98255839Y-70206027D01*
X98222960Y-70165713D01*
X98222957Y-70165710D01*
X98219065Y-70160938D01*
X98209341Y-70152893D01*
X98158938Y-70111197D01*
X98130385Y-70087576D01*
X98090647Y-70028742D01*
X98084700Y-69990491D01*
X98084700Y-67046545D01*
X98104702Y-66978424D01*
X98110928Y-66969968D01*
X98113773Y-66967259D01*
X98208439Y-66824775D01*
X98269186Y-66664858D01*
X98270994Y-66651994D01*
X98292443Y-66499379D01*
X98292443Y-66499376D01*
X98292994Y-66495457D01*
X98293141Y-66484910D01*
X98293238Y-66477994D01*
X98293238Y-66477989D01*
X98293293Y-66474032D01*
X98285260Y-66402418D01*
X98297544Y-66332494D01*
X98349535Y-66278303D01*
X98356705Y-66275615D01*
X98473261Y-66188261D01*
X98560615Y-66071705D01*
X98611745Y-65935316D01*
X98618500Y-65873134D01*
X98618500Y-65863175D01*
X98638502Y-65795054D01*
X98692158Y-65748561D01*
X98711656Y-65742199D01*
X98711623Y-65742098D01*
X98867620Y-65691411D01*
X98867622Y-65691410D01*
X98874316Y-65689235D01*
X98927302Y-65657649D01*
X99015203Y-65605250D01*
X99015205Y-65605249D01*
X99021255Y-65601642D01*
X99133340Y-65494905D01*
X99196465Y-65462413D01*
X99236894Y-65461258D01*
X99261734Y-65464572D01*
X99281117Y-65467159D01*
X99281120Y-65467159D01*
X99288097Y-65468090D01*
X99295108Y-65467452D01*
X99295112Y-65467452D01*
X99451440Y-65453225D01*
X99451442Y-65453225D01*
X99458459Y-65452586D01*
X99465157Y-65450410D01*
X99465160Y-65450409D01*
X99614456Y-65401899D01*
X99614458Y-65401898D01*
X99621152Y-65399723D01*
X99703317Y-65350743D01*
X99762039Y-65315738D01*
X99762041Y-65315737D01*
X99768091Y-65312130D01*
X99891972Y-65194160D01*
X99898153Y-65184858D01*
X99964747Y-65084624D01*
X99986638Y-65051676D01*
X100043497Y-64901994D01*
X100044885Y-64898341D01*
X100044886Y-64898339D01*
X100047385Y-64891759D01*
X100048365Y-64884787D01*
X100070642Y-64726280D01*
X100070642Y-64726277D01*
X100071193Y-64722358D01*
X100071357Y-64710640D01*
X100071437Y-64704895D01*
X100071437Y-64704890D01*
X100071492Y-64700933D01*
X100053197Y-64537834D01*
X100058514Y-64507570D01*
X100038570Y-64486955D01*
X100031150Y-64469845D01*
X99998482Y-64376033D01*
X99998481Y-64376031D01*
X99996166Y-64369383D01*
X99978439Y-64341013D01*
X99909248Y-64230285D01*
X99905515Y-64224311D01*
X99899174Y-64217925D01*
X99789939Y-64107925D01*
X99784976Y-64102927D01*
X99719706Y-64061506D01*
X99646483Y-64015037D01*
X99646480Y-64015035D01*
X99640540Y-64011266D01*
X99633907Y-64008904D01*
X99486021Y-63956244D01*
X99486016Y-63956243D01*
X99479386Y-63953882D01*
X99472400Y-63953049D01*
X99472396Y-63953048D01*
X99461909Y-63951798D01*
X99396636Y-63923871D01*
X99356823Y-63865087D01*
X99355111Y-63794111D01*
X99392043Y-63733477D01*
X99412311Y-63718455D01*
X99455794Y-63692534D01*
X99521494Y-63653369D01*
X99586011Y-63635598D01*
X99674766Y-63635598D01*
X99691209Y-63636676D01*
X99722902Y-63640848D01*
X99731091Y-63639770D01*
X99762776Y-63635599D01*
X99762786Y-63635598D01*
X99762787Y-63635598D01*
X99862359Y-63622489D01*
X99873566Y-63621014D01*
X99873568Y-63621013D01*
X99881753Y-63619936D01*
X100029778Y-63558622D01*
X100036331Y-63553594D01*
X100055216Y-63539103D01*
X100121437Y-63513503D01*
X100190986Y-63527768D01*
G37*
%TD.AperFunction*%
%TA.AperFunction,Conductor*%
G36*
X94061261Y-69395977D02*
G01*
X94091290Y-69418180D01*
X95378395Y-70705285D01*
X95412421Y-70767597D01*
X95415300Y-70794380D01*
X95415300Y-74203422D01*
X95414222Y-74219869D01*
X95410255Y-74250000D01*
X95415300Y-74288319D01*
X95415300Y-74288321D01*
X95430350Y-74402637D01*
X95433509Y-74410264D01*
X95433510Y-74410267D01*
X95445353Y-74438858D01*
X95470679Y-74500000D01*
X95489266Y-74544873D01*
X95523423Y-74589386D01*
X95582987Y-74667013D01*
X95589537Y-74672039D01*
X95589541Y-74672043D01*
X95607109Y-74685523D01*
X95619501Y-74696391D01*
X95928613Y-75005503D01*
X95939480Y-75017894D01*
X95957987Y-75042013D01*
X96014362Y-75085270D01*
X96020715Y-75090145D01*
X96020716Y-75090146D01*
X96071522Y-75129131D01*
X96080127Y-75135734D01*
X96116459Y-75150783D01*
X96188270Y-75180528D01*
X96222363Y-75194650D01*
X96230551Y-75195728D01*
X96336676Y-75209700D01*
X96336681Y-75209700D01*
X96375000Y-75214745D01*
X96383188Y-75213667D01*
X96405133Y-75210778D01*
X96421579Y-75209700D01*
X96615606Y-75209700D01*
X96683727Y-75229702D01*
X96714351Y-75257435D01*
X96734748Y-75283169D01*
X96737971Y-75287236D01*
X96764608Y-75353046D01*
X96751437Y-75422810D01*
X96702640Y-75474379D01*
X96639225Y-75491500D01*
X94465250Y-75491500D01*
X94397129Y-75471498D01*
X94350636Y-75417842D01*
X94340532Y-75347568D01*
X94372056Y-75280701D01*
X94410168Y-75238816D01*
X94414267Y-75234520D01*
X94430198Y-75218589D01*
X94446934Y-75198573D01*
X94450379Y-75194624D01*
X94502703Y-75137121D01*
X94502706Y-75137117D01*
X94506485Y-75132964D01*
X94516013Y-75117775D01*
X94526091Y-75103903D01*
X94533992Y-75094455D01*
X94533997Y-75094448D01*
X94537594Y-75090146D01*
X94578887Y-75017752D01*
X94581592Y-75013232D01*
X94586441Y-75005503D01*
X94602942Y-74979197D01*
X94622886Y-74947404D01*
X94622888Y-74947401D01*
X94625864Y-74942656D01*
X94632552Y-74926021D01*
X94640012Y-74910589D01*
X94646120Y-74899881D01*
X94646124Y-74899872D01*
X94648899Y-74895007D01*
X94650768Y-74889730D01*
X94650770Y-74889725D01*
X94676715Y-74816458D01*
X94678580Y-74811522D01*
X94707566Y-74739416D01*
X94709656Y-74734217D01*
X94713294Y-74716650D01*
X94717899Y-74700156D01*
X94723889Y-74683241D01*
X94726460Y-74667542D01*
X94737355Y-74601009D01*
X94738317Y-74595819D01*
X94754277Y-74518754D01*
X94754278Y-74518750D01*
X94755213Y-74514233D01*
X94755479Y-74509622D01*
X94756815Y-74486452D01*
X94758262Y-74473347D01*
X94759286Y-74467090D01*
X94759286Y-74467083D01*
X94760194Y-74461542D01*
X94759389Y-74410267D01*
X94758516Y-74354736D01*
X94758500Y-74352757D01*
X94758500Y-73118941D01*
X94777068Y-73053106D01*
X94845649Y-72941193D01*
X94845655Y-72941182D01*
X94848240Y-72936963D01*
X94850137Y-72932385D01*
X94937211Y-72722167D01*
X94937212Y-72722165D01*
X94939105Y-72717594D01*
X94965986Y-72605625D01*
X94993380Y-72491524D01*
X94993381Y-72491518D01*
X94994535Y-72486711D01*
X95013165Y-72250000D01*
X94994535Y-72013289D01*
X94992191Y-72003523D01*
X94944089Y-71803167D01*
X94939105Y-71782406D01*
X94937211Y-71777833D01*
X94850135Y-71567611D01*
X94850133Y-71567607D01*
X94848240Y-71563037D01*
X94833698Y-71539306D01*
X94726759Y-71364798D01*
X94726755Y-71364792D01*
X94724176Y-71360584D01*
X94569969Y-71180031D01*
X94389416Y-71025824D01*
X94385208Y-71023245D01*
X94385202Y-71023241D01*
X94191183Y-70904346D01*
X94186963Y-70901760D01*
X94182393Y-70899867D01*
X94182389Y-70899865D01*
X93972167Y-70812789D01*
X93972165Y-70812788D01*
X93967594Y-70810895D01*
X93887391Y-70791640D01*
X93741524Y-70756620D01*
X93741518Y-70756619D01*
X93736711Y-70755465D01*
X93500000Y-70736835D01*
X93263289Y-70755465D01*
X93258482Y-70756619D01*
X93258476Y-70756620D01*
X93112609Y-70791640D01*
X93032406Y-70810895D01*
X93027835Y-70812788D01*
X93027833Y-70812789D01*
X92817611Y-70899865D01*
X92817607Y-70899867D01*
X92813037Y-70901760D01*
X92808817Y-70904346D01*
X92614798Y-71023241D01*
X92614792Y-71023245D01*
X92610584Y-71025824D01*
X92430031Y-71180031D01*
X92275824Y-71360584D01*
X92273245Y-71364792D01*
X92273241Y-71364798D01*
X92166302Y-71539306D01*
X92151760Y-71563037D01*
X92149867Y-71567607D01*
X92149865Y-71567611D01*
X92135566Y-71602133D01*
X92091018Y-71657414D01*
X92023654Y-71679835D01*
X91954863Y-71662277D01*
X91906485Y-71610315D01*
X91901526Y-71599069D01*
X91826342Y-71403206D01*
X91826341Y-71403205D01*
X91824765Y-71399098D01*
X91688583Y-71153421D01*
X91672089Y-71131533D01*
X91522188Y-70932607D01*
X91522186Y-70932605D01*
X91519536Y-70929088D01*
X90914049Y-70323601D01*
X90880023Y-70261289D01*
X90885088Y-70190474D01*
X90927635Y-70133638D01*
X90938627Y-70126277D01*
X90957872Y-70114805D01*
X90957874Y-70114804D01*
X90963924Y-70111197D01*
X91087805Y-69993227D01*
X91155743Y-69890972D01*
X91210099Y-69845303D01*
X91260690Y-69834700D01*
X93203422Y-69834700D01*
X93219869Y-69835778D01*
X93250000Y-69839745D01*
X93288319Y-69834700D01*
X93288324Y-69834700D01*
X93394449Y-69820728D01*
X93402637Y-69819650D01*
X93430833Y-69807971D01*
X93514347Y-69773378D01*
X93537244Y-69763894D01*
X93544873Y-69760734D01*
X93551941Y-69755311D01*
X93604129Y-69715265D01*
X93604130Y-69715264D01*
X93660460Y-69672041D01*
X93667013Y-69667013D01*
X93674703Y-69656992D01*
X93685520Y-69642894D01*
X93696388Y-69630502D01*
X93894242Y-69432649D01*
X93906634Y-69421782D01*
X93925492Y-69407312D01*
X93991712Y-69381712D01*
X94061261Y-69395977D01*
G37*
%TD.AperFunction*%
%TA.AperFunction,Conductor*%
G36*
X112617026Y-63175144D02*
G01*
X112644875Y-63206994D01*
X112704987Y-63305088D01*
X112851250Y-63473938D01*
X113023126Y-63616632D01*
X113216000Y-63729338D01*
X113220825Y-63731180D01*
X113220826Y-63731181D01*
X113253005Y-63743469D01*
X113424692Y-63809030D01*
X113429760Y-63810061D01*
X113429763Y-63810062D01*
X113537017Y-63831883D01*
X113643597Y-63853567D01*
X113648772Y-63853757D01*
X113648774Y-63853757D01*
X113861673Y-63861564D01*
X113861677Y-63861564D01*
X113866837Y-63861753D01*
X113871957Y-63861097D01*
X113871959Y-63861097D01*
X114083288Y-63834025D01*
X114083289Y-63834025D01*
X114088416Y-63833368D01*
X114093366Y-63831883D01*
X114297429Y-63770661D01*
X114297434Y-63770659D01*
X114302384Y-63769174D01*
X114502994Y-63670896D01*
X114684860Y-63541173D01*
X114707362Y-63518750D01*
X114776560Y-63449793D01*
X114838932Y-63415877D01*
X114909739Y-63421065D01*
X114966500Y-63463711D01*
X114991194Y-63530275D01*
X114991500Y-63539044D01*
X114991500Y-71737182D01*
X114971498Y-71805303D01*
X114954595Y-71826277D01*
X111326278Y-75454595D01*
X111263966Y-75488621D01*
X111237183Y-75491500D01*
X110723617Y-75491500D01*
X110655496Y-75471498D01*
X110609003Y-75417842D01*
X110598899Y-75347568D01*
X110628393Y-75282988D01*
X110689733Y-75244142D01*
X110741451Y-75229702D01*
X110866463Y-75194798D01*
X110871967Y-75192018D01*
X110871969Y-75192017D01*
X111037495Y-75108404D01*
X111037497Y-75108403D01*
X111042996Y-75105625D01*
X111198847Y-74983861D01*
X111299612Y-74867123D01*
X111324049Y-74838813D01*
X111324050Y-74838811D01*
X111328078Y-74834145D01*
X111425769Y-74662179D01*
X111488197Y-74474513D01*
X111512985Y-74278295D01*
X111513380Y-74250000D01*
X111494080Y-74053167D01*
X111477921Y-73999644D01*
X111438697Y-73869731D01*
X111436916Y-73863831D01*
X111344066Y-73689204D01*
X111259379Y-73585368D01*
X111222960Y-73540713D01*
X111222957Y-73540710D01*
X111219065Y-73535938D01*
X111210113Y-73528532D01*
X111071425Y-73413799D01*
X111071421Y-73413797D01*
X111066675Y-73409870D01*
X110892701Y-73315802D01*
X110703768Y-73257318D01*
X110703937Y-73256773D01*
X110644895Y-73225424D01*
X110610143Y-73163514D01*
X110614379Y-73092644D01*
X110627993Y-73065569D01*
X110640703Y-73046438D01*
X110701450Y-72886521D01*
X110703893Y-72869141D01*
X110724707Y-72721042D01*
X110724707Y-72721039D01*
X110725258Y-72717120D01*
X110725557Y-72695695D01*
X110708015Y-72539310D01*
X110720299Y-72469385D01*
X110768438Y-72417200D01*
X110785012Y-72408856D01*
X110858213Y-72378535D01*
X110895136Y-72363241D01*
X111097361Y-72245070D01*
X111127879Y-72227237D01*
X111127880Y-72227236D01*
X111131582Y-72225073D01*
X111347089Y-72056094D01*
X111363060Y-72039614D01*
X111534686Y-71862509D01*
X111537669Y-71859431D01*
X111540202Y-71855983D01*
X111540206Y-71855978D01*
X111697257Y-71642178D01*
X111699795Y-71638723D01*
X111719662Y-71602133D01*
X111828418Y-71401830D01*
X111828419Y-71401828D01*
X111830468Y-71398054D01*
X111904941Y-71200966D01*
X111925751Y-71145895D01*
X111925752Y-71145891D01*
X111927269Y-71141877D01*
X111971492Y-70948790D01*
X111987449Y-70879117D01*
X111987450Y-70879113D01*
X111988407Y-70874933D01*
X111990067Y-70856339D01*
X112012531Y-70604627D01*
X112012531Y-70604625D01*
X112012751Y-70602161D01*
X112013193Y-70560000D01*
X112008945Y-70497685D01*
X111994859Y-70291055D01*
X111994858Y-70291049D01*
X111994567Y-70286778D01*
X111989289Y-70261289D01*
X111957211Y-70106395D01*
X111939032Y-70018612D01*
X111847617Y-69760465D01*
X111722013Y-69517112D01*
X111713199Y-69504570D01*
X111629312Y-69385212D01*
X111564545Y-69293057D01*
X111438106Y-69156992D01*
X111381046Y-69095588D01*
X111381043Y-69095585D01*
X111378125Y-69092445D01*
X111374810Y-69089731D01*
X111374806Y-69089728D01*
X111169523Y-68921706D01*
X111166205Y-68918990D01*
X110932704Y-68775901D01*
X110928768Y-68774173D01*
X110770883Y-68704866D01*
X110716548Y-68659170D01*
X110695543Y-68591352D01*
X110703741Y-68544749D01*
X110740718Y-68447408D01*
X110740719Y-68447406D01*
X110743218Y-68440826D01*
X110759801Y-68322836D01*
X110789090Y-68258162D01*
X110848694Y-68219589D01*
X110873593Y-68214852D01*
X110957342Y-68207524D01*
X110957348Y-68207523D01*
X110962834Y-68207043D01*
X110968147Y-68205619D01*
X110968149Y-68205619D01*
X111163892Y-68153170D01*
X111163894Y-68153169D01*
X111169202Y-68151747D01*
X111174184Y-68149424D01*
X111357845Y-68063782D01*
X111357850Y-68063779D01*
X111362832Y-68061456D01*
X111427009Y-68016519D01*
X111533331Y-67942072D01*
X111533334Y-67942070D01*
X111537842Y-67938913D01*
X111688913Y-67787842D01*
X111734142Y-67723249D01*
X111808299Y-67617341D01*
X111808300Y-67617339D01*
X111811456Y-67612832D01*
X111813779Y-67607850D01*
X111813782Y-67607845D01*
X111885805Y-67453390D01*
X111932722Y-67400105D01*
X112001000Y-67380644D01*
X112068959Y-67401186D01*
X112114195Y-67453390D01*
X112186218Y-67607845D01*
X112186221Y-67607850D01*
X112188544Y-67612832D01*
X112191700Y-67617339D01*
X112191701Y-67617341D01*
X112265859Y-67723249D01*
X112311087Y-67787842D01*
X112462158Y-67938913D01*
X112466666Y-67942070D01*
X112466669Y-67942072D01*
X112572991Y-68016519D01*
X112637168Y-68061456D01*
X112642150Y-68063779D01*
X112642155Y-68063782D01*
X112825816Y-68149424D01*
X112830798Y-68151747D01*
X112836106Y-68153169D01*
X112836108Y-68153170D01*
X113031851Y-68205619D01*
X113031853Y-68205619D01*
X113037166Y-68207043D01*
X113250000Y-68225664D01*
X113462834Y-68207043D01*
X113468147Y-68205619D01*
X113468149Y-68205619D01*
X113663892Y-68153170D01*
X113663894Y-68153169D01*
X113669202Y-68151747D01*
X113674184Y-68149424D01*
X113857845Y-68063782D01*
X113857850Y-68063779D01*
X113862832Y-68061456D01*
X113927009Y-68016519D01*
X114033331Y-67942072D01*
X114033334Y-67942070D01*
X114037842Y-67938913D01*
X114188913Y-67787842D01*
X114234142Y-67723249D01*
X114308299Y-67617341D01*
X114308300Y-67617339D01*
X114311456Y-67612832D01*
X114313779Y-67607850D01*
X114313782Y-67607845D01*
X114399424Y-67424184D01*
X114399425Y-67424183D01*
X114401747Y-67419202D01*
X114406384Y-67401899D01*
X114455619Y-67218149D01*
X114455619Y-67218147D01*
X114457043Y-67212834D01*
X114475664Y-67000000D01*
X114457043Y-66787166D01*
X114428797Y-66681751D01*
X114403170Y-66586108D01*
X114403169Y-66586106D01*
X114401747Y-66580798D01*
X114396511Y-66569570D01*
X114313782Y-66392155D01*
X114313779Y-66392150D01*
X114311456Y-66387168D01*
X114304720Y-66377548D01*
X114192072Y-66216669D01*
X114192070Y-66216666D01*
X114188913Y-66212158D01*
X114037842Y-66061087D01*
X114033334Y-66057930D01*
X114033331Y-66057928D01*
X113867341Y-65941701D01*
X113867339Y-65941700D01*
X113862832Y-65938544D01*
X113857850Y-65936221D01*
X113857845Y-65936218D01*
X113686845Y-65856480D01*
X113633560Y-65809563D01*
X113614099Y-65741285D01*
X113634641Y-65673326D01*
X113675576Y-65634057D01*
X113713924Y-65611197D01*
X113837805Y-65493227D01*
X113844154Y-65483672D01*
X113928570Y-65356614D01*
X113932471Y-65350743D01*
X113972191Y-65246179D01*
X113990718Y-65197408D01*
X113990719Y-65197406D01*
X113993218Y-65190826D01*
X113995604Y-65173851D01*
X114016475Y-65025347D01*
X114016475Y-65025344D01*
X114017026Y-65021425D01*
X114017325Y-65000000D01*
X113998256Y-64830000D01*
X113991408Y-64810333D01*
X113944314Y-64675097D01*
X113944313Y-64675095D01*
X113941999Y-64668450D01*
X113938196Y-64662363D01*
X113855081Y-64529352D01*
X113851348Y-64523378D01*
X113838159Y-64510096D01*
X113774166Y-64445655D01*
X113730809Y-64401994D01*
X113665539Y-64360573D01*
X113592316Y-64314104D01*
X113592313Y-64314102D01*
X113586373Y-64310333D01*
X113579740Y-64307971D01*
X113431854Y-64255311D01*
X113431849Y-64255310D01*
X113425219Y-64252949D01*
X113418231Y-64252116D01*
X113418228Y-64252115D01*
X113302655Y-64238334D01*
X113255357Y-64232694D01*
X113248354Y-64233430D01*
X113248353Y-64233430D01*
X113203958Y-64238096D01*
X113085228Y-64250575D01*
X113075071Y-64254033D01*
X112929956Y-64303434D01*
X112929953Y-64303435D01*
X112923289Y-64305704D01*
X112777588Y-64395340D01*
X112772557Y-64400267D01*
X112772554Y-64400269D01*
X112727013Y-64444866D01*
X112655366Y-64515028D01*
X112651547Y-64520953D01*
X112651546Y-64520955D01*
X112630563Y-64553514D01*
X112562698Y-64658820D01*
X112560287Y-64665443D01*
X112560286Y-64665446D01*
X112506600Y-64812947D01*
X112506599Y-64812952D01*
X112504190Y-64819570D01*
X112482750Y-64989286D01*
X112489182Y-65054885D01*
X112490037Y-65063603D01*
X112476778Y-65133351D01*
X112427915Y-65184858D01*
X112358962Y-65201771D01*
X112291812Y-65178721D01*
X112275543Y-65164994D01*
X111910405Y-64799856D01*
X111876379Y-64737544D01*
X111873500Y-64710761D01*
X111873500Y-63793319D01*
X111893502Y-63725198D01*
X111944068Y-63680168D01*
X111950754Y-63676893D01*
X111958353Y-63673170D01*
X111958357Y-63673168D01*
X111962994Y-63670896D01*
X111967198Y-63667898D01*
X111967202Y-63667895D01*
X112069484Y-63594938D01*
X112144860Y-63541173D01*
X112167362Y-63518750D01*
X112265388Y-63421065D01*
X112303096Y-63383489D01*
X112339778Y-63332441D01*
X112433453Y-63202077D01*
X112434776Y-63203028D01*
X112481645Y-63159857D01*
X112551580Y-63147625D01*
X112617026Y-63175144D01*
G37*
%TD.AperFunction*%
%TA.AperFunction,Conductor*%
G36*
X92075981Y-72832225D02*
G01*
X92127441Y-72881137D01*
X92134831Y-72896093D01*
X92149863Y-72932385D01*
X92149865Y-72932389D01*
X92151760Y-72936963D01*
X92154345Y-72941182D01*
X92154351Y-72941193D01*
X92222932Y-73053106D01*
X92241500Y-73118941D01*
X92241500Y-73484500D01*
X92221498Y-73552621D01*
X92167842Y-73599114D01*
X92115500Y-73610500D01*
X91741338Y-73610500D01*
X91673217Y-73590498D01*
X91626724Y-73536842D01*
X91616620Y-73466568D01*
X91638125Y-73412230D01*
X91723300Y-73290587D01*
X91723304Y-73290580D01*
X91725825Y-73286980D01*
X91853349Y-73036700D01*
X91866680Y-72997984D01*
X91899287Y-72903288D01*
X91940377Y-72845391D01*
X92006246Y-72818900D01*
X92075981Y-72832225D01*
G37*
%TD.AperFunction*%
%TA.AperFunction,Conductor*%
G36*
X83035000Y-69363729D02*
G01*
X84221091Y-69363729D01*
X84289212Y-69383731D01*
X84310186Y-69400634D01*
X86300491Y-71390939D01*
X86334517Y-71453251D01*
X86329452Y-71524066D01*
X86286905Y-71580902D01*
X86220385Y-71605713D01*
X86170145Y-71598693D01*
X86169202Y-71598253D01*
X86163894Y-71596831D01*
X86163892Y-71596830D01*
X85968149Y-71544381D01*
X85968147Y-71544381D01*
X85962834Y-71542957D01*
X85750000Y-71524336D01*
X85537166Y-71542957D01*
X85531853Y-71544381D01*
X85531851Y-71544381D01*
X85336108Y-71596830D01*
X85336106Y-71596831D01*
X85330798Y-71598253D01*
X85325817Y-71600575D01*
X85325816Y-71600576D01*
X85142155Y-71686218D01*
X85142150Y-71686221D01*
X85137168Y-71688544D01*
X85132661Y-71691700D01*
X85132659Y-71691701D01*
X84966669Y-71807928D01*
X84966666Y-71807930D01*
X84962158Y-71811087D01*
X84811087Y-71962158D01*
X84807930Y-71966666D01*
X84807928Y-71966669D01*
X84697996Y-72123669D01*
X84688544Y-72137168D01*
X84686221Y-72142150D01*
X84686218Y-72142155D01*
X84613919Y-72297201D01*
X84567001Y-72350486D01*
X84498724Y-72369947D01*
X84430764Y-72349405D01*
X84385529Y-72297201D01*
X84313344Y-72142400D01*
X84307866Y-72132914D01*
X84284665Y-72099778D01*
X84274187Y-72091403D01*
X84260739Y-72098471D01*
X83339095Y-73020115D01*
X83276783Y-73054141D01*
X83205968Y-73049076D01*
X83160905Y-73020115D01*
X82238539Y-72097749D01*
X82226765Y-72091319D01*
X82214749Y-72100616D01*
X82192134Y-72132914D01*
X82186656Y-72142400D01*
X82101047Y-72325988D01*
X82097301Y-72336280D01*
X82044875Y-72531938D01*
X82042972Y-72542733D01*
X82025317Y-72744525D01*
X82025317Y-72755475D01*
X82042972Y-72957267D01*
X82044875Y-72968062D01*
X82097301Y-73163720D01*
X82101047Y-73174012D01*
X82186656Y-73357600D01*
X82192129Y-73367078D01*
X82223744Y-73412230D01*
X82246431Y-73479504D01*
X82229145Y-73548365D01*
X82177375Y-73596948D01*
X82120530Y-73610500D01*
X78541954Y-73610500D01*
X78473833Y-73590498D01*
X78452859Y-73573595D01*
X77938368Y-73059104D01*
X77904342Y-72996792D01*
X77909407Y-72925977D01*
X77951954Y-72869141D01*
X77953695Y-72867975D01*
X77957871Y-72864805D01*
X77963924Y-72861197D01*
X78087805Y-72743227D01*
X78104836Y-72717594D01*
X78178570Y-72606614D01*
X78182471Y-72600743D01*
X78184972Y-72594158D01*
X78184975Y-72594153D01*
X78205195Y-72540922D01*
X78248083Y-72484344D01*
X78314752Y-72459934D01*
X78358767Y-72464854D01*
X78433785Y-72487075D01*
X78556723Y-72523491D01*
X78556727Y-72523492D01*
X78560836Y-72524709D01*
X78565070Y-72525357D01*
X78565075Y-72525358D01*
X78827298Y-72565483D01*
X78827300Y-72565483D01*
X78831540Y-72566132D01*
X78970912Y-72568322D01*
X79101071Y-72570367D01*
X79101077Y-72570367D01*
X79105362Y-72570434D01*
X79377235Y-72537534D01*
X79642127Y-72468041D01*
X79646087Y-72466401D01*
X79646092Y-72466399D01*
X79785012Y-72408856D01*
X79895136Y-72363241D01*
X80097361Y-72245070D01*
X80127879Y-72227237D01*
X80127880Y-72227236D01*
X80131582Y-72225073D01*
X80347089Y-72056094D01*
X80363060Y-72039614D01*
X80534686Y-71862509D01*
X80537669Y-71859431D01*
X80540202Y-71855983D01*
X80540206Y-71855978D01*
X80635821Y-71725813D01*
X82591403Y-71725813D01*
X82598471Y-71739261D01*
X83237188Y-72377978D01*
X83251132Y-72385592D01*
X83252965Y-72385461D01*
X83259580Y-72381210D01*
X83902251Y-71738539D01*
X83908681Y-71726765D01*
X83899384Y-71714749D01*
X83867086Y-71692134D01*
X83857600Y-71686656D01*
X83674012Y-71601047D01*
X83663720Y-71597301D01*
X83468062Y-71544875D01*
X83457267Y-71542972D01*
X83255475Y-71525317D01*
X83244525Y-71525317D01*
X83042733Y-71542972D01*
X83031938Y-71544875D01*
X82836280Y-71597301D01*
X82825988Y-71601047D01*
X82642400Y-71686656D01*
X82632914Y-71692134D01*
X82599778Y-71715335D01*
X82591403Y-71725813D01*
X80635821Y-71725813D01*
X80697257Y-71642178D01*
X80699795Y-71638723D01*
X80719662Y-71602133D01*
X80828418Y-71401830D01*
X80828419Y-71401828D01*
X80830468Y-71398054D01*
X80904941Y-71200966D01*
X80925751Y-71145895D01*
X80925752Y-71145891D01*
X80927269Y-71141877D01*
X80971492Y-70948790D01*
X80987449Y-70879117D01*
X80987450Y-70879113D01*
X80988407Y-70874933D01*
X80990067Y-70856339D01*
X81012531Y-70604627D01*
X81012531Y-70604625D01*
X81012751Y-70602161D01*
X81013134Y-70565591D01*
X81033848Y-70497685D01*
X81087988Y-70451756D01*
X81107377Y-70445542D01*
X81107922Y-70445492D01*
X81137972Y-70435728D01*
X81263919Y-70394805D01*
X81263921Y-70394804D01*
X81270615Y-70392629D01*
X81312909Y-70367417D01*
X81411502Y-70308644D01*
X81411504Y-70308643D01*
X81417554Y-70305036D01*
X81524647Y-70203053D01*
X81587772Y-70170561D01*
X81658443Y-70177354D01*
X81714222Y-70221277D01*
X81736938Y-70282003D01*
X81744243Y-70356498D01*
X81749443Y-70409536D01*
X81803440Y-70571856D01*
X81807087Y-70577878D01*
X81807088Y-70577880D01*
X81888406Y-70712154D01*
X81888409Y-70712157D01*
X81892056Y-70718180D01*
X82010889Y-70841234D01*
X82068780Y-70879117D01*
X82145144Y-70929088D01*
X82154030Y-70934903D01*
X82160634Y-70937359D01*
X82160636Y-70937360D01*
X82307757Y-70992074D01*
X82307759Y-70992074D01*
X82314367Y-70994532D01*
X82381593Y-71003502D01*
X82476949Y-71016226D01*
X82476953Y-71016226D01*
X82483930Y-71017157D01*
X82490941Y-71016519D01*
X82490945Y-71016519D01*
X82647273Y-71002292D01*
X82647275Y-71002292D01*
X82654292Y-71001653D01*
X82660990Y-70999477D01*
X82660993Y-70999476D01*
X82810289Y-70950966D01*
X82810291Y-70950965D01*
X82816985Y-70948790D01*
X82899058Y-70899865D01*
X82957872Y-70864805D01*
X82957874Y-70864804D01*
X82963924Y-70861197D01*
X83087805Y-70743227D01*
X83101079Y-70723249D01*
X83178570Y-70606614D01*
X83182471Y-70600743D01*
X83227049Y-70483392D01*
X83240718Y-70447408D01*
X83240719Y-70447406D01*
X83243218Y-70440826D01*
X83248156Y-70405693D01*
X83266475Y-70275347D01*
X83266475Y-70275344D01*
X83267026Y-70271425D01*
X83267325Y-70250000D01*
X83248256Y-70080000D01*
X83240180Y-70056807D01*
X83194314Y-69925097D01*
X83194313Y-69925095D01*
X83191999Y-69918450D01*
X83174830Y-69890973D01*
X83105081Y-69779352D01*
X83101348Y-69773378D01*
X83084743Y-69756656D01*
X82985772Y-69656992D01*
X82980809Y-69651994D01*
X82873506Y-69583898D01*
X82826707Y-69530509D01*
X82816201Y-69460294D01*
X82845324Y-69395546D01*
X82904830Y-69356821D01*
X82958948Y-69352794D01*
X83035000Y-69363729D01*
G37*
%TD.AperFunction*%
%TA.AperFunction,Conductor*%
G36*
X78006285Y-64535587D02*
G01*
X78027962Y-64553514D01*
X78042627Y-64568699D01*
X78064389Y-64591234D01*
X78089767Y-64607841D01*
X78119953Y-64627594D01*
X78166002Y-64681631D01*
X78175525Y-64751986D01*
X78145500Y-64816321D01*
X78116983Y-64840343D01*
X78033590Y-64891647D01*
X78033587Y-64891650D01*
X78027588Y-64895340D01*
X78022557Y-64900267D01*
X78022554Y-64900269D01*
X77977492Y-64944397D01*
X77905366Y-65015028D01*
X77901547Y-65020953D01*
X77901546Y-65020955D01*
X77881748Y-65051676D01*
X77812698Y-65158820D01*
X77810287Y-65165443D01*
X77810286Y-65165446D01*
X77756600Y-65312947D01*
X77756599Y-65312952D01*
X77754190Y-65319570D01*
X77732750Y-65489286D01*
X77749443Y-65659536D01*
X77803440Y-65821856D01*
X77807087Y-65827878D01*
X77807088Y-65827880D01*
X77888406Y-65962154D01*
X77888409Y-65962157D01*
X77892056Y-65968180D01*
X78010889Y-66091234D01*
X78016785Y-66095092D01*
X78138061Y-66174453D01*
X78154030Y-66184903D01*
X78160634Y-66187359D01*
X78160636Y-66187360D01*
X78307757Y-66242074D01*
X78307759Y-66242074D01*
X78314367Y-66244532D01*
X78393454Y-66255085D01*
X78476949Y-66266226D01*
X78476953Y-66266226D01*
X78483930Y-66267157D01*
X78490941Y-66266519D01*
X78490945Y-66266519D01*
X78647273Y-66252292D01*
X78647275Y-66252292D01*
X78654292Y-66251653D01*
X78660990Y-66249477D01*
X78660993Y-66249476D01*
X78810289Y-66200966D01*
X78810291Y-66200965D01*
X78816985Y-66198790D01*
X78867881Y-66168450D01*
X78957872Y-66114805D01*
X78957874Y-66114804D01*
X78963924Y-66111197D01*
X79087805Y-65993227D01*
X79101079Y-65973249D01*
X79158667Y-65886571D01*
X79182471Y-65850743D01*
X79187355Y-65837885D01*
X80332000Y-65837885D01*
X80336475Y-65853124D01*
X80337865Y-65854329D01*
X80345548Y-65856000D01*
X81142885Y-65856000D01*
X81158124Y-65851525D01*
X81159329Y-65850135D01*
X81161000Y-65842452D01*
X81161000Y-65112115D01*
X81156525Y-65096876D01*
X81155135Y-65095671D01*
X81147452Y-65094000D01*
X80350116Y-65094000D01*
X80334877Y-65098475D01*
X80333672Y-65099865D01*
X80332001Y-65107548D01*
X80332001Y-65234669D01*
X80332371Y-65241490D01*
X80337895Y-65292352D01*
X80341521Y-65307604D01*
X80387694Y-65430770D01*
X80392877Y-65501578D01*
X80387694Y-65519230D01*
X80341522Y-65642394D01*
X80337895Y-65657649D01*
X80332369Y-65708514D01*
X80332000Y-65715328D01*
X80332000Y-65837885D01*
X79187355Y-65837885D01*
X79243218Y-65690826D01*
X79244198Y-65683854D01*
X79266475Y-65525347D01*
X79266475Y-65525344D01*
X79267026Y-65521425D01*
X79267325Y-65500000D01*
X79248256Y-65330000D01*
X79240342Y-65307272D01*
X79194314Y-65175097D01*
X79194313Y-65175095D01*
X79191999Y-65168450D01*
X79188268Y-65162479D01*
X79188266Y-65162475D01*
X79165746Y-65126435D01*
X79146610Y-65058066D01*
X79167476Y-64990205D01*
X79221717Y-64944397D01*
X79292114Y-64935186D01*
X79303084Y-64937409D01*
X79307760Y-64938575D01*
X79314367Y-64941032D01*
X79321352Y-64941964D01*
X79476949Y-64962726D01*
X79476953Y-64962726D01*
X79483930Y-64963657D01*
X79490941Y-64963019D01*
X79490945Y-64963019D01*
X79647273Y-64948792D01*
X79647275Y-64948792D01*
X79654292Y-64948153D01*
X79660990Y-64945977D01*
X79660993Y-64945976D01*
X79810289Y-64897466D01*
X79810291Y-64897465D01*
X79816985Y-64895290D01*
X79887379Y-64853327D01*
X79957872Y-64811305D01*
X79957874Y-64811304D01*
X79963924Y-64807697D01*
X80087805Y-64689727D01*
X80144367Y-64604594D01*
X80198725Y-64558924D01*
X80269145Y-64549892D01*
X80331827Y-64579097D01*
X80337865Y-64584329D01*
X80345548Y-64586000D01*
X81242319Y-64586000D01*
X81297777Y-64601744D01*
X81298716Y-64599734D01*
X81364837Y-64630636D01*
X81368791Y-64632569D01*
X81433808Y-64665769D01*
X81440924Y-64667510D01*
X81446554Y-64669604D01*
X81452321Y-64671523D01*
X81458950Y-64674621D01*
X81466110Y-64676110D01*
X81466112Y-64676111D01*
X81530396Y-64689482D01*
X81534668Y-64690449D01*
X81568756Y-64698790D01*
X81572949Y-64699816D01*
X81634363Y-64735436D01*
X81666770Y-64798605D01*
X81669000Y-64822205D01*
X81669000Y-67518000D01*
X81648998Y-67586121D01*
X81595342Y-67632614D01*
X81543000Y-67644000D01*
X80350116Y-67644000D01*
X80334877Y-67648475D01*
X80333672Y-67649865D01*
X80332001Y-67657548D01*
X80332001Y-67784669D01*
X80332371Y-67791490D01*
X80337895Y-67842352D01*
X80341521Y-67857604D01*
X80387427Y-67980058D01*
X80392610Y-68050866D01*
X80387427Y-68068518D01*
X80338255Y-68199684D01*
X80331500Y-68261866D01*
X80331500Y-68795293D01*
X80311498Y-68863414D01*
X80257842Y-68909907D01*
X80187568Y-68920011D01*
X80139666Y-68902726D01*
X79936373Y-68778148D01*
X79936358Y-68778140D01*
X79932704Y-68775901D01*
X79928768Y-68774173D01*
X79685873Y-68667549D01*
X79685869Y-68667548D01*
X79681945Y-68665825D01*
X79418566Y-68590800D01*
X79414324Y-68590196D01*
X79414318Y-68590195D01*
X79213834Y-68561662D01*
X79147443Y-68552213D01*
X79003589Y-68551460D01*
X78877877Y-68550802D01*
X78877871Y-68550802D01*
X78873591Y-68550780D01*
X78869347Y-68551339D01*
X78869343Y-68551339D01*
X78750302Y-68567011D01*
X78602078Y-68586525D01*
X78597938Y-68587658D01*
X78597936Y-68587658D01*
X78525008Y-68607609D01*
X78337928Y-68658788D01*
X78333980Y-68660472D01*
X78089982Y-68764546D01*
X78089978Y-68764548D01*
X78086030Y-68766232D01*
X77967414Y-68837222D01*
X77854725Y-68904664D01*
X77854721Y-68904667D01*
X77851043Y-68906868D01*
X77637318Y-69078094D01*
X77533533Y-69187461D01*
X77477821Y-69246169D01*
X77448808Y-69276742D01*
X77289002Y-69499136D01*
X77160857Y-69741161D01*
X77159385Y-69745184D01*
X77159383Y-69745188D01*
X77069614Y-69990491D01*
X77066743Y-69998337D01*
X77008404Y-70265907D01*
X76998330Y-70393900D01*
X76993393Y-70456641D01*
X76986917Y-70538918D01*
X76987334Y-70546156D01*
X77002682Y-70812320D01*
X77055405Y-71081053D01*
X77056792Y-71085103D01*
X77056793Y-71085108D01*
X77123974Y-71281326D01*
X77144112Y-71340144D01*
X77173238Y-71398054D01*
X77181835Y-71415148D01*
X77194573Y-71484992D01*
X77167529Y-71550636D01*
X77135292Y-71579080D01*
X77027588Y-71645340D01*
X77022557Y-71650267D01*
X77022554Y-71650269D01*
X76985397Y-71686656D01*
X76905366Y-71765028D01*
X76901547Y-71770954D01*
X76887640Y-71792533D01*
X76833925Y-71838957D01*
X76763638Y-71848970D01*
X76699095Y-71819395D01*
X76692635Y-71813371D01*
X76045405Y-71166141D01*
X76011379Y-71103829D01*
X76008500Y-71077046D01*
X76008500Y-67117885D01*
X80332000Y-67117885D01*
X80336475Y-67133124D01*
X80337865Y-67134329D01*
X80345548Y-67136000D01*
X81142885Y-67136000D01*
X81158124Y-67131525D01*
X81159329Y-67130135D01*
X81161000Y-67122452D01*
X81161000Y-66382115D01*
X81156525Y-66366876D01*
X81155135Y-66365671D01*
X81147452Y-66364000D01*
X80350116Y-66364000D01*
X80334877Y-66368475D01*
X80333672Y-66369865D01*
X80332001Y-66377548D01*
X80332001Y-66504669D01*
X80332371Y-66511490D01*
X80337895Y-66562352D01*
X80341521Y-66577603D01*
X80389569Y-66705770D01*
X80394752Y-66776577D01*
X80389569Y-66794230D01*
X80341522Y-66922394D01*
X80337895Y-66937649D01*
X80332369Y-66988514D01*
X80332000Y-66995328D01*
X80332000Y-67117885D01*
X76008500Y-67117885D01*
X76008500Y-65199238D01*
X76028502Y-65131117D01*
X76082158Y-65084624D01*
X76152432Y-65074520D01*
X76187750Y-65085043D01*
X76291609Y-65133473D01*
X76330798Y-65151747D01*
X76336106Y-65153169D01*
X76336108Y-65153170D01*
X76531851Y-65205619D01*
X76531853Y-65205619D01*
X76537166Y-65207043D01*
X76750000Y-65225664D01*
X76962834Y-65207043D01*
X76968147Y-65205619D01*
X76968149Y-65205619D01*
X77163892Y-65153170D01*
X77163894Y-65153169D01*
X77169202Y-65151747D01*
X77208391Y-65133473D01*
X77357845Y-65063782D01*
X77357850Y-65063779D01*
X77362832Y-65061456D01*
X77367341Y-65058299D01*
X77533331Y-64942072D01*
X77533334Y-64942070D01*
X77537842Y-64938913D01*
X77688913Y-64787842D01*
X77715411Y-64750000D01*
X77808299Y-64617341D01*
X77808300Y-64617339D01*
X77811456Y-64612832D01*
X77813781Y-64607847D01*
X77813784Y-64607841D01*
X77823132Y-64587793D01*
X77870048Y-64534508D01*
X77938325Y-64515046D01*
X78006285Y-64535587D01*
G37*
%TD.AperFunction*%
%TA.AperFunction,Conductor*%
G36*
X102448737Y-69287767D02*
G01*
X102499900Y-69336990D01*
X102516500Y-69399501D01*
X102516500Y-69716502D01*
X102516693Y-69718950D01*
X102516693Y-69718958D01*
X102518758Y-69745188D01*
X102519438Y-69753831D01*
X102565855Y-69913601D01*
X102579074Y-69935953D01*
X102646509Y-70049980D01*
X102646511Y-70049983D01*
X102650547Y-70056807D01*
X102768193Y-70174453D01*
X102822427Y-70206527D01*
X102870878Y-70258419D01*
X102883583Y-70328269D01*
X102856507Y-70393900D01*
X102798247Y-70434474D01*
X102758286Y-70440979D01*
X102748665Y-70440979D01*
X102732219Y-70439901D01*
X102708709Y-70436806D01*
X102700521Y-70435728D01*
X102541671Y-70456641D01*
X102427185Y-70504062D01*
X102356597Y-70511651D01*
X102293110Y-70479872D01*
X102256883Y-70418814D01*
X102253570Y-70399949D01*
X102246374Y-70326562D01*
X102244080Y-70303167D01*
X102186916Y-70113831D01*
X102094066Y-69939204D01*
X102094445Y-69939002D01*
X102074491Y-69874681D01*
X102090920Y-69810526D01*
X102172262Y-69667337D01*
X102177256Y-69656121D01*
X102235759Y-69480253D01*
X102238479Y-69468282D01*
X102248973Y-69385212D01*
X102277355Y-69320136D01*
X102336414Y-69280734D01*
X102362554Y-69275524D01*
X102379086Y-69274019D01*
X102448737Y-69287767D01*
G37*
%TD.AperFunction*%
%TA.AperFunction,Conductor*%
G36*
X105696121Y-66328502D02*
G01*
X105742614Y-66382158D01*
X105754000Y-66434500D01*
X105754000Y-66827885D01*
X105758475Y-66843124D01*
X105769053Y-66852290D01*
X105813214Y-66876404D01*
X105840508Y-66926389D01*
X105877247Y-66873720D01*
X105942898Y-66846693D01*
X105956095Y-66846000D01*
X106208885Y-66846000D01*
X106224124Y-66841525D01*
X106246389Y-66815830D01*
X106247811Y-66817062D01*
X106252815Y-66807900D01*
X106315129Y-66773878D01*
X106341906Y-66771000D01*
X107290500Y-66771000D01*
X107358621Y-66791002D01*
X107405114Y-66844658D01*
X107416500Y-66897000D01*
X107416500Y-67153000D01*
X107396498Y-67221121D01*
X107342842Y-67267614D01*
X107290500Y-67279000D01*
X106541115Y-67279000D01*
X106525877Y-67283474D01*
X106504875Y-67307712D01*
X106445149Y-67346096D01*
X106374153Y-67346096D01*
X106320555Y-67314295D01*
X106231807Y-67225547D01*
X106224983Y-67221511D01*
X106224980Y-67221509D01*
X106095427Y-67144892D01*
X106095428Y-67144892D01*
X106088601Y-67140855D01*
X106080990Y-67138644D01*
X106080988Y-67138643D01*
X105935009Y-67096233D01*
X105935010Y-67096233D01*
X105932669Y-67095553D01*
X105932667Y-67095552D01*
X105928831Y-67094438D01*
X105929038Y-67093726D01*
X105870037Y-67064032D01*
X105839763Y-67012755D01*
X105799628Y-67066368D01*
X105733108Y-67091179D01*
X105724119Y-67091500D01*
X105372000Y-67091500D01*
X105303879Y-67071498D01*
X105257386Y-67017842D01*
X105246000Y-66965500D01*
X105246000Y-66434500D01*
X105266002Y-66366379D01*
X105319658Y-66319886D01*
X105372000Y-66308500D01*
X105628000Y-66308500D01*
X105696121Y-66328502D01*
G37*
%TD.AperFunction*%
%TA.AperFunction,Conductor*%
G36*
X111863882Y-42128502D02*
G01*
X111884856Y-42145405D01*
X112886020Y-43146569D01*
X112920046Y-43208881D01*
X112922052Y-43250472D01*
X112901995Y-43419938D01*
X112915740Y-43629649D01*
X112967471Y-43833343D01*
X112969890Y-43838590D01*
X113053038Y-44018953D01*
X113053041Y-44018958D01*
X113055457Y-44024199D01*
X113058788Y-44028912D01*
X113058789Y-44028914D01*
X113163109Y-44176522D01*
X113176751Y-44195825D01*
X113327289Y-44342474D01*
X113332085Y-44345679D01*
X113332088Y-44345681D01*
X113444573Y-44420841D01*
X113502031Y-44459233D01*
X113507339Y-44461514D01*
X113507340Y-44461514D01*
X113689822Y-44539914D01*
X113689825Y-44539915D01*
X113695125Y-44542192D01*
X113700754Y-44543466D01*
X113700755Y-44543466D01*
X113894467Y-44587299D01*
X113894473Y-44587300D01*
X113900104Y-44588574D01*
X113905875Y-44588801D01*
X113905877Y-44588801D01*
X113969153Y-44591287D01*
X114110103Y-44596825D01*
X114318088Y-44566669D01*
X114323552Y-44564814D01*
X114323557Y-44564813D01*
X114511624Y-44500973D01*
X114511629Y-44500971D01*
X114517096Y-44499115D01*
X114536360Y-44488327D01*
X114594140Y-44455968D01*
X114700460Y-44396426D01*
X114784932Y-44326171D01*
X114850095Y-44297991D01*
X114920150Y-44309515D01*
X114972854Y-44357083D01*
X114991500Y-44423046D01*
X114991500Y-50166645D01*
X114971498Y-50234766D01*
X114917842Y-50281259D01*
X114854963Y-50291414D01*
X114854928Y-50292053D01*
X114851993Y-50291894D01*
X114851900Y-50291909D01*
X114851533Y-50291869D01*
X114851529Y-50291869D01*
X114848134Y-50291500D01*
X113651866Y-50291500D01*
X113589684Y-50298255D01*
X113453295Y-50349385D01*
X113336739Y-50436739D01*
X113331358Y-50443919D01*
X113331357Y-50443920D01*
X113285326Y-50505339D01*
X113228467Y-50547854D01*
X113157648Y-50552880D01*
X113095355Y-50518820D01*
X113061365Y-50456489D01*
X113058500Y-50429774D01*
X113058500Y-49590413D01*
X113078502Y-49522292D01*
X113103931Y-49493539D01*
X113150140Y-49455108D01*
X113262041Y-49362041D01*
X113396426Y-49200460D01*
X113499115Y-49017096D01*
X113500971Y-49011629D01*
X113500973Y-49011624D01*
X113564813Y-48823557D01*
X113564814Y-48823552D01*
X113566669Y-48818088D01*
X113596825Y-48610103D01*
X113598399Y-48550000D01*
X113579169Y-48340721D01*
X113576166Y-48330071D01*
X113539352Y-48199540D01*
X113522123Y-48138451D01*
X113429171Y-47949963D01*
X113303427Y-47781571D01*
X113292530Y-47771498D01*
X113153341Y-47642833D01*
X113153338Y-47642831D01*
X113149101Y-47638914D01*
X112971362Y-47526769D01*
X112776163Y-47448892D01*
X112770506Y-47447767D01*
X112770500Y-47447765D01*
X112575707Y-47409019D01*
X112575705Y-47409019D01*
X112570040Y-47407892D01*
X112564265Y-47407816D01*
X112564261Y-47407816D01*
X112459001Y-47406438D01*
X112359898Y-47405141D01*
X112354201Y-47406120D01*
X112354200Y-47406120D01*
X112171127Y-47437578D01*
X112152772Y-47440732D01*
X111955601Y-47513472D01*
X111774988Y-47620926D01*
X111616981Y-47759494D01*
X111602664Y-47777655D01*
X111499418Y-47908623D01*
X111486872Y-47924537D01*
X111484181Y-47929653D01*
X111484179Y-47929655D01*
X111395061Y-48099041D01*
X111389018Y-48110527D01*
X111326696Y-48311234D01*
X111326017Y-48316969D01*
X111326017Y-48316970D01*
X111323865Y-48335157D01*
X111301995Y-48519938D01*
X111315740Y-48729649D01*
X111367471Y-48933343D01*
X111369890Y-48938590D01*
X111453038Y-49118953D01*
X111453041Y-49118958D01*
X111455457Y-49124199D01*
X111458788Y-49128912D01*
X111458789Y-49128914D01*
X111559507Y-49271425D01*
X111576751Y-49295825D01*
X111727289Y-49442474D01*
X111745509Y-49454648D01*
X111785502Y-49481371D01*
X111831030Y-49535848D01*
X111841500Y-49586136D01*
X111841500Y-50188818D01*
X111821498Y-50256939D01*
X111767842Y-50303432D01*
X111755377Y-50308341D01*
X111693685Y-50328923D01*
X111693675Y-50328927D01*
X111686732Y-50331244D01*
X111541287Y-50421248D01*
X111536114Y-50426430D01*
X111508536Y-50454056D01*
X111446253Y-50488135D01*
X111432533Y-50490348D01*
X111389117Y-50494911D01*
X111335228Y-50500575D01*
X111328560Y-50502845D01*
X111179956Y-50553434D01*
X111179953Y-50553435D01*
X111173289Y-50555704D01*
X111027588Y-50645340D01*
X111022557Y-50650267D01*
X111022554Y-50650269D01*
X110982305Y-50689684D01*
X110905366Y-50765028D01*
X110901547Y-50770953D01*
X110901546Y-50770955D01*
X110880328Y-50803879D01*
X110812698Y-50908820D01*
X110810287Y-50915443D01*
X110810286Y-50915446D01*
X110756600Y-51062947D01*
X110756599Y-51062952D01*
X110754190Y-51069570D01*
X110732750Y-51239286D01*
X110749443Y-51409536D01*
X110803440Y-51571856D01*
X110807087Y-51577878D01*
X110807088Y-51577880D01*
X110888406Y-51712154D01*
X110888409Y-51712157D01*
X110892056Y-51718180D01*
X111010889Y-51841234D01*
X111016785Y-51845092D01*
X111124297Y-51915446D01*
X111154030Y-51934903D01*
X111160634Y-51937359D01*
X111160636Y-51937360D01*
X111306265Y-51991519D01*
X111363141Y-52034011D01*
X111388015Y-52100508D01*
X111369605Y-52175731D01*
X111334998Y-52231875D01*
X111328849Y-52245061D01*
X111279509Y-52393814D01*
X111276642Y-52407190D01*
X111267328Y-52498097D01*
X111267071Y-52503126D01*
X111271475Y-52518124D01*
X111272865Y-52519329D01*
X111280548Y-52521000D01*
X112300723Y-52521000D01*
X112368844Y-52541002D01*
X112389818Y-52557905D01*
X112467095Y-52635182D01*
X112501121Y-52697494D01*
X112504000Y-52724277D01*
X112504000Y-53714885D01*
X112508475Y-53730124D01*
X112509865Y-53731329D01*
X112517548Y-53733000D01*
X112545438Y-53733000D01*
X112551953Y-53732663D01*
X112644057Y-53723106D01*
X112657456Y-53720212D01*
X112806107Y-53670619D01*
X112819286Y-53664445D01*
X112952173Y-53582212D01*
X112963579Y-53573172D01*
X112976328Y-53560401D01*
X113038610Y-53526322D01*
X113109430Y-53531325D01*
X113166303Y-53573823D01*
X113191171Y-53640322D01*
X113191500Y-53649419D01*
X113191500Y-54748134D01*
X113198255Y-54810316D01*
X113249385Y-54946705D01*
X113336739Y-55063261D01*
X113453295Y-55150615D01*
X113589684Y-55201745D01*
X113651866Y-55208500D01*
X114848134Y-55208500D01*
X114851529Y-55208131D01*
X114851533Y-55208131D01*
X114851900Y-55208091D01*
X114851986Y-55208106D01*
X114854928Y-55207947D01*
X114854966Y-55208641D01*
X114921782Y-55220624D01*
X114973795Y-55268948D01*
X114991500Y-55333355D01*
X114991500Y-61459612D01*
X114971498Y-61527733D01*
X114917842Y-61574226D01*
X114847568Y-61584330D01*
X114782988Y-61554836D01*
X114772307Y-61544412D01*
X114738152Y-61506876D01*
X114738142Y-61506867D01*
X114734670Y-61503051D01*
X114730619Y-61499852D01*
X114730615Y-61499848D01*
X114563414Y-61367800D01*
X114563410Y-61367798D01*
X114559359Y-61364598D01*
X114363789Y-61256638D01*
X114358920Y-61254914D01*
X114358916Y-61254912D01*
X114158087Y-61183795D01*
X114158083Y-61183794D01*
X114153212Y-61182069D01*
X114148119Y-61181162D01*
X114148116Y-61181161D01*
X113938373Y-61143800D01*
X113938367Y-61143799D01*
X113933284Y-61142894D01*
X113859452Y-61141992D01*
X113715081Y-61140228D01*
X113715079Y-61140228D01*
X113709911Y-61140165D01*
X113489091Y-61173955D01*
X113276756Y-61243357D01*
X113246443Y-61259137D01*
X113093541Y-61338733D01*
X113078607Y-61346507D01*
X113074474Y-61349610D01*
X113074471Y-61349612D01*
X112927965Y-61459612D01*
X112899965Y-61480635D01*
X112872952Y-61508902D01*
X112767452Y-61619302D01*
X112745629Y-61642138D01*
X112638201Y-61799621D01*
X112583293Y-61844621D01*
X112512768Y-61852792D01*
X112449021Y-61821538D01*
X112428324Y-61797054D01*
X112347822Y-61672617D01*
X112347820Y-61672614D01*
X112345014Y-61668277D01*
X112194670Y-61503051D01*
X112190619Y-61499852D01*
X112190615Y-61499848D01*
X112023414Y-61367800D01*
X112023410Y-61367798D01*
X112019359Y-61364598D01*
X111823789Y-61256638D01*
X111818920Y-61254914D01*
X111818916Y-61254912D01*
X111618087Y-61183795D01*
X111618083Y-61183794D01*
X111613212Y-61182069D01*
X111608119Y-61181162D01*
X111608116Y-61181161D01*
X111398373Y-61143800D01*
X111398367Y-61143799D01*
X111393284Y-61142894D01*
X111319452Y-61141992D01*
X111175081Y-61140228D01*
X111175079Y-61140228D01*
X111169911Y-61140165D01*
X110949091Y-61173955D01*
X110736756Y-61243357D01*
X110706443Y-61259137D01*
X110553541Y-61338733D01*
X110538607Y-61346507D01*
X110534474Y-61349610D01*
X110534471Y-61349612D01*
X110387965Y-61459612D01*
X110359965Y-61480635D01*
X110281273Y-61562982D01*
X110279283Y-61565064D01*
X110217759Y-61600494D01*
X110146846Y-61597037D01*
X110089060Y-61555791D01*
X110070207Y-61522243D01*
X110028767Y-61411703D01*
X110025615Y-61403295D01*
X109938261Y-61286739D01*
X109821705Y-61199385D01*
X109685316Y-61148255D01*
X109623134Y-61141500D01*
X108234500Y-61141500D01*
X108166379Y-61121498D01*
X108119886Y-61067842D01*
X108108500Y-61015500D01*
X108108500Y-59000000D01*
X109524336Y-59000000D01*
X109542957Y-59212834D01*
X109544381Y-59218147D01*
X109544381Y-59218149D01*
X109593426Y-59401186D01*
X109598253Y-59419202D01*
X109600575Y-59424183D01*
X109600576Y-59424184D01*
X109686218Y-59607845D01*
X109686221Y-59607850D01*
X109688544Y-59612832D01*
X109691700Y-59617339D01*
X109691701Y-59617341D01*
X109801556Y-59774230D01*
X109811087Y-59787842D01*
X109962158Y-59938913D01*
X109966666Y-59942070D01*
X109966669Y-59942072D01*
X110132659Y-60058299D01*
X110137168Y-60061456D01*
X110142150Y-60063779D01*
X110142155Y-60063782D01*
X110277408Y-60126851D01*
X110330798Y-60151747D01*
X110336106Y-60153169D01*
X110336108Y-60153170D01*
X110531851Y-60205619D01*
X110531853Y-60205619D01*
X110537166Y-60207043D01*
X110750000Y-60225664D01*
X110962834Y-60207043D01*
X110968147Y-60205619D01*
X110968149Y-60205619D01*
X111163892Y-60153170D01*
X111163894Y-60153169D01*
X111169202Y-60151747D01*
X111222592Y-60126851D01*
X111357845Y-60063782D01*
X111357850Y-60063779D01*
X111362832Y-60061456D01*
X111367341Y-60058299D01*
X111533331Y-59942072D01*
X111533334Y-59942070D01*
X111537842Y-59938913D01*
X111688913Y-59787842D01*
X111698445Y-59774230D01*
X111808299Y-59617341D01*
X111808300Y-59617339D01*
X111811456Y-59612832D01*
X111813779Y-59607850D01*
X111813782Y-59607845D01*
X111885805Y-59453390D01*
X111932722Y-59400105D01*
X112001000Y-59380644D01*
X112068959Y-59401186D01*
X112114195Y-59453390D01*
X112186218Y-59607845D01*
X112186221Y-59607850D01*
X112188544Y-59612832D01*
X112191700Y-59617339D01*
X112191701Y-59617341D01*
X112301556Y-59774230D01*
X112311087Y-59787842D01*
X112462158Y-59938913D01*
X112466666Y-59942070D01*
X112466669Y-59942072D01*
X112632659Y-60058299D01*
X112637168Y-60061456D01*
X112642150Y-60063779D01*
X112642155Y-60063782D01*
X112777408Y-60126851D01*
X112830798Y-60151747D01*
X112836106Y-60153169D01*
X112836108Y-60153170D01*
X113031851Y-60205619D01*
X113031853Y-60205619D01*
X113037166Y-60207043D01*
X113250000Y-60225664D01*
X113462834Y-60207043D01*
X113468147Y-60205619D01*
X113468149Y-60205619D01*
X113663892Y-60153170D01*
X113663894Y-60153169D01*
X113669202Y-60151747D01*
X113722592Y-60126851D01*
X113857845Y-60063782D01*
X113857850Y-60063779D01*
X113862832Y-60061456D01*
X113867341Y-60058299D01*
X114033331Y-59942072D01*
X114033334Y-59942070D01*
X114037842Y-59938913D01*
X114188913Y-59787842D01*
X114198445Y-59774230D01*
X114308299Y-59617341D01*
X114308300Y-59617339D01*
X114311456Y-59612832D01*
X114313779Y-59607850D01*
X114313782Y-59607845D01*
X114399424Y-59424184D01*
X114399425Y-59424183D01*
X114401747Y-59419202D01*
X114406575Y-59401186D01*
X114455619Y-59218149D01*
X114455619Y-59218147D01*
X114457043Y-59212834D01*
X114475664Y-59000000D01*
X114457043Y-58787166D01*
X114452009Y-58768379D01*
X114403170Y-58586108D01*
X114403169Y-58586106D01*
X114401747Y-58580798D01*
X114395901Y-58568261D01*
X114313782Y-58392155D01*
X114313779Y-58392150D01*
X114311456Y-58387168D01*
X114308299Y-58382659D01*
X114192072Y-58216669D01*
X114192070Y-58216666D01*
X114188913Y-58212158D01*
X114037842Y-58061087D01*
X114033334Y-58057930D01*
X114033331Y-58057928D01*
X113867341Y-57941701D01*
X113867339Y-57941700D01*
X113862832Y-57938544D01*
X113857850Y-57936221D01*
X113857845Y-57936218D01*
X113674184Y-57850576D01*
X113674183Y-57850575D01*
X113669202Y-57848253D01*
X113663894Y-57846831D01*
X113663892Y-57846830D01*
X113468149Y-57794381D01*
X113468147Y-57794381D01*
X113462834Y-57792957D01*
X113250000Y-57774336D01*
X113037166Y-57792957D01*
X113031853Y-57794381D01*
X113031851Y-57794381D01*
X112836108Y-57846830D01*
X112836106Y-57846831D01*
X112830798Y-57848253D01*
X112825817Y-57850575D01*
X112825816Y-57850576D01*
X112642155Y-57936218D01*
X112642150Y-57936221D01*
X112637168Y-57938544D01*
X112632661Y-57941700D01*
X112632659Y-57941701D01*
X112466669Y-58057928D01*
X112466666Y-58057930D01*
X112462158Y-58061087D01*
X112311087Y-58212158D01*
X112307930Y-58216666D01*
X112307928Y-58216669D01*
X112191701Y-58382659D01*
X112188544Y-58387168D01*
X112186221Y-58392150D01*
X112186218Y-58392155D01*
X112114195Y-58546610D01*
X112067278Y-58599895D01*
X111999000Y-58619356D01*
X111931041Y-58598814D01*
X111885805Y-58546610D01*
X111813782Y-58392155D01*
X111813779Y-58392150D01*
X111811456Y-58387168D01*
X111808299Y-58382659D01*
X111692072Y-58216669D01*
X111692070Y-58216666D01*
X111688913Y-58212158D01*
X111537842Y-58061087D01*
X111533334Y-58057930D01*
X111533331Y-58057928D01*
X111367341Y-57941701D01*
X111367339Y-57941700D01*
X111362832Y-57938544D01*
X111357850Y-57936221D01*
X111357845Y-57936218D01*
X111174184Y-57850576D01*
X111174183Y-57850575D01*
X111169202Y-57848253D01*
X111163894Y-57846831D01*
X111163892Y-57846830D01*
X110968149Y-57794381D01*
X110968147Y-57794381D01*
X110962834Y-57792957D01*
X110750000Y-57774336D01*
X110537166Y-57792957D01*
X110531853Y-57794381D01*
X110531851Y-57794381D01*
X110336108Y-57846830D01*
X110336106Y-57846831D01*
X110330798Y-57848253D01*
X110325817Y-57850575D01*
X110325816Y-57850576D01*
X110142155Y-57936218D01*
X110142150Y-57936221D01*
X110137168Y-57938544D01*
X110132661Y-57941700D01*
X110132659Y-57941701D01*
X109966669Y-58057928D01*
X109966666Y-58057930D01*
X109962158Y-58061087D01*
X109811087Y-58212158D01*
X109807930Y-58216666D01*
X109807928Y-58216669D01*
X109691701Y-58382659D01*
X109688544Y-58387168D01*
X109686221Y-58392150D01*
X109686218Y-58392155D01*
X109604099Y-58568261D01*
X109598253Y-58580798D01*
X109596831Y-58586106D01*
X109596830Y-58586108D01*
X109547991Y-58768379D01*
X109542957Y-58787166D01*
X109524336Y-59000000D01*
X108108500Y-59000000D01*
X108108500Y-57819958D01*
X108109578Y-57803512D01*
X108112673Y-57780002D01*
X108113751Y-57771814D01*
X108092838Y-57612963D01*
X108031524Y-57464938D01*
X107958478Y-57369743D01*
X107958474Y-57369739D01*
X107946834Y-57354569D01*
X107939016Y-57344380D01*
X107939013Y-57344377D01*
X107933987Y-57337827D01*
X107920249Y-57327285D01*
X107908621Y-57318362D01*
X107896230Y-57307495D01*
X106789271Y-56200536D01*
X106755245Y-56138224D01*
X106760310Y-56067409D01*
X106802857Y-56010573D01*
X106817173Y-56002105D01*
X106816985Y-56001790D01*
X106957872Y-55917805D01*
X106957874Y-55917804D01*
X106963924Y-55914197D01*
X107087805Y-55796227D01*
X107092980Y-55788439D01*
X107178570Y-55659614D01*
X107182471Y-55653743D01*
X107243218Y-55493826D01*
X107250961Y-55438733D01*
X107266475Y-55328347D01*
X107266475Y-55328344D01*
X107267026Y-55324425D01*
X107267325Y-55303000D01*
X107248256Y-55133000D01*
X107225845Y-55068642D01*
X107219679Y-55050937D01*
X107216167Y-54980027D01*
X107251548Y-54918475D01*
X107314590Y-54885823D01*
X107338671Y-54883500D01*
X108426864Y-54883500D01*
X108443307Y-54884578D01*
X108475000Y-54888750D01*
X108483189Y-54887672D01*
X108514874Y-54883501D01*
X108514884Y-54883500D01*
X108514885Y-54883500D01*
X108530814Y-54881403D01*
X108625457Y-54868943D01*
X108625664Y-54868916D01*
X108625666Y-54868916D01*
X108633851Y-54867838D01*
X108781876Y-54806524D01*
X108789443Y-54800718D01*
X108877072Y-54733477D01*
X108877075Y-54733474D01*
X108902434Y-54714015D01*
X108908987Y-54708987D01*
X108919989Y-54694649D01*
X108928452Y-54683621D01*
X108939319Y-54671230D01*
X108955848Y-54654701D01*
X109018160Y-54620675D01*
X109088975Y-54625740D01*
X109141918Y-54664813D01*
X109142056Y-54664680D01*
X109260889Y-54787734D01*
X109266785Y-54791592D01*
X109383301Y-54867838D01*
X109404030Y-54881403D01*
X109410634Y-54883859D01*
X109410636Y-54883860D01*
X109557757Y-54938574D01*
X109557759Y-54938574D01*
X109564367Y-54941032D01*
X109643454Y-54951585D01*
X109726949Y-54962726D01*
X109726953Y-54962726D01*
X109733930Y-54963657D01*
X109740941Y-54963019D01*
X109740945Y-54963019D01*
X109897273Y-54948792D01*
X109897275Y-54948792D01*
X109904292Y-54948153D01*
X109910990Y-54945977D01*
X109910993Y-54945976D01*
X110060289Y-54897466D01*
X110060291Y-54897465D01*
X110066985Y-54895290D01*
X110118337Y-54864678D01*
X110207872Y-54811305D01*
X110207874Y-54811304D01*
X110213924Y-54807697D01*
X110337805Y-54689727D01*
X110349501Y-54672124D01*
X110428570Y-54553114D01*
X110432471Y-54547243D01*
X110480196Y-54421606D01*
X110490718Y-54393908D01*
X110490719Y-54393906D01*
X110493218Y-54387326D01*
X110500798Y-54333393D01*
X110516475Y-54221847D01*
X110516475Y-54221844D01*
X110517026Y-54217925D01*
X110517220Y-54204018D01*
X110517270Y-54200462D01*
X110517270Y-54200457D01*
X110517325Y-54196500D01*
X110498256Y-54026500D01*
X110486536Y-53992842D01*
X110444314Y-53871597D01*
X110444313Y-53871595D01*
X110441999Y-53864950D01*
X110351348Y-53719878D01*
X110325047Y-53693392D01*
X110272346Y-53640322D01*
X110230809Y-53598494D01*
X110086373Y-53506833D01*
X110079732Y-53504468D01*
X110076508Y-53502896D01*
X110024047Y-53455058D01*
X110006522Y-53403690D01*
X109999041Y-53336999D01*
X109998256Y-53330000D01*
X109972228Y-53255257D01*
X109944314Y-53175097D01*
X109944313Y-53175095D01*
X109941999Y-53168450D01*
X109865133Y-53045438D01*
X111267000Y-53045438D01*
X111267337Y-53051953D01*
X111276894Y-53144057D01*
X111279788Y-53157456D01*
X111329381Y-53306107D01*
X111335555Y-53319286D01*
X111417788Y-53452173D01*
X111426824Y-53463574D01*
X111537429Y-53573986D01*
X111548840Y-53582998D01*
X111681880Y-53665004D01*
X111695061Y-53671151D01*
X111843814Y-53720491D01*
X111857190Y-53723358D01*
X111948097Y-53732672D01*
X111954513Y-53733000D01*
X111977885Y-53733000D01*
X111993124Y-53728525D01*
X111994329Y-53727135D01*
X111996000Y-53719452D01*
X111996000Y-53047115D01*
X111991525Y-53031876D01*
X111990135Y-53030671D01*
X111982452Y-53029000D01*
X111285115Y-53029000D01*
X111269876Y-53033475D01*
X111268671Y-53034865D01*
X111267000Y-53042548D01*
X111267000Y-53045438D01*
X109865133Y-53045438D01*
X109851348Y-53023378D01*
X109730809Y-52901994D01*
X109647380Y-52849049D01*
X109592316Y-52814104D01*
X109592313Y-52814102D01*
X109586373Y-52810333D01*
X109579740Y-52807971D01*
X109431854Y-52755311D01*
X109431849Y-52755310D01*
X109425219Y-52752949D01*
X109418231Y-52752116D01*
X109418228Y-52752115D01*
X109302655Y-52738334D01*
X109255357Y-52732694D01*
X109248354Y-52733430D01*
X109248353Y-52733430D01*
X109203958Y-52738096D01*
X109085228Y-52750575D01*
X109059226Y-52759427D01*
X108988294Y-52762445D01*
X108926990Y-52726635D01*
X108894778Y-52663367D01*
X108901885Y-52592727D01*
X108911359Y-52574035D01*
X108915003Y-52568123D01*
X108921151Y-52554939D01*
X108970491Y-52406186D01*
X108973358Y-52392810D01*
X108982672Y-52301903D01*
X108983000Y-52295487D01*
X108983000Y-52272115D01*
X108978525Y-52256876D01*
X108977135Y-52255671D01*
X108969452Y-52254000D01*
X108297115Y-52254000D01*
X108281876Y-52258475D01*
X108280671Y-52259865D01*
X108279000Y-52267548D01*
X108279000Y-53540500D01*
X108258998Y-53608621D01*
X108205342Y-53655114D01*
X108153000Y-53666500D01*
X107897000Y-53666500D01*
X107828879Y-53646498D01*
X107782386Y-53592842D01*
X107771000Y-53540500D01*
X107771000Y-51727885D01*
X108279000Y-51727885D01*
X108283475Y-51743124D01*
X108284865Y-51744329D01*
X108292548Y-51746000D01*
X108964885Y-51746000D01*
X108980124Y-51741525D01*
X108981329Y-51740135D01*
X108983000Y-51732452D01*
X108983000Y-51704562D01*
X108982663Y-51698047D01*
X108973106Y-51605943D01*
X108970212Y-51592544D01*
X108920619Y-51443893D01*
X108914445Y-51430715D01*
X108843704Y-51316398D01*
X108824866Y-51247946D01*
X108843588Y-51183979D01*
X108915004Y-51068120D01*
X108921151Y-51054939D01*
X108970491Y-50906186D01*
X108973358Y-50892810D01*
X108982672Y-50801903D01*
X108983000Y-50795487D01*
X108983000Y-50772115D01*
X108978525Y-50756876D01*
X108977135Y-50755671D01*
X108969452Y-50754000D01*
X108297115Y-50754000D01*
X108281876Y-50758475D01*
X108280671Y-50759865D01*
X108279000Y-50767548D01*
X108279000Y-51727885D01*
X107771000Y-51727885D01*
X107771000Y-50227885D01*
X108279000Y-50227885D01*
X108283475Y-50243124D01*
X108284865Y-50244329D01*
X108292548Y-50246000D01*
X108964885Y-50246000D01*
X108980124Y-50241525D01*
X108981329Y-50240135D01*
X108983000Y-50232452D01*
X108983000Y-50204562D01*
X108982663Y-50198047D01*
X108973106Y-50105943D01*
X108970212Y-50092544D01*
X108920619Y-49943893D01*
X108914445Y-49930715D01*
X108843704Y-49816398D01*
X108824866Y-49747946D01*
X108843588Y-49683979D01*
X108915004Y-49568120D01*
X108921151Y-49554939D01*
X108970491Y-49406186D01*
X108973358Y-49392810D01*
X108982672Y-49301903D01*
X108983000Y-49295487D01*
X108983000Y-49272115D01*
X108978525Y-49256876D01*
X108977135Y-49255671D01*
X108969452Y-49254000D01*
X108297115Y-49254000D01*
X108281876Y-49258475D01*
X108280671Y-49259865D01*
X108279000Y-49267548D01*
X108279000Y-50227885D01*
X107771000Y-50227885D01*
X107771000Y-48872000D01*
X107791002Y-48803879D01*
X107844658Y-48757386D01*
X107897000Y-48746000D01*
X108964885Y-48746000D01*
X108980124Y-48741525D01*
X108981329Y-48740135D01*
X108983000Y-48732452D01*
X108983000Y-48704562D01*
X108982663Y-48698047D01*
X108973106Y-48605943D01*
X108970212Y-48592544D01*
X108920619Y-48443893D01*
X108914447Y-48430719D01*
X108845381Y-48319110D01*
X108826543Y-48250658D01*
X108845264Y-48186692D01*
X108879765Y-48130721D01*
X108938805Y-48080430D01*
X109056876Y-48031524D01*
X109110646Y-47990265D01*
X109152072Y-47958477D01*
X109152075Y-47958474D01*
X109177437Y-47939013D01*
X109183987Y-47933987D01*
X109203458Y-47908613D01*
X109214316Y-47896233D01*
X109572099Y-47538450D01*
X109634411Y-47504424D01*
X109644247Y-47502913D01*
X109647274Y-47502292D01*
X109654292Y-47501653D01*
X109660990Y-47499477D01*
X109660993Y-47499476D01*
X109810289Y-47450966D01*
X109810291Y-47450965D01*
X109816985Y-47448790D01*
X109963924Y-47361197D01*
X110087805Y-47243227D01*
X110182471Y-47100743D01*
X110243218Y-46940826D01*
X110267026Y-46771425D01*
X110267325Y-46750000D01*
X110248256Y-46580000D01*
X110240376Y-46557370D01*
X110194315Y-46425102D01*
X110191999Y-46418450D01*
X110188811Y-46413349D01*
X110177479Y-46343676D01*
X110205776Y-46278562D01*
X110264785Y-46239084D01*
X110295844Y-46233500D01*
X110298732Y-46233500D01*
X110401019Y-46222887D01*
X110554726Y-46171606D01*
X110556324Y-46171073D01*
X110556326Y-46171072D01*
X110563268Y-46168756D01*
X110578302Y-46159453D01*
X110702485Y-46082606D01*
X110708713Y-46078752D01*
X110829552Y-45957702D01*
X110835563Y-45947951D01*
X110915462Y-45818331D01*
X110915463Y-45818329D01*
X110919302Y-45812101D01*
X110973149Y-45649757D01*
X110983500Y-45548732D01*
X110983500Y-45001268D01*
X110982182Y-44988559D01*
X110979352Y-44961290D01*
X110972887Y-44898981D01*
X110954057Y-44842542D01*
X110921073Y-44743676D01*
X110921072Y-44743674D01*
X110918756Y-44736732D01*
X110913061Y-44727528D01*
X110832606Y-44597515D01*
X110828752Y-44591287D01*
X110823570Y-44586114D01*
X110819023Y-44580377D01*
X110820830Y-44578945D01*
X110792098Y-44526425D01*
X110797108Y-44455605D01*
X110820499Y-44419147D01*
X110819448Y-44418317D01*
X110832998Y-44401160D01*
X110915004Y-44268120D01*
X110921151Y-44254939D01*
X110970491Y-44106186D01*
X110973358Y-44092810D01*
X110982672Y-44001903D01*
X110982929Y-43996874D01*
X110978525Y-43981876D01*
X110977135Y-43980671D01*
X110969452Y-43979000D01*
X106035115Y-43979000D01*
X106019876Y-43983475D01*
X106018671Y-43984865D01*
X106017000Y-43992548D01*
X106017000Y-43995438D01*
X106017337Y-44001953D01*
X106026894Y-44094057D01*
X106029788Y-44107456D01*
X106079381Y-44256107D01*
X106085555Y-44269286D01*
X106167788Y-44402173D01*
X106181371Y-44419311D01*
X106179441Y-44420841D01*
X106207903Y-44472880D01*
X106202887Y-44543699D01*
X106179201Y-44580617D01*
X106180157Y-44581372D01*
X106175619Y-44587118D01*
X106170448Y-44592298D01*
X106166608Y-44598528D01*
X106166607Y-44598529D01*
X106085255Y-44730507D01*
X106080698Y-44737899D01*
X106026851Y-44900243D01*
X106016500Y-45001268D01*
X106016500Y-45345761D01*
X105996498Y-45413882D01*
X105979595Y-45434856D01*
X105948595Y-45465856D01*
X105886283Y-45499882D01*
X105815468Y-45494817D01*
X105758632Y-45452270D01*
X105733821Y-45385750D01*
X105733500Y-45376761D01*
X105733499Y-45071249D01*
X105733499Y-45068366D01*
X105733141Y-45064461D01*
X105729147Y-45021000D01*
X105726753Y-44994938D01*
X105716208Y-44961290D01*
X105677744Y-44838550D01*
X105677743Y-44838548D01*
X105675472Y-44831301D01*
X105586639Y-44684619D01*
X105491115Y-44589095D01*
X105457089Y-44526783D01*
X105462154Y-44455968D01*
X105491115Y-44410905D01*
X105586639Y-44315381D01*
X105675472Y-44168699D01*
X105694665Y-44107456D01*
X105719578Y-44027957D01*
X105726753Y-44005062D01*
X105733500Y-43931635D01*
X105733499Y-43453126D01*
X106017071Y-43453126D01*
X106021475Y-43468124D01*
X106022865Y-43469329D01*
X106030548Y-43471000D01*
X106727885Y-43471000D01*
X106743124Y-43466525D01*
X106744329Y-43465135D01*
X106746000Y-43457452D01*
X106746000Y-43452885D01*
X107254000Y-43452885D01*
X107258475Y-43468124D01*
X107259865Y-43469329D01*
X107267548Y-43471000D01*
X108227885Y-43471000D01*
X108243124Y-43466525D01*
X108244329Y-43465135D01*
X108246000Y-43457452D01*
X108246000Y-43452885D01*
X108754000Y-43452885D01*
X108758475Y-43468124D01*
X108759865Y-43469329D01*
X108767548Y-43471000D01*
X109727885Y-43471000D01*
X109743124Y-43466525D01*
X109744329Y-43465135D01*
X109746000Y-43457452D01*
X109746000Y-43452885D01*
X110254000Y-43452885D01*
X110258475Y-43468124D01*
X110259865Y-43469329D01*
X110267548Y-43471000D01*
X110964885Y-43471000D01*
X110980124Y-43466525D01*
X110981329Y-43465135D01*
X110983000Y-43457452D01*
X110983000Y-43454562D01*
X110982663Y-43448047D01*
X110973106Y-43355943D01*
X110970212Y-43342544D01*
X110920619Y-43193893D01*
X110914445Y-43180714D01*
X110832212Y-43047827D01*
X110823176Y-43036426D01*
X110712571Y-42926014D01*
X110701160Y-42917002D01*
X110568120Y-42834996D01*
X110554939Y-42828849D01*
X110406186Y-42779509D01*
X110392810Y-42776642D01*
X110301903Y-42767328D01*
X110295486Y-42767000D01*
X110272115Y-42767000D01*
X110256876Y-42771475D01*
X110255671Y-42772865D01*
X110254000Y-42780548D01*
X110254000Y-43452885D01*
X109746000Y-43452885D01*
X109746000Y-42785115D01*
X109741525Y-42769876D01*
X109740135Y-42768671D01*
X109732452Y-42767000D01*
X109704562Y-42767000D01*
X109698047Y-42767337D01*
X109605943Y-42776894D01*
X109592544Y-42779788D01*
X109443893Y-42829381D01*
X109430715Y-42835555D01*
X109316398Y-42906296D01*
X109247946Y-42925134D01*
X109183979Y-42906412D01*
X109068120Y-42834996D01*
X109054939Y-42828849D01*
X108906186Y-42779509D01*
X108892810Y-42776642D01*
X108801903Y-42767328D01*
X108795486Y-42767000D01*
X108772115Y-42767000D01*
X108756876Y-42771475D01*
X108755671Y-42772865D01*
X108754000Y-42780548D01*
X108754000Y-43452885D01*
X108246000Y-43452885D01*
X108246000Y-42785115D01*
X108241525Y-42769876D01*
X108240135Y-42768671D01*
X108232452Y-42767000D01*
X108204562Y-42767000D01*
X108198047Y-42767337D01*
X108105943Y-42776894D01*
X108092544Y-42779788D01*
X107943893Y-42829381D01*
X107930715Y-42835555D01*
X107816398Y-42906296D01*
X107747946Y-42925134D01*
X107683979Y-42906412D01*
X107568120Y-42834996D01*
X107554939Y-42828849D01*
X107406186Y-42779509D01*
X107392810Y-42776642D01*
X107301903Y-42767328D01*
X107295486Y-42767000D01*
X107272115Y-42767000D01*
X107256876Y-42771475D01*
X107255671Y-42772865D01*
X107254000Y-42780548D01*
X107254000Y-43452885D01*
X106746000Y-43452885D01*
X106746000Y-42785115D01*
X106741525Y-42769876D01*
X106740135Y-42768671D01*
X106732452Y-42767000D01*
X106704562Y-42767000D01*
X106698047Y-42767337D01*
X106605943Y-42776894D01*
X106592544Y-42779788D01*
X106443893Y-42829381D01*
X106430714Y-42835555D01*
X106297827Y-42917788D01*
X106286426Y-42926824D01*
X106176014Y-43037429D01*
X106167002Y-43048840D01*
X106084996Y-43181880D01*
X106078849Y-43195061D01*
X106029509Y-43343814D01*
X106026642Y-43357190D01*
X106017328Y-43448097D01*
X106017071Y-43453126D01*
X105733499Y-43453126D01*
X105733499Y-43418366D01*
X105733117Y-43414202D01*
X105728166Y-43360319D01*
X105726753Y-43344938D01*
X105706017Y-43278770D01*
X105677744Y-43188550D01*
X105677743Y-43188548D01*
X105675472Y-43181301D01*
X105586639Y-43034619D01*
X105465381Y-42913361D01*
X105318699Y-42824528D01*
X105311452Y-42822257D01*
X105311450Y-42822256D01*
X105238883Y-42799515D01*
X105155062Y-42773247D01*
X105081635Y-42766500D01*
X105070435Y-42766500D01*
X104709499Y-42766501D01*
X104641380Y-42746499D01*
X104594887Y-42692844D01*
X104583500Y-42640501D01*
X104583500Y-42252155D01*
X104603502Y-42184034D01*
X104657158Y-42137541D01*
X104727432Y-42127437D01*
X104792012Y-42156931D01*
X104809462Y-42175450D01*
X104816013Y-42183987D01*
X104822559Y-42189010D01*
X104822562Y-42189013D01*
X104847927Y-42208476D01*
X104847929Y-42208477D01*
X104936572Y-42276496D01*
X104943124Y-42281524D01*
X104950750Y-42284683D01*
X104950752Y-42284684D01*
X105000140Y-42305141D01*
X105091149Y-42342838D01*
X105099336Y-42343916D01*
X105099337Y-42343916D01*
X105110542Y-42345391D01*
X105141738Y-42349498D01*
X105210115Y-42358500D01*
X105210118Y-42358500D01*
X105210126Y-42358501D01*
X105241811Y-42362672D01*
X105250000Y-42363750D01*
X105281693Y-42359578D01*
X105298136Y-42358500D01*
X110451864Y-42358500D01*
X110468307Y-42359578D01*
X110500000Y-42363750D01*
X110508189Y-42362672D01*
X110539874Y-42358501D01*
X110539884Y-42358500D01*
X110539885Y-42358500D01*
X110539901Y-42358498D01*
X110639457Y-42345391D01*
X110650664Y-42343916D01*
X110650666Y-42343915D01*
X110658851Y-42342838D01*
X110806876Y-42281524D01*
X110844778Y-42252441D01*
X110902072Y-42208477D01*
X110902075Y-42208474D01*
X110933987Y-42183987D01*
X110940538Y-42175450D01*
X110953452Y-42158621D01*
X110964319Y-42146230D01*
X110965144Y-42145405D01*
X111027456Y-42111379D01*
X111054239Y-42108500D01*
X111795761Y-42108500D01*
X111863882Y-42128502D01*
G37*
%TD.AperFunction*%
%TA.AperFunction,Conductor*%
G36*
X91941824Y-56503502D02*
G01*
X91962798Y-56520404D01*
X92338632Y-56896237D01*
X92349499Y-56908629D01*
X92357612Y-56919202D01*
X92368957Y-56933987D01*
X92375507Y-56939013D01*
X92400865Y-56958471D01*
X92400881Y-56958485D01*
X92447668Y-56994385D01*
X92496068Y-57031524D01*
X92546964Y-57052606D01*
X92554053Y-57055542D01*
X92609334Y-57100090D01*
X92631755Y-57167453D01*
X92614197Y-57236245D01*
X92594930Y-57261046D01*
X92512274Y-57343702D01*
X92499883Y-57354569D01*
X92474521Y-57374030D01*
X92450034Y-57405942D01*
X92450031Y-57405945D01*
X92376984Y-57501141D01*
X92373824Y-57508771D01*
X92342111Y-57585333D01*
X92315670Y-57649166D01*
X92315007Y-57654205D01*
X92300008Y-57768132D01*
X92300008Y-57768137D01*
X92294758Y-57808017D01*
X92295836Y-57816205D01*
X92298930Y-57839707D01*
X92300008Y-57856153D01*
X92300008Y-59659186D01*
X92279919Y-59727442D01*
X92221206Y-59818546D01*
X92220473Y-59820560D01*
X92173586Y-59871260D01*
X92104854Y-59889049D01*
X92066665Y-59881815D01*
X92028262Y-59868141D01*
X91970800Y-59826448D01*
X91948760Y-59771992D01*
X91947102Y-59772369D01*
X91945541Y-59765497D01*
X91944756Y-59758500D01*
X91940217Y-59745464D01*
X91890814Y-59603597D01*
X91890813Y-59603595D01*
X91888499Y-59596950D01*
X91850535Y-59536194D01*
X91801581Y-59457852D01*
X91797848Y-59451878D01*
X91765400Y-59419202D01*
X91727110Y-59380644D01*
X91677309Y-59330494D01*
X91590403Y-59275342D01*
X91538816Y-59242604D01*
X91538813Y-59242602D01*
X91532873Y-59238833D01*
X91526240Y-59236471D01*
X91378354Y-59183811D01*
X91378349Y-59183810D01*
X91371719Y-59181449D01*
X91364731Y-59180616D01*
X91364728Y-59180615D01*
X91244014Y-59166221D01*
X91201857Y-59161194D01*
X91194854Y-59161930D01*
X91194853Y-59161930D01*
X91150458Y-59166596D01*
X91031728Y-59179075D01*
X91021571Y-59182533D01*
X90876456Y-59231934D01*
X90876453Y-59231935D01*
X90869789Y-59234204D01*
X90863794Y-59237892D01*
X90863790Y-59237894D01*
X90760697Y-59301318D01*
X90694675Y-59320000D01*
X90174636Y-59320000D01*
X90158190Y-59318922D01*
X90134688Y-59315828D01*
X90126500Y-59314750D01*
X90118312Y-59315828D01*
X90086629Y-59319999D01*
X90086620Y-59320000D01*
X90086615Y-59320000D01*
X89967650Y-59335662D01*
X89960021Y-59338822D01*
X89958604Y-59339409D01*
X89955602Y-59340006D01*
X89952042Y-59340960D01*
X89951979Y-59340727D01*
X89910386Y-59349000D01*
X89562000Y-59349000D01*
X89493879Y-59328998D01*
X89447386Y-59275342D01*
X89436000Y-59223000D01*
X89436000Y-58967000D01*
X89456002Y-58898879D01*
X89509658Y-58852386D01*
X89562000Y-58841000D01*
X90979884Y-58841000D01*
X90995123Y-58836525D01*
X90996328Y-58835135D01*
X90997999Y-58827452D01*
X90997999Y-58670331D01*
X90997629Y-58663510D01*
X90992105Y-58612648D01*
X90988479Y-58597397D01*
X90953819Y-58504942D01*
X90948636Y-58434135D01*
X90953817Y-58416488D01*
X90991745Y-58315316D01*
X90998500Y-58253134D01*
X90998500Y-57396866D01*
X90991745Y-57334684D01*
X90953819Y-57233516D01*
X90948636Y-57162711D01*
X90953819Y-57145058D01*
X90988478Y-57052606D01*
X90992105Y-57037351D01*
X90997631Y-56986486D01*
X90998000Y-56979672D01*
X90998000Y-56827115D01*
X90993525Y-56811876D01*
X90992135Y-56810671D01*
X90984452Y-56809000D01*
X89562000Y-56809000D01*
X89493879Y-56788998D01*
X89447386Y-56735342D01*
X89436000Y-56683000D01*
X89436000Y-56609500D01*
X89456002Y-56541379D01*
X89509658Y-56494886D01*
X89562000Y-56483500D01*
X91873703Y-56483500D01*
X91941824Y-56503502D01*
G37*
%TD.AperFunction*%
%TA.AperFunction,Conductor*%
G36*
X105309816Y-57639786D02*
G01*
X105327264Y-57654338D01*
X105979595Y-58306669D01*
X106013621Y-58368981D01*
X106016500Y-58395764D01*
X106016500Y-59190500D01*
X105996498Y-59258621D01*
X105942842Y-59305114D01*
X105890500Y-59316500D01*
X105137441Y-59316500D01*
X105069320Y-59296498D01*
X105022827Y-59242842D01*
X105012226Y-59204545D01*
X105009901Y-59183811D01*
X104998256Y-59080000D01*
X104979713Y-59026749D01*
X104944314Y-58925097D01*
X104944313Y-58925095D01*
X104941999Y-58918450D01*
X104851348Y-58773378D01*
X104730809Y-58651994D01*
X104648759Y-58599924D01*
X104592316Y-58564104D01*
X104592313Y-58564102D01*
X104586373Y-58560333D01*
X104579740Y-58557971D01*
X104431854Y-58505311D01*
X104431849Y-58505310D01*
X104425219Y-58502949D01*
X104418231Y-58502116D01*
X104418228Y-58502115D01*
X104294378Y-58487347D01*
X104255357Y-58482694D01*
X104248354Y-58483430D01*
X104248353Y-58483430D01*
X104211086Y-58487347D01*
X104085228Y-58500575D01*
X104075071Y-58504033D01*
X103929956Y-58553434D01*
X103929953Y-58553435D01*
X103923289Y-58555704D01*
X103915765Y-58560333D01*
X103875152Y-58585318D01*
X103809130Y-58604000D01*
X102972000Y-58604000D01*
X102903879Y-58583998D01*
X102857386Y-58530342D01*
X102846000Y-58478000D01*
X102846000Y-58222000D01*
X102866002Y-58153879D01*
X102919658Y-58107386D01*
X102972000Y-58096000D01*
X104289884Y-58096000D01*
X104305123Y-58091525D01*
X104306328Y-58090135D01*
X104307999Y-58082452D01*
X104307999Y-57830479D01*
X104328001Y-57762358D01*
X104381657Y-57715865D01*
X104451931Y-57705761D01*
X104477918Y-57712382D01*
X104564367Y-57744532D01*
X104643187Y-57755049D01*
X104726949Y-57766226D01*
X104726953Y-57766226D01*
X104733930Y-57767157D01*
X104740941Y-57766519D01*
X104740945Y-57766519D01*
X104897273Y-57752292D01*
X104897275Y-57752292D01*
X104904292Y-57751653D01*
X104910990Y-57749477D01*
X104910993Y-57749476D01*
X105060289Y-57700966D01*
X105060291Y-57700965D01*
X105066985Y-57698790D01*
X105163030Y-57641536D01*
X105173652Y-57635204D01*
X105242407Y-57617504D01*
X105309816Y-57639786D01*
G37*
%TD.AperFunction*%
%TA.AperFunction,Conductor*%
G36*
X85967012Y-44310478D02*
G01*
X85987713Y-44333431D01*
X86020810Y-44380698D01*
X86032251Y-44397038D01*
X86187962Y-44552749D01*
X86192471Y-44555906D01*
X86192473Y-44555908D01*
X86244443Y-44592298D01*
X86368346Y-44679056D01*
X86567924Y-44772120D01*
X86780629Y-44829115D01*
X87000000Y-44848307D01*
X87005475Y-44847828D01*
X87143319Y-44835769D01*
X87212924Y-44849759D01*
X87263916Y-44899158D01*
X87280300Y-44961290D01*
X87280300Y-46531217D01*
X87260298Y-46599338D01*
X87206642Y-46645831D01*
X87136368Y-46655935D01*
X87090161Y-46639671D01*
X87015221Y-46595352D01*
X87000790Y-46589107D01*
X86866395Y-46550061D01*
X86852294Y-46550101D01*
X86849000Y-46557370D01*
X86849000Y-49486878D01*
X86852973Y-49500409D01*
X86860871Y-49501544D01*
X87000790Y-49460893D01*
X87015221Y-49454648D01*
X87144676Y-49378090D01*
X87152364Y-49372126D01*
X87218449Y-49346179D01*
X87288072Y-49360080D01*
X87304158Y-49370418D01*
X87308193Y-49374453D01*
X87315023Y-49378492D01*
X87315024Y-49378493D01*
X87354897Y-49402074D01*
X87451399Y-49459145D01*
X87459010Y-49461356D01*
X87459012Y-49461357D01*
X87511231Y-49476528D01*
X87611169Y-49505562D01*
X87617574Y-49506066D01*
X87617579Y-49506067D01*
X87646042Y-49508307D01*
X87646050Y-49508307D01*
X87648498Y-49508500D01*
X87694450Y-49508500D01*
X87762571Y-49528502D01*
X87801389Y-49573098D01*
X87803440Y-49571856D01*
X87888406Y-49712154D01*
X87888409Y-49712157D01*
X87892056Y-49718180D01*
X88010889Y-49841234D01*
X88154030Y-49934903D01*
X88173535Y-49942157D01*
X88230409Y-49984649D01*
X88255282Y-50051146D01*
X88240256Y-50120534D01*
X88218707Y-50149348D01*
X86912883Y-51455172D01*
X86850571Y-51489198D01*
X86816458Y-51491514D01*
X86816447Y-51491791D01*
X86813958Y-51491693D01*
X86811502Y-51491500D01*
X86378498Y-51491500D01*
X86376050Y-51491693D01*
X86376042Y-51491693D01*
X86347579Y-51493933D01*
X86347574Y-51493934D01*
X86341169Y-51494438D01*
X86241231Y-51523472D01*
X86189012Y-51538643D01*
X86189010Y-51538644D01*
X86181399Y-51540855D01*
X86174572Y-51544892D01*
X86174573Y-51544892D01*
X86045020Y-51621509D01*
X86045017Y-51621511D01*
X86038193Y-51625547D01*
X85960194Y-51703546D01*
X85897882Y-51737572D01*
X85827067Y-51732507D01*
X85781693Y-51703234D01*
X85735777Y-51656996D01*
X85735773Y-51656993D01*
X85730809Y-51651994D01*
X85658244Y-51605943D01*
X85592316Y-51564104D01*
X85592313Y-51564102D01*
X85586373Y-51560333D01*
X85579740Y-51557971D01*
X85431854Y-51505311D01*
X85431849Y-51505310D01*
X85425219Y-51502949D01*
X85418231Y-51502116D01*
X85418228Y-51502115D01*
X85302655Y-51488334D01*
X85255357Y-51482694D01*
X85248354Y-51483430D01*
X85248353Y-51483430D01*
X85203958Y-51488096D01*
X85085228Y-51500575D01*
X85076636Y-51503500D01*
X84929956Y-51553434D01*
X84929953Y-51553435D01*
X84923289Y-51555704D01*
X84777588Y-51645340D01*
X84772557Y-51650267D01*
X84772554Y-51650269D01*
X84730425Y-51691525D01*
X84655366Y-51765028D01*
X84651547Y-51770953D01*
X84651546Y-51770955D01*
X84627873Y-51807689D01*
X84562698Y-51908820D01*
X84560287Y-51915443D01*
X84560286Y-51915446D01*
X84506600Y-52062947D01*
X84506599Y-52062952D01*
X84504190Y-52069570D01*
X84500282Y-52100508D01*
X84486152Y-52212352D01*
X84457770Y-52277429D01*
X84422587Y-52304563D01*
X84423289Y-52305704D01*
X84277588Y-52395340D01*
X84265516Y-52407162D01*
X84225227Y-52446615D01*
X84200396Y-52465464D01*
X84193124Y-52468476D01*
X84186571Y-52473504D01*
X84186568Y-52473506D01*
X84124674Y-52521000D01*
X84097928Y-52541523D01*
X84097925Y-52541526D01*
X84066013Y-52566013D01*
X84060983Y-52572568D01*
X84046548Y-52591379D01*
X84035681Y-52603770D01*
X82433890Y-54205561D01*
X82371578Y-54239587D01*
X82329876Y-54241580D01*
X82286991Y-54236466D01*
X82255357Y-54232694D01*
X82248354Y-54233430D01*
X82248353Y-54233430D01*
X82209383Y-54237526D01*
X82085228Y-54250575D01*
X82078560Y-54252845D01*
X81929956Y-54303434D01*
X81929953Y-54303435D01*
X81923289Y-54305704D01*
X81777588Y-54395340D01*
X81772557Y-54400267D01*
X81772554Y-54400269D01*
X81740297Y-54431858D01*
X81655366Y-54515028D01*
X81651547Y-54520953D01*
X81651546Y-54520955D01*
X81634605Y-54547243D01*
X81577012Y-54636610D01*
X81571438Y-54645259D01*
X81517724Y-54691684D01*
X81447437Y-54701699D01*
X81382894Y-54672124D01*
X81376432Y-54666099D01*
X81049839Y-54339506D01*
X81035095Y-54321779D01*
X81020769Y-54300934D01*
X81020767Y-54300931D01*
X81016466Y-54294674D01*
X81010800Y-54289625D01*
X81010794Y-54289619D01*
X81002107Y-54281880D01*
X80964551Y-54221630D01*
X80966332Y-54148135D01*
X80995138Y-54061290D01*
X80998005Y-54047914D01*
X81007672Y-53953562D01*
X81008000Y-53947146D01*
X81008000Y-52222115D01*
X81003525Y-52206876D01*
X81002135Y-52205671D01*
X80994452Y-52204000D01*
X77510116Y-52204000D01*
X77494877Y-52208475D01*
X77493672Y-52209865D01*
X77492001Y-52217548D01*
X77492001Y-53940500D01*
X77471999Y-54008621D01*
X77418343Y-54055114D01*
X77366001Y-54066500D01*
X76134500Y-54066500D01*
X76066379Y-54046498D01*
X76019886Y-53992842D01*
X76008500Y-53940500D01*
X76008500Y-51677885D01*
X77492000Y-51677885D01*
X77496475Y-51693124D01*
X77497865Y-51694329D01*
X77505548Y-51696000D01*
X78977885Y-51696000D01*
X78993124Y-51691525D01*
X78994329Y-51690135D01*
X78996000Y-51682452D01*
X78996000Y-51677885D01*
X79504000Y-51677885D01*
X79508475Y-51693124D01*
X79509865Y-51694329D01*
X79517548Y-51696000D01*
X80989884Y-51696000D01*
X81005123Y-51691525D01*
X81006328Y-51690135D01*
X81007999Y-51682452D01*
X81007999Y-49952905D01*
X81007662Y-49946386D01*
X80997743Y-49850794D01*
X80994851Y-49837400D01*
X80943412Y-49683216D01*
X80937239Y-49670038D01*
X80851937Y-49532193D01*
X80842901Y-49520792D01*
X80728171Y-49406261D01*
X80716760Y-49397249D01*
X80578757Y-49312184D01*
X80565576Y-49306037D01*
X80411290Y-49254862D01*
X80397914Y-49251995D01*
X80303562Y-49242328D01*
X80297145Y-49242000D01*
X79522115Y-49242000D01*
X79506876Y-49246475D01*
X79505671Y-49247865D01*
X79504000Y-49255548D01*
X79504000Y-51677885D01*
X78996000Y-51677885D01*
X78996000Y-49260116D01*
X78991525Y-49244877D01*
X78990135Y-49243672D01*
X78982452Y-49242001D01*
X78202905Y-49242001D01*
X78196386Y-49242338D01*
X78100794Y-49252257D01*
X78087400Y-49255149D01*
X77933216Y-49306588D01*
X77920038Y-49312761D01*
X77782193Y-49398063D01*
X77770792Y-49407099D01*
X77656261Y-49521829D01*
X77647249Y-49533240D01*
X77562184Y-49671243D01*
X77556037Y-49684424D01*
X77504862Y-49838710D01*
X77501995Y-49852086D01*
X77492328Y-49946438D01*
X77492000Y-49952855D01*
X77492000Y-51677885D01*
X76008500Y-51677885D01*
X76008500Y-49573477D01*
X76028502Y-49505356D01*
X76045405Y-49484382D01*
X76290501Y-49239286D01*
X83982750Y-49239286D01*
X83999443Y-49409536D01*
X84053440Y-49571856D01*
X84057087Y-49577878D01*
X84057088Y-49577880D01*
X84138406Y-49712154D01*
X84138409Y-49712157D01*
X84142056Y-49718180D01*
X84260889Y-49841234D01*
X84404030Y-49934903D01*
X84410634Y-49937359D01*
X84410636Y-49937360D01*
X84557757Y-49992074D01*
X84557759Y-49992074D01*
X84564367Y-49994532D01*
X84633504Y-50003757D01*
X84726949Y-50016226D01*
X84726953Y-50016226D01*
X84733930Y-50017157D01*
X84740941Y-50016519D01*
X84740945Y-50016519D01*
X84897273Y-50002292D01*
X84897275Y-50002292D01*
X84904292Y-50001653D01*
X84910990Y-49999477D01*
X84910993Y-49999476D01*
X85060289Y-49950966D01*
X85060291Y-49950965D01*
X85066985Y-49948790D01*
X85213924Y-49861197D01*
X85337805Y-49743227D01*
X85351079Y-49723249D01*
X85400654Y-49648632D01*
X85432471Y-49600743D01*
X85487793Y-49455108D01*
X85490718Y-49447408D01*
X85490719Y-49447406D01*
X85493218Y-49440826D01*
X85498076Y-49406261D01*
X85516475Y-49275347D01*
X85516475Y-49275344D01*
X85517026Y-49271425D01*
X85517325Y-49250000D01*
X85498256Y-49080000D01*
X85474446Y-49011624D01*
X85444314Y-48925097D01*
X85444313Y-48925095D01*
X85441999Y-48918450D01*
X85439208Y-48913984D01*
X85787001Y-48913984D01*
X85787195Y-48918920D01*
X85789430Y-48947336D01*
X85791730Y-48959931D01*
X85834107Y-49105790D01*
X85840352Y-49120221D01*
X85916911Y-49249678D01*
X85926551Y-49262104D01*
X86032896Y-49368449D01*
X86045322Y-49378089D01*
X86174779Y-49454648D01*
X86189210Y-49460893D01*
X86323605Y-49499939D01*
X86337706Y-49499899D01*
X86341000Y-49492630D01*
X86341000Y-48297115D01*
X86336525Y-48281876D01*
X86335135Y-48280671D01*
X86327452Y-48279000D01*
X85805116Y-48279000D01*
X85789877Y-48283475D01*
X85788672Y-48284865D01*
X85787001Y-48292548D01*
X85787001Y-48913984D01*
X85439208Y-48913984D01*
X85351348Y-48773378D01*
X85338159Y-48760096D01*
X85235772Y-48656992D01*
X85230809Y-48651994D01*
X85137130Y-48592544D01*
X85092316Y-48564104D01*
X85092313Y-48564102D01*
X85086373Y-48560333D01*
X85079740Y-48557971D01*
X84931854Y-48505311D01*
X84931849Y-48505310D01*
X84925219Y-48502949D01*
X84918231Y-48502116D01*
X84918228Y-48502115D01*
X84802655Y-48488334D01*
X84755357Y-48482694D01*
X84748354Y-48483430D01*
X84748353Y-48483430D01*
X84703958Y-48488096D01*
X84585228Y-48500575D01*
X84575071Y-48504033D01*
X84429956Y-48553434D01*
X84429953Y-48553435D01*
X84423289Y-48555704D01*
X84277588Y-48645340D01*
X84272557Y-48650267D01*
X84272554Y-48650269D01*
X84265689Y-48656992D01*
X84155366Y-48765028D01*
X84151547Y-48770953D01*
X84151546Y-48770955D01*
X84146135Y-48779352D01*
X84062698Y-48908820D01*
X84060287Y-48915443D01*
X84060286Y-48915446D01*
X84006600Y-49062947D01*
X84006599Y-49062952D01*
X84004190Y-49069570D01*
X83982750Y-49239286D01*
X76290501Y-49239286D01*
X77234383Y-48295405D01*
X77296695Y-48261379D01*
X77323478Y-48258500D01*
X79208654Y-48258500D01*
X79215907Y-48258709D01*
X79289690Y-48262963D01*
X79295257Y-48262289D01*
X79295268Y-48262289D01*
X79319035Y-48259413D01*
X79334172Y-48258500D01*
X82158604Y-48258500D01*
X82175051Y-48259578D01*
X82191516Y-48261746D01*
X82191520Y-48261746D01*
X82197086Y-48262479D01*
X82278489Y-48258640D01*
X82284424Y-48258500D01*
X82306999Y-48258500D01*
X82332989Y-48256181D01*
X82338248Y-48255822D01*
X82421488Y-48251896D01*
X82426947Y-48250646D01*
X82426952Y-48250645D01*
X82438970Y-48247892D01*
X82455899Y-48245211D01*
X82473762Y-48243617D01*
X82479178Y-48242135D01*
X82479180Y-48242135D01*
X82554133Y-48221630D01*
X82559251Y-48220344D01*
X82635000Y-48202995D01*
X82635002Y-48202994D01*
X82640470Y-48201742D01*
X82650970Y-48197263D01*
X82656967Y-48194706D01*
X82673142Y-48189073D01*
X82685039Y-48185818D01*
X82685043Y-48185817D01*
X82690451Y-48184337D01*
X82765667Y-48148461D01*
X82770476Y-48146290D01*
X82841949Y-48115804D01*
X82841950Y-48115804D01*
X82847109Y-48113603D01*
X82862110Y-48103749D01*
X82877025Y-48095346D01*
X82893218Y-48087622D01*
X82897769Y-48084352D01*
X82897772Y-48084350D01*
X82960881Y-48039001D01*
X82965232Y-48036011D01*
X83031010Y-47992804D01*
X83031018Y-47992798D01*
X83034874Y-47990265D01*
X83055662Y-47971743D01*
X83065939Y-47963510D01*
X83075654Y-47956529D01*
X83150062Y-47879746D01*
X83151451Y-47878336D01*
X83276902Y-47752885D01*
X85787000Y-47752885D01*
X85791475Y-47768124D01*
X85792865Y-47769329D01*
X85800548Y-47771000D01*
X86322885Y-47771000D01*
X86338124Y-47766525D01*
X86339329Y-47765135D01*
X86341000Y-47757452D01*
X86341000Y-46563122D01*
X86337027Y-46549591D01*
X86329129Y-46548456D01*
X86189210Y-46589107D01*
X86174779Y-46595352D01*
X86045322Y-46671911D01*
X86032896Y-46681551D01*
X85926551Y-46787896D01*
X85916911Y-46800322D01*
X85840352Y-46929779D01*
X85834107Y-46944210D01*
X85791731Y-47090065D01*
X85789430Y-47102667D01*
X85787193Y-47131084D01*
X85787000Y-47136014D01*
X85787000Y-47752885D01*
X83276902Y-47752885D01*
X85325263Y-45704525D01*
X85337654Y-45693657D01*
X85350848Y-45683533D01*
X85355292Y-45680123D01*
X85410158Y-45619826D01*
X85414257Y-45615531D01*
X85430199Y-45599589D01*
X85445212Y-45581634D01*
X85446933Y-45579576D01*
X85450401Y-45575601D01*
X85502712Y-45518112D01*
X85502719Y-45518103D01*
X85506485Y-45513964D01*
X85516014Y-45498773D01*
X85526089Y-45484907D01*
X85533993Y-45475454D01*
X85533998Y-45475447D01*
X85537594Y-45471146D01*
X85578901Y-45398727D01*
X85581585Y-45394244D01*
X85622883Y-45328408D01*
X85625864Y-45323656D01*
X85627954Y-45318456D01*
X85627957Y-45318451D01*
X85632553Y-45307017D01*
X85640012Y-45291588D01*
X85646117Y-45280885D01*
X85646120Y-45280877D01*
X85648899Y-45276006D01*
X85676713Y-45197463D01*
X85678578Y-45192527D01*
X85707566Y-45120416D01*
X85709656Y-45115217D01*
X85713294Y-45097650D01*
X85717899Y-45081156D01*
X85723889Y-45064241D01*
X85724796Y-45058703D01*
X85737355Y-44982009D01*
X85738317Y-44976819D01*
X85754277Y-44899754D01*
X85754278Y-44899750D01*
X85755213Y-44895233D01*
X85756210Y-44877946D01*
X85756815Y-44867452D01*
X85758262Y-44854347D01*
X85759286Y-44848090D01*
X85759286Y-44848083D01*
X85760194Y-44842542D01*
X85760018Y-44831301D01*
X85758516Y-44735706D01*
X85758500Y-44733727D01*
X85758500Y-44405702D01*
X85778502Y-44337581D01*
X85832158Y-44291088D01*
X85902432Y-44280984D01*
X85967012Y-44310478D01*
G37*
%TD.AperFunction*%
%TA.AperFunction,Conductor*%
G36*
X103438586Y-49539288D02*
G01*
X103482474Y-49595095D01*
X103491500Y-49641925D01*
X103491500Y-49693392D01*
X103494500Y-49718180D01*
X103502522Y-49784473D01*
X103499661Y-49784819D01*
X103499661Y-49815181D01*
X103502522Y-49815527D01*
X103491500Y-49906608D01*
X103491500Y-50093392D01*
X103500365Y-50166645D01*
X103502522Y-50184473D01*
X103499661Y-50184819D01*
X103499661Y-50215181D01*
X103502522Y-50215527D01*
X103491500Y-50306608D01*
X103491500Y-50493392D01*
X103497296Y-50541287D01*
X103502522Y-50584473D01*
X103499661Y-50584819D01*
X103499661Y-50615181D01*
X103502522Y-50615527D01*
X103491500Y-50706608D01*
X103491500Y-50893392D01*
X103493367Y-50908820D01*
X103502522Y-50984473D01*
X103499661Y-50984819D01*
X103499661Y-51015181D01*
X103502522Y-51015527D01*
X103491500Y-51106608D01*
X103491500Y-51293392D01*
X103491956Y-51297158D01*
X103502391Y-51383392D01*
X103490718Y-51453422D01*
X103454008Y-51498491D01*
X103397928Y-51541523D01*
X103397925Y-51541526D01*
X103366013Y-51566013D01*
X103360983Y-51572568D01*
X103346548Y-51591379D01*
X103335681Y-51603770D01*
X103323095Y-51616356D01*
X103260783Y-51650382D01*
X103189968Y-51645317D01*
X103133132Y-51602770D01*
X103108321Y-51536250D01*
X103108000Y-51527261D01*
X103108000Y-51272115D01*
X103103525Y-51256876D01*
X103102135Y-51255671D01*
X103094452Y-51254000D01*
X100872000Y-51254000D01*
X100803879Y-51233998D01*
X100757386Y-51180342D01*
X100746000Y-51128000D01*
X100746000Y-50872000D01*
X100766002Y-50803879D01*
X100819658Y-50757386D01*
X100872000Y-50746000D01*
X103089884Y-50746000D01*
X103105123Y-50741525D01*
X103106328Y-50740135D01*
X103107999Y-50732452D01*
X103107999Y-49698092D01*
X103128001Y-49629971D01*
X103185780Y-49581683D01*
X103306876Y-49531524D01*
X103306959Y-49531724D01*
X103371494Y-49516068D01*
X103438586Y-49539288D01*
G37*
%TD.AperFunction*%
%TA.AperFunction,Conductor*%
G36*
X95361536Y-46535156D02*
G01*
X95411365Y-46585729D01*
X95419891Y-46605521D01*
X95444824Y-46680472D01*
X95448471Y-46686494D01*
X95448472Y-46686496D01*
X95529790Y-46820770D01*
X95529793Y-46820773D01*
X95533440Y-46826796D01*
X95652273Y-46949850D01*
X95658169Y-46953708D01*
X95788689Y-47039118D01*
X95795414Y-47043519D01*
X95946305Y-47099635D01*
X96003177Y-47142125D01*
X96021938Y-47177956D01*
X96061632Y-47297280D01*
X96065279Y-47303302D01*
X96065280Y-47303304D01*
X96146598Y-47437578D01*
X96146601Y-47437581D01*
X96150248Y-47443604D01*
X96269081Y-47566658D01*
X96272970Y-47569203D01*
X96312176Y-47627251D01*
X96313797Y-47698229D01*
X96276787Y-47758816D01*
X96212896Y-47789776D01*
X96192122Y-47791500D01*
X95379238Y-47791500D01*
X95311117Y-47771498D01*
X95290143Y-47754595D01*
X94711306Y-47175758D01*
X94677280Y-47113446D01*
X94682345Y-47042631D01*
X94724892Y-46985795D01*
X94761465Y-46966830D01*
X94810286Y-46950967D01*
X94810289Y-46950966D01*
X94816985Y-46948790D01*
X94852369Y-46927697D01*
X94957872Y-46864805D01*
X94957874Y-46864804D01*
X94963924Y-46861197D01*
X95087805Y-46743227D01*
X95094269Y-46733499D01*
X95139583Y-46665295D01*
X95182471Y-46600743D01*
X95184974Y-46594155D01*
X95188193Y-46587891D01*
X95191007Y-46589337D01*
X95225573Y-46543868D01*
X95292276Y-46519551D01*
X95361536Y-46535156D01*
G37*
%TD.AperFunction*%
%TA.AperFunction,Conductor*%
G36*
X83005585Y-34528502D02*
G01*
X83052078Y-34582158D01*
X83062182Y-34652432D01*
X83055866Y-34677590D01*
X83004190Y-34819570D01*
X82982750Y-34989286D01*
X82994624Y-35110385D01*
X82994748Y-35111649D01*
X82981489Y-35181397D01*
X82957506Y-35213969D01*
X82905366Y-35265028D01*
X82812698Y-35408820D01*
X82810287Y-35415443D01*
X82810286Y-35415446D01*
X82756600Y-35562947D01*
X82756599Y-35562952D01*
X82754190Y-35569570D01*
X82732750Y-35739286D01*
X82749443Y-35909536D01*
X82803440Y-36071856D01*
X82807087Y-36077878D01*
X82807088Y-36077880D01*
X82888406Y-36212154D01*
X82888409Y-36212157D01*
X82892056Y-36218180D01*
X83010889Y-36341234D01*
X83033966Y-36356335D01*
X83142216Y-36427172D01*
X83154030Y-36434903D01*
X83160634Y-36437359D01*
X83160636Y-36437360D01*
X83307757Y-36492074D01*
X83307759Y-36492074D01*
X83314367Y-36494532D01*
X83393454Y-36505085D01*
X83476949Y-36516226D01*
X83476953Y-36516226D01*
X83483930Y-36517157D01*
X83490941Y-36516519D01*
X83490945Y-36516519D01*
X83647273Y-36502292D01*
X83647275Y-36502292D01*
X83654292Y-36501653D01*
X83660990Y-36499477D01*
X83660993Y-36499476D01*
X83810289Y-36450966D01*
X83810291Y-36450965D01*
X83816985Y-36448790D01*
X83963924Y-36361197D01*
X83969024Y-36356340D01*
X83969031Y-36356335D01*
X84021749Y-36306133D01*
X84084874Y-36273641D01*
X84155545Y-36280435D01*
X84197735Y-36308284D01*
X86839685Y-38950234D01*
X86850552Y-38962625D01*
X86870013Y-38987987D01*
X86876563Y-38993013D01*
X86901925Y-39012474D01*
X86901928Y-39012477D01*
X86954263Y-39052635D01*
X86997124Y-39085524D01*
X87004753Y-39088684D01*
X87009426Y-39091382D01*
X87058418Y-39142765D01*
X87071853Y-39212479D01*
X87045465Y-39278390D01*
X86987633Y-39319571D01*
X86946424Y-39326500D01*
X84756395Y-39326500D01*
X84739948Y-39325422D01*
X84723483Y-39323254D01*
X84723479Y-39323254D01*
X84717913Y-39322521D01*
X84636512Y-39326360D01*
X84630576Y-39326500D01*
X84608001Y-39326500D01*
X84588981Y-39328197D01*
X84582011Y-39328819D01*
X84576749Y-39329178D01*
X84560568Y-39329941D01*
X84493512Y-39333104D01*
X84488053Y-39334354D01*
X84488048Y-39334355D01*
X84476030Y-39337108D01*
X84459101Y-39339789D01*
X84441238Y-39341383D01*
X84435822Y-39342865D01*
X84435820Y-39342865D01*
X84360867Y-39363370D01*
X84355749Y-39364656D01*
X84280000Y-39382005D01*
X84279998Y-39382006D01*
X84274530Y-39383258D01*
X84264030Y-39387737D01*
X84258033Y-39390294D01*
X84241858Y-39395927D01*
X84229961Y-39399182D01*
X84229957Y-39399183D01*
X84224549Y-39400663D01*
X84219483Y-39403079D01*
X84219484Y-39403079D01*
X84149333Y-39436539D01*
X84144524Y-39438710D01*
X84073051Y-39469196D01*
X84067891Y-39471397D01*
X84052890Y-39481251D01*
X84037975Y-39489654D01*
X84021782Y-39497378D01*
X84017234Y-39500646D01*
X84017229Y-39500649D01*
X83954114Y-39546002D01*
X83949777Y-39548982D01*
X83880125Y-39594735D01*
X83869023Y-39604627D01*
X83859344Y-39613251D01*
X83849048Y-39621500D01*
X83839346Y-39628471D01*
X83835441Y-39632501D01*
X83764968Y-39705223D01*
X83763579Y-39706633D01*
X83674737Y-39795475D01*
X83662347Y-39806342D01*
X83644708Y-39819877D01*
X83598502Y-39870657D01*
X83589842Y-39880174D01*
X83585743Y-39884469D01*
X83569802Y-39900410D01*
X83568007Y-39902557D01*
X83568005Y-39902559D01*
X83553068Y-39920423D01*
X83549600Y-39924398D01*
X83497288Y-39981888D01*
X83497281Y-39981897D01*
X83493515Y-39986036D01*
X83490538Y-39990782D01*
X83490537Y-39990783D01*
X83483987Y-40001225D01*
X83473911Y-40015093D01*
X83466004Y-40024549D01*
X83465997Y-40024559D01*
X83462406Y-40028854D01*
X83423477Y-40097104D01*
X83421118Y-40101240D01*
X83418408Y-40105768D01*
X83384680Y-40159536D01*
X83374136Y-40176344D01*
X83372043Y-40181549D01*
X83372042Y-40181552D01*
X83367448Y-40192979D01*
X83359988Y-40208411D01*
X83353880Y-40219119D01*
X83353876Y-40219128D01*
X83351101Y-40223993D01*
X83349232Y-40229270D01*
X83349230Y-40229275D01*
X83323285Y-40302542D01*
X83321420Y-40307478D01*
X83290344Y-40384783D01*
X83289208Y-40390270D01*
X83289207Y-40390272D01*
X83286706Y-40402349D01*
X83282101Y-40418844D01*
X83276111Y-40435759D01*
X83275204Y-40441298D01*
X83262643Y-40518001D01*
X83261681Y-40523189D01*
X83246228Y-40597811D01*
X83244787Y-40604767D01*
X83244521Y-40609379D01*
X83244521Y-40609380D01*
X83243185Y-40632548D01*
X83241738Y-40645653D01*
X83240714Y-40651910D01*
X83239806Y-40657457D01*
X83239894Y-40663070D01*
X83239894Y-40663072D01*
X83241484Y-40764257D01*
X83241500Y-40766236D01*
X83241500Y-44176522D01*
X83221498Y-44244643D01*
X83204595Y-44265617D01*
X81765617Y-45704595D01*
X81703305Y-45738621D01*
X81676522Y-45741500D01*
X81128490Y-45741500D01*
X81060369Y-45721498D01*
X81013876Y-45667842D01*
X81003146Y-45602658D01*
X81008172Y-45553601D01*
X81008500Y-45550400D01*
X81008500Y-41549600D01*
X80998371Y-41451978D01*
X80998238Y-41450692D01*
X80998237Y-41450688D01*
X80997526Y-41443834D01*
X80985845Y-41408820D01*
X80943868Y-41283002D01*
X80941550Y-41276054D01*
X80848478Y-41125652D01*
X80783881Y-41061167D01*
X80728483Y-41005866D01*
X80723303Y-41000695D01*
X80640438Y-40949616D01*
X80592945Y-40896843D01*
X80581521Y-40826772D01*
X80605007Y-40767763D01*
X80697252Y-40642185D01*
X80697253Y-40642184D01*
X80699795Y-40638723D01*
X80710453Y-40619093D01*
X80828418Y-40401830D01*
X80828419Y-40401828D01*
X80830468Y-40398054D01*
X80927269Y-40141877D01*
X80976062Y-39928835D01*
X80987449Y-39879117D01*
X80987450Y-39879113D01*
X80988407Y-39874933D01*
X80994529Y-39806343D01*
X81012531Y-39604627D01*
X81012531Y-39604625D01*
X81012751Y-39602161D01*
X81013051Y-39573594D01*
X81013167Y-39562484D01*
X81013167Y-39562483D01*
X81013193Y-39560000D01*
X81013024Y-39557519D01*
X80994859Y-39291055D01*
X80994858Y-39291049D01*
X80994567Y-39286778D01*
X80988051Y-39255311D01*
X80939901Y-39022809D01*
X80939032Y-39018612D01*
X80847617Y-38760465D01*
X80758989Y-38588751D01*
X80723978Y-38520919D01*
X80723978Y-38520918D01*
X80722013Y-38517112D01*
X80712040Y-38502921D01*
X80591271Y-38331084D01*
X80564545Y-38293057D01*
X80468751Y-38189970D01*
X80381046Y-38095588D01*
X80381043Y-38095585D01*
X80378125Y-38092445D01*
X80374810Y-38089731D01*
X80374806Y-38089728D01*
X80241277Y-37980436D01*
X80166205Y-37918990D01*
X79932704Y-37775901D01*
X79928768Y-37774173D01*
X79685873Y-37667549D01*
X79685869Y-37667548D01*
X79681945Y-37665825D01*
X79418566Y-37590800D01*
X79414324Y-37590196D01*
X79414318Y-37590195D01*
X79213834Y-37561662D01*
X79147443Y-37552213D01*
X79003589Y-37551460D01*
X78877877Y-37550802D01*
X78877871Y-37550802D01*
X78873591Y-37550780D01*
X78869347Y-37551339D01*
X78869343Y-37551339D01*
X78750302Y-37567011D01*
X78602078Y-37586525D01*
X78597938Y-37587658D01*
X78597936Y-37587658D01*
X78552332Y-37600134D01*
X78337928Y-37658788D01*
X78333980Y-37660472D01*
X78089982Y-37764546D01*
X78089978Y-37764548D01*
X78086030Y-37766232D01*
X78012289Y-37810365D01*
X77854725Y-37904664D01*
X77854721Y-37904667D01*
X77851043Y-37906868D01*
X77637318Y-38078094D01*
X77558593Y-38161053D01*
X77452293Y-38273070D01*
X77448808Y-38276742D01*
X77289002Y-38499136D01*
X77160857Y-38741161D01*
X77159385Y-38745184D01*
X77159383Y-38745188D01*
X77068214Y-38994317D01*
X77066743Y-38998337D01*
X77008404Y-39265907D01*
X76986917Y-39538918D01*
X76987334Y-39546156D01*
X77002682Y-39812320D01*
X77055405Y-40081053D01*
X77056792Y-40085103D01*
X77056793Y-40085108D01*
X77142723Y-40336088D01*
X77144112Y-40340144D01*
X77181686Y-40414852D01*
X77249937Y-40550554D01*
X77267160Y-40584799D01*
X77269586Y-40588328D01*
X77269589Y-40588334D01*
X77380340Y-40749476D01*
X77422274Y-40810490D01*
X77425161Y-40813663D01*
X77425162Y-40813664D01*
X77603697Y-41009873D01*
X77603701Y-41009877D01*
X77605347Y-41011685D01*
X77605347Y-41011686D01*
X77606582Y-41013043D01*
X77606282Y-41013316D01*
X77640372Y-41072761D01*
X77636786Y-41143667D01*
X77625098Y-41168223D01*
X77592623Y-41220907D01*
X77561773Y-41270955D01*
X77557885Y-41277262D01*
X77532170Y-41354791D01*
X77508851Y-41425097D01*
X77502203Y-41445139D01*
X77491500Y-41549600D01*
X77491500Y-45550400D01*
X77491837Y-45553644D01*
X77491837Y-45553652D01*
X77496905Y-45602497D01*
X77484040Y-45672318D01*
X77435469Y-45724100D01*
X77371578Y-45741500D01*
X76841395Y-45741500D01*
X76824948Y-45740422D01*
X76808483Y-45738254D01*
X76808479Y-45738254D01*
X76802913Y-45737521D01*
X76721512Y-45741360D01*
X76715576Y-45741500D01*
X76693001Y-45741500D01*
X76673981Y-45743197D01*
X76667011Y-45743819D01*
X76661749Y-45744178D01*
X76645568Y-45744941D01*
X76578512Y-45748104D01*
X76573053Y-45749354D01*
X76573048Y-45749355D01*
X76561030Y-45752108D01*
X76544101Y-45754789D01*
X76526238Y-45756383D01*
X76520822Y-45757865D01*
X76520820Y-45757865D01*
X76445867Y-45778370D01*
X76440749Y-45779656D01*
X76365000Y-45797005D01*
X76364998Y-45797006D01*
X76359530Y-45798258D01*
X76349030Y-45802737D01*
X76343033Y-45805294D01*
X76326858Y-45810927D01*
X76314961Y-45814182D01*
X76314957Y-45814183D01*
X76309549Y-45815663D01*
X76277422Y-45830987D01*
X76234333Y-45851539D01*
X76229524Y-45853710D01*
X76167016Y-45880372D01*
X76152891Y-45886397D01*
X76137890Y-45896251D01*
X76122975Y-45904654D01*
X76106782Y-45912378D01*
X76102231Y-45915648D01*
X76102228Y-45915650D01*
X76039119Y-45960999D01*
X76034768Y-45963989D01*
X75968990Y-46007196D01*
X75968982Y-46007202D01*
X75965126Y-46009735D01*
X75944338Y-46028257D01*
X75934061Y-46036490D01*
X75924346Y-46043471D01*
X75875210Y-46094175D01*
X75849938Y-46120254D01*
X75848549Y-46121664D01*
X74223595Y-47746617D01*
X74161283Y-47780643D01*
X74090467Y-47775578D01*
X74033632Y-47733031D01*
X74008821Y-47666511D01*
X74008500Y-47657522D01*
X74008500Y-38262817D01*
X74028502Y-38194696D01*
X74045405Y-38173722D01*
X77673722Y-34545405D01*
X77736034Y-34511379D01*
X77762817Y-34508500D01*
X82937464Y-34508500D01*
X83005585Y-34528502D01*
G37*
%TD.AperFunction*%
%TA.AperFunction,Conductor*%
G36*
X107816021Y-46094175D02*
G01*
X107914798Y-46155062D01*
X107937899Y-46169302D01*
X108100243Y-46223149D01*
X108107080Y-46223849D01*
X108107082Y-46223850D01*
X108148401Y-46228083D01*
X108201268Y-46233500D01*
X108697388Y-46233500D01*
X108765509Y-46253502D01*
X108812002Y-46307158D01*
X108822106Y-46377432D01*
X108812371Y-46408701D01*
X108812698Y-46408820D01*
X108769390Y-46527808D01*
X108727296Y-46584980D01*
X108660975Y-46610318D01*
X108591483Y-46595777D01*
X108584874Y-46591975D01*
X108565692Y-46580151D01*
X108514352Y-46563122D01*
X108411262Y-46528928D01*
X108411260Y-46528928D01*
X108404731Y-46526762D01*
X108304572Y-46516500D01*
X107770428Y-46516500D01*
X107767182Y-46516837D01*
X107767178Y-46516837D01*
X107733397Y-46520342D01*
X107669018Y-46527022D01*
X107508151Y-46580692D01*
X107363945Y-46669929D01*
X107339113Y-46694805D01*
X107276832Y-46728884D01*
X107206012Y-46723882D01*
X107160922Y-46694960D01*
X107140233Y-46674307D01*
X107135053Y-46669136D01*
X106990692Y-46580151D01*
X106939352Y-46563122D01*
X106857644Y-46536020D01*
X106799284Y-46495589D01*
X106772048Y-46430024D01*
X106784582Y-46360143D01*
X106808217Y-46327332D01*
X106865144Y-46270405D01*
X106927456Y-46236379D01*
X106954239Y-46233500D01*
X107298732Y-46233500D01*
X107301978Y-46233163D01*
X107301982Y-46233163D01*
X107336083Y-46229625D01*
X107401019Y-46222887D01*
X107554726Y-46171606D01*
X107556324Y-46171073D01*
X107556326Y-46171072D01*
X107563268Y-46168756D01*
X107578302Y-46159453D01*
X107683602Y-46094291D01*
X107752054Y-46075453D01*
X107816021Y-46094175D01*
G37*
%TD.AperFunction*%
%TA.AperFunction,Conductor*%
G36*
X94184532Y-45105183D02*
G01*
X94241368Y-45147730D01*
X94266179Y-45214250D01*
X94266500Y-45223238D01*
X94266501Y-45433764D01*
X94246499Y-45501885D01*
X94192844Y-45548378D01*
X94181100Y-45553045D01*
X94179956Y-45553434D01*
X94179953Y-45553435D01*
X94173289Y-45555704D01*
X94027588Y-45645340D01*
X94022557Y-45650267D01*
X94022554Y-45650269D01*
X93978248Y-45693657D01*
X93905366Y-45765028D01*
X93901547Y-45770953D01*
X93901546Y-45770955D01*
X93879507Y-45805153D01*
X93812698Y-45908820D01*
X93810287Y-45915443D01*
X93810286Y-45915446D01*
X93782056Y-45993009D01*
X93739962Y-46050181D01*
X93673641Y-46075519D01*
X93604149Y-46060978D01*
X93574560Y-46039010D01*
X93520405Y-45984855D01*
X93486379Y-45922543D01*
X93483500Y-45895761D01*
X93483499Y-45754241D01*
X93503501Y-45686120D01*
X93520404Y-45665145D01*
X94051405Y-45134144D01*
X94113717Y-45100118D01*
X94184532Y-45105183D01*
G37*
%TD.AperFunction*%
%TA.AperFunction,Conductor*%
G36*
X98446121Y-45041002D02*
G01*
X98492614Y-45094658D01*
X98504000Y-45147000D01*
X98504000Y-45403000D01*
X98483998Y-45471121D01*
X98430342Y-45517614D01*
X98378000Y-45529000D01*
X96622000Y-45529000D01*
X96553879Y-45508998D01*
X96507386Y-45455342D01*
X96496000Y-45403000D01*
X96496000Y-45147000D01*
X96516002Y-45078879D01*
X96569658Y-45032386D01*
X96622000Y-45021000D01*
X98378000Y-45021000D01*
X98446121Y-45041002D01*
G37*
%TD.AperFunction*%
%TA.AperFunction,Conductor*%
G36*
X91255585Y-34528502D02*
G01*
X91302078Y-34582158D01*
X91312182Y-34652432D01*
X91305866Y-34677590D01*
X91254190Y-34819570D01*
X91232750Y-34989286D01*
X91249443Y-35159536D01*
X91303440Y-35321856D01*
X91307087Y-35327878D01*
X91307088Y-35327880D01*
X91388406Y-35462154D01*
X91388409Y-35462157D01*
X91392056Y-35468180D01*
X91510889Y-35591234D01*
X91516785Y-35595092D01*
X91596260Y-35647099D01*
X91654030Y-35684903D01*
X91660634Y-35687359D01*
X91660636Y-35687360D01*
X91807757Y-35742074D01*
X91807759Y-35742074D01*
X91814367Y-35744532D01*
X91893454Y-35755085D01*
X91976949Y-35766226D01*
X91976953Y-35766226D01*
X91983930Y-35767157D01*
X91990941Y-35766519D01*
X91990945Y-35766519D01*
X92147273Y-35752292D01*
X92147275Y-35752292D01*
X92154292Y-35751653D01*
X92160990Y-35749477D01*
X92160993Y-35749476D01*
X92310289Y-35700966D01*
X92310291Y-35700965D01*
X92316985Y-35698790D01*
X92438637Y-35626271D01*
X92503154Y-35608500D01*
X94141592Y-35608500D01*
X94209713Y-35628502D01*
X94256206Y-35682158D01*
X94261149Y-35694726D01*
X94303440Y-35821856D01*
X94307087Y-35827878D01*
X94307088Y-35827880D01*
X94388406Y-35962154D01*
X94388409Y-35962157D01*
X94392056Y-35968180D01*
X94510889Y-36091234D01*
X94654030Y-36184903D01*
X94660634Y-36187359D01*
X94660636Y-36187360D01*
X94807757Y-36242074D01*
X94807759Y-36242074D01*
X94814367Y-36244532D01*
X94894401Y-36255211D01*
X94932666Y-36260317D01*
X94997543Y-36289153D01*
X95036531Y-36348486D01*
X95042001Y-36385210D01*
X95042001Y-36427169D01*
X95042371Y-36433990D01*
X95047895Y-36484852D01*
X95051521Y-36500104D01*
X95096676Y-36620554D01*
X95105214Y-36636149D01*
X95181715Y-36738224D01*
X95194276Y-36750785D01*
X95296351Y-36827286D01*
X95311946Y-36835824D01*
X95432394Y-36880978D01*
X95447649Y-36884605D01*
X95498514Y-36890131D01*
X95505328Y-36890500D01*
X96367885Y-36890500D01*
X96383124Y-36886025D01*
X96384329Y-36884635D01*
X96386000Y-36876952D01*
X96386000Y-36872384D01*
X96894000Y-36872384D01*
X96898475Y-36887623D01*
X96899865Y-36888828D01*
X96907548Y-36890499D01*
X97774669Y-36890499D01*
X97781490Y-36890129D01*
X97832352Y-36884605D01*
X97847604Y-36880979D01*
X97968054Y-36835824D01*
X97983649Y-36827286D01*
X98085724Y-36750785D01*
X98098285Y-36738224D01*
X98174786Y-36636149D01*
X98183324Y-36620554D01*
X98228478Y-36500106D01*
X98232105Y-36484851D01*
X98237631Y-36433986D01*
X98238000Y-36427172D01*
X98238000Y-36427169D01*
X105262001Y-36427169D01*
X105262371Y-36433990D01*
X105267895Y-36484852D01*
X105271521Y-36500104D01*
X105316676Y-36620554D01*
X105325214Y-36636149D01*
X105401715Y-36738224D01*
X105414276Y-36750785D01*
X105516351Y-36827286D01*
X105531946Y-36835824D01*
X105652394Y-36880978D01*
X105667649Y-36884605D01*
X105718514Y-36890131D01*
X105725328Y-36890500D01*
X106587885Y-36890500D01*
X106603124Y-36886025D01*
X106604329Y-36884635D01*
X106606000Y-36876952D01*
X106606000Y-36872384D01*
X107114000Y-36872384D01*
X107118475Y-36887623D01*
X107119865Y-36888828D01*
X107127548Y-36890499D01*
X107994669Y-36890499D01*
X108001490Y-36890129D01*
X108052352Y-36884605D01*
X108067604Y-36880979D01*
X108188054Y-36835824D01*
X108203649Y-36827286D01*
X108305724Y-36750785D01*
X108318285Y-36738224D01*
X108394786Y-36636149D01*
X108403324Y-36620554D01*
X108448478Y-36500106D01*
X108452105Y-36484851D01*
X108457631Y-36433986D01*
X108458000Y-36427172D01*
X108458000Y-35654615D01*
X108453525Y-35639376D01*
X108452135Y-35638171D01*
X108444452Y-35636500D01*
X107132115Y-35636500D01*
X107116876Y-35640975D01*
X107115671Y-35642365D01*
X107114000Y-35650048D01*
X107114000Y-36872384D01*
X106606000Y-36872384D01*
X106606000Y-35654615D01*
X106601525Y-35639376D01*
X106600135Y-35638171D01*
X106592452Y-35636500D01*
X105280116Y-35636500D01*
X105264877Y-35640975D01*
X105263672Y-35642365D01*
X105262001Y-35650048D01*
X105262001Y-36427169D01*
X98238000Y-36427169D01*
X98238000Y-35654615D01*
X98233525Y-35639376D01*
X98232135Y-35638171D01*
X98224452Y-35636500D01*
X96912115Y-35636500D01*
X96896876Y-35640975D01*
X96895671Y-35642365D01*
X96894000Y-35650048D01*
X96894000Y-36872384D01*
X96386000Y-36872384D01*
X96386000Y-35254500D01*
X96406002Y-35186379D01*
X96459658Y-35139886D01*
X96512000Y-35128500D01*
X98219884Y-35128500D01*
X98235123Y-35124025D01*
X98236328Y-35122635D01*
X98237999Y-35114952D01*
X98237999Y-34634500D01*
X98258001Y-34566379D01*
X98311657Y-34519886D01*
X98363999Y-34508500D01*
X105136000Y-34508500D01*
X105204121Y-34528502D01*
X105250614Y-34582158D01*
X105262000Y-34634500D01*
X105262000Y-35110385D01*
X105266475Y-35125624D01*
X105267865Y-35126829D01*
X105275548Y-35128500D01*
X108439884Y-35128500D01*
X108455123Y-35124025D01*
X108456328Y-35122635D01*
X108457999Y-35114952D01*
X108457999Y-34634500D01*
X108478001Y-34566379D01*
X108531657Y-34519886D01*
X108583999Y-34508500D01*
X111737183Y-34508500D01*
X111805304Y-34528502D01*
X111826278Y-34545405D01*
X114954595Y-37673723D01*
X114988621Y-37736035D01*
X114991500Y-37762818D01*
X114991500Y-42474925D01*
X114971498Y-42543046D01*
X114917842Y-42589539D01*
X114847568Y-42599643D01*
X114779971Y-42567450D01*
X114753341Y-42542833D01*
X114753338Y-42542831D01*
X114749101Y-42538914D01*
X114571362Y-42426769D01*
X114376163Y-42348892D01*
X114370506Y-42347767D01*
X114370500Y-42347765D01*
X114175707Y-42309019D01*
X114175705Y-42309019D01*
X114170040Y-42307892D01*
X114164265Y-42307816D01*
X114164261Y-42307816D01*
X114059001Y-42306438D01*
X113959898Y-42305141D01*
X113954201Y-42306120D01*
X113954200Y-42306120D01*
X113858467Y-42322570D01*
X113787943Y-42314393D01*
X113748034Y-42287485D01*
X112564315Y-41103766D01*
X112553448Y-41091375D01*
X112539013Y-41072563D01*
X112533987Y-41066013D01*
X112502075Y-41041526D01*
X112502072Y-41041523D01*
X112465312Y-41013316D01*
X112413429Y-40973504D01*
X112413427Y-40973503D01*
X112406876Y-40968476D01*
X112258851Y-40907162D01*
X112250664Y-40906084D01*
X112250663Y-40906084D01*
X112239458Y-40904609D01*
X112208262Y-40900502D01*
X112139885Y-40891500D01*
X112139882Y-40891500D01*
X112139874Y-40891499D01*
X112108189Y-40887328D01*
X112100000Y-40886250D01*
X112068307Y-40890422D01*
X112051864Y-40891500D01*
X111763010Y-40891500D01*
X111694889Y-40871498D01*
X111648396Y-40817842D01*
X111638292Y-40747568D01*
X111661463Y-40690907D01*
X111697252Y-40642185D01*
X111697253Y-40642184D01*
X111699795Y-40638723D01*
X111710453Y-40619093D01*
X111828418Y-40401830D01*
X111828419Y-40401828D01*
X111830468Y-40398054D01*
X111927269Y-40141877D01*
X111976062Y-39928835D01*
X111987449Y-39879117D01*
X111987450Y-39879113D01*
X111988407Y-39874933D01*
X111994529Y-39806343D01*
X112012531Y-39604627D01*
X112012531Y-39604625D01*
X112012751Y-39602161D01*
X112013051Y-39573594D01*
X112013167Y-39562484D01*
X112013167Y-39562483D01*
X112013193Y-39560000D01*
X112013024Y-39557519D01*
X111994859Y-39291055D01*
X111994858Y-39291049D01*
X111994567Y-39286778D01*
X111988051Y-39255311D01*
X111939901Y-39022809D01*
X111939032Y-39018612D01*
X111847617Y-38760465D01*
X111758989Y-38588751D01*
X111723978Y-38520919D01*
X111723978Y-38520918D01*
X111722013Y-38517112D01*
X111712040Y-38502921D01*
X111591271Y-38331084D01*
X111564545Y-38293057D01*
X111468751Y-38189970D01*
X111381046Y-38095588D01*
X111381043Y-38095585D01*
X111378125Y-38092445D01*
X111374810Y-38089731D01*
X111374806Y-38089728D01*
X111241277Y-37980436D01*
X111166205Y-37918990D01*
X110932704Y-37775901D01*
X110928768Y-37774173D01*
X110685873Y-37667549D01*
X110685869Y-37667548D01*
X110681945Y-37665825D01*
X110418566Y-37590800D01*
X110414324Y-37590196D01*
X110414318Y-37590195D01*
X110213834Y-37561662D01*
X110147443Y-37552213D01*
X110003589Y-37551460D01*
X109877877Y-37550802D01*
X109877871Y-37550802D01*
X109873591Y-37550780D01*
X109869347Y-37551339D01*
X109869343Y-37551339D01*
X109750302Y-37567011D01*
X109602078Y-37586525D01*
X109597938Y-37587658D01*
X109597936Y-37587658D01*
X109552332Y-37600134D01*
X109337928Y-37658788D01*
X109333980Y-37660472D01*
X109089982Y-37764546D01*
X109089978Y-37764548D01*
X109086030Y-37766232D01*
X109012289Y-37810365D01*
X108854725Y-37904664D01*
X108854721Y-37904667D01*
X108851043Y-37906868D01*
X108637318Y-38078094D01*
X108634371Y-38081200D01*
X108634362Y-38081208D01*
X108609138Y-38107788D01*
X108547738Y-38143432D01*
X108476814Y-38140223D01*
X108418884Y-38099178D01*
X108407223Y-38081566D01*
X108394788Y-38058854D01*
X108318285Y-37956776D01*
X108305724Y-37944215D01*
X108203649Y-37867714D01*
X108188054Y-37859176D01*
X108067606Y-37814022D01*
X108052351Y-37810395D01*
X108001486Y-37804869D01*
X107994672Y-37804500D01*
X107132115Y-37804500D01*
X107116876Y-37808975D01*
X107115671Y-37810365D01*
X107114000Y-37818048D01*
X107114000Y-40802384D01*
X107118475Y-40817623D01*
X107119865Y-40818828D01*
X107127548Y-40820499D01*
X107994669Y-40820499D01*
X108001490Y-40820129D01*
X108052352Y-40814605D01*
X108067604Y-40810979D01*
X108188054Y-40765824D01*
X108203649Y-40757286D01*
X108218762Y-40745959D01*
X108285268Y-40721110D01*
X108354651Y-40736162D01*
X108398167Y-40775416D01*
X108419838Y-40806947D01*
X108419842Y-40806952D01*
X108422274Y-40810490D01*
X108425161Y-40813663D01*
X108425162Y-40813664D01*
X108531657Y-40930701D01*
X108562709Y-40994547D01*
X108554313Y-41065045D01*
X108509136Y-41119813D01*
X108438463Y-41141500D01*
X105568370Y-41141500D01*
X105500249Y-41121498D01*
X105453756Y-41067842D01*
X105443652Y-40997568D01*
X105473146Y-40932988D01*
X105497165Y-40913610D01*
X105496462Y-40912672D01*
X105592652Y-40840582D01*
X105659159Y-40815734D01*
X105681826Y-40816145D01*
X105718517Y-40820131D01*
X105725328Y-40820500D01*
X106587885Y-40820500D01*
X106603124Y-40816025D01*
X106604329Y-40814635D01*
X106606000Y-40806952D01*
X106606000Y-37822616D01*
X106601525Y-37807377D01*
X106600135Y-37806172D01*
X106592452Y-37804501D01*
X105725331Y-37804501D01*
X105718510Y-37804871D01*
X105667648Y-37810395D01*
X105652396Y-37814021D01*
X105531946Y-37859176D01*
X105516351Y-37867714D01*
X105414276Y-37944215D01*
X105401715Y-37956776D01*
X105325214Y-38058851D01*
X105316676Y-38074445D01*
X105316206Y-38075700D01*
X105315407Y-38076764D01*
X105312366Y-38082318D01*
X105311564Y-38081879D01*
X105273566Y-38132465D01*
X105207005Y-38157167D01*
X105137656Y-38141961D01*
X105121703Y-38131576D01*
X105074322Y-38095350D01*
X104969186Y-38046325D01*
X104916369Y-38021695D01*
X104916366Y-38021694D01*
X104910192Y-38018815D01*
X104903544Y-38017329D01*
X104903541Y-38017328D01*
X104738494Y-37980436D01*
X104738495Y-37980436D01*
X104733457Y-37979310D01*
X104727912Y-37979000D01*
X104594756Y-37979000D01*
X104591359Y-37979369D01*
X104466744Y-37992906D01*
X104466741Y-37992907D01*
X104459963Y-37993643D01*
X104453497Y-37995819D01*
X104452747Y-37995984D01*
X104381920Y-37991078D01*
X104336283Y-37961707D01*
X104235777Y-37860496D01*
X104235773Y-37860493D01*
X104230809Y-37855494D01*
X104150455Y-37804500D01*
X104092316Y-37767604D01*
X104092313Y-37767602D01*
X104086373Y-37763833D01*
X104079740Y-37761471D01*
X103931854Y-37708811D01*
X103931849Y-37708810D01*
X103925219Y-37706449D01*
X103918231Y-37705616D01*
X103918228Y-37705615D01*
X103802655Y-37691834D01*
X103755357Y-37686194D01*
X103748354Y-37686930D01*
X103748353Y-37686930D01*
X103703958Y-37691596D01*
X103585228Y-37704075D01*
X103576019Y-37707210D01*
X103429956Y-37756934D01*
X103429953Y-37756935D01*
X103423289Y-37759204D01*
X103277588Y-37848840D01*
X103272557Y-37853767D01*
X103272554Y-37853769D01*
X103235879Y-37889684D01*
X103155366Y-37968528D01*
X103151547Y-37974453D01*
X103151546Y-37974455D01*
X103148417Y-37979310D01*
X103062698Y-38112320D01*
X103060287Y-38118943D01*
X103060286Y-38118946D01*
X103015956Y-38240743D01*
X102973862Y-38297915D01*
X102914001Y-38322571D01*
X102841150Y-38332162D01*
X102693125Y-38393476D01*
X102646475Y-38429272D01*
X102633465Y-38439255D01*
X102567245Y-38464856D01*
X102508543Y-38455702D01*
X102454967Y-38433510D01*
X102454964Y-38433509D01*
X102447337Y-38430350D01*
X102439149Y-38429272D01*
X102333024Y-38415300D01*
X102333019Y-38415300D01*
X102294700Y-38410255D01*
X102286512Y-38411333D01*
X102264567Y-38414222D01*
X102248121Y-38415300D01*
X101706686Y-38415300D01*
X101690239Y-38414222D01*
X101668288Y-38411332D01*
X101660100Y-38410254D01*
X101651912Y-38411332D01*
X101634831Y-38413581D01*
X101507463Y-38430350D01*
X101365228Y-38489266D01*
X101287348Y-38549025D01*
X101243087Y-38582987D01*
X101238061Y-38589537D01*
X101238058Y-38589540D01*
X101224582Y-38607103D01*
X101213715Y-38619494D01*
X101144067Y-38689142D01*
X101081755Y-38723168D01*
X101010940Y-38718103D01*
X100954104Y-38675556D01*
X100935980Y-38641483D01*
X100906099Y-38555675D01*
X100906098Y-38555673D01*
X100903783Y-38549025D01*
X100886221Y-38520919D01*
X100816865Y-38409927D01*
X100813132Y-38403953D01*
X100692593Y-38282569D01*
X100626685Y-38240743D01*
X100554100Y-38194679D01*
X100554097Y-38194677D01*
X100548157Y-38190908D01*
X100537362Y-38187064D01*
X100393638Y-38135886D01*
X100393633Y-38135885D01*
X100387003Y-38133524D01*
X100380015Y-38132691D01*
X100380012Y-38132690D01*
X100257520Y-38118084D01*
X100217141Y-38113269D01*
X100210138Y-38114005D01*
X100210137Y-38114005D01*
X100165742Y-38118671D01*
X100047012Y-38131150D01*
X100036855Y-38134608D01*
X99891740Y-38184009D01*
X99891737Y-38184010D01*
X99885073Y-38186279D01*
X99739372Y-38275915D01*
X99704078Y-38310477D01*
X99641415Y-38343847D01*
X99570657Y-38338041D01*
X99519684Y-38301781D01*
X99442594Y-38210558D01*
X99438187Y-38205343D01*
X99432762Y-38201195D01*
X99299743Y-38099494D01*
X99299739Y-38099491D01*
X99294322Y-38095350D01*
X99189186Y-38046325D01*
X99136369Y-38021695D01*
X99136366Y-38021694D01*
X99130192Y-38018815D01*
X99123544Y-38017329D01*
X99123541Y-38017328D01*
X98958494Y-37980436D01*
X98958495Y-37980436D01*
X98953457Y-37979310D01*
X98947912Y-37979000D01*
X98814756Y-37979000D01*
X98679963Y-37993643D01*
X98596609Y-38021695D01*
X98514796Y-38049228D01*
X98514794Y-38049229D01*
X98508325Y-38051406D01*
X98365766Y-38137064D01*
X98297075Y-38155003D01*
X98229588Y-38132956D01*
X98189259Y-38081428D01*
X98187634Y-38082318D01*
X98174786Y-38058851D01*
X98098285Y-37956776D01*
X98085724Y-37944215D01*
X97983649Y-37867714D01*
X97968054Y-37859176D01*
X97847606Y-37814022D01*
X97832351Y-37810395D01*
X97781486Y-37804869D01*
X97774672Y-37804500D01*
X96912115Y-37804500D01*
X96896876Y-37808975D01*
X96895671Y-37810365D01*
X96894000Y-37818048D01*
X96894000Y-40802384D01*
X96898475Y-40817623D01*
X96899865Y-40818828D01*
X96907548Y-40820499D01*
X97774669Y-40820499D01*
X97781493Y-40820129D01*
X97818179Y-40816145D01*
X97888061Y-40828675D01*
X97907346Y-40840580D01*
X97923948Y-40853022D01*
X97966464Y-40909881D01*
X97971491Y-40980699D01*
X97937433Y-41042993D01*
X97914407Y-41061167D01*
X97783594Y-41141644D01*
X97783588Y-41141649D01*
X97777588Y-41145340D01*
X97772557Y-41150267D01*
X97772554Y-41150269D01*
X97754218Y-41168225D01*
X97655366Y-41265028D01*
X97651547Y-41270953D01*
X97651546Y-41270955D01*
X97629483Y-41305190D01*
X97562698Y-41408820D01*
X97560287Y-41415443D01*
X97560286Y-41415446D01*
X97506600Y-41562947D01*
X97506599Y-41562952D01*
X97504190Y-41569570D01*
X97482750Y-41739286D01*
X97499443Y-41909536D01*
X97553440Y-42071856D01*
X97557087Y-42077878D01*
X97557088Y-42077880D01*
X97570934Y-42100743D01*
X97619171Y-42180391D01*
X97623276Y-42187170D01*
X97641500Y-42252441D01*
X97641500Y-42789032D01*
X97621498Y-42857153D01*
X97581804Y-42896175D01*
X97581742Y-42896214D01*
X97566398Y-42905709D01*
X97497947Y-42924547D01*
X97433979Y-42905825D01*
X97425323Y-42900489D01*
X97332779Y-42843444D01*
X97318331Y-42834538D01*
X97318329Y-42834537D01*
X97312101Y-42830698D01*
X97149757Y-42776851D01*
X97142920Y-42776151D01*
X97142918Y-42776150D01*
X97101599Y-42771917D01*
X97048732Y-42766500D01*
X96451268Y-42766500D01*
X96448022Y-42766837D01*
X96448018Y-42766837D01*
X96418730Y-42769876D01*
X96348981Y-42777113D01*
X96340963Y-42779788D01*
X96193676Y-42828927D01*
X96193674Y-42828928D01*
X96186732Y-42831244D01*
X96075776Y-42899906D01*
X96007326Y-42918742D01*
X95944204Y-42900536D01*
X95818699Y-42824528D01*
X95811452Y-42822257D01*
X95811450Y-42822256D01*
X95738883Y-42799515D01*
X95655062Y-42773247D01*
X95581635Y-42766500D01*
X95578737Y-42766500D01*
X95249140Y-42766501D01*
X94918366Y-42766501D01*
X94915508Y-42766764D01*
X94915499Y-42766764D01*
X94881630Y-42769876D01*
X94844938Y-42773247D01*
X94838560Y-42775246D01*
X94838559Y-42775246D01*
X94688550Y-42822256D01*
X94688548Y-42822257D01*
X94681301Y-42824528D01*
X94534619Y-42913361D01*
X94413361Y-43034619D01*
X94409424Y-43041120D01*
X94363452Y-43117029D01*
X94332380Y-43151720D01*
X94247928Y-43216523D01*
X94247925Y-43216526D01*
X94216013Y-43241013D01*
X94210983Y-43247568D01*
X94196548Y-43266379D01*
X94185681Y-43278770D01*
X93657930Y-43806521D01*
X93595618Y-43840547D01*
X93524803Y-43835482D01*
X93467967Y-43792935D01*
X93448601Y-43755105D01*
X93427744Y-43688550D01*
X93427743Y-43688548D01*
X93425472Y-43681301D01*
X93336639Y-43534619D01*
X93215381Y-43413361D01*
X93068699Y-43324528D01*
X93061452Y-43322257D01*
X93061450Y-43322256D01*
X92967589Y-43292842D01*
X92905062Y-43273247D01*
X92831635Y-43266500D01*
X92828737Y-43266500D01*
X92499140Y-43266501D01*
X92168366Y-43266501D01*
X92165508Y-43266764D01*
X92165499Y-43266764D01*
X92129996Y-43270026D01*
X92094938Y-43273247D01*
X92088560Y-43275246D01*
X92088559Y-43275246D01*
X91938550Y-43322256D01*
X91938548Y-43322257D01*
X91931301Y-43324528D01*
X91784619Y-43413361D01*
X91663361Y-43534619D01*
X91574528Y-43681301D01*
X91523247Y-43844938D01*
X91516500Y-43918365D01*
X91516501Y-44107456D01*
X91516501Y-44245760D01*
X91496499Y-44313880D01*
X91479596Y-44334855D01*
X91389228Y-44425223D01*
X91326916Y-44459249D01*
X91313303Y-44461438D01*
X91304735Y-44462338D01*
X91304730Y-44462339D01*
X91297728Y-44463075D01*
X91291062Y-44465344D01*
X91291059Y-44465345D01*
X91168694Y-44507002D01*
X91097761Y-44510020D01*
X91036457Y-44474210D01*
X91004246Y-44410941D01*
X91011353Y-44340301D01*
X91024875Y-44315453D01*
X91094056Y-44216653D01*
X91096379Y-44211671D01*
X91096382Y-44211666D01*
X91176645Y-44039540D01*
X91187120Y-44017076D01*
X91244115Y-43804371D01*
X91263307Y-43585000D01*
X91244115Y-43365629D01*
X91187120Y-43152924D01*
X91129447Y-43029243D01*
X91096382Y-42958334D01*
X91096379Y-42958329D01*
X91094056Y-42953347D01*
X91090899Y-42948838D01*
X90970908Y-42777473D01*
X90970906Y-42777470D01*
X90967749Y-42772962D01*
X90812038Y-42617251D01*
X90786892Y-42599643D01*
X90700162Y-42538914D01*
X90631654Y-42490944D01*
X90432076Y-42397880D01*
X90219371Y-42340885D01*
X90000000Y-42321693D01*
X89780629Y-42340885D01*
X89567924Y-42397880D01*
X89499364Y-42429850D01*
X89373334Y-42488618D01*
X89373329Y-42488621D01*
X89368347Y-42490944D01*
X89363840Y-42494100D01*
X89363838Y-42494101D01*
X89192473Y-42614092D01*
X89192470Y-42614094D01*
X89187962Y-42617251D01*
X89032251Y-42772962D01*
X89029094Y-42777470D01*
X89029092Y-42777473D01*
X88909101Y-42948838D01*
X88905944Y-42953347D01*
X88903621Y-42958329D01*
X88903618Y-42958334D01*
X88870553Y-43029243D01*
X88812880Y-43152924D01*
X88755885Y-43365629D01*
X88736693Y-43585000D01*
X88755885Y-43804371D01*
X88757308Y-43809681D01*
X88757310Y-43809691D01*
X88778442Y-43888556D01*
X88776753Y-43959532D01*
X88733439Y-44021131D01*
X88717987Y-44032987D01*
X88684160Y-44077072D01*
X88624266Y-44155127D01*
X88621105Y-44162758D01*
X88621104Y-44162760D01*
X88616408Y-44174097D01*
X88571860Y-44229378D01*
X88504496Y-44251798D01*
X88435705Y-44234239D01*
X88387327Y-44182277D01*
X88383591Y-44174095D01*
X88378896Y-44162759D01*
X88378893Y-44162755D01*
X88375734Y-44155127D01*
X88305543Y-44063652D01*
X88305542Y-44063651D01*
X88282013Y-44032987D01*
X88275463Y-44027961D01*
X88275459Y-44027957D01*
X88266558Y-44021127D01*
X88224692Y-43963788D01*
X88221557Y-43888556D01*
X88244115Y-43804371D01*
X88263307Y-43585000D01*
X88244115Y-43365629D01*
X88187120Y-43152924D01*
X88129447Y-43029243D01*
X88096382Y-42958334D01*
X88096379Y-42958329D01*
X88094056Y-42953347D01*
X88090899Y-42948838D01*
X87970908Y-42777473D01*
X87970906Y-42777470D01*
X87967749Y-42772962D01*
X87812038Y-42617251D01*
X87786892Y-42599643D01*
X87700162Y-42538914D01*
X87631654Y-42490944D01*
X87432076Y-42397880D01*
X87219371Y-42340885D01*
X87000000Y-42321693D01*
X86780629Y-42340885D01*
X86567924Y-42397880D01*
X86499364Y-42429850D01*
X86373334Y-42488618D01*
X86373329Y-42488621D01*
X86368347Y-42490944D01*
X86363840Y-42494100D01*
X86363838Y-42494101D01*
X86192473Y-42614092D01*
X86192470Y-42614094D01*
X86187962Y-42617251D01*
X86032251Y-42772962D01*
X86029094Y-42777470D01*
X86029092Y-42777473D01*
X86016838Y-42794974D01*
X85991442Y-42831244D01*
X85987713Y-42836569D01*
X85932256Y-42880897D01*
X85861637Y-42888206D01*
X85798276Y-42856176D01*
X85762291Y-42794974D01*
X85758500Y-42764298D01*
X85758500Y-41969500D01*
X85778502Y-41901379D01*
X85832158Y-41854886D01*
X85884500Y-41843500D01*
X87550400Y-41843500D01*
X87553646Y-41843163D01*
X87553650Y-41843163D01*
X87649307Y-41833238D01*
X87649311Y-41833237D01*
X87656165Y-41832526D01*
X87662701Y-41830345D01*
X87662703Y-41830345D01*
X87816997Y-41778868D01*
X87823945Y-41776550D01*
X87974348Y-41683478D01*
X88022581Y-41635161D01*
X89314393Y-41635161D01*
X89323687Y-41647175D01*
X89364088Y-41675464D01*
X89373584Y-41680947D01*
X89563113Y-41769326D01*
X89573405Y-41773072D01*
X89775401Y-41827196D01*
X89786196Y-41829099D01*
X89994525Y-41847326D01*
X90005475Y-41847326D01*
X90213804Y-41829099D01*
X90224599Y-41827196D01*
X90426595Y-41773072D01*
X90436887Y-41769326D01*
X90626416Y-41680947D01*
X90635912Y-41675464D01*
X90677148Y-41646590D01*
X90685523Y-41636112D01*
X90678457Y-41622668D01*
X90012811Y-40957021D01*
X89998868Y-40949408D01*
X89997034Y-40949539D01*
X89990420Y-40953790D01*
X89320820Y-41623391D01*
X89314393Y-41635161D01*
X88022581Y-41635161D01*
X88099305Y-41558303D01*
X88192115Y-41407738D01*
X88225080Y-41308350D01*
X88245632Y-41246389D01*
X88245632Y-41246387D01*
X88247797Y-41239861D01*
X88249317Y-41225031D01*
X88256800Y-41151994D01*
X88258500Y-41135400D01*
X88258500Y-40626346D01*
X88258709Y-40619093D01*
X88260359Y-40590475D01*
X88737674Y-40590475D01*
X88755901Y-40798804D01*
X88757804Y-40809599D01*
X88811928Y-41011595D01*
X88815674Y-41021887D01*
X88904054Y-41211417D01*
X88909534Y-41220907D01*
X88938411Y-41262149D01*
X88948887Y-41270523D01*
X88962334Y-41263455D01*
X89627979Y-40597811D01*
X89635592Y-40583868D01*
X89635461Y-40582034D01*
X89631210Y-40575420D01*
X88961609Y-39905820D01*
X88949839Y-39899393D01*
X88937824Y-39908689D01*
X88909534Y-39949093D01*
X88904054Y-39958583D01*
X88815674Y-40148113D01*
X88811928Y-40158405D01*
X88757804Y-40360401D01*
X88755901Y-40371196D01*
X88737674Y-40579525D01*
X88737674Y-40590475D01*
X88260359Y-40590475D01*
X88262640Y-40550912D01*
X88262963Y-40545310D01*
X88262289Y-40539743D01*
X88262289Y-40539732D01*
X88259413Y-40515965D01*
X88258500Y-40500828D01*
X88258500Y-40034600D01*
X88256476Y-40015093D01*
X88248238Y-39935693D01*
X88248237Y-39935689D01*
X88247526Y-39928835D01*
X88237704Y-39899393D01*
X88193868Y-39768003D01*
X88191550Y-39761055D01*
X88098478Y-39610652D01*
X88092443Y-39604627D01*
X87978483Y-39490866D01*
X87973303Y-39485695D01*
X87950108Y-39471397D01*
X87834719Y-39400270D01*
X87827402Y-39395760D01*
X87779909Y-39342988D01*
X87768485Y-39272916D01*
X87796759Y-39207792D01*
X87855753Y-39168293D01*
X87893518Y-39162500D01*
X89505529Y-39162500D01*
X89573650Y-39182502D01*
X89620143Y-39236158D01*
X89630247Y-39306432D01*
X89600753Y-39371012D01*
X89558779Y-39402695D01*
X89373583Y-39489054D01*
X89364093Y-39494534D01*
X89322851Y-39523411D01*
X89314477Y-39533887D01*
X89321545Y-39547334D01*
X90000000Y-40225790D01*
X91038388Y-41264177D01*
X91050162Y-41270606D01*
X91062176Y-41261310D01*
X91090466Y-41220907D01*
X91095946Y-41211417D01*
X91184326Y-41021887D01*
X91188072Y-41011595D01*
X91231309Y-40850229D01*
X91268260Y-40789606D01*
X91332121Y-40758585D01*
X91341596Y-40757359D01*
X91397273Y-40752292D01*
X91397275Y-40752292D01*
X91404292Y-40751653D01*
X91410990Y-40749477D01*
X91410993Y-40749476D01*
X91560289Y-40700966D01*
X91560291Y-40700965D01*
X91566985Y-40698790D01*
X91645627Y-40651910D01*
X91707872Y-40614805D01*
X91707874Y-40614804D01*
X91713924Y-40611197D01*
X91837805Y-40493227D01*
X91843671Y-40484399D01*
X91918882Y-40371196D01*
X91928202Y-40357169D01*
X95042001Y-40357169D01*
X95042371Y-40363990D01*
X95047895Y-40414852D01*
X95051521Y-40430104D01*
X95096676Y-40550554D01*
X95105214Y-40566149D01*
X95181715Y-40668224D01*
X95194276Y-40680785D01*
X95296351Y-40757286D01*
X95311946Y-40765824D01*
X95432394Y-40810978D01*
X95447649Y-40814605D01*
X95498514Y-40820131D01*
X95505328Y-40820500D01*
X96367885Y-40820500D01*
X96383124Y-40816025D01*
X96384329Y-40814635D01*
X96386000Y-40806952D01*
X96386000Y-39584615D01*
X96381525Y-39569376D01*
X96380135Y-39568171D01*
X96372452Y-39566500D01*
X95060116Y-39566500D01*
X95044877Y-39570975D01*
X95043672Y-39572365D01*
X95042001Y-39580048D01*
X95042001Y-40357169D01*
X91928202Y-40357169D01*
X91932471Y-40350743D01*
X91980619Y-40223993D01*
X91990718Y-40197408D01*
X91990719Y-40197406D01*
X91993218Y-40190826D01*
X91994198Y-40183854D01*
X92016475Y-40025347D01*
X92016475Y-40025344D01*
X92017026Y-40021425D01*
X92017325Y-40000000D01*
X91998256Y-39830000D01*
X91993544Y-39816467D01*
X91944314Y-39675097D01*
X91944313Y-39675095D01*
X91941999Y-39668450D01*
X91881959Y-39572365D01*
X91855081Y-39529352D01*
X91851348Y-39523378D01*
X91814190Y-39485959D01*
X91766239Y-39437672D01*
X91730809Y-39401994D01*
X91637636Y-39342865D01*
X91592316Y-39314104D01*
X91592313Y-39314102D01*
X91586373Y-39310333D01*
X91575418Y-39306432D01*
X91431854Y-39255311D01*
X91431849Y-39255310D01*
X91425219Y-39252949D01*
X91418231Y-39252116D01*
X91418228Y-39252115D01*
X91302655Y-39238334D01*
X91255357Y-39232694D01*
X91248354Y-39233430D01*
X91248353Y-39233430D01*
X91203958Y-39238096D01*
X91085228Y-39250575D01*
X91075071Y-39254033D01*
X90929956Y-39303434D01*
X90929953Y-39303435D01*
X90923289Y-39305704D01*
X90777588Y-39395340D01*
X90752756Y-39419657D01*
X90726331Y-39445534D01*
X90663666Y-39478904D01*
X90592907Y-39473098D01*
X90584924Y-39469705D01*
X90436887Y-39400674D01*
X90426587Y-39396925D01*
X90374954Y-39383090D01*
X90314332Y-39346139D01*
X90283310Y-39282278D01*
X90291739Y-39211784D01*
X90336943Y-39157037D01*
X90359346Y-39144976D01*
X90502876Y-39085524D01*
X90545738Y-39052635D01*
X90561702Y-39040385D01*
X95042000Y-39040385D01*
X95046475Y-39055624D01*
X95047865Y-39056829D01*
X95055548Y-39058500D01*
X96367885Y-39058500D01*
X96383124Y-39054025D01*
X96384329Y-39052635D01*
X96386000Y-39044952D01*
X96386000Y-37822616D01*
X96381525Y-37807377D01*
X96380135Y-37806172D01*
X96372452Y-37804501D01*
X95505331Y-37804501D01*
X95498510Y-37804871D01*
X95447648Y-37810395D01*
X95432396Y-37814021D01*
X95311946Y-37859176D01*
X95296351Y-37867714D01*
X95194276Y-37944215D01*
X95181715Y-37956776D01*
X95105214Y-38058851D01*
X95096676Y-38074446D01*
X95051522Y-38194894D01*
X95047895Y-38210149D01*
X95042369Y-38261014D01*
X95042000Y-38267828D01*
X95042000Y-39040385D01*
X90561702Y-39040385D01*
X90598072Y-39012477D01*
X90598075Y-39012474D01*
X90614546Y-38999835D01*
X90629987Y-38987987D01*
X90635017Y-38981432D01*
X90649452Y-38962621D01*
X90660319Y-38950230D01*
X91412618Y-38197931D01*
X91425009Y-38187064D01*
X91443821Y-38172629D01*
X91450371Y-38167603D01*
X91474858Y-38135691D01*
X91474861Y-38135688D01*
X91474865Y-38135683D01*
X91477214Y-38132622D01*
X91490281Y-38118084D01*
X91528773Y-38081428D01*
X91604189Y-38009611D01*
X91616503Y-37991078D01*
X91672451Y-37906868D01*
X91698855Y-37867127D01*
X91748397Y-37736708D01*
X91757102Y-37713792D01*
X91757103Y-37713790D01*
X91759602Y-37707210D01*
X91760582Y-37700238D01*
X91782859Y-37541731D01*
X91782859Y-37541728D01*
X91783410Y-37537809D01*
X91783709Y-37516384D01*
X91764640Y-37346384D01*
X91708383Y-37184834D01*
X91685129Y-37147619D01*
X91621465Y-37045736D01*
X91617732Y-37039762D01*
X91603976Y-37025909D01*
X91502156Y-36923376D01*
X91497193Y-36918378D01*
X91416024Y-36866867D01*
X91358700Y-36830488D01*
X91358697Y-36830486D01*
X91352757Y-36826717D01*
X91346124Y-36824355D01*
X91198238Y-36771695D01*
X91198233Y-36771694D01*
X91191603Y-36769333D01*
X91184615Y-36768500D01*
X91184612Y-36768499D01*
X91069039Y-36754718D01*
X91021741Y-36749078D01*
X91014738Y-36749814D01*
X91014737Y-36749814D01*
X90970342Y-36754480D01*
X90851612Y-36766959D01*
X90841455Y-36770417D01*
X90696340Y-36819818D01*
X90696337Y-36819819D01*
X90689673Y-36822088D01*
X90683678Y-36825776D01*
X90683674Y-36825778D01*
X90647214Y-36848209D01*
X90578713Y-36866867D01*
X90510999Y-36845528D01*
X90465571Y-36790968D01*
X90456851Y-36720509D01*
X90458935Y-36710409D01*
X90481753Y-36618893D01*
X90481754Y-36618888D01*
X90482817Y-36614624D01*
X90486284Y-36581644D01*
X90511719Y-36339636D01*
X90511719Y-36339633D01*
X90512178Y-36335267D01*
X90510568Y-36289153D01*
X90502529Y-36058939D01*
X90502528Y-36058933D01*
X90502375Y-36054542D01*
X90478608Y-35919749D01*
X90466440Y-35850743D01*
X90453598Y-35777913D01*
X90366797Y-35510765D01*
X90243660Y-35258298D01*
X90241205Y-35254659D01*
X90241202Y-35254653D01*
X90154983Y-35126829D01*
X90086585Y-35025424D01*
X89898629Y-34816678D01*
X89796548Y-34731021D01*
X89757221Y-34671912D01*
X89756095Y-34600924D01*
X89793526Y-34540597D01*
X89857631Y-34510083D01*
X89877539Y-34508500D01*
X91187464Y-34508500D01*
X91255585Y-34528502D01*
G37*
%TD.AperFunction*%
%TA.AperFunction,Conductor*%
G36*
X102264353Y-41241784D02*
G01*
X102265223Y-41240277D01*
X102272375Y-41244407D01*
X102278927Y-41249434D01*
X102306247Y-41260750D01*
X102421163Y-41308350D01*
X102429351Y-41309428D01*
X102535476Y-41323400D01*
X102535481Y-41323400D01*
X102555748Y-41326068D01*
X102620674Y-41354791D01*
X102659765Y-41414056D01*
X102665300Y-41450990D01*
X102665300Y-41824052D01*
X102645298Y-41892173D01*
X102591642Y-41938666D01*
X102539503Y-41946163D01*
X102539514Y-41950009D01*
X102507294Y-41950101D01*
X102504000Y-41957370D01*
X102504000Y-42195158D01*
X102486453Y-42259297D01*
X102440855Y-42336399D01*
X102438644Y-42344010D01*
X102438643Y-42344012D01*
X102437553Y-42347765D01*
X102394438Y-42496169D01*
X102391500Y-42533498D01*
X102391500Y-43240500D01*
X102371498Y-43308621D01*
X102317842Y-43355114D01*
X102265500Y-43366500D01*
X102234500Y-43366500D01*
X102166379Y-43346498D01*
X102119886Y-43292842D01*
X102108500Y-43240500D01*
X102108500Y-42533498D01*
X102105562Y-42496169D01*
X102062447Y-42347765D01*
X102061357Y-42344012D01*
X102061356Y-42344010D01*
X102059145Y-42336399D01*
X102013547Y-42259297D01*
X101996000Y-42195158D01*
X101996000Y-41963122D01*
X101991949Y-41949324D01*
X101928188Y-41920206D01*
X101889804Y-41860480D01*
X101884700Y-41824981D01*
X101884700Y-41396492D01*
X101904702Y-41328371D01*
X101958358Y-41281878D01*
X101994253Y-41271570D01*
X102068249Y-41261828D01*
X102076437Y-41260750D01*
X102150310Y-41230151D01*
X102220898Y-41222562D01*
X102264353Y-41241784D01*
G37*
%TD.AperFunction*%
%TD*%
M02*
