%TF.GenerationSoftware,KiCad,Pcbnew,(6.0.7)*%
%TF.CreationDate,2022-09-20T14:36:04+02:00*%
%TF.ProjectId,CANpaca-EB-schematics,43414e70-6163-4612-9d45-422d73636865,rev?*%
%TF.SameCoordinates,Original*%
%TF.FileFunction,Legend,Top*%
%TF.FilePolarity,Positive*%
%FSLAX46Y46*%
G04 Gerber Fmt 4.6, Leading zero omitted, Abs format (unit mm)*
G04 Created by KiCad (PCBNEW (6.0.7)) date 2022-09-20 14:36:04*
%MOMM*%
%LPD*%
G01*
G04 APERTURE LIST*
%ADD10C,0.150000*%
%ADD11C,0.120000*%
%ADD12C,0.200000*%
G04 APERTURE END LIST*
D10*
%TO.C,U3*%
X85452380Y-58511904D02*
X86261904Y-58511904D01*
X86357142Y-58464285D01*
X86404761Y-58416666D01*
X86452380Y-58321428D01*
X86452380Y-58130952D01*
X86404761Y-58035714D01*
X86357142Y-57988095D01*
X86261904Y-57940476D01*
X85452380Y-57940476D01*
X85452380Y-57559523D02*
X85452380Y-56940476D01*
X85833333Y-57273809D01*
X85833333Y-57130952D01*
X85880952Y-57035714D01*
X85928571Y-56988095D01*
X86023809Y-56940476D01*
X86261904Y-56940476D01*
X86357142Y-56988095D01*
X86404761Y-57035714D01*
X86452380Y-57130952D01*
X86452380Y-57416666D01*
X86404761Y-57511904D01*
X86357142Y-57559523D01*
%TO.C,U10*%
X99761904Y-48202380D02*
X99761904Y-49011904D01*
X99809523Y-49107142D01*
X99857142Y-49154761D01*
X99952380Y-49202380D01*
X100142857Y-49202380D01*
X100238095Y-49154761D01*
X100285714Y-49107142D01*
X100333333Y-49011904D01*
X100333333Y-48202380D01*
X101333333Y-49202380D02*
X100761904Y-49202380D01*
X101047619Y-49202380D02*
X101047619Y-48202380D01*
X100952380Y-48345238D01*
X100857142Y-48440476D01*
X100761904Y-48488095D01*
X101952380Y-48202380D02*
X102047619Y-48202380D01*
X102142857Y-48250000D01*
X102190476Y-48297619D01*
X102238095Y-48392857D01*
X102285714Y-48583333D01*
X102285714Y-48821428D01*
X102238095Y-49011904D01*
X102190476Y-49107142D01*
X102142857Y-49154761D01*
X102047619Y-49202380D01*
X101952380Y-49202380D01*
X101857142Y-49154761D01*
X101809523Y-49107142D01*
X101761904Y-49011904D01*
X101714285Y-48821428D01*
X101714285Y-48583333D01*
X101761904Y-48392857D01*
X101809523Y-48297619D01*
X101857142Y-48250000D01*
X101952380Y-48202380D01*
%TO.C,J9*%
X101416666Y-34202380D02*
X101416666Y-34916666D01*
X101369047Y-35059523D01*
X101273809Y-35154761D01*
X101130952Y-35202380D01*
X101035714Y-35202380D01*
X101940476Y-35202380D02*
X102130952Y-35202380D01*
X102226190Y-35154761D01*
X102273809Y-35107142D01*
X102369047Y-34964285D01*
X102416666Y-34773809D01*
X102416666Y-34392857D01*
X102369047Y-34297619D01*
X102321428Y-34250000D01*
X102226190Y-34202380D01*
X102035714Y-34202380D01*
X101940476Y-34250000D01*
X101892857Y-34297619D01*
X101845238Y-34392857D01*
X101845238Y-34630952D01*
X101892857Y-34726190D01*
X101940476Y-34773809D01*
X102035714Y-34821428D01*
X102226190Y-34821428D01*
X102321428Y-34773809D01*
X102369047Y-34726190D01*
X102416666Y-34630952D01*
%TO.C,U1*%
X87738095Y-49952380D02*
X87738095Y-50761904D01*
X87785714Y-50857142D01*
X87833333Y-50904761D01*
X87928571Y-50952380D01*
X88119047Y-50952380D01*
X88214285Y-50904761D01*
X88261904Y-50857142D01*
X88309523Y-50761904D01*
X88309523Y-49952380D01*
X89309523Y-50952380D02*
X88738095Y-50952380D01*
X89023809Y-50952380D02*
X89023809Y-49952380D01*
X88928571Y-50095238D01*
X88833333Y-50190476D01*
X88738095Y-50238095D01*
%TO.C,U7*%
X101488095Y-43702380D02*
X101488095Y-44511904D01*
X101535714Y-44607142D01*
X101583333Y-44654761D01*
X101678571Y-44702380D01*
X101869047Y-44702380D01*
X101964285Y-44654761D01*
X102011904Y-44607142D01*
X102059523Y-44511904D01*
X102059523Y-43702380D01*
X102440476Y-43702380D02*
X103107142Y-43702380D01*
X102678571Y-44702380D01*
%TO.C,Q3*%
X83909761Y-63817619D02*
X83814523Y-63770000D01*
X83719285Y-63674761D01*
X83576428Y-63531904D01*
X83481190Y-63484285D01*
X83385952Y-63484285D01*
X83433571Y-63722380D02*
X83338333Y-63674761D01*
X83243095Y-63579523D01*
X83195476Y-63389047D01*
X83195476Y-63055714D01*
X83243095Y-62865238D01*
X83338333Y-62770000D01*
X83433571Y-62722380D01*
X83624047Y-62722380D01*
X83719285Y-62770000D01*
X83814523Y-62865238D01*
X83862142Y-63055714D01*
X83862142Y-63389047D01*
X83814523Y-63579523D01*
X83719285Y-63674761D01*
X83624047Y-63722380D01*
X83433571Y-63722380D01*
X84195476Y-62722380D02*
X84814523Y-62722380D01*
X84481190Y-63103333D01*
X84624047Y-63103333D01*
X84719285Y-63150952D01*
X84766904Y-63198571D01*
X84814523Y-63293809D01*
X84814523Y-63531904D01*
X84766904Y-63627142D01*
X84719285Y-63674761D01*
X84624047Y-63722380D01*
X84338333Y-63722380D01*
X84243095Y-63674761D01*
X84195476Y-63627142D01*
D11*
%TO.C,U11*%
X103940000Y-64890000D02*
X102890000Y-64890000D01*
X103940000Y-70110000D02*
X102890000Y-70110000D01*
X105060000Y-64890000D02*
X106110000Y-64890000D01*
%TO.C,U3*%
X79640000Y-56140000D02*
X79640000Y-56615000D01*
X84385000Y-62360000D02*
X84860000Y-62360000D01*
X79640000Y-62360000D02*
X79640000Y-61885000D01*
X84385000Y-56140000D02*
X84860000Y-56140000D01*
X80115000Y-56140000D02*
X79640000Y-56140000D01*
X80115000Y-62360000D02*
X79640000Y-62360000D01*
X84860000Y-56140000D02*
X84860000Y-56615000D01*
%TO.C,U10*%
X98040000Y-47390000D02*
X97390000Y-47390000D01*
X98040000Y-54610000D02*
X97390000Y-54610000D01*
X104610000Y-54610000D02*
X104610000Y-53960000D01*
X103960000Y-47390000D02*
X104610000Y-47390000D01*
X97390000Y-54610000D02*
X97390000Y-53960000D01*
X103960000Y-54610000D02*
X104610000Y-54610000D01*
X104610000Y-47390000D02*
X104610000Y-48040000D01*
%TO.C,F1*%
X115300000Y-41700000D02*
X111200000Y-41700000D01*
X115300000Y-41700000D02*
X115300000Y-50300000D01*
X111200000Y-41700000D02*
X111200000Y-50300000D01*
X115300000Y-50300000D02*
X111200000Y-50300000D01*
%TO.C,C39*%
X107390580Y-51010000D02*
X107109420Y-51010000D01*
X107390580Y-49990000D02*
X107109420Y-49990000D01*
%TO.C,R34*%
X100727500Y-66487258D02*
X100727500Y-66012742D01*
X101772500Y-66487258D02*
X101772500Y-66012742D01*
%TO.C,C35*%
X106490000Y-44359420D02*
X106490000Y-44640580D01*
X107510000Y-44359420D02*
X107510000Y-44640580D01*
%TO.C,J14*%
X102250000Y-68750000D02*
X102750000Y-68750000D01*
X102250000Y-73750000D02*
X102750000Y-73750000D01*
X102250000Y-74750000D02*
X102750000Y-74750000D01*
X102250000Y-69750000D02*
X102750000Y-69750000D01*
X102250000Y-75250000D02*
X99750000Y-75250000D01*
X99750000Y-75250000D02*
X99750000Y-68250000D01*
X99750000Y-68250000D02*
X102250000Y-68250000D01*
X102250000Y-68250000D02*
X102250000Y-75250000D01*
X102750000Y-75750000D02*
X99250000Y-75750000D01*
X99250000Y-75750000D02*
X99250000Y-67750000D01*
X99250000Y-67750000D02*
X102750000Y-67750000D01*
X102750000Y-67750000D02*
X102750000Y-75750000D01*
%TO.C,J6*%
X88250000Y-69250000D02*
X95250000Y-69250000D01*
X94250000Y-75750000D02*
X92750000Y-75750000D01*
X92750000Y-75750000D02*
X92750000Y-74750000D01*
X92750000Y-74750000D02*
X94250000Y-74750000D01*
X94250000Y-74750000D02*
X94250000Y-75750000D01*
X89250000Y-75750000D02*
X90750000Y-75750000D01*
X90750000Y-75750000D02*
X90750000Y-74750000D01*
X90750000Y-74750000D02*
X89250000Y-74750000D01*
X89250000Y-74750000D02*
X89250000Y-75750000D01*
X88250000Y-68750000D02*
X95250000Y-68750000D01*
X95250000Y-68750000D02*
X95250000Y-75750000D01*
X95250000Y-75750000D02*
X88250000Y-75750000D01*
X88250000Y-75750000D02*
X88250000Y-68750000D01*
%TO.C,SW1*%
X88890000Y-55875000D02*
X90740000Y-55875000D01*
X90740000Y-66775000D02*
X96260000Y-66775000D01*
X90740000Y-55225000D02*
X96260000Y-55225000D01*
X90740000Y-55225000D02*
X90740000Y-55875000D01*
X90740000Y-65505000D02*
X90740000Y-66775000D01*
X96260000Y-55225000D02*
X96260000Y-56494000D01*
X96260000Y-65505000D02*
X96260000Y-66775000D01*
%TO.C,R28*%
X98477500Y-57737258D02*
X98477500Y-57262742D01*
X99522500Y-57737258D02*
X99522500Y-57262742D01*
%TO.C,D5*%
X115250000Y-50550000D02*
X113250000Y-50550000D01*
X113250000Y-50550000D02*
X113250000Y-54400000D01*
X115250000Y-50550000D02*
X115250000Y-54400000D01*
%TO.C,C36*%
X109010000Y-44359420D02*
X109010000Y-44640580D01*
X107990000Y-44359420D02*
X107990000Y-44640580D01*
%TO.C,C12*%
X82635000Y-41525000D02*
X81385000Y-41525000D01*
X83545563Y-42390000D02*
X80760000Y-42390000D01*
X84610000Y-53110000D02*
X80760000Y-53110000D01*
X74954437Y-42390000D02*
X77740000Y-42390000D01*
X73890000Y-53110000D02*
X77740000Y-53110000D01*
X83545563Y-42390000D02*
X84610000Y-43454437D01*
X84610000Y-43454437D02*
X84610000Y-53110000D01*
X82010000Y-40900000D02*
X82010000Y-42150000D01*
X74954437Y-42390000D02*
X73890000Y-43454437D01*
X73890000Y-43454437D02*
X73890000Y-53110000D01*
%TO.C,R32*%
X106727500Y-69487258D02*
X106727500Y-69012742D01*
X107772500Y-69487258D02*
X107772500Y-69012742D01*
%TO.C,R16*%
X95772500Y-44262742D02*
X95772500Y-44737258D01*
X94727500Y-44262742D02*
X94727500Y-44737258D01*
%TO.C,C40*%
X107390580Y-51490000D02*
X107109420Y-51490000D01*
X107390580Y-52510000D02*
X107109420Y-52510000D01*
%TO.C,J16*%
X110750000Y-75250000D02*
X110750000Y-75750000D01*
X110250000Y-75250000D02*
X110250000Y-75750000D01*
X108250000Y-75250000D02*
X108250000Y-75750000D01*
X107750000Y-75250000D02*
X107750000Y-75750000D01*
X106750000Y-75750000D02*
X111750000Y-75750000D01*
X111750000Y-75750000D02*
X111750000Y-72250000D01*
X111750000Y-72250000D02*
X106750000Y-72250000D01*
X106750000Y-72250000D02*
X106750000Y-75750000D01*
X107250000Y-75250000D02*
X111250000Y-75250000D01*
X111250000Y-75250000D02*
X111250000Y-72750000D01*
X111250000Y-72750000D02*
X107250000Y-72750000D01*
X107250000Y-72750000D02*
X107250000Y-75250000D01*
%TO.C,J13*%
X106000000Y-74750000D02*
X106500000Y-74750000D01*
X106000000Y-71750000D02*
X106500000Y-71750000D01*
X106000000Y-72250000D02*
X106500000Y-72250000D01*
X106000000Y-74250000D02*
X106500000Y-74250000D01*
X106000000Y-75250000D02*
X103500000Y-75250000D01*
X103500000Y-75250000D02*
X103500000Y-71250000D01*
X103500000Y-71250000D02*
X106000000Y-71250000D01*
X106000000Y-71250000D02*
X106000000Y-75250000D01*
X106500000Y-75750000D02*
X103000000Y-75750000D01*
X103000000Y-75750000D02*
X103000000Y-70750000D01*
X103000000Y-70750000D02*
X106500000Y-70750000D01*
X106500000Y-70750000D02*
X106500000Y-75750000D01*
%TO.C,R29*%
X103727500Y-61262742D02*
X103727500Y-61737258D01*
X104772500Y-61262742D02*
X104772500Y-61737258D01*
%TO.C,C29*%
X98760000Y-44640580D02*
X98760000Y-44359420D01*
X97740000Y-44640580D02*
X97740000Y-44359420D01*
D12*
%TO.C,J9*%
X106220000Y-32532500D02*
X97280000Y-32532500D01*
X106220000Y-37952500D02*
X106220000Y-36742500D01*
X97280000Y-37952500D02*
X97280000Y-36742500D01*
X106220000Y-34022500D02*
X106220000Y-32532500D01*
X97280000Y-32532500D02*
X97280000Y-34022500D01*
X105630000Y-41042500D02*
G75*
G03*
X105630000Y-41042500I-100000J0D01*
G01*
D11*
%TO.C,U1*%
X91060000Y-50500000D02*
X91060000Y-48550000D01*
X91060000Y-50500000D02*
X91060000Y-52450000D01*
X85940000Y-50500000D02*
X85940000Y-53950000D01*
X85940000Y-50500000D02*
X85940000Y-48550000D01*
%TO.C,J5*%
X111500000Y-68000000D02*
X111500000Y-69000000D01*
X110000000Y-68000000D02*
X110000000Y-69000000D01*
X112500000Y-68000000D02*
X112500000Y-69000000D01*
X114000000Y-68000000D02*
X114000000Y-69000000D01*
X109000000Y-68000000D02*
X115000000Y-68000000D01*
X115000000Y-68000000D02*
X115000000Y-64500000D01*
X115000000Y-64500000D02*
X109000000Y-64500000D01*
X109000000Y-64500000D02*
X109000000Y-68000000D01*
X108500000Y-69000000D02*
X115500000Y-69000000D01*
X115500000Y-69000000D02*
X115500000Y-64000000D01*
X115500000Y-64000000D02*
X108500000Y-64000000D01*
X108500000Y-64000000D02*
X108500000Y-69000000D01*
%TO.C,C38*%
X107390580Y-48490000D02*
X107109420Y-48490000D01*
X107390580Y-49510000D02*
X107109420Y-49510000D01*
%TO.C,U7*%
X100690000Y-44250000D02*
X100690000Y-43450000D01*
X103810000Y-44250000D02*
X103810000Y-42450000D01*
X103810000Y-44250000D02*
X103810000Y-45050000D01*
X100690000Y-44250000D02*
X100690000Y-45050000D01*
%TO.C,J2*%
X112500000Y-60000000D02*
X112500000Y-61000000D01*
X110000000Y-60000000D02*
X110000000Y-61000000D01*
X114000000Y-60000000D02*
X114000000Y-61000000D01*
X111500000Y-60000000D02*
X111500000Y-61000000D01*
X109000000Y-60000000D02*
X115000000Y-60000000D01*
X115000000Y-60000000D02*
X115000000Y-56500000D01*
X115000000Y-56500000D02*
X109000000Y-56500000D01*
X109000000Y-56500000D02*
X109000000Y-60000000D01*
X108500000Y-61000000D02*
X115500000Y-61000000D01*
X115500000Y-61000000D02*
X115500000Y-56000000D01*
X115500000Y-56000000D02*
X108500000Y-56000000D01*
X108500000Y-56000000D02*
X108500000Y-61000000D01*
%TO.C,Y1*%
X104000000Y-55850000D02*
X100000000Y-55850000D01*
X104000000Y-59150000D02*
X104000000Y-55850000D01*
%TO.C,C51*%
X103260000Y-61640580D02*
X103260000Y-61359420D01*
X102240000Y-61640580D02*
X102240000Y-61359420D01*
%TO.C,C37*%
X110510000Y-44359420D02*
X110510000Y-44640580D01*
X109490000Y-44359420D02*
X109490000Y-44640580D01*
%TO.C,L4*%
X107412779Y-46990000D02*
X107087221Y-46990000D01*
X107412779Y-48010000D02*
X107087221Y-48010000D01*
%TO.C,J17*%
X86500000Y-71750000D02*
X86500000Y-70750000D01*
X84000000Y-71750000D02*
X84000000Y-70750000D01*
X85000000Y-71750000D02*
X85000000Y-70750000D01*
X82500000Y-71750000D02*
X82500000Y-70750000D01*
X88000000Y-70750000D02*
X81000000Y-70750000D01*
X81000000Y-70750000D02*
X81000000Y-75750000D01*
X81000000Y-75750000D02*
X88000000Y-75750000D01*
X88000000Y-75750000D02*
X88000000Y-70750000D01*
X87500000Y-71750000D02*
X81500000Y-71750000D01*
X81500000Y-71750000D02*
X81500000Y-75250000D01*
X81500000Y-75250000D02*
X87500000Y-75250000D01*
X87500000Y-75250000D02*
X87500000Y-71750000D01*
%TO.C,C20*%
X111740000Y-52140580D02*
X111740000Y-51859420D01*
X112760000Y-52140580D02*
X112760000Y-51859420D01*
%TO.C,C53*%
X107760000Y-66109420D02*
X107760000Y-66390580D01*
X106740000Y-66109420D02*
X106740000Y-66390580D01*
%TO.C,C41*%
X107390580Y-54010000D02*
X107109420Y-54010000D01*
X107390580Y-52990000D02*
X107109420Y-52990000D01*
%TO.C,J4*%
X109995000Y-63830000D02*
X109995000Y-61170000D01*
X108725000Y-63830000D02*
X107395000Y-63830000D01*
X115135000Y-63830000D02*
X115135000Y-61170000D01*
X107395000Y-63830000D02*
X107395000Y-62500000D01*
X109995000Y-63830000D02*
X115135000Y-63830000D01*
X109995000Y-61170000D02*
X115135000Y-61170000D01*
%TO.C,R3*%
X93022500Y-45237258D02*
X93022500Y-44762742D01*
X91977500Y-45237258D02*
X91977500Y-44762742D01*
%TO.C,J8*%
X77750000Y-63250000D02*
X78750000Y-63250000D01*
X77750000Y-64750000D02*
X78750000Y-64750000D01*
X77750000Y-57250000D02*
X78750000Y-57250000D01*
X77750000Y-55750000D02*
X78750000Y-55750000D01*
X78750000Y-65750000D02*
X73750000Y-65750000D01*
X73750000Y-65750000D02*
X73750000Y-54750000D01*
X73750000Y-54750000D02*
X78750000Y-54750000D01*
X78750000Y-54750000D02*
X78750000Y-65750000D01*
X77750000Y-65250000D02*
X74250000Y-65250000D01*
X74250000Y-65250000D02*
X74250000Y-55250000D01*
X74250000Y-55250000D02*
X77750000Y-55250000D01*
X77750000Y-55250000D02*
X77750000Y-65250000D01*
%TO.C,Q3*%
X86235000Y-64300000D02*
X86235000Y-64150000D01*
X81935000Y-69150000D02*
X81935000Y-69350000D01*
X81935000Y-64150000D02*
X81935000Y-64350000D01*
X86235000Y-69350000D02*
X86235000Y-69200000D01*
X86235000Y-64150000D02*
X81935000Y-64150000D01*
X81935000Y-69350000D02*
X86235000Y-69350000D01*
%TO.C,J12*%
X98500000Y-74250000D02*
X99000000Y-74250000D01*
X98500000Y-74750000D02*
X99000000Y-74750000D01*
X98500000Y-70750000D02*
X99000000Y-70750000D01*
X98500000Y-71250000D02*
X99000000Y-71250000D01*
X99000000Y-75750000D02*
X95500000Y-75750000D01*
X95500000Y-75750000D02*
X95500000Y-69750000D01*
X95500000Y-69750000D02*
X99000000Y-69750000D01*
X99000000Y-69750000D02*
X99000000Y-75750000D01*
X98500000Y-75250000D02*
X96000000Y-75250000D01*
X96000000Y-75250000D02*
X96000000Y-70250000D01*
X96000000Y-70250000D02*
X98500000Y-70250000D01*
X98500000Y-70250000D02*
X98500000Y-75250000D01*
%TO.C,J11*%
X94080000Y-54605000D02*
X92750000Y-54605000D01*
X94080000Y-52005000D02*
X91420000Y-52005000D01*
X94080000Y-46865000D02*
X91420000Y-46865000D01*
X91420000Y-52005000D02*
X91420000Y-46865000D01*
X94080000Y-53275000D02*
X94080000Y-54605000D01*
X94080000Y-52005000D02*
X94080000Y-46865000D01*
%TO.C,R23*%
X99227500Y-44262742D02*
X99227500Y-44737258D01*
X100272500Y-44262742D02*
X100272500Y-44737258D01*
%TO.C,C54*%
X105359420Y-63490000D02*
X105640580Y-63490000D01*
X105359420Y-64510000D02*
X105640580Y-64510000D01*
%TO.C,R35*%
X102237258Y-64522500D02*
X101762742Y-64522500D01*
X102237258Y-63477500D02*
X101762742Y-63477500D01*
%TO.C,C27*%
X96240000Y-44359420D02*
X96240000Y-44640580D01*
X97260000Y-44359420D02*
X97260000Y-44640580D01*
%TO.C,R18*%
X104227500Y-44737258D02*
X104227500Y-44262742D01*
X105272500Y-44737258D02*
X105272500Y-44262742D01*
%TO.C,J7*%
X83315000Y-41685000D02*
X83315000Y-32555000D01*
X84315000Y-31555000D02*
X92685000Y-31555000D01*
X92685000Y-31555000D02*
X93685000Y-32555000D01*
X83315000Y-32555000D02*
X84315000Y-31555000D01*
X93685000Y-32555000D02*
X93685000Y-41685000D01*
X93685000Y-41685000D02*
X83315000Y-41685000D01*
%TD*%
M02*
