%TF.GenerationSoftware,KiCad,Pcbnew,(6.0.7)*%
%TF.CreationDate,2022-09-20T14:36:04+02:00*%
%TF.ProjectId,CANpaca-EB-schematics,43414e70-6163-4612-9d45-422d73636865,rev?*%
%TF.SameCoordinates,Original*%
%TF.FileFunction,Soldermask,Bot*%
%TF.FilePolarity,Negative*%
%FSLAX46Y46*%
G04 Gerber Fmt 4.6, Leading zero omitted, Abs format (unit mm)*
G04 Created by KiCad (PCBNEW (6.0.7)) date 2022-09-20 14:36:04*
%MOMM*%
%LPD*%
G01*
G04 APERTURE LIST*
G04 Aperture macros list*
%AMRoundRect*
0 Rectangle with rounded corners*
0 $1 Rounding radius*
0 $2 $3 $4 $5 $6 $7 $8 $9 X,Y pos of 4 corners*
0 Add a 4 corners polygon primitive as box body*
4,1,4,$2,$3,$4,$5,$6,$7,$8,$9,$2,$3,0*
0 Add four circle primitives for the rounded corners*
1,1,$1+$1,$2,$3*
1,1,$1+$1,$4,$5*
1,1,$1+$1,$6,$7*
1,1,$1+$1,$8,$9*
0 Add four rect primitives between the rounded corners*
20,1,$1+$1,$2,$3,$4,$5,0*
20,1,$1+$1,$4,$5,$6,$7,0*
20,1,$1+$1,$6,$7,$8,$9,0*
20,1,$1+$1,$8,$9,$2,$3,0*%
G04 Aperture macros list end*
%ADD10RoundRect,0.150000X0.150000X-0.825000X0.150000X0.825000X-0.150000X0.825000X-0.150000X-0.825000X0*%
%ADD11C,1.270000*%
%ADD12C,1.000000*%
%ADD13C,2.000000*%
%ADD14C,0.650000*%
%ADD15C,1.425000*%
%ADD16R,1.700000X1.700000*%
%ADD17O,1.700000X1.700000*%
%ADD18RoundRect,0.225000X-0.225000X-0.250000X0.225000X-0.250000X0.225000X0.250000X-0.225000X0.250000X0*%
%ADD19C,3.000000*%
%ADD20RoundRect,0.250001X-0.499999X-0.499999X0.499999X-0.499999X0.499999X0.499999X-0.499999X0.499999X0*%
%ADD21C,1.500000*%
%ADD22RoundRect,0.225000X0.250000X-0.225000X0.250000X0.225000X-0.250000X0.225000X-0.250000X-0.225000X0*%
%ADD23RoundRect,0.200000X0.275000X-0.200000X0.275000X0.200000X-0.275000X0.200000X-0.275000X-0.200000X0*%
%ADD24RoundRect,0.225000X-0.250000X0.225000X-0.250000X-0.225000X0.250000X-0.225000X0.250000X0.225000X0*%
%ADD25RoundRect,0.200000X0.200000X0.275000X-0.200000X0.275000X-0.200000X-0.275000X0.200000X-0.275000X0*%
%ADD26RoundRect,0.225000X0.225000X0.250000X-0.225000X0.250000X-0.225000X-0.250000X0.225000X-0.250000X0*%
%ADD27RoundRect,0.200000X-0.275000X0.200000X-0.275000X-0.200000X0.275000X-0.200000X0.275000X0.200000X0*%
%ADD28R,0.600000X0.450000*%
%ADD29RoundRect,0.150000X-0.587500X-0.150000X0.587500X-0.150000X0.587500X0.150000X-0.587500X0.150000X0*%
%ADD30RoundRect,0.218750X-0.256250X0.218750X-0.256250X-0.218750X0.256250X-0.218750X0.256250X0.218750X0*%
%ADD31RoundRect,0.200000X-0.200000X-0.275000X0.200000X-0.275000X0.200000X0.275000X-0.200000X0.275000X0*%
%ADD32RoundRect,0.218750X0.256250X-0.218750X0.256250X0.218750X-0.256250X0.218750X-0.256250X-0.218750X0*%
%ADD33RoundRect,0.150000X0.150000X-0.587500X0.150000X0.587500X-0.150000X0.587500X-0.150000X-0.587500X0*%
%ADD34RoundRect,0.150000X0.150000X-0.512500X0.150000X0.512500X-0.150000X0.512500X-0.150000X-0.512500X0*%
%ADD35R,2.000000X1.500000*%
%ADD36R,2.000000X3.800000*%
%ADD37RoundRect,0.150000X-0.150000X0.512500X-0.150000X-0.512500X0.150000X-0.512500X0.150000X0.512500X0*%
%ADD38R,0.450000X0.300000*%
%ADD39RoundRect,0.218750X-0.381250X0.218750X-0.381250X-0.218750X0.381250X-0.218750X0.381250X0.218750X0*%
%ADD40RoundRect,0.075000X0.337500X0.075000X-0.337500X0.075000X-0.337500X-0.075000X0.337500X-0.075000X0*%
%ADD41RoundRect,0.075000X0.075000X0.337500X-0.075000X0.337500X-0.075000X-0.337500X0.075000X-0.337500X0*%
%ADD42R,3.250000X3.250000*%
%ADD43R,1.200000X0.900000*%
%ADD44RoundRect,0.218750X-0.218750X-0.381250X0.218750X-0.381250X0.218750X0.381250X-0.218750X0.381250X0*%
G04 APERTURE END LIST*
D10*
%TO.C,U6*%
X98230000Y-48325000D03*
X96960000Y-48325000D03*
X95690000Y-48325000D03*
X94420000Y-48325000D03*
X94420000Y-43375000D03*
X95690000Y-43375000D03*
X96960000Y-43375000D03*
X98230000Y-43375000D03*
%TD*%
D11*
%TO.C,F1*%
X114050000Y-43450000D03*
X112450000Y-48550000D03*
%TD*%
D12*
%TO.C,J14*%
X101250000Y-69250000D03*
X101250000Y-70500000D03*
X101250000Y-71750000D03*
X101250000Y-73000000D03*
X101250000Y-74250000D03*
%TD*%
D13*
%TO.C,J6*%
X90000000Y-72250000D03*
X93500000Y-72250000D03*
%TD*%
D12*
%TO.C,J16*%
X110500000Y-74250000D03*
X109250000Y-74250000D03*
X108000000Y-74250000D03*
%TD*%
%TO.C,J13*%
X105000000Y-72000000D03*
X105000000Y-73250000D03*
X105000000Y-74500000D03*
%TD*%
D14*
%TO.C,J9*%
X104640000Y-38812500D03*
X98860000Y-38812500D03*
%TD*%
D15*
%TO.C,J5*%
X113250000Y-67000000D03*
X110750000Y-67000000D03*
%TD*%
%TO.C,J2*%
X113250000Y-59000000D03*
X110750000Y-59000000D03*
%TD*%
%TO.C,J17*%
X83250000Y-72750000D03*
X85750000Y-72750000D03*
%TD*%
D16*
%TO.C,J4*%
X108725000Y-62500000D03*
D17*
X111265000Y-62500000D03*
X113805000Y-62500000D03*
%TD*%
D15*
%TO.C,J8*%
X76750000Y-56500000D03*
X76750000Y-59000000D03*
X76750000Y-61500000D03*
X76750000Y-64000000D03*
%TD*%
D18*
%TO.C,C10*%
X82225000Y-50250000D03*
X83775000Y-50250000D03*
%TD*%
D12*
%TO.C,J12*%
X97500000Y-70875000D03*
X97500000Y-72125000D03*
X97500000Y-73375000D03*
X97500000Y-74625000D03*
%TD*%
D16*
%TO.C,J11*%
X92750000Y-53275000D03*
D17*
X92750000Y-50735000D03*
X92750000Y-48195000D03*
%TD*%
D19*
%TO.C,J7*%
X88500000Y-36265000D03*
D20*
X87000000Y-40585000D03*
D21*
X90000000Y-40585000D03*
X87000000Y-43585000D03*
X90000000Y-43585000D03*
%TD*%
D22*
%TO.C,C13*%
X81500000Y-48525000D03*
X81500000Y-46975000D03*
%TD*%
D23*
%TO.C,R15*%
X95750000Y-52825000D03*
X95750000Y-51175000D03*
%TD*%
D24*
%TO.C,C8*%
X86500000Y-52050000D03*
X86500000Y-53600000D03*
%TD*%
D18*
%TO.C,C7*%
X87975000Y-59250000D03*
X89525000Y-59250000D03*
%TD*%
D23*
%TO.C,R37*%
X88000000Y-71075000D03*
X88000000Y-69425000D03*
%TD*%
D25*
%TO.C,R10*%
X79825000Y-68250000D03*
X78175000Y-68250000D03*
%TD*%
D18*
%TO.C,C6*%
X87975000Y-61250000D03*
X89525000Y-61250000D03*
%TD*%
%TO.C,C31*%
X109975000Y-37000000D03*
X111525000Y-37000000D03*
%TD*%
D26*
%TO.C,C44*%
X108025000Y-50500000D03*
X106475000Y-50500000D03*
%TD*%
D18*
%TO.C,C33*%
X109975000Y-35500000D03*
X111525000Y-35500000D03*
%TD*%
D26*
%TO.C,C46*%
X99775000Y-60750000D03*
X98225000Y-60750000D03*
%TD*%
D23*
%TO.C,R14*%
X79750000Y-36575000D03*
X79750000Y-34925000D03*
%TD*%
D27*
%TO.C,R8*%
X88000000Y-52000000D03*
X88000000Y-53650000D03*
%TD*%
D24*
%TO.C,C25*%
X97500000Y-35225000D03*
X97500000Y-36775000D03*
%TD*%
%TO.C,C52*%
X85000000Y-66475000D03*
X85000000Y-68025000D03*
%TD*%
D25*
%TO.C,R2*%
X109825000Y-57250000D03*
X108175000Y-57250000D03*
%TD*%
D18*
%TO.C,C49*%
X98225000Y-68500000D03*
X99775000Y-68500000D03*
%TD*%
%TO.C,C2*%
X89225000Y-50000000D03*
X90775000Y-50000000D03*
%TD*%
D23*
%TO.C,R13*%
X103000000Y-40575000D03*
X103000000Y-38925000D03*
%TD*%
D25*
%TO.C,R26*%
X99825000Y-62250000D03*
X98175000Y-62250000D03*
%TD*%
D28*
%TO.C,D1*%
X113300000Y-57000000D03*
X111200000Y-57000000D03*
%TD*%
D27*
%TO.C,R31*%
X106500000Y-71175000D03*
X106500000Y-72825000D03*
%TD*%
D23*
%TO.C,R5*%
X112000000Y-64175000D03*
X112000000Y-65825000D03*
%TD*%
D22*
%TO.C,C4*%
X91000000Y-48025000D03*
X91000000Y-46475000D03*
%TD*%
D25*
%TO.C,R21*%
X89575000Y-64500000D03*
X87925000Y-64500000D03*
%TD*%
D26*
%TO.C,C45*%
X108025000Y-49000000D03*
X106475000Y-49000000D03*
%TD*%
D28*
%TO.C,D3*%
X114800000Y-71250000D03*
X112700000Y-71250000D03*
%TD*%
D29*
%TO.C,Q1*%
X107312500Y-60950000D03*
X107312500Y-59050000D03*
X109187500Y-60000000D03*
%TD*%
D27*
%TO.C,R33*%
X86500000Y-66425000D03*
X86500000Y-68075000D03*
%TD*%
D22*
%TO.C,C21*%
X96000000Y-38275000D03*
X96000000Y-36725000D03*
%TD*%
D29*
%TO.C,Q2*%
X108312500Y-65950000D03*
X108312500Y-64050000D03*
X110187500Y-65000000D03*
%TD*%
D18*
%TO.C,C15*%
X113225000Y-69500000D03*
X114775000Y-69500000D03*
%TD*%
D30*
%TO.C,L1*%
X99000000Y-35212500D03*
X99000000Y-36787500D03*
%TD*%
D27*
%TO.C,R36*%
X85000000Y-69425000D03*
X85000000Y-71075000D03*
%TD*%
D26*
%TO.C,C9*%
X80275000Y-73000000D03*
X78725000Y-73000000D03*
%TD*%
D25*
%TO.C,R27*%
X99825000Y-63750000D03*
X98175000Y-63750000D03*
%TD*%
D23*
%TO.C,R30*%
X99500000Y-73325000D03*
X99500000Y-71675000D03*
%TD*%
D31*
%TO.C,R12*%
X82175000Y-51750000D03*
X83825000Y-51750000D03*
%TD*%
D32*
%TO.C,D6*%
X114500000Y-40537500D03*
X114500000Y-38962500D03*
%TD*%
D33*
%TO.C,D2*%
X89450000Y-48187500D03*
X87550000Y-48187500D03*
X88500000Y-46312500D03*
%TD*%
D26*
%TO.C,C43*%
X108025000Y-52000000D03*
X106475000Y-52000000D03*
%TD*%
D27*
%TO.C,R7*%
X76500000Y-65675000D03*
X76500000Y-67325000D03*
%TD*%
D24*
%TO.C,C26*%
X100500000Y-35225000D03*
X100500000Y-36775000D03*
%TD*%
D23*
%TO.C,R22*%
X113000000Y-40575000D03*
X113000000Y-38925000D03*
%TD*%
%TO.C,R38*%
X86500000Y-71075000D03*
X86500000Y-69425000D03*
%TD*%
D34*
%TO.C,U4*%
X92950000Y-38637500D03*
X92000000Y-38637500D03*
X91050000Y-38637500D03*
X91050000Y-36362500D03*
X92000000Y-36362500D03*
X92950000Y-36362500D03*
%TD*%
D35*
%TO.C,U5*%
X105600000Y-46800000D03*
X105600000Y-44500000D03*
D36*
X111900000Y-44500000D03*
D35*
X105600000Y-42200000D03*
%TD*%
D37*
%TO.C,U9*%
X103550000Y-66362500D03*
X104500000Y-66362500D03*
X105450000Y-66362500D03*
X105450000Y-68637500D03*
X103550000Y-68637500D03*
%TD*%
D38*
%TO.C,U2*%
X79950000Y-66000000D03*
X79950000Y-66500000D03*
X79950000Y-67000000D03*
X78550000Y-67000000D03*
X78550000Y-66000000D03*
%TD*%
D27*
%TO.C,R17*%
X101250000Y-38925000D03*
X101250000Y-40575000D03*
%TD*%
%TO.C,R6*%
X114500000Y-64175000D03*
X114500000Y-65825000D03*
%TD*%
D33*
%TO.C,D7*%
X83450000Y-70687500D03*
X81550000Y-70687500D03*
X82500000Y-68812500D03*
%TD*%
D24*
%TO.C,C3*%
X86000000Y-46475000D03*
X86000000Y-48025000D03*
%TD*%
%TO.C,C32*%
X96000000Y-39975000D03*
X96000000Y-41525000D03*
%TD*%
D22*
%TO.C,C22*%
X112250000Y-52775000D03*
X112250000Y-51225000D03*
%TD*%
D24*
%TO.C,C5*%
X114750000Y-56475000D03*
X114750000Y-58025000D03*
%TD*%
D26*
%TO.C,C42*%
X108025000Y-53500000D03*
X106475000Y-53500000D03*
%TD*%
D24*
%TO.C,C50*%
X103500000Y-71975000D03*
X103500000Y-73525000D03*
%TD*%
D27*
%TO.C,R9*%
X76500000Y-68675000D03*
X76500000Y-70325000D03*
%TD*%
D24*
%TO.C,C30*%
X103500000Y-35225000D03*
X103500000Y-36775000D03*
%TD*%
D22*
%TO.C,C23*%
X92250000Y-42275000D03*
X92250000Y-40725000D03*
%TD*%
D27*
%TO.C,R19*%
X94500000Y-39925000D03*
X94500000Y-41575000D03*
%TD*%
D24*
%TO.C,C48*%
X101000000Y-56725000D03*
X101000000Y-58275000D03*
%TD*%
D26*
%TO.C,C34*%
X92525000Y-59000000D03*
X90975000Y-59000000D03*
%TD*%
D18*
%TO.C,C16*%
X91225000Y-55750000D03*
X92775000Y-55750000D03*
%TD*%
%TO.C,C1*%
X85975000Y-50000000D03*
X87525000Y-50000000D03*
%TD*%
D27*
%TO.C,R20*%
X78250000Y-34925000D03*
X78250000Y-36575000D03*
%TD*%
D25*
%TO.C,R24*%
X89575000Y-62750000D03*
X87925000Y-62750000D03*
%TD*%
D24*
%TO.C,C47*%
X102750000Y-56725000D03*
X102750000Y-58275000D03*
%TD*%
D25*
%TO.C,R11*%
X92825000Y-57500000D03*
X91175000Y-57500000D03*
%TD*%
D24*
%TO.C,C28*%
X102000000Y-35225000D03*
X102000000Y-36775000D03*
%TD*%
D22*
%TO.C,C19*%
X94500000Y-38275000D03*
X94500000Y-36725000D03*
%TD*%
D31*
%TO.C,R1*%
X108175000Y-55750000D03*
X109825000Y-55750000D03*
%TD*%
D25*
%TO.C,R25*%
X89575000Y-66000000D03*
X87925000Y-66000000D03*
%TD*%
D24*
%TO.C,C11*%
X89500000Y-52050000D03*
X89500000Y-53600000D03*
%TD*%
D39*
%TO.C,L2*%
X105250000Y-35937500D03*
X105250000Y-38062500D03*
%TD*%
D31*
%TO.C,R4*%
X86175000Y-55500000D03*
X87825000Y-55500000D03*
%TD*%
D40*
%TO.C,U8*%
X96437500Y-62700000D03*
X96437500Y-63350000D03*
X96437500Y-64000000D03*
X96437500Y-64650000D03*
X96437500Y-65300000D03*
D41*
X95300000Y-66437500D03*
X94650000Y-66437500D03*
X94000000Y-66437500D03*
X93350000Y-66437500D03*
X92700000Y-66437500D03*
D40*
X91562500Y-65300000D03*
X91562500Y-64650000D03*
X91562500Y-64000000D03*
X91562500Y-63350000D03*
X91562500Y-62700000D03*
D41*
X92700000Y-61562500D03*
X93350000Y-61562500D03*
X94000000Y-61562500D03*
X94650000Y-61562500D03*
X95300000Y-61562500D03*
D42*
X94000000Y-64000000D03*
%TD*%
D43*
%TO.C,D4*%
X82000000Y-34850000D03*
X82000000Y-38150000D03*
%TD*%
D22*
%TO.C,C14*%
X83000000Y-48525000D03*
X83000000Y-46975000D03*
%TD*%
D44*
%TO.C,L3*%
X93937500Y-59250000D03*
X96062500Y-59250000D03*
%TD*%
D24*
%TO.C,C18*%
X92000000Y-68975000D03*
X92000000Y-70525000D03*
%TD*%
D26*
%TO.C,C17*%
X83775000Y-53250000D03*
X82225000Y-53250000D03*
%TD*%
M02*
