%TF.GenerationSoftware,KiCad,Pcbnew,(6.0.7)*%
%TF.CreationDate,2022-09-20T14:36:04+02:00*%
%TF.ProjectId,CANpaca-EB-schematics,43414e70-6163-4612-9d45-422d73636865,rev?*%
%TF.SameCoordinates,Original*%
%TF.FileFunction,Paste,Top*%
%TF.FilePolarity,Positive*%
%FSLAX46Y46*%
G04 Gerber Fmt 4.6, Leading zero omitted, Abs format (unit mm)*
G04 Created by KiCad (PCBNEW (6.0.7)) date 2022-09-20 14:36:04*
%MOMM*%
%LPD*%
G01*
G04 APERTURE LIST*
G04 Aperture macros list*
%AMRoundRect*
0 Rectangle with rounded corners*
0 $1 Rounding radius*
0 $2 $3 $4 $5 $6 $7 $8 $9 X,Y pos of 4 corners*
0 Add a 4 corners polygon primitive as box body*
4,1,4,$2,$3,$4,$5,$6,$7,$8,$9,$2,$3,0*
0 Add four circle primitives for the rounded corners*
1,1,$1+$1,$2,$3*
1,1,$1+$1,$4,$5*
1,1,$1+$1,$6,$7*
1,1,$1+$1,$8,$9*
0 Add four rect primitives between the rounded corners*
20,1,$1+$1,$2,$3,$4,$5,0*
20,1,$1+$1,$4,$5,$6,$7,0*
20,1,$1+$1,$6,$7,$8,$9,0*
20,1,$1+$1,$8,$9,$2,$3,0*%
G04 Aperture macros list end*
%ADD10RoundRect,0.150000X0.325000X0.150000X-0.325000X0.150000X-0.325000X-0.150000X0.325000X-0.150000X0*%
%ADD11RoundRect,0.150000X0.150000X0.325000X-0.150000X0.325000X-0.150000X-0.325000X0.150000X-0.325000X0*%
%ADD12RoundRect,0.242500X0.242500X0.307500X-0.242500X0.307500X-0.242500X-0.307500X0.242500X-0.307500X0*%
%ADD13RoundRect,0.062500X0.362500X0.062500X-0.362500X0.062500X-0.362500X-0.062500X0.362500X-0.062500X0*%
%ADD14RoundRect,0.062500X0.062500X0.362500X-0.062500X0.362500X-0.062500X-0.362500X0.062500X-0.362500X0*%
%ADD15RoundRect,0.050000X-0.050000X-0.387500X0.050000X-0.387500X0.050000X0.387500X-0.050000X0.387500X0*%
%ADD16RoundRect,0.050000X-0.387500X-0.050000X0.387500X-0.050000X0.387500X0.050000X-0.387500X0.050000X0*%
%ADD17RoundRect,0.249999X-0.395001X-0.395001X0.395001X-0.395001X0.395001X0.395001X-0.395001X0.395001X0*%
%ADD18RoundRect,0.225000X0.225000X0.250000X-0.225000X0.250000X-0.225000X-0.250000X0.225000X-0.250000X0*%
%ADD19RoundRect,0.200000X0.275000X-0.200000X0.275000X0.200000X-0.275000X0.200000X-0.275000X-0.200000X0*%
%ADD20RoundRect,0.225000X-0.250000X0.225000X-0.250000X-0.225000X0.250000X-0.225000X0.250000X0.225000X0*%
%ADD21R,1.600000X0.760000*%
%ADD22R,1.100000X1.100000*%
%ADD23RoundRect,0.250000X-1.000000X1.950000X-1.000000X-1.950000X1.000000X-1.950000X1.000000X1.950000X0*%
%ADD24RoundRect,0.200000X-0.275000X0.200000X-0.275000X-0.200000X0.275000X-0.200000X0.275000X0.200000X0*%
%ADD25RoundRect,0.225000X0.250000X-0.225000X0.250000X0.225000X-0.250000X0.225000X-0.250000X-0.225000X0*%
%ADD26R,0.600000X1.150000*%
%ADD27R,0.300000X1.150000*%
%ADD28R,2.180000X2.000000*%
%ADD29RoundRect,0.150000X0.150000X-0.825000X0.150000X0.825000X-0.150000X0.825000X-0.150000X-0.825000X0*%
%ADD30RoundRect,0.150000X-0.150000X0.512500X-0.150000X-0.512500X0.150000X-0.512500X0.150000X0.512500X0*%
%ADD31R,1.400000X1.200000*%
%ADD32RoundRect,0.218750X0.218750X0.256250X-0.218750X0.256250X-0.218750X-0.256250X0.218750X-0.256250X0*%
%ADD33R,0.600000X0.900000*%
%ADD34R,0.900000X0.600000*%
%ADD35R,1.050000X0.600000*%
%ADD36RoundRect,0.225000X-0.225000X-0.250000X0.225000X-0.250000X0.225000X0.250000X-0.225000X0.250000X0*%
%ADD37RoundRect,0.200000X0.200000X0.275000X-0.200000X0.275000X-0.200000X-0.275000X0.200000X-0.275000X0*%
G04 APERTURE END LIST*
D10*
%TO.C,U11*%
X105500000Y-69500000D03*
X105500000Y-68700000D03*
X105500000Y-67900000D03*
X105500000Y-67100000D03*
X105500000Y-66300000D03*
X105500000Y-65500000D03*
D11*
X104500000Y-65500000D03*
D10*
X103500000Y-65500000D03*
X103500000Y-66300000D03*
X103500000Y-67100000D03*
X103500000Y-67900000D03*
X103500000Y-68700000D03*
X103500000Y-69500000D03*
D11*
X104500000Y-69500000D03*
%TD*%
D12*
%TO.C,U3*%
X81050000Y-59250000D03*
X82250000Y-59250000D03*
X82250000Y-57880000D03*
X83450000Y-60620000D03*
X81050000Y-60620000D03*
X83450000Y-57880000D03*
X83450000Y-59250000D03*
X82250000Y-60620000D03*
X81050000Y-57880000D03*
D13*
X84700000Y-61500000D03*
X84700000Y-61000000D03*
X84700000Y-60500000D03*
X84700000Y-60000000D03*
X84700000Y-59500000D03*
X84700000Y-59000000D03*
X84700000Y-58500000D03*
X84700000Y-58000000D03*
X84700000Y-57500000D03*
X84700000Y-57000000D03*
D14*
X84000000Y-56300000D03*
X83500000Y-56300000D03*
X83000000Y-56300000D03*
X82500000Y-56300000D03*
X82000000Y-56300000D03*
X81500000Y-56300000D03*
X81000000Y-56300000D03*
X80500000Y-56300000D03*
D13*
X79800000Y-57000000D03*
X79800000Y-57500000D03*
X79800000Y-58000000D03*
X79800000Y-58500000D03*
X79800000Y-59000000D03*
X79800000Y-59500000D03*
X79800000Y-60000000D03*
X79800000Y-60500000D03*
X79800000Y-61000000D03*
X79800000Y-61500000D03*
D14*
X80500000Y-62200000D03*
X81000000Y-62200000D03*
X81500000Y-62200000D03*
X82000000Y-62200000D03*
X82500000Y-62200000D03*
X83000000Y-62200000D03*
X83500000Y-62200000D03*
X84000000Y-62200000D03*
%TD*%
D15*
%TO.C,U10*%
X98400000Y-47562500D03*
X98800000Y-47562500D03*
X99200000Y-47562500D03*
X99600000Y-47562500D03*
X100000000Y-47562500D03*
X100400000Y-47562500D03*
X100800000Y-47562500D03*
X101200000Y-47562500D03*
X101600000Y-47562500D03*
X102000000Y-47562500D03*
X102400000Y-47562500D03*
X102800000Y-47562500D03*
X103200000Y-47562500D03*
X103600000Y-47562500D03*
D16*
X104437500Y-48400000D03*
X104437500Y-48800000D03*
X104437500Y-49200000D03*
X104437500Y-49600000D03*
X104437500Y-50000000D03*
X104437500Y-50400000D03*
X104437500Y-50800000D03*
X104437500Y-51200000D03*
X104437500Y-51600000D03*
X104437500Y-52000000D03*
X104437500Y-52400000D03*
X104437500Y-52800000D03*
X104437500Y-53200000D03*
X104437500Y-53600000D03*
D15*
X103600000Y-54437500D03*
X103200000Y-54437500D03*
X102800000Y-54437500D03*
X102400000Y-54437500D03*
X102000000Y-54437500D03*
X101600000Y-54437500D03*
X101200000Y-54437500D03*
X100800000Y-54437500D03*
X100400000Y-54437500D03*
X100000000Y-54437500D03*
X99600000Y-54437500D03*
X99200000Y-54437500D03*
X98800000Y-54437500D03*
X98400000Y-54437500D03*
D16*
X97562500Y-53600000D03*
X97562500Y-53200000D03*
X97562500Y-52800000D03*
X97562500Y-52400000D03*
X97562500Y-52000000D03*
X97562500Y-51600000D03*
X97562500Y-51200000D03*
X97562500Y-50800000D03*
X97562500Y-50400000D03*
X97562500Y-50000000D03*
X97562500Y-49600000D03*
X97562500Y-49200000D03*
X97562500Y-48800000D03*
X97562500Y-48400000D03*
D17*
X100200000Y-50200000D03*
X100200000Y-51800000D03*
X101800000Y-50200000D03*
X101800000Y-51800000D03*
%TD*%
D18*
%TO.C,C39*%
X108025000Y-50500000D03*
X106475000Y-50500000D03*
%TD*%
D19*
%TO.C,R34*%
X101250000Y-67075000D03*
X101250000Y-65425000D03*
%TD*%
D20*
%TO.C,C35*%
X107000000Y-43725000D03*
X107000000Y-45275000D03*
%TD*%
D21*
%TO.C,SW1*%
X89690000Y-56555000D03*
X89690000Y-57825000D03*
X89690000Y-59095000D03*
X89690000Y-60365000D03*
X89690000Y-61635000D03*
X89690000Y-62905000D03*
X89690000Y-64175000D03*
X89690000Y-65445000D03*
X97310000Y-65445000D03*
X97310000Y-64175000D03*
X97310000Y-62905000D03*
X97310000Y-61635000D03*
X97310000Y-60365000D03*
X97310000Y-59095000D03*
X97310000Y-57825000D03*
X97310000Y-56555000D03*
%TD*%
D19*
%TO.C,R28*%
X99000000Y-58325000D03*
X99000000Y-56675000D03*
%TD*%
D22*
%TO.C,D5*%
X114250000Y-51350000D03*
X114250000Y-54150000D03*
%TD*%
D20*
%TO.C,C36*%
X108500000Y-43725000D03*
X108500000Y-45275000D03*
%TD*%
D23*
%TO.C,C12*%
X79250000Y-43550000D03*
X79250000Y-51950000D03*
%TD*%
D19*
%TO.C,R32*%
X107250000Y-70075000D03*
X107250000Y-68425000D03*
%TD*%
D24*
%TO.C,R16*%
X95250000Y-43675000D03*
X95250000Y-45325000D03*
%TD*%
D18*
%TO.C,C40*%
X108025000Y-52000000D03*
X106475000Y-52000000D03*
%TD*%
D24*
%TO.C,R29*%
X104250000Y-60675000D03*
X104250000Y-62325000D03*
%TD*%
D25*
%TO.C,C29*%
X98250000Y-45275000D03*
X98250000Y-43725000D03*
%TD*%
D26*
%TO.C,J9*%
X104950000Y-39887500D03*
X104150000Y-39887500D03*
D27*
X103000000Y-39887500D03*
X102000000Y-39887500D03*
X101500000Y-39887500D03*
X100500000Y-39887500D03*
D26*
X98550000Y-39887500D03*
X99350000Y-39887500D03*
D27*
X100000000Y-39887500D03*
X101000000Y-39887500D03*
X102500000Y-39887500D03*
X103500000Y-39887500D03*
D28*
X106860000Y-39312500D03*
X96640000Y-39312500D03*
X106860000Y-35382500D03*
X96640000Y-35382500D03*
%TD*%
D29*
%TO.C,U1*%
X86595000Y-52975000D03*
X87865000Y-52975000D03*
X89135000Y-52975000D03*
X90405000Y-52975000D03*
X90405000Y-48025000D03*
X89135000Y-48025000D03*
X87865000Y-48025000D03*
X86595000Y-48025000D03*
%TD*%
D18*
%TO.C,C38*%
X108025000Y-49000000D03*
X106475000Y-49000000D03*
%TD*%
D30*
%TO.C,U7*%
X103200000Y-43112500D03*
X102250000Y-43112500D03*
X101300000Y-43112500D03*
X101300000Y-45387500D03*
X102250000Y-45387500D03*
X103200000Y-45387500D03*
%TD*%
D31*
%TO.C,Y1*%
X103100000Y-56650000D03*
X100900000Y-56650000D03*
X100900000Y-58350000D03*
X103100000Y-58350000D03*
%TD*%
D25*
%TO.C,C51*%
X102750000Y-62275000D03*
X102750000Y-60725000D03*
%TD*%
D20*
%TO.C,C37*%
X110000000Y-43725000D03*
X110000000Y-45275000D03*
%TD*%
D32*
%TO.C,L4*%
X108037500Y-47500000D03*
X106462500Y-47500000D03*
%TD*%
D25*
%TO.C,C20*%
X112250000Y-52775000D03*
X112250000Y-51225000D03*
%TD*%
D20*
%TO.C,C53*%
X107250000Y-65475000D03*
X107250000Y-67025000D03*
%TD*%
D18*
%TO.C,C41*%
X108025000Y-53500000D03*
X106475000Y-53500000D03*
%TD*%
D19*
%TO.C,R3*%
X92500000Y-45825000D03*
X92500000Y-44175000D03*
%TD*%
D33*
%TO.C,Q3*%
X84435000Y-65600000D03*
X84435000Y-66750000D03*
D34*
X87135000Y-66150000D03*
D33*
X83585000Y-65600000D03*
D34*
X87135000Y-68630000D03*
D33*
X84435000Y-67900000D03*
D34*
X87135000Y-64870000D03*
D33*
X83585000Y-67900000D03*
X85285000Y-65600000D03*
X85285000Y-66750000D03*
X83585000Y-66750000D03*
X85285000Y-67900000D03*
D34*
X87135000Y-67350000D03*
D35*
X81415000Y-64840000D03*
X81415000Y-66110000D03*
X81415000Y-67390000D03*
X81415000Y-68660000D03*
%TD*%
D24*
%TO.C,R23*%
X99750000Y-43675000D03*
X99750000Y-45325000D03*
%TD*%
D36*
%TO.C,C54*%
X104725000Y-64000000D03*
X106275000Y-64000000D03*
%TD*%
D37*
%TO.C,R35*%
X102825000Y-64000000D03*
X101175000Y-64000000D03*
%TD*%
D20*
%TO.C,C27*%
X96750000Y-43725000D03*
X96750000Y-45275000D03*
%TD*%
D19*
%TO.C,R18*%
X104750000Y-45325000D03*
X104750000Y-43675000D03*
%TD*%
M02*
