M48
; DRILL file {KiCad (6.0.7)} date Tue 20 Sep 2022 02:36:08 PM CEST
; FORMAT={-:-/ absolute / inch / decimal}
; #@! TF.CreationDate,2022-09-20T14:36:08+02:00
; #@! TF.GenerationSoftware,Kicad,Pcbnew,(6.0.7)
; #@! TF.FileFunction,Plated,1,4,PTH
FMAT,2
INCH
; #@! TA.AperFunction,Plated,PTH,ViaDrill
T1C0.0100
; #@! TA.AperFunction,Plated,PTH,ComponentDrill
T2C0.0197
; #@! TA.AperFunction,Plated,PTH,ComponentDrill
T3C0.0280
; #@! TA.AperFunction,Plated,PTH,ComponentDrill
T4C0.0374
; #@! TA.AperFunction,Plated,PTH,ComponentDrill
T5C0.0394
; #@! TA.AperFunction,Plated,PTH,ComponentDrill
T6C0.0402
%
G90
G05
T1
X3.0217Y-1.4173
X3.0386Y-2.3735
X3.0422Y-2.4623
X3.051Y-2.5852
X3.0512Y-2.8445
X3.0578Y-2.6414
X3.0906Y-2.5787
X3.0927Y-2.5197
X3.1088Y-2.2742
X3.1102Y-2.3053
X3.1299Y-2.5274
X3.1496Y-2.5
X3.1693Y-2.6575
X3.1872Y-2.7439
X3.1872Y-2.8445
X3.2283Y-2.49
X3.2382Y-2.1654
X3.248Y-2.628
X3.248Y-2.7657
X3.2512Y-2.5486
X3.2874Y-1.4075
X3.2972Y-1.378
X3.2972Y-2.1594
X3.3366Y-1.939
X3.3366Y-2.0866
X3.3434Y-2.1911
X3.3465Y-2.4452
X3.3465Y-2.49
X3.3563Y-2.0208
X3.3563Y-2.0571
X3.3676Y-2.2336
X3.3705Y-2.1279
X3.376Y-2.384
X3.376Y-2.4803
X3.3808Y-2.3077
X3.3894Y-2.2638
X3.3957Y-1.7815
X3.3957Y-2.4508
X3.4281Y-2.5172
X3.4299Y-2.428
X3.4324Y-2.2415
X3.4843Y-1.939
X3.4843Y-2.2736
X3.5335Y-1.4961
X3.546Y-2.6548
X3.563Y-2.7362
X3.5707Y-2.2297
X3.5728Y-2.6181
X3.5804Y-2.3919
X3.5833Y-1.477
X3.5904Y-2.3594
X3.5925Y-1.5748
X3.5959Y-2.6738
X3.6003Y-2.1278
X3.6009Y-1.78
X3.6122Y-1.9645
X3.6122Y-2.385
X3.6122Y-2.6476
X3.6193Y-2.4448
X3.622Y-1.378
X3.622Y-2.8937
X3.6516Y-1.4764
X3.6578Y-2.3685
X3.6811Y-1.5945
X3.6816Y-2.6667
X3.6853Y-2.1499
X3.6909Y-2.3742
X3.6959Y-2.2687
X3.698Y-1.5373
X3.7008Y-2.7362
X3.7009Y-2.0965
X3.7106Y-2.6772
X3.7205Y-1.8209
X3.7292Y-2.0354
X3.7303Y-1.998
X3.7402Y-1.3976
X3.7402Y-1.8504
X3.7402Y-2.3228
X3.7415Y-2.2848
X3.7437Y-2.6834
X3.7652Y-2.2343
X3.7757Y-2.2835
X3.7851Y-1.8251
X3.7926Y-2.2
X3.8085Y-2.1436
X3.8094Y-1.8494
X3.8386Y-2.126
X3.8396Y-2.6171
X3.8439Y-1.8584
X3.8488Y-2.1773
X3.8681Y-1.6437
X3.8738Y-2.1977
X3.8793Y-2.105
X3.8795Y-2.009
X3.8802Y-2.5587
X3.8853Y-2.0397
X3.8955Y-1.9528
X3.9009Y-2.4814
X3.9096Y-2.5473
X3.9113Y-2.1979
X3.9173Y-1.9095
X3.9173Y-2.6476
X3.9173Y-2.7756
X3.9245Y-1.8181
X3.9324Y-2.3326
X3.9453Y-1.5307
X3.9469Y-2.1084
X3.9503Y-1.8371
X3.9665Y-2.4803
X3.9782Y-1.9094
X3.9862Y-2.3819
X3.9961Y-2.4114
X4.0072Y-2.1049
X4.008Y-2.1907
X4.0247Y-2.6977
X4.0256Y-1.6437
X4.0354Y-2.9528
X4.0412Y-1.9073
X4.0468Y-2.1873
X4.065Y-1.9685
X4.0846Y-1.5139
X4.0846Y-2.5
X4.0846Y-2.5394
X4.1043Y-2.3327
X4.1043Y-2.4224
X4.1144Y-2.7754
X4.117Y-2.676
X4.12Y-2.4883
X4.124Y-2.2441
X4.1437Y-2.3375
X4.1535Y-1.939
X4.1732Y-2.2966
X4.1831Y-2.4329
X4.1867Y-2.7346
X4.1929Y-2.1773
X4.2323Y-1.4764
X4.2421Y-1.8307
X4.2913Y-2.6969
X4.3012Y-2.1063
X4.311Y-1.8406
X4.3209Y-2.1337
X4.3291Y-2.862
X4.3307Y-1.6732
X4.3307Y-2.5294
X4.3307Y-2.687
X4.3602Y-2.0768
X4.3898Y-2.0177
X4.4193Y-2.687
X4.4587Y-2.185
X4.4587Y-2.5591
X4.498Y-1.6437
X4.498Y-2.0768
T2
X3.8386Y-2.7904
X3.8386Y-2.8396
X3.8386Y-2.8888
X3.8386Y-2.938
X3.9862Y-2.7264
X3.9862Y-2.7756
X3.9862Y-2.8248
X3.9862Y-2.874
X3.9862Y-2.9232
X4.1339Y-2.8346
X4.1339Y-2.8839
X4.1339Y-2.9331
X4.252Y-2.9232
X4.3012Y-2.9232
X4.3504Y-2.9232
T3
X4.4272Y-1.9114
X4.4902Y-1.7106
T4
X3.0217Y-2.2244
X3.0217Y-2.3228
X3.0217Y-2.4213
X3.0217Y-2.5197
X3.2776Y-2.8642
X3.376Y-2.8642
X4.3602Y-2.3228
X4.3602Y-2.6378
X4.4587Y-2.3228
X4.4587Y-2.6378
T5
X3.5433Y-2.8445
X3.6516Y-1.8974
X3.6516Y-1.9974
X3.6516Y-2.0974
X3.6811Y-2.8445
X4.2805Y-2.4606
X4.3805Y-2.4606
X4.4805Y-2.4606
T6
X3.4252Y-1.5978
X3.4252Y-1.7159
X3.5433Y-1.5978
X3.5433Y-1.7159
T0
M30
