%TF.GenerationSoftware,KiCad,Pcbnew,(6.0.7)*%
%TF.CreationDate,2022-09-20T14:36:04+02:00*%
%TF.ProjectId,CANpaca-EB-schematics,43414e70-6163-4612-9d45-422d73636865,rev?*%
%TF.SameCoordinates,Original*%
%TF.FileFunction,Copper,L3,Inr*%
%TF.FilePolarity,Positive*%
%FSLAX46Y46*%
G04 Gerber Fmt 4.6, Leading zero omitted, Abs format (unit mm)*
G04 Created by KiCad (PCBNEW (6.0.7)) date 2022-09-20 14:36:04*
%MOMM*%
%LPD*%
G01*
G04 APERTURE LIST*
G04 Aperture macros list*
%AMRoundRect*
0 Rectangle with rounded corners*
0 $1 Rounding radius*
0 $2 $3 $4 $5 $6 $7 $8 $9 X,Y pos of 4 corners*
0 Add a 4 corners polygon primitive as box body*
4,1,4,$2,$3,$4,$5,$6,$7,$8,$9,$2,$3,0*
0 Add four circle primitives for the rounded corners*
1,1,$1+$1,$2,$3*
1,1,$1+$1,$4,$5*
1,1,$1+$1,$6,$7*
1,1,$1+$1,$8,$9*
0 Add four rect primitives between the rounded corners*
20,1,$1+$1,$2,$3,$4,$5,0*
20,1,$1+$1,$4,$5,$6,$7,0*
20,1,$1+$1,$6,$7,$8,$9,0*
20,1,$1+$1,$8,$9,$2,$3,0*%
G04 Aperture macros list end*
%TA.AperFunction,ComponentPad*%
%ADD10C,1.270000*%
%TD*%
%TA.AperFunction,ComponentPad*%
%ADD11C,1.000000*%
%TD*%
%TA.AperFunction,ComponentPad*%
%ADD12C,2.000000*%
%TD*%
%TA.AperFunction,ComponentPad*%
%ADD13C,1.425000*%
%TD*%
%TA.AperFunction,ComponentPad*%
%ADD14R,1.700000X1.700000*%
%TD*%
%TA.AperFunction,ComponentPad*%
%ADD15O,1.700000X1.700000*%
%TD*%
%TA.AperFunction,ComponentPad*%
%ADD16RoundRect,0.250001X-0.499999X-0.499999X0.499999X-0.499999X0.499999X0.499999X-0.499999X0.499999X0*%
%TD*%
%TA.AperFunction,ComponentPad*%
%ADD17C,1.500000*%
%TD*%
%TA.AperFunction,ViaPad*%
%ADD18C,0.508000*%
%TD*%
%TA.AperFunction,Conductor*%
%ADD19C,0.200000*%
%TD*%
%TA.AperFunction,Conductor*%
%ADD20C,0.520000*%
%TD*%
G04 APERTURE END LIST*
D10*
%TO.N,VBUS*%
%TO.C,F1*%
X114050000Y-43450000D03*
%TO.N,Net-(C20-Pad2)*%
X112450000Y-48550000D03*
%TD*%
D11*
%TO.N,GND*%
%TO.C,J14*%
X101250000Y-69250000D03*
%TO.N,5V*%
X101250000Y-70500000D03*
%TO.N,SERVO*%
X101250000Y-71750000D03*
%TO.N,GND*%
X101250000Y-73000000D03*
%TO.N,PROBE*%
X101250000Y-74250000D03*
%TD*%
D12*
%TO.N,Net-(J6-Pad1)*%
%TO.C,J6*%
X90000000Y-72250000D03*
%TO.N,DC_IN*%
X93500000Y-72250000D03*
%TD*%
D11*
%TO.N,3V3*%
%TO.C,J16*%
X110500000Y-74250000D03*
%TO.N,GND*%
X109250000Y-74250000D03*
%TO.N,RUNOUT*%
X108000000Y-74250000D03*
%TD*%
%TO.N,5V*%
%TO.C,J13*%
X105000000Y-72000000D03*
%TO.N,GND*%
X105000000Y-73250000D03*
%TO.N,RGB*%
X105000000Y-74500000D03*
%TD*%
D13*
%TO.N,Net-(C15-Pad2)*%
%TO.C,J5*%
X113250000Y-67000000D03*
%TO.N,Net-(D3-Pad2)*%
X110750000Y-67000000D03*
%TD*%
%TO.N,Net-(C15-Pad2)*%
%TO.C,J2*%
X113250000Y-59000000D03*
%TO.N,Net-(D1-Pad2)*%
X110750000Y-59000000D03*
%TD*%
%TO.N,GND*%
%TO.C,J17*%
X83250000Y-72750000D03*
%TO.N,Net-(J17-Pad2)*%
X85750000Y-72750000D03*
%TD*%
D14*
%TO.N,DC_IN*%
%TO.C,J4*%
X108725000Y-62500000D03*
D15*
%TO.N,Net-(C15-Pad2)*%
X111265000Y-62500000D03*
%TO.N,5V*%
X113805000Y-62500000D03*
%TD*%
D13*
%TO.N,MOTOR_A2*%
%TO.C,J8*%
X76750000Y-56500000D03*
%TO.N,MOTOR_A1*%
X76750000Y-59000000D03*
%TO.N,Net-(J8-Pad3)*%
X76750000Y-61500000D03*
%TO.N,Net-(J8-Pad4)*%
X76750000Y-64000000D03*
%TD*%
D11*
%TO.N,FORCE_P*%
%TO.C,J12*%
X97500000Y-70875000D03*
%TO.N,RTDIN_P*%
X97500000Y-72125000D03*
%TO.N,RTDIN_N*%
X97500000Y-73375000D03*
%TO.N,FORCE_N*%
X97500000Y-74625000D03*
%TD*%
D14*
%TO.N,USB_5V*%
%TO.C,J11*%
X92750000Y-53275000D03*
D15*
%TO.N,5V*%
X92750000Y-50735000D03*
%TO.N,DC_5V*%
X92750000Y-48195000D03*
%TD*%
D16*
%TO.N,DC_IN*%
%TO.C,J7*%
X87000000Y-40585000D03*
D17*
%TO.N,GND*%
X90000000Y-40585000D03*
%TO.N,CAN_P*%
X87000000Y-43585000D03*
%TO.N,CAN_N*%
X90000000Y-43585000D03*
%TD*%
D18*
%TO.N,GND*%
X77495479Y-65664490D03*
X100250000Y-53553500D03*
X93500000Y-40500000D03*
X110750000Y-52750000D03*
X94000000Y-69500000D03*
X90695245Y-56634407D03*
X95000000Y-47000000D03*
X85250000Y-51328500D03*
X86250000Y-45250000D03*
X107750000Y-46500000D03*
X103250000Y-50000000D03*
X104648586Y-63203500D03*
X105250000Y-59371500D03*
X104571500Y-67970792D03*
X77667052Y-67091990D03*
X80954130Y-72250000D03*
X92000000Y-73500000D03*
X80500000Y-67500000D03*
X112250000Y-68250000D03*
X103750000Y-63500000D03*
X106000000Y-58333616D03*
X113250000Y-55500000D03*
X110000000Y-42500000D03*
X114250000Y-41750000D03*
X107500000Y-37500000D03*
X102250000Y-41750000D03*
X76750000Y-36000000D03*
%TO.N,3V3*%
X95000000Y-59000000D03*
X82500000Y-70250000D03*
X91196500Y-59928500D03*
X109250000Y-53500000D03*
X106343016Y-69458688D03*
%TO.N,CS_MAX*%
X91750000Y-60578500D03*
X98533223Y-53466979D03*
%TO.N,FAN_0*%
X96736906Y-54446500D03*
%TO.N,HOT_0*%
X98393300Y-55820875D03*
%TO.N,BOOT_IN*%
X104250000Y-59250000D03*
X109750000Y-54196500D03*
%TO.N,CAN_P*%
X91446498Y-54046500D03*
X95033764Y-58033764D03*
%TO.N,Net-(C6-Pad2)*%
X80000000Y-63500000D03*
X90943417Y-60753720D03*
%TO.N,MOSI*%
X87184035Y-56934036D03*
%TO.N,FORCE_P*%
X91335374Y-67914626D03*
%TO.N,3V3*%
X86250000Y-62250000D03*
%TO.N,SERVO*%
X106250000Y-61796500D03*
X97760456Y-55303500D03*
%TO.N,PROBE*%
X95902685Y-58001986D03*
%TO.N,SCK*%
X102500000Y-75000000D03*
X85750000Y-60553500D03*
X85750000Y-63000000D03*
%TO.N,430R*%
X91928977Y-62097294D03*
%TO.N,FORCE_N*%
X90750000Y-66500000D03*
%TO.N,430R*%
X101500000Y-61250000D03*
%TO.N,4300R*%
X99304167Y-64700933D03*
X93750000Y-60303500D03*
%TO.N,MISO*%
X99082857Y-63027098D03*
X84921500Y-55653386D03*
X95635292Y-56750000D03*
X92908508Y-60159726D03*
%TO.N,MOSI*%
X91750000Y-67250000D03*
X99500000Y-67250000D03*
%TO.N,THO_IN*%
X90068990Y-67431010D03*
%TO.N,HOT_0*%
X82500000Y-66750000D03*
%TO.N,Net-(Q2-Pad1)*%
X110000000Y-68250000D03*
X113250000Y-65000000D03*
%TO.N,FAN_1*%
X110000000Y-64246500D03*
%TO.N,3V3*%
X85536780Y-56734237D03*
%TO.N,DC_IN*%
X87118403Y-61671903D03*
%TO.N,Net-(C7-Pad2)*%
X82581498Y-64733822D03*
X79500000Y-64196500D03*
%TO.N,Net-(C7-Pad1)*%
X78553500Y-64000000D03*
%TO.N,Net-(C10-Pad2)*%
X84750000Y-49250000D03*
X77271452Y-62542905D03*
%TO.N,Net-(C11-Pad2)*%
X85250000Y-52250000D03*
X77179209Y-60288022D03*
%TO.N,5V*%
X78500000Y-65500000D03*
X77500000Y-72250000D03*
%TO.N,Net-(J8-Pad3)*%
X83750000Y-54849161D03*
%TO.N,Net-(J8-Pad4)*%
X82250000Y-55000000D03*
%TO.N,Net-(C17-Pad1)*%
X84750000Y-53000000D03*
%TO.N,Net-(C16-Pad1)*%
X93875996Y-57625995D03*
X85000000Y-63246500D03*
%TO.N,MOTOR_A1*%
X85000000Y-62107000D03*
%TO.N,MOTOR_A2*%
X82000000Y-63246500D03*
%TO.N,TH_0*%
X87072673Y-63935860D03*
X105500000Y-49250000D03*
%TO.N,EN_E*%
X79000000Y-58553500D03*
X98686817Y-51809074D03*
%TO.N,DIR_E*%
X94750000Y-50750000D03*
%TO.N,DIAG1_E*%
X78963220Y-57765763D03*
X93607477Y-54608367D03*
%TO.N,DIR_E*%
X86090280Y-57500000D03*
%TO.N,STEP_E*%
X98540383Y-51028500D03*
X85871472Y-58614634D03*
%TO.N,FAN_1*%
X97500000Y-54000000D03*
%TO.N,Net-(C2-Pad2)*%
X91462500Y-45212500D03*
X91750000Y-49898500D03*
%TO.N,GND*%
X92750000Y-37500000D03*
X93930064Y-39046500D03*
%TO.N,CAN_N*%
X85609592Y-54049143D03*
X88500000Y-49250000D03*
%TO.N,DC_IN*%
X90500000Y-69500000D03*
%TO.N,3V3*%
X104250000Y-61528500D03*
X98250000Y-41750000D03*
X99500000Y-70500000D03*
X100750000Y-63000000D03*
X109500000Y-46750000D03*
X102227918Y-68522082D03*
%TO.N,Net-(C19-Pad2)*%
X92000000Y-35000000D03*
X95000000Y-35500000D03*
X91016384Y-37516384D03*
X83750000Y-35000000D03*
%TO.N,Net-(C20-Pad2)*%
X111500000Y-51250000D03*
%TO.N,Net-(C23-Pad2)*%
X89750000Y-38000000D03*
X91250000Y-40000000D03*
X83500000Y-35750000D03*
%TO.N,1V1*%
X101783970Y-53464823D03*
X101046500Y-48500000D03*
X102646500Y-48446500D03*
%TO.N,Net-(C47-Pad2)*%
X101802812Y-55644376D03*
X99346500Y-55825423D03*
X104750000Y-57000000D03*
%TO.N,Net-(C48-Pad2)*%
X99883459Y-59248111D03*
%TO.N,RTDIN_P*%
X95090897Y-68159103D03*
%TO.N,RTDIN_N*%
X94250000Y-68000000D03*
%TO.N,RUN*%
X96332603Y-55881068D03*
X102789633Y-55556865D03*
X101250000Y-60500000D03*
%TO.N,USB_5V*%
X114250000Y-52750000D03*
X94003479Y-53250000D03*
%TO.N,Net-(J9-PadB5)*%
X100211784Y-38880575D03*
%TO.N,Net-(J9-PadA5)*%
X103750000Y-38453500D03*
%TO.N,FORCE_P*%
X97525968Y-66474032D03*
%TO.N,FORCE_N*%
X93513735Y-67733349D03*
%TO.N,RUNOUT*%
X109000000Y-68500000D03*
X109958232Y-72695695D03*
%TO.N,Net-(Q3-Pad4)*%
X80953630Y-69693839D03*
%TO.N,FAN_0*%
X106500000Y-55303000D03*
%TO.N,QSPI_SS*%
X97635643Y-47203500D03*
X94722528Y-51698486D03*
X94500000Y-46250000D03*
X98946498Y-49601500D03*
%TO.N,MOSI_2*%
X104504521Y-70495479D03*
%TO.N,CS_ADXL*%
X103750000Y-64500000D03*
%TO.N,ISENSOR*%
X98557331Y-64990445D03*
%TO.N,QSPI_SD1*%
X96758192Y-46975424D03*
%TO.N,QSPI_SD2*%
X96141384Y-46358616D03*
%TO.N,QSPI_SD0*%
X99682339Y-46178500D03*
%TO.N,QSPI_SCLK*%
X100337945Y-46662055D03*
%TO.N,QSPI_SD3*%
X99500000Y-48500500D03*
%TO.N,CAN_OUT*%
X88500000Y-57750000D03*
%TD*%
D19*
%TO.N,PROBE*%
X95902685Y-58001986D02*
X95902685Y-58934290D01*
X90332628Y-64504347D02*
X83135498Y-64504347D01*
X81591845Y-64940000D02*
X77310000Y-64940000D01*
X95902685Y-58934290D02*
X90332628Y-64504347D01*
X82810973Y-64179822D02*
X82352023Y-64179822D01*
X83135498Y-64504347D02*
X82810973Y-64179822D01*
X82352023Y-64179822D02*
X81591845Y-64940000D01*
X77310000Y-64940000D02*
X76301562Y-65948438D01*
X76301562Y-65948438D02*
X76301562Y-71843522D01*
X76301562Y-71843522D02*
X79883040Y-75425000D01*
X79883040Y-75425000D02*
X100075000Y-75425000D01*
X100075000Y-75425000D02*
X101250000Y-74250000D01*
D20*
%TO.N,5V*%
X78500000Y-65500000D02*
X78500000Y-65750000D01*
X78500000Y-65750000D02*
X77872010Y-66377990D01*
X77872010Y-66377990D02*
X77371303Y-66377990D01*
X77371303Y-66377990D02*
X76861562Y-66887731D01*
X76861562Y-66887731D02*
X76861562Y-71611562D01*
X76861562Y-71611562D02*
X77500000Y-72250000D01*
D19*
%TO.N,GND*%
X85750000Y-56000000D02*
X86630035Y-56880035D01*
X85250000Y-51328500D02*
X86163592Y-52242092D01*
X86163592Y-54336408D02*
X85731866Y-54768134D01*
X84367500Y-55382500D02*
X84367500Y-55882861D01*
X86630035Y-56880035D02*
X86630035Y-57163511D01*
X85731866Y-54768134D02*
X84981866Y-54768134D01*
X86630035Y-57163511D02*
X86966524Y-57500000D01*
X84981866Y-54768134D02*
X84367500Y-55382500D01*
X84367500Y-55882861D02*
X84734639Y-56250000D01*
X85500000Y-56000000D02*
X85750000Y-56000000D01*
X84734639Y-56250000D02*
X85250000Y-56250000D01*
X86163592Y-52242092D02*
X86163592Y-54336408D01*
X85250000Y-56250000D02*
X85500000Y-56000000D01*
X86966524Y-57500000D02*
X87500000Y-57500000D01*
X87500000Y-57500000D02*
X88365593Y-56634407D01*
X88365593Y-56634407D02*
X90695245Y-56634407D01*
X110750000Y-53979975D02*
X110750000Y-52750000D01*
X106396359Y-58333616D02*
X110750000Y-53979975D01*
X106000000Y-58333616D02*
X106396359Y-58333616D01*
%TO.N,MISO*%
X85406752Y-55168134D02*
X94053426Y-55168134D01*
X84921500Y-55653386D02*
X85406752Y-55168134D01*
X94053426Y-55168134D02*
X95635292Y-56750000D01*
%TO.N,GND*%
X94250000Y-69750000D02*
X94000000Y-69500000D01*
X94250000Y-70000000D02*
X94250000Y-69750000D01*
X93277953Y-70000000D02*
X94250000Y-70000000D01*
X94250000Y-70000000D02*
X98216525Y-70000000D01*
%TO.N,MOSI*%
X87184035Y-56934036D02*
X88118071Y-56000000D01*
X88118071Y-56000000D02*
X94101817Y-56000000D01*
X94101817Y-56000000D02*
X95405817Y-57304000D01*
X95405817Y-57304000D02*
X96054000Y-57304000D01*
X96054000Y-57304000D02*
X99858167Y-61108167D01*
X99858167Y-61108167D02*
X99858167Y-66891833D01*
X99858167Y-66891833D02*
X99500000Y-67250000D01*
%TO.N,BOOT_IN*%
X104250000Y-59250000D02*
X109303500Y-54196500D01*
X109303500Y-54196500D02*
X109750000Y-54196500D01*
%TO.N,GND*%
X104571500Y-67970792D02*
X104568790Y-67968082D01*
X104568790Y-67968082D02*
X101998443Y-67968082D01*
X101998443Y-67968082D02*
X101250000Y-68716525D01*
X101250000Y-68716525D02*
X101250000Y-69250000D01*
X92000000Y-73500000D02*
X92000000Y-71277953D01*
X92000000Y-71277953D02*
X93277953Y-70000000D01*
X98216525Y-70000000D02*
X99216525Y-71000000D01*
X99250000Y-71000000D02*
X101250000Y-73000000D01*
X99216525Y-71000000D02*
X99250000Y-71000000D01*
%TO.N,FAN_0*%
X106500000Y-55303000D02*
X105751000Y-54554000D01*
X105751000Y-54554000D02*
X96844406Y-54554000D01*
X96844406Y-54554000D02*
X96736906Y-54446500D01*
%TO.N,GND*%
X76750000Y-36000000D02*
X82737183Y-36000000D01*
X82737183Y-36000000D02*
X86272183Y-39535000D01*
X86272183Y-39535000D02*
X88950000Y-39535000D01*
X88950000Y-39535000D02*
X90000000Y-40585000D01*
D20*
%TO.N,5V*%
X113805000Y-62500000D02*
X113805000Y-63097500D01*
X113805000Y-63097500D02*
X111075000Y-65827500D01*
X108286000Y-67805834D02*
X108286000Y-68616500D01*
X111075000Y-65827500D02*
X110264334Y-65827500D01*
X110264334Y-65827500D02*
X108286000Y-67805834D01*
X108286000Y-68616500D02*
X105000000Y-71902500D01*
X105000000Y-71902500D02*
X105000000Y-72000000D01*
D19*
%TO.N,Net-(C16-Pad1)*%
X93875996Y-57625995D02*
X91947786Y-57625995D01*
X91947786Y-57625995D02*
X86019781Y-63554000D01*
X86019781Y-63554000D02*
X85307500Y-63554000D01*
X85307500Y-63554000D02*
X85000000Y-63246500D01*
%TO.N,Net-(C6-Pad2)*%
X90943417Y-60753720D02*
X89746280Y-60753720D01*
X84924025Y-63954000D02*
X84749847Y-63779822D01*
X89746280Y-60753720D02*
X87250000Y-63250000D01*
X87250000Y-63250000D02*
X86975058Y-63250000D01*
X84749847Y-63779822D02*
X82186338Y-63779822D01*
X80514137Y-64014137D02*
X80000000Y-63500000D01*
X86975058Y-63250000D02*
X86271058Y-63954000D01*
X86271058Y-63954000D02*
X84924025Y-63954000D01*
X82186338Y-63779822D02*
X81952023Y-64014137D01*
X81952023Y-64014137D02*
X80514137Y-64014137D01*
D20*
%TO.N,5V*%
X113805000Y-62500000D02*
X111914405Y-60609405D01*
X111914405Y-60609405D02*
X101964000Y-60609405D01*
X101964000Y-60609405D02*
X101964000Y-59214000D01*
X101964000Y-59214000D02*
X101284111Y-58534111D01*
X97046956Y-55585672D02*
X96628705Y-55167421D01*
X101284111Y-58534111D02*
X99784111Y-58534111D01*
X99784111Y-58534111D02*
X97046956Y-55796956D01*
X97046956Y-55796956D02*
X97046956Y-55585672D01*
X96628705Y-55167421D02*
X96417421Y-55167421D01*
X96000000Y-53985000D02*
X92750000Y-50735000D01*
X96417421Y-55167421D02*
X96000000Y-54750000D01*
X96000000Y-54750000D02*
X96000000Y-53985000D01*
D19*
%TO.N,3V3*%
X86250000Y-62250000D02*
X86250000Y-61756831D01*
X87750000Y-60256831D02*
X87750000Y-59250000D01*
X86554000Y-58054000D02*
X85860805Y-58054000D01*
X86250000Y-61756831D02*
X87750000Y-60256831D01*
X87750000Y-59250000D02*
X86554000Y-58054000D01*
X85860805Y-58054000D02*
X85536780Y-57729975D01*
X85536780Y-57729975D02*
X85536780Y-56734237D01*
%TO.N,Net-(C10-Pad2)*%
X75500000Y-55250000D02*
X81500000Y-49250000D01*
X77271452Y-62542905D02*
X76361013Y-62542905D01*
X76361013Y-62542905D02*
X75500000Y-61681892D01*
X81500000Y-49250000D02*
X84750000Y-49250000D01*
X75500000Y-61681892D02*
X75500000Y-55250000D01*
D20*
%TO.N,5V*%
X95542894Y-65500000D02*
X78500000Y-65500000D01*
D19*
%TO.N,Net-(J8-Pad4)*%
X82250000Y-55000000D02*
X80565686Y-55000000D01*
X80565686Y-55000000D02*
X78400000Y-57165686D01*
X78400000Y-57165686D02*
X78400000Y-60415686D01*
X78400000Y-60415686D02*
X78000000Y-60815686D01*
X78000000Y-60815686D02*
X78000000Y-62750000D01*
X78000000Y-62750000D02*
X76750000Y-64000000D01*
%TO.N,Net-(J8-Pad3)*%
X83750000Y-54849161D02*
X83150839Y-54250000D01*
X83150839Y-54250000D02*
X80750000Y-54250000D01*
X80750000Y-54250000D02*
X78000000Y-57000000D01*
X78000000Y-57000000D02*
X78000000Y-60250000D01*
X78000000Y-60250000D02*
X76750000Y-61500000D01*
D20*
%TO.N,5V*%
X100542894Y-70500000D02*
X95542894Y-65500000D01*
X103500000Y-70500000D02*
X105000000Y-72000000D01*
X101250000Y-70500000D02*
X103500000Y-70500000D01*
X101250000Y-70500000D02*
X100542894Y-70500000D01*
D19*
%TO.N,Net-(C23-Pad2)*%
X90000000Y-38750000D02*
X91250000Y-40000000D01*
X89000000Y-38750000D02*
X89750000Y-38000000D01*
X86500000Y-38750000D02*
X89000000Y-38750000D01*
X89000000Y-38750000D02*
X90000000Y-38750000D01*
X83500000Y-35750000D02*
X86500000Y-38750000D01*
%TD*%
M02*
