%TF.GenerationSoftware,KiCad,Pcbnew,(6.0.7)*%
%TF.CreationDate,2022-09-21T18:10:42+02:00*%
%TF.ProjectId,CANpaca-EB-schematics,43414e70-6163-4612-9d45-422d73636865,rev?*%
%TF.SameCoordinates,Original*%
%TF.FileFunction,Soldermask,Top*%
%TF.FilePolarity,Negative*%
%FSLAX46Y46*%
G04 Gerber Fmt 4.6, Leading zero omitted, Abs format (unit mm)*
G04 Created by KiCad (PCBNEW (6.0.7)) date 2022-09-21 18:10:42*
%MOMM*%
%LPD*%
G01*
G04 APERTURE LIST*
G04 Aperture macros list*
%AMRoundRect*
0 Rectangle with rounded corners*
0 $1 Rounding radius*
0 $2 $3 $4 $5 $6 $7 $8 $9 X,Y pos of 4 corners*
0 Add a 4 corners polygon primitive as box body*
4,1,4,$2,$3,$4,$5,$6,$7,$8,$9,$2,$3,0*
0 Add four circle primitives for the rounded corners*
1,1,$1+$1,$2,$3*
1,1,$1+$1,$4,$5*
1,1,$1+$1,$6,$7*
1,1,$1+$1,$8,$9*
0 Add four rect primitives between the rounded corners*
20,1,$1+$1,$2,$3,$4,$5,0*
20,1,$1+$1,$4,$5,$6,$7,0*
20,1,$1+$1,$6,$7,$8,$9,0*
20,1,$1+$1,$8,$9,$2,$3,0*%
%AMFreePoly0*
4,1,21,3.024497,2.399497,3.045000,2.350000,3.045000,-2.350000,3.024497,-2.399497,2.975000,-2.420000,1.425000,-2.420000,1.375503,-2.399497,1.355000,-2.350000,1.355000,-2.170000,-1.650000,-2.170000,-1.699497,-2.149497,-1.720000,-2.100000,-1.720000,2.100000,-1.699497,2.149497,-1.650000,2.170000,1.355000,2.170000,1.355000,2.350000,1.375503,2.399497,1.425000,2.420000,2.975000,2.420000,
3.024497,2.399497,3.024497,2.399497,$1*%
G04 Aperture macros list end*
%ADD10RoundRect,0.135000X-0.185000X0.135000X-0.185000X-0.135000X0.185000X-0.135000X0.185000X0.135000X0*%
%ADD11RoundRect,0.150000X-0.150000X0.512500X-0.150000X-0.512500X0.150000X-0.512500X0.150000X0.512500X0*%
%ADD12RoundRect,0.135000X0.135000X0.185000X-0.135000X0.185000X-0.135000X-0.185000X0.135000X-0.185000X0*%
%ADD13C,1.425000*%
%ADD14RoundRect,0.140000X-0.140000X-0.170000X0.140000X-0.170000X0.140000X0.170000X-0.140000X0.170000X0*%
%ADD15C,0.650000*%
%ADD16R,0.600000X1.150000*%
%ADD17R,0.300000X1.150000*%
%ADD18R,2.180000X2.000000*%
%ADD19RoundRect,0.140000X-0.170000X0.140000X-0.170000X-0.140000X0.170000X-0.140000X0.170000X0.140000X0*%
%ADD20R,1.700000X1.700000*%
%ADD21O,1.700000X1.700000*%
%ADD22RoundRect,0.062500X0.362500X0.062500X-0.362500X0.062500X-0.362500X-0.062500X0.362500X-0.062500X0*%
%ADD23RoundRect,0.062500X0.062500X0.362500X-0.062500X0.362500X-0.062500X-0.362500X0.062500X-0.362500X0*%
%ADD24R,3.600000X4.100000*%
%ADD25RoundRect,0.135000X-0.135000X-0.185000X0.135000X-0.185000X0.135000X0.185000X-0.135000X0.185000X0*%
%ADD26R,1.600000X0.760000*%
%ADD27RoundRect,0.150000X0.150000X-0.825000X0.150000X0.825000X-0.150000X0.825000X-0.150000X-0.825000X0*%
%ADD28C,1.000000*%
%ADD29RoundRect,0.050000X-0.387500X-0.050000X0.387500X-0.050000X0.387500X0.050000X-0.387500X0.050000X0*%
%ADD30RoundRect,0.050000X-0.050000X-0.387500X0.050000X-0.387500X0.050000X0.387500X-0.050000X0.387500X0*%
%ADD31R,3.200000X3.200000*%
%ADD32RoundRect,0.140000X0.170000X-0.140000X0.170000X0.140000X-0.170000X0.140000X-0.170000X-0.140000X0*%
%ADD33RoundRect,0.070000X-0.575000X0.350000X-0.575000X-0.350000X0.575000X-0.350000X0.575000X0.350000X0*%
%ADD34FreePoly0,0.000000*%
%ADD35RoundRect,0.135000X0.185000X-0.135000X0.185000X0.135000X-0.185000X0.135000X-0.185000X-0.135000X0*%
%ADD36C,1.270000*%
%ADD37R,1.400000X1.200000*%
%ADD38RoundRect,0.075000X-0.337500X-0.075000X0.337500X-0.075000X0.337500X0.075000X-0.337500X0.075000X0*%
%ADD39RoundRect,0.075000X-0.075000X-0.337500X0.075000X-0.337500X0.075000X0.337500X-0.075000X0.337500X0*%
%ADD40R,3.250000X3.250000*%
%ADD41RoundRect,0.250000X-1.000000X1.950000X-1.000000X-1.950000X1.000000X-1.950000X1.000000X1.950000X0*%
%ADD42C,3.000000*%
%ADD43RoundRect,0.250001X-0.499999X-0.499999X0.499999X-0.499999X0.499999X0.499999X-0.499999X0.499999X0*%
%ADD44C,1.500000*%
%ADD45RoundRect,0.150000X0.325000X0.150000X-0.325000X0.150000X-0.325000X-0.150000X0.325000X-0.150000X0*%
%ADD46RoundRect,0.150000X0.150000X0.325000X-0.150000X0.325000X-0.150000X-0.325000X0.150000X-0.325000X0*%
%ADD47C,2.000000*%
%ADD48RoundRect,0.218750X-0.218750X-0.256250X0.218750X-0.256250X0.218750X0.256250X-0.218750X0.256250X0*%
%ADD49R,1.100000X1.100000*%
%ADD50RoundRect,0.140000X0.140000X0.170000X-0.140000X0.170000X-0.140000X-0.170000X0.140000X-0.170000X0*%
G04 APERTURE END LIST*
D10*
%TO.C,R23*%
X99250000Y-45490000D03*
X99250000Y-46510000D03*
%TD*%
D11*
%TO.C,U7*%
X100450000Y-41862500D03*
X99500000Y-41862500D03*
X98550000Y-41862500D03*
X98550000Y-44137500D03*
X99500000Y-44137500D03*
X100450000Y-44137500D03*
%TD*%
D12*
%TO.C,R32*%
X91760000Y-68000000D03*
X90740000Y-68000000D03*
%TD*%
D13*
%TO.C,J17*%
X90000000Y-73500000D03*
X90000000Y-71000000D03*
%TD*%
D14*
%TO.C,C13*%
X82270000Y-53750000D03*
X83230000Y-53750000D03*
%TD*%
D10*
%TO.C,R26*%
X98250000Y-66980000D03*
X98250000Y-68000000D03*
%TD*%
D15*
%TO.C,J9*%
X96360000Y-38812500D03*
X102140000Y-38812500D03*
D16*
X102450000Y-39887500D03*
X101650000Y-39887500D03*
D17*
X100500000Y-39887500D03*
X99500000Y-39887500D03*
X99000000Y-39887500D03*
X98000000Y-39887500D03*
D16*
X96050000Y-39887500D03*
X96850000Y-39887500D03*
D17*
X97500000Y-39887500D03*
X98500000Y-39887500D03*
X100000000Y-39887500D03*
X101000000Y-39887500D03*
D18*
X104360000Y-39312500D03*
X94140000Y-39312500D03*
X104360000Y-35382500D03*
X94140000Y-35382500D03*
%TD*%
D19*
%TO.C,C8*%
X87750000Y-56040000D03*
X87750000Y-57000000D03*
%TD*%
D20*
%TO.C,J11*%
X106725000Y-36500000D03*
D21*
X109265000Y-36500000D03*
X111805000Y-36500000D03*
%TD*%
D22*
%TO.C,U3*%
X86450000Y-60500000D03*
X86450000Y-60000000D03*
X86450000Y-59500000D03*
X86450000Y-59000000D03*
X86450000Y-58500000D03*
X86450000Y-58000000D03*
X86450000Y-57500000D03*
X86450000Y-57000000D03*
X86450000Y-56500000D03*
X86450000Y-56000000D03*
D23*
X85750000Y-55300000D03*
X85250000Y-55300000D03*
X84750000Y-55300000D03*
X84250000Y-55300000D03*
X83750000Y-55300000D03*
X83250000Y-55300000D03*
X82750000Y-55300000D03*
X82250000Y-55300000D03*
D22*
X81550000Y-56000000D03*
X81550000Y-56500000D03*
X81550000Y-57000000D03*
X81550000Y-57500000D03*
X81550000Y-58000000D03*
X81550000Y-58500000D03*
X81550000Y-59000000D03*
X81550000Y-59500000D03*
X81550000Y-60000000D03*
X81550000Y-60500000D03*
D23*
X82250000Y-61200000D03*
X82750000Y-61200000D03*
X83250000Y-61200000D03*
X83750000Y-61200000D03*
X84250000Y-61200000D03*
X84750000Y-61200000D03*
X85250000Y-61200000D03*
X85750000Y-61200000D03*
D24*
X84000000Y-58250000D03*
%TD*%
D25*
%TO.C,R24*%
X95730000Y-59000000D03*
X96750000Y-59000000D03*
%TD*%
D26*
%TO.C,SW1*%
X99940000Y-60805000D03*
X99940000Y-62075000D03*
X99940000Y-63345000D03*
X99940000Y-64615000D03*
X99940000Y-65885000D03*
X99940000Y-67155000D03*
X99940000Y-68425000D03*
X99940000Y-69695000D03*
X107560000Y-69695000D03*
X107560000Y-68425000D03*
X107560000Y-67155000D03*
X107560000Y-65885000D03*
X107560000Y-64615000D03*
X107560000Y-63345000D03*
X107560000Y-62075000D03*
X107560000Y-60805000D03*
%TD*%
D25*
%TO.C,R21*%
X95750000Y-60000000D03*
X96770000Y-60000000D03*
%TD*%
D27*
%TO.C,U1*%
X85345000Y-51225000D03*
X86615000Y-51225000D03*
X87885000Y-51225000D03*
X89155000Y-51225000D03*
X89155000Y-46275000D03*
X87885000Y-46275000D03*
X86615000Y-46275000D03*
X85345000Y-46275000D03*
%TD*%
D19*
%TO.C,C40*%
X102250000Y-45520000D03*
X102250000Y-46480000D03*
%TD*%
D12*
%TO.C,R34*%
X91760000Y-66000000D03*
X90740000Y-66000000D03*
%TD*%
D28*
%TO.C,J12*%
X98125000Y-74250000D03*
X96875000Y-74250000D03*
X95625000Y-74250000D03*
X94375000Y-74250000D03*
%TD*%
D29*
%TO.C,U10*%
X95812500Y-48650000D03*
X95812500Y-49050000D03*
X95812500Y-49450000D03*
X95812500Y-49850000D03*
X95812500Y-50250000D03*
X95812500Y-50650000D03*
X95812500Y-51050000D03*
X95812500Y-51450000D03*
X95812500Y-51850000D03*
X95812500Y-52250000D03*
X95812500Y-52650000D03*
X95812500Y-53050000D03*
X95812500Y-53450000D03*
X95812500Y-53850000D03*
D30*
X96650000Y-54687500D03*
X97050000Y-54687500D03*
X97450000Y-54687500D03*
X97850000Y-54687500D03*
X98250000Y-54687500D03*
X98650000Y-54687500D03*
X99050000Y-54687500D03*
X99450000Y-54687500D03*
X99850000Y-54687500D03*
X100250000Y-54687500D03*
X100650000Y-54687500D03*
X101050000Y-54687500D03*
X101450000Y-54687500D03*
X101850000Y-54687500D03*
D29*
X102687500Y-53850000D03*
X102687500Y-53450000D03*
X102687500Y-53050000D03*
X102687500Y-52650000D03*
X102687500Y-52250000D03*
X102687500Y-51850000D03*
X102687500Y-51450000D03*
X102687500Y-51050000D03*
X102687500Y-50650000D03*
X102687500Y-50250000D03*
X102687500Y-49850000D03*
X102687500Y-49450000D03*
X102687500Y-49050000D03*
X102687500Y-48650000D03*
D30*
X101850000Y-47812500D03*
X101450000Y-47812500D03*
X101050000Y-47812500D03*
X100650000Y-47812500D03*
X100250000Y-47812500D03*
X99850000Y-47812500D03*
X99450000Y-47812500D03*
X99050000Y-47812500D03*
X98650000Y-47812500D03*
X98250000Y-47812500D03*
X97850000Y-47812500D03*
X97450000Y-47812500D03*
X97050000Y-47812500D03*
X96650000Y-47812500D03*
D31*
X99250000Y-51250000D03*
%TD*%
D28*
%TO.C,J16*%
X113750000Y-68250000D03*
X113750000Y-69500000D03*
X113750000Y-70750000D03*
%TD*%
%TO.C,J14*%
X106000000Y-74250000D03*
X104750000Y-74250000D03*
X103500000Y-74250000D03*
X102250000Y-74250000D03*
X101000000Y-74250000D03*
%TD*%
D20*
%TO.C,J4*%
X113775000Y-58000000D03*
D21*
X111235000Y-58000000D03*
X108695000Y-58000000D03*
%TD*%
D32*
%TO.C,C47*%
X96750000Y-57980000D03*
X96750000Y-57020000D03*
%TD*%
D33*
%TO.C,Q3*%
X82415000Y-63840000D03*
X82415000Y-65110000D03*
X82415000Y-66390000D03*
X82415000Y-67660000D03*
D34*
X85685000Y-65750000D03*
%TD*%
D35*
%TO.C,R28*%
X102250000Y-57760000D03*
X102250000Y-56740000D03*
%TD*%
D12*
%TO.C,R35*%
X97260000Y-64250000D03*
X96240000Y-64250000D03*
%TD*%
D13*
%TO.C,J8*%
X78000000Y-56250000D03*
X78000000Y-58750000D03*
X78000000Y-61250000D03*
X78000000Y-63750000D03*
%TD*%
D36*
%TO.C,F1*%
X112450000Y-47500000D03*
X114050000Y-42400000D03*
%TD*%
D28*
%TO.C,J13*%
X79250000Y-67500000D03*
X78000000Y-67500000D03*
X76750000Y-67500000D03*
%TD*%
D14*
%TO.C,C53*%
X96290000Y-63250000D03*
X97250000Y-63250000D03*
%TD*%
%TO.C,C41*%
X93540000Y-52250000D03*
X94500000Y-52250000D03*
%TD*%
D19*
%TO.C,C38*%
X98250000Y-45520000D03*
X98250000Y-46480000D03*
%TD*%
D14*
%TO.C,C39*%
X93520000Y-48500000D03*
X94480000Y-48500000D03*
%TD*%
D25*
%TO.C,R25*%
X95740000Y-61000000D03*
X96760000Y-61000000D03*
%TD*%
D35*
%TO.C,R18*%
X100250000Y-46510000D03*
X100250000Y-45490000D03*
%TD*%
D37*
%TO.C,Y1*%
X98400000Y-58100000D03*
X100600000Y-58100000D03*
X100600000Y-56400000D03*
X98400000Y-56400000D03*
%TD*%
D38*
%TO.C,U8*%
X89062500Y-56950000D03*
X89062500Y-57600000D03*
X89062500Y-58250000D03*
X89062500Y-58900000D03*
X89062500Y-59550000D03*
D39*
X90200000Y-60687500D03*
X90850000Y-60687500D03*
X91500000Y-60687500D03*
X92150000Y-60687500D03*
X92800000Y-60687500D03*
D38*
X93937500Y-59550000D03*
X93937500Y-58900000D03*
X93937500Y-58250000D03*
X93937500Y-57600000D03*
X93937500Y-56950000D03*
D39*
X92800000Y-55812500D03*
X92150000Y-55812500D03*
X91500000Y-55812500D03*
X90850000Y-55812500D03*
X90200000Y-55812500D03*
D40*
X91500000Y-58250000D03*
%TD*%
D14*
%TO.C,C20*%
X113270000Y-39000000D03*
X114230000Y-39000000D03*
%TD*%
D35*
%TO.C,R27*%
X98250000Y-66020000D03*
X98250000Y-65000000D03*
%TD*%
D19*
%TO.C,C46*%
X89750000Y-53500000D03*
X89750000Y-54460000D03*
%TD*%
D10*
%TO.C,R29*%
X104250000Y-56750000D03*
X104250000Y-57770000D03*
%TD*%
D32*
%TO.C,C34*%
X90750000Y-54460000D03*
X90750000Y-53500000D03*
%TD*%
D41*
%TO.C,C12*%
X79000000Y-43550000D03*
X79000000Y-51950000D03*
%TD*%
D19*
%TO.C,C35*%
X101250000Y-45520000D03*
X101250000Y-46480000D03*
%TD*%
%TO.C,C42*%
X97250000Y-45520000D03*
X97250000Y-46480000D03*
%TD*%
D12*
%TO.C,R31*%
X91760000Y-67000000D03*
X90740000Y-67000000D03*
%TD*%
D42*
%TO.C,J7*%
X87250000Y-36265000D03*
D43*
X85750000Y-40585000D03*
D44*
X88750000Y-40585000D03*
X85750000Y-43585000D03*
X88750000Y-43585000D03*
%TD*%
D45*
%TO.C,U11*%
X95000000Y-67500000D03*
X95000000Y-66700000D03*
X95000000Y-65900000D03*
X95000000Y-65100000D03*
X95000000Y-64300000D03*
X95000000Y-63500000D03*
D46*
X94000000Y-63500000D03*
D45*
X93000000Y-63500000D03*
X93000000Y-64300000D03*
X93000000Y-65100000D03*
X93000000Y-65900000D03*
X93000000Y-66700000D03*
X93000000Y-67500000D03*
D46*
X94000000Y-67500000D03*
%TD*%
D13*
%TO.C,J2*%
X113250000Y-62250000D03*
X113250000Y-64750000D03*
%TD*%
D14*
%TO.C,C22*%
X113270000Y-40000000D03*
X114230000Y-40000000D03*
%TD*%
D47*
%TO.C,J6*%
X82500000Y-72250000D03*
X86000000Y-72250000D03*
%TD*%
D10*
%TO.C,R22*%
X109750000Y-43490000D03*
X109750000Y-44510000D03*
%TD*%
D14*
%TO.C,C49*%
X90770000Y-62000000D03*
X91730000Y-62000000D03*
%TD*%
D48*
%TO.C,D6*%
X107962500Y-45750000D03*
X109537500Y-45750000D03*
%TD*%
D32*
%TO.C,C48*%
X103250000Y-57730000D03*
X103250000Y-56770000D03*
%TD*%
D49*
%TO.C,D5*%
X107000000Y-39600000D03*
X107000000Y-42400000D03*
%TD*%
D50*
%TO.C,C54*%
X97230000Y-67500000D03*
X96270000Y-67500000D03*
%TD*%
%TO.C,C45*%
X104980000Y-52250000D03*
X104020000Y-52250000D03*
%TD*%
D32*
%TO.C,C6*%
X80500000Y-63230000D03*
X80500000Y-62270000D03*
%TD*%
D50*
%TO.C,C44*%
X104980000Y-48500000D03*
X104020000Y-48500000D03*
%TD*%
D13*
%TO.C,J5*%
X113250000Y-51750000D03*
X113250000Y-54250000D03*
%TD*%
M02*
