M48
; DRILL file {KiCad (6.0.7)} date Wed 21 Sep 2022 05:53:45 PM CEST
; FORMAT={-:-/ absolute / inch / decimal}
; #@! TF.CreationDate,2022-09-21T17:53:45+02:00
; #@! TF.GenerationSoftware,Kicad,Pcbnew,(6.0.7)
; #@! TF.FileFunction,Plated,1,4,PTH
FMAT,2
INCH
; #@! TA.AperFunction,Plated,PTH,ViaDrill
T1C0.0079
; #@! TA.AperFunction,Plated,PTH,ViaDrill
T2C0.0100
; #@! TA.AperFunction,Plated,PTH,ComponentDrill
T3C0.0197
; #@! TA.AperFunction,Plated,PTH,ComponentDrill
T4C0.0280
; #@! TA.AperFunction,Plated,PTH,ComponentDrill
T5C0.0374
; #@! TA.AperFunction,Plated,PTH,ComponentDrill
T6C0.0394
; #@! TA.AperFunction,Plated,PTH,ComponentDrill
T7C0.0402
%
G90
G05
T1
X2.9823Y-1.565
X3.061Y-2.7067
X3.0896Y-2.3649
X3.1102Y-2.4508
X3.14Y-2.4445
X3.1791Y-2.0472
X3.1791Y-2.2933
X3.1791Y-2.3425
X3.1791Y-2.5492
X3.189Y-1.8504
X3.189Y-2.0768
X3.2677Y-2.7067
X3.2972Y-2.4705
X3.3002Y-2.1457
X3.3031Y-2.4406
X3.3169Y-2.1181
X3.3268Y-2.4606
X3.3366Y-2.1457
X3.3563Y-2.4606
X3.3858Y-2.0965
X3.3957Y-1.8996
X3.3957Y-1.939
X3.3957Y-2.0669
X3.4055Y-2.7756
X3.4154Y-2.4606
X3.4296Y-2.7297
X3.4449Y-2.1457
X3.4449Y-2.3917
X3.4547Y-2.2736
X3.4547Y-2.3031
X3.4646Y-2.1752
X3.4646Y-2.4311
X3.4744Y-2.3327
X3.4843Y-2.3622
X3.4843Y-2.9429
X3.4941Y-2.0669
X3.5039Y-2.4311
X3.5053Y-2.6652
X3.5138Y-2.1654
X3.5236Y-2.2146
X3.5531Y-2.7165
X3.563Y-1.6142
X3.563Y-1.8799
X3.563Y-2.4705
X3.5728Y-1.9094
X3.584Y-2.4913
X3.5925Y-2.5689
X3.6024Y-2.9429
X3.6122Y-1.8012
X3.6122Y-2.1555
X3.6122Y-2.4705
X3.622Y-2.7854
X3.6516Y-2.0276
X3.6516Y-2.0669
X3.6516Y-2.1063
X3.6516Y-2.7165
X3.6585Y-2.0006
X3.6614Y-2.4606
X3.6811Y-1.9685
X3.6811Y-2.0866
X3.6811Y-2.2146
X3.6909Y-2.4508
X3.6909Y-2.8937
X3.7098Y-1.4854
X3.7106Y-2.7067
X3.7205Y-1.7421
X3.7205Y-2.4606
X3.7303Y-2.3524
X3.7303Y-2.4016
X3.7697Y-2.185
X3.7697Y-2.2146
X3.7697Y-2.4311
X3.7697Y-2.628
X3.7795Y-2.2835
X3.7894Y-1.8898
X3.8091Y-1.4567
X3.8091Y-2.0374
X3.8091Y-2.0768
X3.8091Y-2.5787
X3.8189Y-1.624
X3.8189Y-1.9094
X3.8189Y-1.9882
X3.8287Y-1.7618
X3.8287Y-1.9587
X3.8287Y-2.628
X3.8386Y-1.5354
X3.8386Y-2.3524
X3.8386Y-2.3819
X3.8386Y-2.5689
X3.8484Y-2.1161
X3.8484Y-2.7372
X3.8583Y-1.9378
X3.8583Y-1.9685
X3.8583Y-2.0177
X3.8583Y-2.0669
X3.8583Y-2.7953
X3.8681Y-2.4902
X3.878Y-2.3327
X3.878Y-2.4311
X3.8878Y-1.939
X3.8976Y-2.8445
X3.9075Y-1.9685
X3.9075Y-2.0177
X3.9075Y-2.0669
X3.9075Y-2.1161
X3.9075Y-2.7953
X3.9086Y-1.9185
X3.9173Y-2.2933
X3.9272Y-1.6929
X3.937Y-2.1161
X3.9469Y-1.9193
X3.9567Y-1.5354
X3.9567Y-1.9685
X3.9567Y-2.0177
X3.9567Y-2.0669
X3.9764Y-1.9094
X3.9862Y-2.4114
X3.9862Y-2.4508
X4.0059Y-1.7126
X4.0157Y-2.8543
X4.0256Y-2.1949
X4.031Y-2.7209
X4.0354Y-1.8602
X4.065Y-1.6535
X4.065Y-2.2047
X4.065Y-2.313
X4.0945Y-2.5394
X4.1142Y-1.4665
X4.124Y-2.4508
X4.1339Y-1.939
X4.1339Y-2.0177
X4.1634Y-2.5591
X4.1634Y-2.7461
X4.1831Y-2.1457
X4.1831Y-2.3917
X4.1831Y-2.6181
X4.1831Y-2.6969
X4.1929Y-1.9587
X4.2421Y-2.0079
X4.2815Y-2.9134
X4.3012Y-2.3917
X4.3504Y-1.7421
X4.4364Y-1.6273
X4.439Y-2.372
X4.4488Y-2.8445
X4.4783Y-1.7421
T2
X3.4252Y-2.1063
T3
X3.0217Y-2.6575
X3.0709Y-2.6575
X3.1201Y-2.6575
X3.7156Y-2.9232
X3.7648Y-2.9232
X3.814Y-2.9232
X3.8632Y-2.9232
X3.9764Y-2.9232
X4.0256Y-2.9232
X4.0748Y-2.9232
X4.124Y-2.9232
X4.1732Y-2.9232
X4.4783Y-2.687
X4.4783Y-2.7362
X4.4783Y-2.7854
T4
X4.4272Y-1.8701
X4.4902Y-1.6693
T5
X3.0709Y-2.2146
X3.0709Y-2.313
X3.0709Y-2.4114
X3.0709Y-2.5098
X3.5433Y-2.7953
X3.5433Y-2.8937
X4.4587Y-2.0374
X4.4587Y-2.1358
X4.4587Y-2.4508
X4.4587Y-2.5492
T6
X3.248Y-2.8445
X3.3858Y-2.8445
X4.2018Y-1.437
X4.2793Y-2.2835
X4.3018Y-1.437
X4.3793Y-2.2835
X4.4018Y-1.437
X4.4793Y-2.2835
T7
X3.376Y-1.5978
X3.376Y-1.7159
X3.4941Y-1.5978
X3.4941Y-1.7159
T0
M30
