%TF.GenerationSoftware,KiCad,Pcbnew,(6.0.7)*%
%TF.CreationDate,2022-09-21T17:53:50+02:00*%
%TF.ProjectId,CANpaca-EB-schematics,43414e70-6163-4612-9d45-422d73636865,rev?*%
%TF.SameCoordinates,Original*%
%TF.FileFunction,Paste,Bot*%
%TF.FilePolarity,Positive*%
%FSLAX46Y46*%
G04 Gerber Fmt 4.6, Leading zero omitted, Abs format (unit mm)*
G04 Created by KiCad (PCBNEW (6.0.7)) date 2022-09-21 17:53:50*
%MOMM*%
%LPD*%
G01*
G04 APERTURE LIST*
G04 Aperture macros list*
%AMRoundRect*
0 Rectangle with rounded corners*
0 $1 Rounding radius*
0 $2 $3 $4 $5 $6 $7 $8 $9 X,Y pos of 4 corners*
0 Add a 4 corners polygon primitive as box body*
4,1,4,$2,$3,$4,$5,$6,$7,$8,$9,$2,$3,0*
0 Add four circle primitives for the rounded corners*
1,1,$1+$1,$2,$3*
1,1,$1+$1,$4,$5*
1,1,$1+$1,$6,$7*
1,1,$1+$1,$8,$9*
0 Add four rect primitives between the rounded corners*
20,1,$1+$1,$2,$3,$4,$5,0*
20,1,$1+$1,$4,$5,$6,$7,0*
20,1,$1+$1,$6,$7,$8,$9,0*
20,1,$1+$1,$8,$9,$2,$3,0*%
G04 Aperture macros list end*
%ADD10RoundRect,0.140000X0.170000X-0.140000X0.170000X0.140000X-0.170000X0.140000X-0.170000X-0.140000X0*%
%ADD11RoundRect,0.140000X-0.140000X-0.170000X0.140000X-0.170000X0.140000X0.170000X-0.140000X0.170000X0*%
%ADD12RoundRect,0.135000X-0.135000X-0.185000X0.135000X-0.185000X0.135000X0.185000X-0.135000X0.185000X0*%
%ADD13RoundRect,0.140000X-0.170000X0.140000X-0.170000X-0.140000X0.170000X-0.140000X0.170000X0.140000X0*%
%ADD14RoundRect,0.135000X0.185000X-0.135000X0.185000X0.135000X-0.185000X0.135000X-0.185000X-0.135000X0*%
%ADD15RoundRect,0.218750X-0.218750X-0.381250X0.218750X-0.381250X0.218750X0.381250X-0.218750X0.381250X0*%
%ADD16R,0.450000X0.600000*%
%ADD17RoundRect,0.135000X0.135000X0.185000X-0.135000X0.185000X-0.135000X-0.185000X0.135000X-0.185000X0*%
%ADD18R,2.000000X1.500000*%
%ADD19R,2.000000X3.800000*%
%ADD20RoundRect,0.135000X-0.185000X0.135000X-0.185000X-0.135000X0.185000X-0.135000X0.185000X0.135000X0*%
%ADD21R,0.450000X0.300000*%
%ADD22RoundRect,0.218750X-0.218750X-0.256250X0.218750X-0.256250X0.218750X0.256250X-0.218750X0.256250X0*%
%ADD23RoundRect,0.150000X0.512500X0.150000X-0.512500X0.150000X-0.512500X-0.150000X0.512500X-0.150000X0*%
%ADD24RoundRect,0.150000X0.587500X0.150000X-0.587500X0.150000X-0.587500X-0.150000X0.587500X-0.150000X0*%
%ADD25RoundRect,0.218750X0.218750X0.381250X-0.218750X0.381250X-0.218750X-0.381250X0.218750X-0.381250X0*%
%ADD26RoundRect,0.140000X0.140000X0.170000X-0.140000X0.170000X-0.140000X-0.170000X0.140000X-0.170000X0*%
%ADD27RoundRect,0.150000X-0.150000X0.587500X-0.150000X-0.587500X0.150000X-0.587500X0.150000X0.587500X0*%
%ADD28R,1.200000X0.900000*%
%ADD29RoundRect,0.150000X-0.587500X-0.150000X0.587500X-0.150000X0.587500X0.150000X-0.587500X0.150000X0*%
%ADD30RoundRect,0.150000X0.150000X-0.825000X0.150000X0.825000X-0.150000X0.825000X-0.150000X-0.825000X0*%
%ADD31RoundRect,0.150000X0.150000X-0.512500X0.150000X0.512500X-0.150000X0.512500X-0.150000X-0.512500X0*%
G04 APERTURE END LIST*
D10*
%TO.C,C32*%
X98750000Y-38480000D03*
X98750000Y-37520000D03*
%TD*%
D11*
%TO.C,C31*%
X108520000Y-50000000D03*
X109480000Y-50000000D03*
%TD*%
D12*
%TO.C,R5*%
X108490000Y-51000000D03*
X109510000Y-51000000D03*
%TD*%
D13*
%TO.C,C2*%
X89500000Y-46020000D03*
X89500000Y-46980000D03*
%TD*%
D11*
%TO.C,C25*%
X91270000Y-35500000D03*
X92230000Y-35500000D03*
%TD*%
D14*
%TO.C,R37*%
X87500000Y-71010000D03*
X87500000Y-69990000D03*
%TD*%
D15*
%TO.C,L2*%
X99937500Y-35500000D03*
X102062500Y-35500000D03*
%TD*%
D16*
%TO.C,D1*%
X111250000Y-61950000D03*
X111250000Y-64050000D03*
%TD*%
D10*
%TO.C,C4*%
X85000000Y-48960000D03*
X85000000Y-48000000D03*
%TD*%
%TO.C,C43*%
X99500000Y-57230000D03*
X99500000Y-56270000D03*
%TD*%
D11*
%TO.C,C33*%
X108540000Y-49000000D03*
X109500000Y-49000000D03*
%TD*%
D17*
%TO.C,R20*%
X96260000Y-37500000D03*
X95240000Y-37500000D03*
%TD*%
D13*
%TO.C,C3*%
X89500000Y-48000000D03*
X89500000Y-48960000D03*
%TD*%
D14*
%TO.C,R38*%
X88500000Y-71010000D03*
X88500000Y-69990000D03*
%TD*%
D10*
%TO.C,C21*%
X80500000Y-37000000D03*
X80500000Y-36040000D03*
%TD*%
D18*
%TO.C,U5*%
X105600000Y-47050000D03*
D19*
X111900000Y-44750000D03*
D18*
X105600000Y-44750000D03*
X105600000Y-42450000D03*
%TD*%
D20*
%TO.C,R12*%
X85250000Y-52240000D03*
X85250000Y-53260000D03*
%TD*%
D21*
%TO.C,U2*%
X89700000Y-63750000D03*
X89700000Y-64250000D03*
X89700000Y-64750000D03*
X88300000Y-64750000D03*
X88300000Y-63750000D03*
%TD*%
D22*
%TO.C,L1*%
X93462500Y-35250000D03*
X95037500Y-35250000D03*
%TD*%
D23*
%TO.C,U4*%
X92887500Y-36800000D03*
X92887500Y-37750000D03*
X92887500Y-38700000D03*
X90612500Y-38700000D03*
X90612500Y-37750000D03*
X90612500Y-36800000D03*
%TD*%
D20*
%TO.C,R1*%
X108750000Y-63230000D03*
X108750000Y-64250000D03*
%TD*%
D22*
%TO.C,L4*%
X100212500Y-46000000D03*
X101787500Y-46000000D03*
%TD*%
D10*
%TO.C,C30*%
X98500000Y-36000000D03*
X98500000Y-35040000D03*
%TD*%
D17*
%TO.C,R14*%
X89010000Y-39000000D03*
X87990000Y-39000000D03*
%TD*%
D11*
%TO.C,C7*%
X79270000Y-61000000D03*
X80230000Y-61000000D03*
%TD*%
D24*
%TO.C,D7*%
X94187500Y-70800000D03*
X94187500Y-72700000D03*
X92312500Y-71750000D03*
%TD*%
D12*
%TO.C,R4*%
X101990000Y-62250000D03*
X103010000Y-62250000D03*
%TD*%
D13*
%TO.C,C27*%
X97000000Y-42520000D03*
X97000000Y-43480000D03*
%TD*%
D14*
%TO.C,R36*%
X88500000Y-73010000D03*
X88500000Y-71990000D03*
%TD*%
D25*
%TO.C,L3*%
X90812500Y-53980000D03*
X88687500Y-53980000D03*
%TD*%
D26*
%TO.C,C5*%
X111730000Y-60750000D03*
X110770000Y-60750000D03*
%TD*%
D27*
%TO.C,D2*%
X86300000Y-46062500D03*
X88200000Y-46062500D03*
X87250000Y-47937500D03*
%TD*%
D14*
%TO.C,R19*%
X99750000Y-38510000D03*
X99750000Y-37490000D03*
%TD*%
D11*
%TO.C,C51*%
X103290000Y-60750000D03*
X104250000Y-60750000D03*
%TD*%
D14*
%TO.C,R17*%
X97500000Y-38510000D03*
X97500000Y-37490000D03*
%TD*%
D16*
%TO.C,D3*%
X111250000Y-52200000D03*
X111250000Y-54300000D03*
%TD*%
D20*
%TO.C,R3*%
X90500000Y-45990000D03*
X90500000Y-47010000D03*
%TD*%
D13*
%TO.C,C1*%
X87750000Y-50790000D03*
X87750000Y-51750000D03*
%TD*%
D10*
%TO.C,C36*%
X100500000Y-57250000D03*
X100500000Y-56290000D03*
%TD*%
D28*
%TO.C,D4*%
X83250000Y-36100000D03*
X83250000Y-39400000D03*
%TD*%
D29*
%TO.C,Q1*%
X109312500Y-67450000D03*
X109312500Y-65550000D03*
X111187500Y-66500000D03*
%TD*%
D12*
%TO.C,R10*%
X83730000Y-67750000D03*
X84750000Y-67750000D03*
%TD*%
D11*
%TO.C,C10*%
X79270000Y-60000000D03*
X80230000Y-60000000D03*
%TD*%
D20*
%TO.C,R13*%
X101000000Y-37500000D03*
X101000000Y-38520000D03*
%TD*%
D26*
%TO.C,C14*%
X83000000Y-62500000D03*
X82040000Y-62500000D03*
%TD*%
D14*
%TO.C,R16*%
X95750000Y-50510000D03*
X95750000Y-49490000D03*
%TD*%
%TO.C,R2*%
X109750000Y-64260000D03*
X109750000Y-63240000D03*
%TD*%
D17*
%TO.C,R9*%
X89760000Y-66000000D03*
X88740000Y-66000000D03*
%TD*%
D26*
%TO.C,C11*%
X80230000Y-58000000D03*
X79270000Y-58000000D03*
%TD*%
D13*
%TO.C,C16*%
X84250000Y-63270000D03*
X84250000Y-64230000D03*
%TD*%
D30*
%TO.C,U6*%
X95655000Y-47725000D03*
X94385000Y-47725000D03*
X93115000Y-47725000D03*
X91845000Y-47725000D03*
X91845000Y-42775000D03*
X93115000Y-42775000D03*
X94385000Y-42775000D03*
X95655000Y-42775000D03*
%TD*%
D11*
%TO.C,C23*%
X90250000Y-40000000D03*
X91210000Y-40000000D03*
%TD*%
D10*
%TO.C,C28*%
X97500000Y-36000000D03*
X97500000Y-35040000D03*
%TD*%
D26*
%TO.C,C18*%
X87480000Y-74000000D03*
X86520000Y-74000000D03*
%TD*%
D10*
%TO.C,C26*%
X96500000Y-35980000D03*
X96500000Y-35020000D03*
%TD*%
%TO.C,C29*%
X98000000Y-43480000D03*
X98000000Y-42520000D03*
%TD*%
D14*
%TO.C,R11*%
X85250000Y-64260000D03*
X85250000Y-63240000D03*
%TD*%
D11*
%TO.C,C15*%
X110540000Y-51000000D03*
X111500000Y-51000000D03*
%TD*%
D17*
%TO.C,R8*%
X80260000Y-59000000D03*
X79240000Y-59000000D03*
%TD*%
D10*
%TO.C,C17*%
X84250000Y-53230000D03*
X84250000Y-52270000D03*
%TD*%
D14*
%TO.C,R15*%
X94750000Y-50510000D03*
X94750000Y-49490000D03*
%TD*%
D20*
%TO.C,R33*%
X96000000Y-70490000D03*
X96000000Y-71510000D03*
%TD*%
D17*
%TO.C,R7*%
X91760000Y-64250000D03*
X90740000Y-64250000D03*
%TD*%
D13*
%TO.C,C37*%
X98750000Y-45520000D03*
X98750000Y-46480000D03*
%TD*%
D14*
%TO.C,R30*%
X101000000Y-73010000D03*
X101000000Y-71990000D03*
%TD*%
D13*
%TO.C,C52*%
X97000000Y-70520000D03*
X97000000Y-71480000D03*
%TD*%
D26*
%TO.C,C50*%
X79960000Y-66250000D03*
X79000000Y-66250000D03*
%TD*%
D31*
%TO.C,U9*%
X94950000Y-66637500D03*
X94000000Y-66637500D03*
X93050000Y-66637500D03*
X93050000Y-64362500D03*
X94950000Y-64362500D03*
%TD*%
D10*
%TO.C,C19*%
X81500000Y-36980000D03*
X81500000Y-36020000D03*
%TD*%
D17*
%TO.C,R6*%
X109510000Y-52000000D03*
X108490000Y-52000000D03*
%TD*%
D26*
%TO.C,C9*%
X89210000Y-62500000D03*
X88250000Y-62500000D03*
%TD*%
D29*
%TO.C,Q2*%
X107562500Y-55450000D03*
X107562500Y-53550000D03*
X109437500Y-54500000D03*
%TD*%
M02*
