%TF.GenerationSoftware,KiCad,Pcbnew,(6.0.7)*%
%TF.CreationDate,2022-09-21T17:16:33+02:00*%
%TF.ProjectId,CANpaca-EB-schematics,43414e70-6163-4612-9d45-422d73636865,rev?*%
%TF.SameCoordinates,Original*%
%TF.FileFunction,Copper,L2,Inr*%
%TF.FilePolarity,Positive*%
%FSLAX46Y46*%
G04 Gerber Fmt 4.6, Leading zero omitted, Abs format (unit mm)*
G04 Created by KiCad (PCBNEW (6.0.7)) date 2022-09-21 17:16:33*
%MOMM*%
%LPD*%
G01*
G04 APERTURE LIST*
G04 Aperture macros list*
%AMRoundRect*
0 Rectangle with rounded corners*
0 $1 Rounding radius*
0 $2 $3 $4 $5 $6 $7 $8 $9 X,Y pos of 4 corners*
0 Add a 4 corners polygon primitive as box body*
4,1,4,$2,$3,$4,$5,$6,$7,$8,$9,$2,$3,0*
0 Add four circle primitives for the rounded corners*
1,1,$1+$1,$2,$3*
1,1,$1+$1,$4,$5*
1,1,$1+$1,$6,$7*
1,1,$1+$1,$8,$9*
0 Add four rect primitives between the rounded corners*
20,1,$1+$1,$2,$3,$4,$5,0*
20,1,$1+$1,$4,$5,$6,$7,0*
20,1,$1+$1,$6,$7,$8,$9,0*
20,1,$1+$1,$8,$9,$2,$3,0*%
G04 Aperture macros list end*
%TA.AperFunction,ComponentPad*%
%ADD10C,1.425000*%
%TD*%
%TA.AperFunction,ComponentPad*%
%ADD11C,1.000000*%
%TD*%
%TA.AperFunction,ComponentPad*%
%ADD12R,1.700000X1.700000*%
%TD*%
%TA.AperFunction,ComponentPad*%
%ADD13O,1.700000X1.700000*%
%TD*%
%TA.AperFunction,ComponentPad*%
%ADD14RoundRect,0.250001X-0.499999X-0.499999X0.499999X-0.499999X0.499999X0.499999X-0.499999X0.499999X0*%
%TD*%
%TA.AperFunction,ComponentPad*%
%ADD15C,1.500000*%
%TD*%
%TA.AperFunction,ComponentPad*%
%ADD16C,2.000000*%
%TD*%
%TA.AperFunction,ComponentPad*%
%ADD17C,1.270000*%
%TD*%
%TA.AperFunction,ViaPad*%
%ADD18C,0.400000*%
%TD*%
%TA.AperFunction,ViaPad*%
%ADD19C,0.508000*%
%TD*%
%TA.AperFunction,Conductor*%
%ADD20C,0.127000*%
%TD*%
%TA.AperFunction,Conductor*%
%ADD21C,0.152400*%
%TD*%
G04 APERTURE END LIST*
D10*
%TO.N,GND*%
%TO.C,J17*%
X90000000Y-73500000D03*
%TO.N,Net-(J17-Pad2)*%
X90000000Y-71000000D03*
%TD*%
D11*
%TO.N,3V3*%
%TO.C,J16*%
X113750000Y-68250000D03*
%TO.N,GND*%
X113750000Y-69500000D03*
%TO.N,RUNOUT*%
X113750000Y-70750000D03*
%TD*%
%TO.N,GND*%
%TO.C,J14*%
X106000000Y-74250000D03*
%TO.N,5V*%
X104750000Y-74250000D03*
%TO.N,SERVO*%
X103500000Y-74250000D03*
%TO.N,GND*%
X102250000Y-74250000D03*
%TO.N,PROBE*%
X101000000Y-74250000D03*
%TD*%
%TO.N,RGB*%
%TO.C,J13*%
X76750000Y-67500000D03*
%TO.N,GND*%
X78000000Y-67500000D03*
%TO.N,5V*%
X79250000Y-67500000D03*
%TD*%
%TO.N,FORCE_P*%
%TO.C,J12*%
X98125000Y-74250000D03*
%TO.N,RTDIN_P*%
X96875000Y-74250000D03*
%TO.N,RTDIN_N*%
X95625000Y-74250000D03*
%TO.N,FORCE_N*%
X94375000Y-74250000D03*
%TD*%
D12*
%TO.N,USB_5V*%
%TO.C,J11*%
X106725000Y-36500000D03*
D13*
%TO.N,5V*%
X109265000Y-36500000D03*
%TO.N,DC_5V*%
X111805000Y-36500000D03*
%TD*%
D10*
%TO.N,Net-(J8-Pad4)*%
%TO.C,J8*%
X78000000Y-63750000D03*
%TO.N,Net-(J8-Pad3)*%
X78000000Y-61250000D03*
%TO.N,MOTOR_A1*%
X78000000Y-58750000D03*
%TO.N,MOTOR_A2*%
X78000000Y-56250000D03*
%TD*%
D14*
%TO.N,DC_IN*%
%TO.C,J7*%
X85750000Y-40585000D03*
D15*
%TO.N,GND*%
X88750000Y-40585000D03*
%TO.N,CAN_P*%
X85750000Y-43585000D03*
%TO.N,CAN_N*%
X88750000Y-43585000D03*
%TD*%
D16*
%TO.N,Net-(J6-Pad1)*%
%TO.C,J6*%
X82500000Y-72250000D03*
%TO.N,DC_IN*%
X86000000Y-72250000D03*
%TD*%
D10*
%TO.N,Net-(C15-Pad2)*%
%TO.C,J5*%
X113250000Y-51750000D03*
%TO.N,Net-(D3-Pad2)*%
X113250000Y-54250000D03*
%TD*%
D12*
%TO.N,DC_IN*%
%TO.C,J4*%
X113775000Y-58000000D03*
D13*
%TO.N,Net-(C15-Pad2)*%
X111235000Y-58000000D03*
%TO.N,5V*%
X108695000Y-58000000D03*
%TD*%
D10*
%TO.N,Net-(C15-Pad2)*%
%TO.C,J2*%
X113250000Y-62250000D03*
%TO.N,Net-(D1-Pad2)*%
X113250000Y-64750000D03*
%TD*%
D17*
%TO.N,VBUS*%
%TO.C,F1*%
X112450000Y-47500000D03*
%TO.N,Net-(C20-Pad2)*%
X114050000Y-42400000D03*
%TD*%
D18*
%TO.N,GND*%
X88500000Y-74750000D03*
X90500000Y-41000000D03*
X103250000Y-42000000D03*
X97000000Y-41250000D03*
X108750000Y-74000000D03*
X106500000Y-49750000D03*
X75750000Y-39750000D03*
X81000000Y-47000000D03*
X113000000Y-72250000D03*
X104500000Y-37250000D03*
X97250000Y-44750000D03*
%TO.N,MOTOR_A1*%
X85250000Y-62500000D03*
%TO.N,MOTOR_A2*%
X83899450Y-61991889D03*
%TO.N,Net-(C7-Pad1)*%
X79000000Y-62250000D03*
%TO.N,Net-(C7-Pad2)*%
X79754947Y-62090207D03*
%TO.N,Net-(C11-Pad2)*%
X78475152Y-60067267D03*
%TO.N,GND*%
X80750000Y-58250000D03*
%TO.N,Net-(C10-Pad2)*%
X80750000Y-59500000D03*
%TO.N,GND*%
X92000000Y-70750000D03*
X90250000Y-69000000D03*
X93500000Y-56250000D03*
X103250000Y-58750000D03*
X106250000Y-54500000D03*
X113750000Y-44250000D03*
X112685815Y-41334185D03*
X101750000Y-43500000D03*
X99750000Y-43000000D03*
X94229836Y-37729836D03*
X96750000Y-37000000D03*
X96000000Y-58000000D03*
X98250000Y-63250000D03*
%TO.N,SCK*%
X94250000Y-68750000D03*
%TO.N,GND*%
X95750000Y-66750000D03*
X97250000Y-66750000D03*
X105750000Y-65000000D03*
X104000000Y-64500000D03*
X112750000Y-60250000D03*
X109250000Y-60750000D03*
X101250000Y-61250000D03*
X99500000Y-58250000D03*
X86250000Y-49250000D03*
X90750000Y-48500000D03*
X86250000Y-52500000D03*
X92750000Y-52500000D03*
X86000000Y-53250000D03*
X87500000Y-54500000D03*
X86750000Y-62500000D03*
X83750000Y-62750000D03*
X89000000Y-61750000D03*
X91034016Y-63279956D03*
%TO.N,Net-(C2-Pad2)*%
X90500000Y-47750000D03*
%TO.N,CAN_N*%
X98500000Y-61750000D03*
%TO.N,3V3*%
X92750000Y-69000000D03*
X88750000Y-52500000D03*
X91750000Y-45750000D03*
X98500000Y-59250000D03*
X93750000Y-62250000D03*
X86500000Y-70500000D03*
X91500000Y-74750000D03*
X91750000Y-54750000D03*
X93500000Y-53000000D03*
X97000000Y-50500000D03*
%TO.N,1V1*%
X101000000Y-48500000D03*
%TO.N,GND*%
X99250000Y-51250000D03*
X99250000Y-52500000D03*
X100500000Y-52500000D03*
X98000000Y-52500000D03*
X98000000Y-51250000D03*
X100500000Y-51250000D03*
X100500000Y-50000000D03*
X99250000Y-50000000D03*
X98000000Y-50000000D03*
%TO.N,DIR_E*%
X88000000Y-55250000D03*
X87750000Y-57750000D03*
%TO.N,HOT_0*%
X97750000Y-53750000D03*
%TO.N,MOSI_2*%
X91250000Y-65250000D03*
%TO.N,MOSI*%
X93000000Y-62500000D03*
%TO.N,TH_0*%
X104799500Y-49250000D03*
X98000000Y-71000000D03*
%TO.N,PROBE*%
X95750000Y-61750000D03*
X95750000Y-55500000D03*
%TO.N,SERVO*%
X97500000Y-60500000D03*
X95750000Y-56250000D03*
%TO.N,RTDIN_N*%
X91750000Y-62750000D03*
%TO.N,RTDIN_P*%
X102388200Y-69111800D03*
X90500000Y-62750000D03*
%TO.N,THO_IN*%
X99000000Y-72250000D03*
%TO.N,BOOT_IN*%
X97500000Y-59750000D03*
%TO.N,CAN_P*%
X86250000Y-48250000D03*
X104750000Y-62250000D03*
%TO.N,Net-(R10-Pad2)*%
X87110940Y-69333590D03*
X89034157Y-67697062D03*
%TO.N,3V3*%
X102000000Y-72500000D03*
%TO.N,CS_ADXL*%
X96750000Y-65500000D03*
X94500000Y-62500000D03*
X102250000Y-55750000D03*
%TO.N,RGB*%
X103250000Y-56000000D03*
X77750000Y-68750000D03*
%TO.N,Net-(Q3-Pad4)*%
X83000000Y-68750000D03*
%TO.N,STEP_E*%
X92925722Y-50814305D03*
X87750000Y-58500000D03*
%TO.N,QSPI_SD0*%
X98000000Y-49220003D03*
%TO.N,QSPI_SS*%
X96250000Y-48000000D03*
%TO.N,QSPI_SD1*%
X97000000Y-48500000D03*
%TO.N,QSPI_SCLK*%
X98750000Y-49250000D03*
%TO.N,QSPI_SD3*%
X94500000Y-44250000D03*
%TO.N,QSPI_SD2*%
X97250000Y-49750000D03*
%TO.N,Net-(C46-Pad2)*%
X89250000Y-55000000D03*
%TO.N,Net-(R26-Pad2)*%
X97500000Y-65250000D03*
X89500000Y-56250000D03*
%TO.N,ISENSOR*%
X106250000Y-66500000D03*
X88250000Y-59250000D03*
%TO.N,MOSI*%
X96750000Y-51750000D03*
%TO.N,SCK*%
X96750000Y-52750000D03*
%TO.N,CS_E*%
X87500000Y-60750000D03*
X92750000Y-53500000D03*
%TO.N,SCK*%
X94750000Y-59750000D03*
X87716337Y-61533663D03*
%TO.N,MOSI*%
X94750000Y-61000000D03*
X88500000Y-60000000D03*
%TO.N,FORCE_P*%
X93750000Y-73500000D03*
%TO.N,RTDIN_N*%
X106250000Y-68500000D03*
X105750000Y-69750000D03*
X97500000Y-69500000D03*
X99250000Y-71000000D03*
%TO.N,DIAG1_E*%
X81000000Y-52750000D03*
X92750000Y-51500000D03*
D19*
%TO.N,5V*%
X87000000Y-53500000D03*
D18*
%TO.N,EN_E*%
X93500000Y-50000000D03*
X80750000Y-52000000D03*
%TO.N,DC_IN*%
X80750000Y-64750000D03*
%TO.N,Net-(C16-Pad1)*%
X84500000Y-62500000D03*
%TO.N,Net-(J8-Pad3)*%
X84750000Y-54500000D03*
%TO.N,Net-(C17-Pad1)*%
X84250000Y-53800000D03*
%TO.N,Net-(J8-Pad4)*%
X83824500Y-54500000D03*
%TO.N,FAN_0*%
X104799500Y-51250000D03*
%TO.N,FAN_1*%
X107750000Y-51000000D03*
%TO.N,RUN*%
X106500000Y-60750000D03*
%TO.N,CAN_OUT*%
X101250000Y-62250000D03*
%TO.N,3V3*%
X110500000Y-44250000D03*
%TO.N,1V1*%
X99279679Y-48730893D03*
%TO.N,3V3*%
X100250000Y-48750000D03*
%TO.N,AVDD*%
X102500000Y-47250000D03*
%TO.N,1V1*%
X100000000Y-53750000D03*
%TO.N,3V3*%
X99250000Y-53750000D03*
%TO.N,Net-(J9-PadB5)*%
X97500000Y-39000000D03*
%TO.N,Net-(J9-PadA5)*%
X100500000Y-39000000D03*
%TD*%
D20*
%TO.N,GND*%
X90250000Y-69000000D02*
X90903000Y-69653000D01*
X90903000Y-69653000D02*
X90903000Y-72597000D01*
X90903000Y-72597000D02*
X90000000Y-73500000D01*
X90250000Y-69000000D02*
X92500000Y-66750000D01*
X92500000Y-66750000D02*
X95750000Y-66750000D01*
X99250000Y-52500000D02*
X98812500Y-52937500D01*
X98812500Y-52937500D02*
X98812500Y-57562500D01*
X98812500Y-57562500D02*
X99500000Y-58250000D01*
X93500000Y-56250000D02*
X94250000Y-56250000D01*
X94250000Y-56250000D02*
X96000000Y-58000000D01*
X106250000Y-54500000D02*
X102500000Y-58250000D01*
X102500000Y-58250000D02*
X99500000Y-58250000D01*
X96000000Y-58000000D02*
X99250000Y-58000000D01*
X99250000Y-58000000D02*
X99500000Y-58250000D01*
%TO.N,SCK*%
X94250000Y-68750000D02*
X94368719Y-68750000D01*
X94368719Y-68750000D02*
X96250000Y-66868719D01*
X96250000Y-66868719D02*
X96250000Y-61250000D01*
X96250000Y-61250000D02*
X94750000Y-59750000D01*
%TO.N,GND*%
X95750000Y-66750000D02*
X94504060Y-66750000D01*
X94504060Y-66750000D02*
X91034016Y-63279956D01*
D21*
%TO.N,CAN_N*%
X98500000Y-61750000D02*
X98113321Y-61750000D01*
X98113321Y-61750000D02*
X89200200Y-52836879D01*
X89200200Y-52836879D02*
X89200200Y-44035200D01*
X89200200Y-44035200D02*
X88750000Y-43585000D01*
%TD*%
M02*
