%TF.GenerationSoftware,KiCad,Pcbnew,(6.0.7)*%
%TF.CreationDate,2022-09-21T18:10:42+02:00*%
%TF.ProjectId,CANpaca-EB-schematics,43414e70-6163-4612-9d45-422d73636865,rev?*%
%TF.SameCoordinates,Original*%
%TF.FileFunction,Copper,L4,Bot*%
%TF.FilePolarity,Positive*%
%FSLAX46Y46*%
G04 Gerber Fmt 4.6, Leading zero omitted, Abs format (unit mm)*
G04 Created by KiCad (PCBNEW (6.0.7)) date 2022-09-21 18:10:42*
%MOMM*%
%LPD*%
G01*
G04 APERTURE LIST*
G04 Aperture macros list*
%AMRoundRect*
0 Rectangle with rounded corners*
0 $1 Rounding radius*
0 $2 $3 $4 $5 $6 $7 $8 $9 X,Y pos of 4 corners*
0 Add a 4 corners polygon primitive as box body*
4,1,4,$2,$3,$4,$5,$6,$7,$8,$9,$2,$3,0*
0 Add four circle primitives for the rounded corners*
1,1,$1+$1,$2,$3*
1,1,$1+$1,$4,$5*
1,1,$1+$1,$6,$7*
1,1,$1+$1,$8,$9*
0 Add four rect primitives between the rounded corners*
20,1,$1+$1,$2,$3,$4,$5,0*
20,1,$1+$1,$4,$5,$6,$7,0*
20,1,$1+$1,$6,$7,$8,$9,0*
20,1,$1+$1,$8,$9,$2,$3,0*%
G04 Aperture macros list end*
%TA.AperFunction,ComponentPad*%
%ADD10C,1.425000*%
%TD*%
%TA.AperFunction,ComponentPad*%
%ADD11R,1.700000X1.700000*%
%TD*%
%TA.AperFunction,ComponentPad*%
%ADD12O,1.700000X1.700000*%
%TD*%
%TA.AperFunction,ComponentPad*%
%ADD13C,1.000000*%
%TD*%
%TA.AperFunction,ComponentPad*%
%ADD14C,1.270000*%
%TD*%
%TA.AperFunction,ComponentPad*%
%ADD15RoundRect,0.250001X-0.499999X-0.499999X0.499999X-0.499999X0.499999X0.499999X-0.499999X0.499999X0*%
%TD*%
%TA.AperFunction,ComponentPad*%
%ADD16C,1.500000*%
%TD*%
%TA.AperFunction,ComponentPad*%
%ADD17C,2.000000*%
%TD*%
%TA.AperFunction,SMDPad,CuDef*%
%ADD18RoundRect,0.140000X0.170000X-0.140000X0.170000X0.140000X-0.170000X0.140000X-0.170000X-0.140000X0*%
%TD*%
%TA.AperFunction,SMDPad,CuDef*%
%ADD19RoundRect,0.140000X-0.140000X-0.170000X0.140000X-0.170000X0.140000X0.170000X-0.140000X0.170000X0*%
%TD*%
%TA.AperFunction,SMDPad,CuDef*%
%ADD20RoundRect,0.135000X-0.135000X-0.185000X0.135000X-0.185000X0.135000X0.185000X-0.135000X0.185000X0*%
%TD*%
%TA.AperFunction,SMDPad,CuDef*%
%ADD21RoundRect,0.140000X-0.170000X0.140000X-0.170000X-0.140000X0.170000X-0.140000X0.170000X0.140000X0*%
%TD*%
%TA.AperFunction,SMDPad,CuDef*%
%ADD22RoundRect,0.135000X0.185000X-0.135000X0.185000X0.135000X-0.185000X0.135000X-0.185000X-0.135000X0*%
%TD*%
%TA.AperFunction,SMDPad,CuDef*%
%ADD23RoundRect,0.218750X-0.218750X-0.381250X0.218750X-0.381250X0.218750X0.381250X-0.218750X0.381250X0*%
%TD*%
%TA.AperFunction,SMDPad,CuDef*%
%ADD24R,0.450000X0.600000*%
%TD*%
%TA.AperFunction,SMDPad,CuDef*%
%ADD25RoundRect,0.135000X0.135000X0.185000X-0.135000X0.185000X-0.135000X-0.185000X0.135000X-0.185000X0*%
%TD*%
%TA.AperFunction,SMDPad,CuDef*%
%ADD26R,2.000000X1.500000*%
%TD*%
%TA.AperFunction,SMDPad,CuDef*%
%ADD27R,2.000000X3.800000*%
%TD*%
%TA.AperFunction,SMDPad,CuDef*%
%ADD28RoundRect,0.135000X-0.185000X0.135000X-0.185000X-0.135000X0.185000X-0.135000X0.185000X0.135000X0*%
%TD*%
%TA.AperFunction,SMDPad,CuDef*%
%ADD29R,0.450000X0.300000*%
%TD*%
%TA.AperFunction,SMDPad,CuDef*%
%ADD30RoundRect,0.218750X-0.218750X-0.256250X0.218750X-0.256250X0.218750X0.256250X-0.218750X0.256250X0*%
%TD*%
%TA.AperFunction,SMDPad,CuDef*%
%ADD31RoundRect,0.150000X0.512500X0.150000X-0.512500X0.150000X-0.512500X-0.150000X0.512500X-0.150000X0*%
%TD*%
%TA.AperFunction,SMDPad,CuDef*%
%ADD32RoundRect,0.150000X0.587500X0.150000X-0.587500X0.150000X-0.587500X-0.150000X0.587500X-0.150000X0*%
%TD*%
%TA.AperFunction,SMDPad,CuDef*%
%ADD33RoundRect,0.218750X0.218750X0.381250X-0.218750X0.381250X-0.218750X-0.381250X0.218750X-0.381250X0*%
%TD*%
%TA.AperFunction,SMDPad,CuDef*%
%ADD34RoundRect,0.140000X0.140000X0.170000X-0.140000X0.170000X-0.140000X-0.170000X0.140000X-0.170000X0*%
%TD*%
%TA.AperFunction,SMDPad,CuDef*%
%ADD35RoundRect,0.150000X-0.150000X0.587500X-0.150000X-0.587500X0.150000X-0.587500X0.150000X0.587500X0*%
%TD*%
%TA.AperFunction,SMDPad,CuDef*%
%ADD36R,1.200000X0.900000*%
%TD*%
%TA.AperFunction,SMDPad,CuDef*%
%ADD37RoundRect,0.150000X-0.587500X-0.150000X0.587500X-0.150000X0.587500X0.150000X-0.587500X0.150000X0*%
%TD*%
%TA.AperFunction,SMDPad,CuDef*%
%ADD38RoundRect,0.150000X0.150000X-0.825000X0.150000X0.825000X-0.150000X0.825000X-0.150000X-0.825000X0*%
%TD*%
%TA.AperFunction,SMDPad,CuDef*%
%ADD39RoundRect,0.150000X0.150000X-0.512500X0.150000X0.512500X-0.150000X0.512500X-0.150000X-0.512500X0*%
%TD*%
%TA.AperFunction,ViaPad*%
%ADD40C,0.450000*%
%TD*%
%TA.AperFunction,ViaPad*%
%ADD41C,0.508000*%
%TD*%
%TA.AperFunction,Conductor*%
%ADD42C,0.127000*%
%TD*%
%TA.AperFunction,Conductor*%
%ADD43C,0.520000*%
%TD*%
%TA.AperFunction,Conductor*%
%ADD44C,0.350000*%
%TD*%
%TA.AperFunction,Conductor*%
%ADD45C,0.152400*%
%TD*%
%TA.AperFunction,Conductor*%
%ADD46C,2.000000*%
%TD*%
%TA.AperFunction,Conductor*%
%ADD47C,3.500000*%
%TD*%
%TA.AperFunction,Conductor*%
%ADD48C,0.500000*%
%TD*%
G04 APERTURE END LIST*
D10*
%TO.P,J17,1,1*%
%TO.N,GND*%
X90000000Y-73500000D03*
%TO.P,J17,2,2*%
%TO.N,Net-(J17-Pad2)*%
X90000000Y-71000000D03*
%TD*%
D11*
%TO.P,J11,1,Pin_1*%
%TO.N,USB_5V*%
X106725000Y-36500000D03*
D12*
%TO.P,J11,2,Pin_2*%
%TO.N,5V*%
X109265000Y-36500000D03*
%TO.P,J11,3,Pin_3*%
%TO.N,DC_5V*%
X111805000Y-36500000D03*
%TD*%
D13*
%TO.P,J12,1,1*%
%TO.N,FORCE_P*%
X98125000Y-74250000D03*
%TO.P,J12,2,2*%
%TO.N,RTDIN_P*%
X96875000Y-74250000D03*
%TO.P,J12,3,3*%
%TO.N,RTDIN_N*%
X95625000Y-74250000D03*
%TO.P,J12,4,4*%
%TO.N,FORCE_N*%
X94375000Y-74250000D03*
%TD*%
%TO.P,J16,1,1*%
%TO.N,3V3*%
X113750000Y-68250000D03*
%TO.P,J16,2,2*%
%TO.N,GND*%
X113750000Y-69500000D03*
%TO.P,J16,3,3*%
%TO.N,RUNOUT*%
X113750000Y-70750000D03*
%TD*%
%TO.P,J14,1,1*%
%TO.N,GND*%
X106000000Y-74250000D03*
%TO.P,J14,2,2*%
%TO.N,5V*%
X104750000Y-74250000D03*
%TO.P,J14,3,3*%
%TO.N,SERVO*%
X103500000Y-74250000D03*
%TO.P,J14,4,4*%
%TO.N,GND*%
X102250000Y-74250000D03*
%TO.P,J14,5,5*%
%TO.N,PROBE*%
X101000000Y-74250000D03*
%TD*%
D11*
%TO.P,J4,1,Pin_1*%
%TO.N,DC_IN*%
X113775000Y-58000000D03*
D12*
%TO.P,J4,2,Pin_2*%
%TO.N,Net-(C15-Pad2)*%
X111235000Y-58000000D03*
%TO.P,J4,3,Pin_3*%
%TO.N,5V*%
X108695000Y-58000000D03*
%TD*%
D10*
%TO.P,J8,1,1*%
%TO.N,MOTOR_A2*%
X78000000Y-56250000D03*
%TO.P,J8,2,2*%
%TO.N,MOTOR_A1*%
X78000000Y-58750000D03*
%TO.P,J8,3,3*%
%TO.N,Net-(J8-Pad3)*%
X78000000Y-61250000D03*
%TO.P,J8,4,4*%
%TO.N,Net-(J8-Pad4)*%
X78000000Y-63750000D03*
%TD*%
D14*
%TO.P,F1,1*%
%TO.N,VBUS*%
X112450000Y-47500000D03*
%TO.P,F1,2*%
%TO.N,Net-(C20-Pad2)*%
X114050000Y-42400000D03*
%TD*%
D13*
%TO.P,J13,1,1*%
%TO.N,5V*%
X79250000Y-67500000D03*
%TO.P,J13,2,2*%
%TO.N,GND*%
X78000000Y-67500000D03*
%TO.P,J13,3,3*%
%TO.N,RGB*%
X76750000Y-67500000D03*
%TD*%
D15*
%TO.P,J7,1,Pin_1*%
%TO.N,DC_IN*%
X85750000Y-40585000D03*
D16*
%TO.P,J7,2,Pin_2*%
%TO.N,GND*%
X88750000Y-40585000D03*
%TO.P,J7,3,Pin_3*%
%TO.N,CAN_P*%
X85750000Y-43585000D03*
%TO.P,J7,4,Pin_4*%
%TO.N,CAN_N*%
X88750000Y-43585000D03*
%TD*%
D10*
%TO.P,J2,1,1*%
%TO.N,Net-(C15-Pad2)*%
X113250000Y-62250000D03*
%TO.P,J2,2,2*%
%TO.N,Net-(D1-Pad2)*%
X113250000Y-64750000D03*
%TD*%
D17*
%TO.P,J6,1,Pin_1*%
%TO.N,Net-(J6-Pad1)*%
X82500000Y-72250000D03*
%TO.P,J6,2,Pin_2*%
%TO.N,DC_IN*%
X86000000Y-72250000D03*
%TD*%
D10*
%TO.P,J5,1,1*%
%TO.N,Net-(C15-Pad2)*%
X113250000Y-51750000D03*
%TO.P,J5,2,2*%
%TO.N,Net-(D3-Pad2)*%
X113250000Y-54250000D03*
%TD*%
D18*
%TO.P,C32,1*%
%TO.N,Net-(C32-Pad1)*%
X98750000Y-38480000D03*
%TO.P,C32,2*%
%TO.N,DC_5V*%
X98750000Y-37520000D03*
%TD*%
D19*
%TO.P,C31,1*%
%TO.N,GND*%
X108520000Y-50000000D03*
%TO.P,C31,2*%
%TO.N,3V3*%
X109480000Y-50000000D03*
%TD*%
D20*
%TO.P,R5,1*%
%TO.N,FAN_1*%
X108490000Y-51000000D03*
%TO.P,R5,2*%
%TO.N,GND*%
X109510000Y-51000000D03*
%TD*%
D21*
%TO.P,C2,1*%
%TO.N,GND*%
X89500000Y-46020000D03*
%TO.P,C2,2*%
%TO.N,Net-(C2-Pad2)*%
X89500000Y-46980000D03*
%TD*%
D19*
%TO.P,C25,1*%
%TO.N,Net-(C25-Pad1)*%
X91270000Y-35500000D03*
%TO.P,C25,2*%
%TO.N,Net-(C25-Pad2)*%
X92230000Y-35500000D03*
%TD*%
D22*
%TO.P,R37,1*%
%TO.N,Net-(J17-Pad2)*%
X87500000Y-71010000D03*
%TO.P,R37,2*%
%TO.N,3V3*%
X87500000Y-69990000D03*
%TD*%
D23*
%TO.P,L2,1,1*%
%TO.N,Net-(C26-Pad2)*%
X99937500Y-35500000D03*
%TO.P,L2,2,2*%
%TO.N,DC_5V*%
X102062500Y-35500000D03*
%TD*%
D24*
%TO.P,D1,1,K*%
%TO.N,Net-(C15-Pad2)*%
X111250000Y-61950000D03*
%TO.P,D1,2,A*%
%TO.N,Net-(D1-Pad2)*%
X111250000Y-64050000D03*
%TD*%
D18*
%TO.P,C4,1*%
%TO.N,GND*%
X85000000Y-48960000D03*
%TO.P,C4,2*%
%TO.N,CAN_N*%
X85000000Y-48000000D03*
%TD*%
%TO.P,C43,1*%
%TO.N,GND*%
X99500000Y-57230000D03*
%TO.P,C43,2*%
%TO.N,3V3*%
X99500000Y-56270000D03*
%TD*%
D19*
%TO.P,C33,1*%
%TO.N,GND*%
X108540000Y-49000000D03*
%TO.P,C33,2*%
%TO.N,3V3*%
X109500000Y-49000000D03*
%TD*%
D25*
%TO.P,R20,1*%
%TO.N,GND*%
X96260000Y-37500000D03*
%TO.P,R20,2*%
%TO.N,Net-(C32-Pad1)*%
X95240000Y-37500000D03*
%TD*%
D21*
%TO.P,C3,1*%
%TO.N,CAN_P*%
X89500000Y-48000000D03*
%TO.P,C3,2*%
%TO.N,GND*%
X89500000Y-48960000D03*
%TD*%
D22*
%TO.P,R38,1*%
%TO.N,Net-(J17-Pad2)*%
X88500000Y-71010000D03*
%TO.P,R38,2*%
%TO.N,THO_IN*%
X88500000Y-69990000D03*
%TD*%
D18*
%TO.P,C21,1*%
%TO.N,GND*%
X80500000Y-37000000D03*
%TO.P,C21,2*%
%TO.N,Net-(C19-Pad2)*%
X80500000Y-36040000D03*
%TD*%
D26*
%TO.P,U5,1,ADJ*%
%TO.N,GND*%
X105600000Y-47050000D03*
D27*
%TO.P,U5,2,VO*%
%TO.N,3V3*%
X111900000Y-44750000D03*
D26*
X105600000Y-44750000D03*
%TO.P,U5,3,VI*%
%TO.N,5V*%
X105600000Y-42450000D03*
%TD*%
D28*
%TO.P,R12,1*%
%TO.N,GND*%
X85250000Y-52240000D03*
%TO.P,R12,2*%
%TO.N,Net-(C17-Pad1)*%
X85250000Y-53260000D03*
%TD*%
D29*
%TO.P,U2,1,NC*%
%TO.N,unconnected-(U2-Pad1)*%
X89700000Y-63750000D03*
%TO.P,U2,2*%
%TO.N,HOT_0*%
X89700000Y-64250000D03*
%TO.P,U2,3,GND*%
%TO.N,GND*%
X89700000Y-64750000D03*
%TO.P,U2,4*%
%TO.N,Net-(R10-Pad2)*%
X88300000Y-64750000D03*
%TO.P,U2,5,VCC*%
%TO.N,5V*%
X88300000Y-63750000D03*
%TD*%
D30*
%TO.P,L1,1,1*%
%TO.N,Net-(C25-Pad1)*%
X93462500Y-35250000D03*
%TO.P,L1,2,2*%
%TO.N,Net-(C26-Pad2)*%
X95037500Y-35250000D03*
%TD*%
D31*
%TO.P,U4,1,BST*%
%TO.N,Net-(C25-Pad2)*%
X92887500Y-36800000D03*
%TO.P,U4,2,GND*%
%TO.N,GND*%
X92887500Y-37750000D03*
%TO.P,U4,3,FB*%
%TO.N,Net-(C32-Pad1)*%
X92887500Y-38700000D03*
%TO.P,U4,4,EN*%
%TO.N,Net-(C23-Pad2)*%
X90612500Y-38700000D03*
%TO.P,U4,5,VIN*%
%TO.N,Net-(C19-Pad2)*%
X90612500Y-37750000D03*
%TO.P,U4,6,SW*%
%TO.N,Net-(C25-Pad1)*%
X90612500Y-36800000D03*
%TD*%
D28*
%TO.P,R1,1*%
%TO.N,FAN_0*%
X108750000Y-63230000D03*
%TO.P,R1,2*%
%TO.N,GND*%
X108750000Y-64250000D03*
%TD*%
D30*
%TO.P,L4,1,1*%
%TO.N,3V3*%
X100212500Y-46000000D03*
%TO.P,L4,2,2*%
%TO.N,AVDD*%
X101787500Y-46000000D03*
%TD*%
D18*
%TO.P,C30,1*%
%TO.N,GND*%
X98500000Y-36000000D03*
%TO.P,C30,2*%
%TO.N,Net-(C26-Pad2)*%
X98500000Y-35040000D03*
%TD*%
D25*
%TO.P,R14,1*%
%TO.N,Net-(C23-Pad2)*%
X89010000Y-39000000D03*
%TO.P,R14,2*%
%TO.N,Net-(C19-Pad2)*%
X87990000Y-39000000D03*
%TD*%
D19*
%TO.P,C7,1*%
%TO.N,Net-(C7-Pad1)*%
X79270000Y-61000000D03*
%TO.P,C7,2*%
%TO.N,Net-(C7-Pad2)*%
X80230000Y-61000000D03*
%TD*%
D32*
%TO.P,D7,1*%
%TO.N,GND*%
X94187500Y-70800000D03*
%TO.P,D7,2*%
%TO.N,3V3*%
X94187500Y-72700000D03*
%TO.P,D7,3*%
%TO.N,Net-(D7-Pad3)*%
X92312500Y-71750000D03*
%TD*%
D20*
%TO.P,R4,1*%
%TO.N,CAN_OUT*%
X101990000Y-62250000D03*
%TO.P,R4,2*%
%TO.N,CAN_N*%
X103010000Y-62250000D03*
%TD*%
D21*
%TO.P,C27,1*%
%TO.N,3V3*%
X97000000Y-42520000D03*
%TO.P,C27,2*%
%TO.N,GND*%
X97000000Y-43480000D03*
%TD*%
D22*
%TO.P,R36,1*%
%TO.N,Net-(D7-Pad3)*%
X88500000Y-73010000D03*
%TO.P,R36,2*%
%TO.N,Net-(J17-Pad2)*%
X88500000Y-71990000D03*
%TD*%
D33*
%TO.P,L3,1,1*%
%TO.N,3V3*%
X90812500Y-53980000D03*
%TO.P,L3,2,2*%
%TO.N,Net-(C46-Pad2)*%
X88687500Y-53980000D03*
%TD*%
D34*
%TO.P,C5,1*%
%TO.N,GND*%
X111730000Y-60750000D03*
%TO.P,C5,2*%
%TO.N,Net-(C15-Pad2)*%
X110770000Y-60750000D03*
%TD*%
D35*
%TO.P,D2,1,1*%
%TO.N,CAN_N*%
X86300000Y-46062500D03*
%TO.P,D2,2,2*%
%TO.N,CAN_P*%
X88200000Y-46062500D03*
%TO.P,D2,3,3*%
%TO.N,GND*%
X87250000Y-47937500D03*
%TD*%
D22*
%TO.P,R19,1*%
%TO.N,Net-(C32-Pad1)*%
X99750000Y-38510000D03*
%TO.P,R19,2*%
%TO.N,DC_5V*%
X99750000Y-37490000D03*
%TD*%
D19*
%TO.P,C51,1*%
%TO.N,GND*%
X103290000Y-60750000D03*
%TO.P,C51,2*%
%TO.N,RUN*%
X104250000Y-60750000D03*
%TD*%
D22*
%TO.P,R17,1*%
%TO.N,Net-(J9-PadB5)*%
X97500000Y-38510000D03*
%TO.P,R17,2*%
%TO.N,GND*%
X97500000Y-37490000D03*
%TD*%
D24*
%TO.P,D3,1,K*%
%TO.N,Net-(C15-Pad2)*%
X111250000Y-52200000D03*
%TO.P,D3,2,A*%
%TO.N,Net-(D3-Pad2)*%
X111250000Y-54300000D03*
%TD*%
D28*
%TO.P,R3,1*%
%TO.N,3V3*%
X90500000Y-45990000D03*
%TO.P,R3,2*%
%TO.N,Net-(C2-Pad2)*%
X90500000Y-47010000D03*
%TD*%
D21*
%TO.P,C1,1*%
%TO.N,GND*%
X87750000Y-50790000D03*
%TO.P,C1,2*%
%TO.N,5V*%
X87750000Y-51750000D03*
%TD*%
D18*
%TO.P,C36,1*%
%TO.N,GND*%
X100500000Y-57250000D03*
%TO.P,C36,2*%
%TO.N,1V1*%
X100500000Y-56290000D03*
%TD*%
D36*
%TO.P,D4,1,K*%
%TO.N,Net-(C19-Pad2)*%
X83250000Y-36100000D03*
%TO.P,D4,2,A*%
%TO.N,DC_IN*%
X83250000Y-39400000D03*
%TD*%
D37*
%TO.P,Q1,1,G*%
%TO.N,Net-(Q1-Pad1)*%
X109312500Y-67450000D03*
%TO.P,Q1,2,S*%
%TO.N,GND*%
X109312500Y-65550000D03*
%TO.P,Q1,3,D*%
%TO.N,Net-(D1-Pad2)*%
X111187500Y-66500000D03*
%TD*%
D20*
%TO.P,R10,1*%
%TO.N,Net-(Q3-Pad4)*%
X83730000Y-67750000D03*
%TO.P,R10,2*%
%TO.N,Net-(R10-Pad2)*%
X84750000Y-67750000D03*
%TD*%
D19*
%TO.P,C10,1*%
%TO.N,GND*%
X79270000Y-60000000D03*
%TO.P,C10,2*%
%TO.N,Net-(C10-Pad2)*%
X80230000Y-60000000D03*
%TD*%
D28*
%TO.P,R13,1*%
%TO.N,GND*%
X101000000Y-37500000D03*
%TO.P,R13,2*%
%TO.N,Net-(J9-PadA5)*%
X101000000Y-38520000D03*
%TD*%
D34*
%TO.P,C14,1*%
%TO.N,GND*%
X83000000Y-62500000D03*
%TO.P,C14,2*%
%TO.N,DC_IN*%
X82040000Y-62500000D03*
%TD*%
D22*
%TO.P,R16,1*%
%TO.N,3V3*%
X95750000Y-50510000D03*
%TO.P,R16,2*%
%TO.N,QSPI_SS*%
X95750000Y-49490000D03*
%TD*%
%TO.P,R2,1*%
%TO.N,Net-(Q1-Pad1)*%
X109750000Y-64260000D03*
%TO.P,R2,2*%
%TO.N,FAN_0*%
X109750000Y-63240000D03*
%TD*%
D25*
%TO.P,R9,1*%
%TO.N,GND*%
X89760000Y-66000000D03*
%TO.P,R9,2*%
%TO.N,Net-(R10-Pad2)*%
X88740000Y-66000000D03*
%TD*%
D34*
%TO.P,C11,1*%
%TO.N,GND*%
X80230000Y-58000000D03*
%TO.P,C11,2*%
%TO.N,Net-(C11-Pad2)*%
X79270000Y-58000000D03*
%TD*%
D21*
%TO.P,C16,1*%
%TO.N,Net-(C16-Pad1)*%
X84250000Y-63270000D03*
%TO.P,C16,2*%
%TO.N,GND*%
X84250000Y-64230000D03*
%TD*%
D38*
%TO.P,U6,1,~{CS}*%
%TO.N,QSPI_SS*%
X95655000Y-47725000D03*
%TO.P,U6,2,DO(IO1)*%
%TO.N,QSPI_SD1*%
X94385000Y-47725000D03*
%TO.P,U6,3,IO2*%
%TO.N,QSPI_SD2*%
X93115000Y-47725000D03*
%TO.P,U6,4,GND*%
%TO.N,GND*%
X91845000Y-47725000D03*
%TO.P,U6,5,DI(IO0)*%
%TO.N,QSPI_SD0*%
X91845000Y-42775000D03*
%TO.P,U6,6,CLK*%
%TO.N,QSPI_SCLK*%
X93115000Y-42775000D03*
%TO.P,U6,7,IO3*%
%TO.N,QSPI_SD3*%
X94385000Y-42775000D03*
%TO.P,U6,8,VCC*%
%TO.N,3V3*%
X95655000Y-42775000D03*
%TD*%
D19*
%TO.P,C23,1*%
%TO.N,GND*%
X90250000Y-40000000D03*
%TO.P,C23,2*%
%TO.N,Net-(C23-Pad2)*%
X91210000Y-40000000D03*
%TD*%
D18*
%TO.P,C28,1*%
%TO.N,GND*%
X97500000Y-36000000D03*
%TO.P,C28,2*%
%TO.N,Net-(C26-Pad2)*%
X97500000Y-35040000D03*
%TD*%
D34*
%TO.P,C18,1*%
%TO.N,GND*%
X87480000Y-74000000D03*
%TO.P,C18,2*%
%TO.N,DC_IN*%
X86520000Y-74000000D03*
%TD*%
D18*
%TO.P,C26,1*%
%TO.N,GND*%
X96500000Y-35980000D03*
%TO.P,C26,2*%
%TO.N,Net-(C26-Pad2)*%
X96500000Y-35020000D03*
%TD*%
%TO.P,C29,1*%
%TO.N,GND*%
X98000000Y-43480000D03*
%TO.P,C29,2*%
%TO.N,3V3*%
X98000000Y-42520000D03*
%TD*%
D22*
%TO.P,R11,1*%
%TO.N,GND*%
X85250000Y-64260000D03*
%TO.P,R11,2*%
%TO.N,Net-(C16-Pad1)*%
X85250000Y-63240000D03*
%TD*%
D19*
%TO.P,C15,1*%
%TO.N,GND*%
X110540000Y-51000000D03*
%TO.P,C15,2*%
%TO.N,Net-(C15-Pad2)*%
X111500000Y-51000000D03*
%TD*%
D25*
%TO.P,R8,1*%
%TO.N,Net-(C10-Pad2)*%
X80260000Y-59000000D03*
%TO.P,R8,2*%
%TO.N,Net-(C11-Pad2)*%
X79240000Y-59000000D03*
%TD*%
D18*
%TO.P,C17,1*%
%TO.N,Net-(C17-Pad1)*%
X84250000Y-53230000D03*
%TO.P,C17,2*%
%TO.N,GND*%
X84250000Y-52270000D03*
%TD*%
D22*
%TO.P,R15,1*%
%TO.N,BOOT_IN*%
X94750000Y-50510000D03*
%TO.P,R15,2*%
%TO.N,QSPI_SS*%
X94750000Y-49490000D03*
%TD*%
D28*
%TO.P,R33,1*%
%TO.N,TH_0*%
X96000000Y-70490000D03*
%TO.P,R33,2*%
%TO.N,Net-(D7-Pad3)*%
X96000000Y-71510000D03*
%TD*%
D25*
%TO.P,R7,1*%
%TO.N,GND*%
X91760000Y-64250000D03*
%TO.P,R7,2*%
%TO.N,HOT_0*%
X90740000Y-64250000D03*
%TD*%
D21*
%TO.P,C37,1*%
%TO.N,GND*%
X98750000Y-45520000D03*
%TO.P,C37,2*%
%TO.N,1V1*%
X98750000Y-46480000D03*
%TD*%
D22*
%TO.P,R30,1*%
%TO.N,PROBE*%
X101000000Y-73010000D03*
%TO.P,R30,2*%
%TO.N,3V3*%
X101000000Y-71990000D03*
%TD*%
D21*
%TO.P,C52,1*%
%TO.N,TH_0*%
X97000000Y-70520000D03*
%TO.P,C52,2*%
%TO.N,GND*%
X97000000Y-71480000D03*
%TD*%
D34*
%TO.P,C50,1*%
%TO.N,5V*%
X79960000Y-66250000D03*
%TO.P,C50,2*%
%TO.N,GND*%
X79000000Y-66250000D03*
%TD*%
D39*
%TO.P,U9,1,A*%
%TO.N,CS_ADXL*%
X94950000Y-66637500D03*
%TO.P,U9,2,B*%
%TO.N,MOSI*%
X94000000Y-66637500D03*
%TO.P,U9,3,GND*%
%TO.N,GND*%
X93050000Y-66637500D03*
%TO.P,U9,4,Y*%
%TO.N,MOSI_2*%
X93050000Y-64362500D03*
%TO.P,U9,5,VCC*%
%TO.N,3V3*%
X94950000Y-64362500D03*
%TD*%
D18*
%TO.P,C19,1*%
%TO.N,GND*%
X81500000Y-36980000D03*
%TO.P,C19,2*%
%TO.N,Net-(C19-Pad2)*%
X81500000Y-36020000D03*
%TD*%
D25*
%TO.P,R6,1*%
%TO.N,Net-(Q2-Pad1)*%
X109510000Y-52000000D03*
%TO.P,R6,2*%
%TO.N,FAN_1*%
X108490000Y-52000000D03*
%TD*%
D34*
%TO.P,C9,1*%
%TO.N,GND*%
X89210000Y-62500000D03*
%TO.P,C9,2*%
%TO.N,5V*%
X88250000Y-62500000D03*
%TD*%
D37*
%TO.P,Q2,1,G*%
%TO.N,Net-(Q2-Pad1)*%
X107562500Y-55450000D03*
%TO.P,Q2,2,S*%
%TO.N,GND*%
X107562500Y-53550000D03*
%TO.P,Q2,3,D*%
%TO.N,Net-(D3-Pad2)*%
X109437500Y-54500000D03*
%TD*%
D40*
%TO.N,MOSI*%
X96750000Y-51750000D03*
%TO.N,STEP_E*%
X93518450Y-54206550D03*
%TO.N,SCK*%
X94000000Y-55000000D03*
%TO.N,GND*%
X97250000Y-66750000D03*
X99250000Y-50000000D03*
X75750000Y-39750000D03*
X101250000Y-61250000D03*
X86250000Y-49250000D03*
X105750000Y-65000000D03*
X94229836Y-37729836D03*
X92000000Y-70750000D03*
X89000000Y-61750000D03*
X100500000Y-50000000D03*
X90250000Y-69000000D03*
X99250000Y-52500000D03*
X90750000Y-48500000D03*
X87500000Y-54500000D03*
X98250000Y-63250000D03*
X83750000Y-62750000D03*
X88500000Y-74750000D03*
X103250000Y-42000000D03*
X96750000Y-37000000D03*
X96000000Y-58000000D03*
X97000000Y-41250000D03*
X98000000Y-52500000D03*
X92750000Y-52500000D03*
X98000000Y-51250000D03*
X113750000Y-44250000D03*
X86750000Y-62500000D03*
X93500000Y-56250000D03*
X98000000Y-50000000D03*
X86000000Y-53250000D03*
X91034016Y-63279956D03*
X99250000Y-51250000D03*
X80750000Y-58250000D03*
X112685815Y-41334185D03*
X101750000Y-43500000D03*
X99750000Y-43000000D03*
X113000000Y-72250000D03*
X104500000Y-37250000D03*
X100500000Y-52500000D03*
X112750000Y-60250000D03*
X104000000Y-64500000D03*
X97250000Y-44750000D03*
X109250000Y-60750000D03*
X108750000Y-74000000D03*
X86250000Y-52500000D03*
X106250000Y-54500000D03*
X100500000Y-51250000D03*
X99500000Y-58250000D03*
X90500000Y-41000000D03*
X95750000Y-66750000D03*
X106500000Y-49750000D03*
X103250000Y-58750000D03*
X81000000Y-47000000D03*
D41*
%TO.N,5V*%
X87000000Y-53500000D03*
D40*
%TO.N,Net-(C2-Pad2)*%
X90500000Y-47750000D03*
%TO.N,CAN_P*%
X86250000Y-48250000D03*
X104750000Y-62250000D03*
%TO.N,CAN_N*%
X98500000Y-61750000D03*
%TO.N,DC_IN*%
X80750000Y-64750000D03*
%TO.N,Net-(C7-Pad1)*%
X79000000Y-62250000D03*
%TO.N,Net-(C7-Pad2)*%
X79754947Y-62090207D03*
%TO.N,3V3*%
X93500000Y-53000000D03*
X98500000Y-59250000D03*
X97000000Y-50500000D03*
X91500000Y-74750000D03*
X93750000Y-62250000D03*
X100250000Y-48750000D03*
X99250000Y-53750000D03*
X110500000Y-44250000D03*
X102000000Y-72500000D03*
X86500000Y-70500000D03*
X88750000Y-52500000D03*
X92750000Y-69000000D03*
X91750000Y-54750000D03*
X91750000Y-45750000D03*
%TO.N,Net-(C10-Pad2)*%
X80750000Y-59500000D03*
%TO.N,Net-(C11-Pad2)*%
X78475152Y-60067267D03*
%TO.N,Net-(C16-Pad1)*%
X84500000Y-62500000D03*
%TO.N,Net-(C17-Pad1)*%
X84250000Y-53800000D03*
%TO.N,1V1*%
X101000000Y-48500000D03*
X100000000Y-53750000D03*
X99279679Y-48730893D03*
%TO.N,Net-(C46-Pad2)*%
X89250000Y-55000000D03*
%TO.N,RTDIN_P*%
X102388200Y-69111800D03*
X90500000Y-62750000D03*
%TO.N,RTDIN_N*%
X91750000Y-62750000D03*
X97750000Y-69524500D03*
X106250000Y-68500000D03*
X99250000Y-71000000D03*
X105750000Y-69750000D03*
%TO.N,RUN*%
X106250000Y-60750000D03*
%TO.N,TH_0*%
X98000000Y-71000000D03*
X105000000Y-49250000D03*
%TO.N,MOTOR_A2*%
X83899450Y-61991889D03*
%TO.N,MOTOR_A1*%
X85250000Y-62500000D03*
%TO.N,Net-(J8-Pad3)*%
X84750000Y-54500000D03*
%TO.N,Net-(J8-Pad4)*%
X83824500Y-54500000D03*
%TO.N,Net-(J9-PadB5)*%
X97500000Y-39000000D03*
%TO.N,Net-(J9-PadA5)*%
X100500000Y-39000000D03*
%TO.N,FORCE_P*%
X93750000Y-73500000D03*
%TO.N,RGB*%
X77750000Y-68750000D03*
X103250000Y-56000000D03*
%TO.N,SERVO*%
X95750000Y-56250000D03*
X97500000Y-60500000D03*
%TO.N,PROBE*%
X95750000Y-55500000D03*
X95750000Y-61750000D03*
%TO.N,AVDD*%
X102500000Y-47250000D03*
%TO.N,Net-(Q3-Pad4)*%
X83000000Y-68750000D03*
%TO.N,FAN_0*%
X105000000Y-51250000D03*
%TO.N,FAN_1*%
X107750000Y-51000000D03*
%TO.N,HOT_0*%
X97750000Y-53750000D03*
%TO.N,Net-(R10-Pad2)*%
X89034157Y-67697062D03*
X87110940Y-69333590D03*
%TO.N,QSPI_SS*%
X96250000Y-48000000D03*
%TO.N,SCK*%
X94250000Y-68750000D03*
X94750000Y-59750000D03*
X88000000Y-61750000D03*
%TO.N,MOSI*%
X88500000Y-60000000D03*
X93000000Y-62500000D03*
X94750000Y-61000000D03*
%TO.N,Net-(R26-Pad2)*%
X89500000Y-56250000D03*
X97500000Y-65250000D03*
%TO.N,MOSI_2*%
X91250000Y-65250000D03*
%TO.N,CS_ADXL*%
X102250000Y-55750000D03*
X96750000Y-65500000D03*
X94500000Y-62500000D03*
%TO.N,ISENSOR*%
X88250000Y-59250000D03*
X106250000Y-66500000D03*
%TO.N,CS_E*%
X87500000Y-60750000D03*
X92750000Y-53500000D03*
%TO.N,STEP_E*%
X87750000Y-58500000D03*
%TO.N,DIR_E*%
X87750000Y-57750000D03*
X88000000Y-55250000D03*
%TO.N,DIAG1_E*%
X92750000Y-51500000D03*
X81000000Y-52750000D03*
%TO.N,EN_E*%
X80750000Y-52000000D03*
X93500000Y-50000000D03*
%TO.N,QSPI_SD1*%
X97000000Y-48500000D03*
%TO.N,QSPI_SD2*%
X97250000Y-49750000D03*
%TO.N,QSPI_SD0*%
X98000000Y-49220003D03*
%TO.N,QSPI_SCLK*%
X98750000Y-49250000D03*
%TO.N,QSPI_SD3*%
X94500000Y-44250000D03*
%TO.N,CAN_OUT*%
X101250000Y-62250000D03*
%TO.N,BOOT_IN*%
X97500000Y-59750000D03*
%TO.N,THO_IN*%
X99000000Y-72250000D03*
%TD*%
D42*
%TO.N,MOSI*%
X93818781Y-54562500D02*
X94000000Y-54562500D01*
X93631281Y-54750000D02*
X93818781Y-54562500D01*
X96750000Y-53500000D02*
X96750000Y-51750000D01*
X93500000Y-54750000D02*
X93631281Y-54750000D01*
X93000000Y-55500000D02*
X93000000Y-55000000D01*
X93000000Y-55000000D02*
X93250000Y-54750000D01*
X93250000Y-54750000D02*
X93500000Y-54750000D01*
X94000000Y-54562500D02*
X95687500Y-54562500D01*
X95687500Y-54562500D02*
X96750000Y-53500000D01*
%TO.N,STEP_E*%
X93475000Y-54250000D02*
X93518450Y-54206550D01*
X93000000Y-54250000D02*
X93475000Y-54250000D01*
%TO.N,SCK*%
X94750000Y-55750000D02*
X94000000Y-55000000D01*
X94750000Y-59750000D02*
X94750000Y-55750000D01*
%TO.N,GND*%
X80000000Y-60500000D02*
X80750000Y-60500000D01*
X94387500Y-71000000D02*
X94187500Y-70800000D01*
X89210000Y-62500000D02*
X89210000Y-61960000D01*
X95979673Y-35980000D02*
X96500000Y-35980000D01*
X96500000Y-35980000D02*
X97480000Y-35980000D01*
X89700000Y-65940000D02*
X89700000Y-64750000D01*
X97500000Y-37490000D02*
X97240000Y-37490000D01*
X102750000Y-63250000D02*
X104000000Y-64500000D01*
X89760000Y-66000000D02*
X89760000Y-68510000D01*
X99750000Y-43000000D02*
X101250000Y-43000000D01*
X112750000Y-60250000D02*
X112230000Y-60250000D01*
X103290000Y-60750000D02*
X104000000Y-61460000D01*
X93050000Y-66637500D02*
X93050000Y-66831540D01*
X104000000Y-61460000D02*
X104000000Y-64500000D01*
X109510000Y-50990000D02*
X108520000Y-50000000D01*
X86250000Y-52500000D02*
X86250000Y-53000000D01*
X91760000Y-64024854D02*
X91034016Y-63298870D01*
X92887500Y-37750000D02*
X94209673Y-37750000D01*
X107500000Y-62500000D02*
X109250000Y-60750000D01*
X107500000Y-63250000D02*
X107500000Y-62500000D01*
X88230000Y-74750000D02*
X87480000Y-74000000D01*
X108500000Y-64250000D02*
X107500000Y-63250000D01*
X97240000Y-37490000D02*
X96750000Y-37000000D01*
X86250000Y-52290000D02*
X87750000Y-50790000D01*
X97250000Y-67197100D02*
X97250000Y-66750000D01*
X88230000Y-74750000D02*
X88500000Y-74750000D01*
X92750000Y-52500000D02*
X91040000Y-50790000D01*
X83500000Y-62500000D02*
X83750000Y-62750000D01*
X91040000Y-50790000D02*
X87750000Y-50790000D01*
X80230000Y-58000000D02*
X80500000Y-58000000D01*
X101250000Y-43000000D02*
X101750000Y-43500000D01*
X91010500Y-46740173D02*
X91010500Y-48239500D01*
X96520000Y-71000000D02*
X94387500Y-71000000D01*
X79989500Y-60489500D02*
X80000000Y-60500000D01*
X81250000Y-60000000D02*
X81250000Y-58750000D01*
X97480000Y-35980000D02*
X97500000Y-36000000D01*
X91034016Y-63298870D02*
X91034016Y-63279956D01*
X91070000Y-48500000D02*
X91845000Y-47725000D01*
X81250000Y-58750000D02*
X80750000Y-58250000D01*
X92050000Y-70800000D02*
X92000000Y-70750000D01*
X79000000Y-66500000D02*
X78000000Y-67500000D01*
X97500000Y-36000000D02*
X98500000Y-36000000D01*
X80750000Y-60500000D02*
X81250000Y-60000000D01*
X112230000Y-60250000D02*
X111730000Y-60750000D01*
X86250000Y-49250000D02*
X87250000Y-48250000D01*
X89700000Y-64750000D02*
X89348000Y-64750000D01*
X83000000Y-62500000D02*
X83500000Y-62500000D01*
X101250000Y-61250000D02*
X102790000Y-61250000D01*
X90029500Y-46549500D02*
X90819827Y-46549500D01*
X89210000Y-64612000D02*
X89210000Y-62500000D01*
X96500000Y-67947100D02*
X97250000Y-67197100D01*
X106500000Y-64250000D02*
X108750000Y-64250000D01*
X86250000Y-52500000D02*
X86250000Y-52290000D01*
X97000000Y-71480000D02*
X96520000Y-71000000D01*
X95750000Y-66750000D02*
X97250000Y-66750000D01*
X98250000Y-63250000D02*
X102750000Y-63250000D01*
X91760000Y-64250000D02*
X91760000Y-64024854D01*
X108750000Y-64250000D02*
X108500000Y-64250000D01*
X89348000Y-64750000D02*
X89210000Y-64612000D01*
X94187500Y-70800000D02*
X92050000Y-70800000D01*
X93050000Y-66831540D02*
X94165560Y-67947100D01*
X94165560Y-67947100D02*
X96500000Y-67947100D01*
X105750000Y-65000000D02*
X106500000Y-64250000D01*
X79000000Y-66250000D02*
X79000000Y-66500000D01*
X91010500Y-48239500D02*
X90750000Y-48500000D01*
X89500000Y-46020000D02*
X90029500Y-46549500D01*
X102790000Y-61250000D02*
X103290000Y-60750000D01*
X89210000Y-61960000D02*
X89000000Y-61750000D01*
X94209673Y-37750000D02*
X94229836Y-37729836D01*
X79270000Y-60000000D02*
X79759500Y-60489500D01*
X90750000Y-48500000D02*
X91070000Y-48500000D01*
X94229836Y-37729836D02*
X95979673Y-35980000D01*
X80500000Y-58000000D02*
X80750000Y-58250000D01*
X99500000Y-58250000D02*
X99500000Y-57230000D01*
X79759500Y-60489500D02*
X79989500Y-60489500D01*
X90819827Y-46549500D02*
X91010500Y-46740173D01*
X86250000Y-53000000D02*
X86000000Y-53250000D01*
X109510000Y-51000000D02*
X109510000Y-50990000D01*
X87250000Y-48250000D02*
X87250000Y-47937500D01*
X89760000Y-66000000D02*
X89700000Y-65940000D01*
X89760000Y-68510000D02*
X90250000Y-69000000D01*
D43*
%TO.N,5V*%
X87000000Y-53500000D02*
X87000000Y-52500000D01*
X104140000Y-43540000D02*
X104140000Y-54647081D01*
X105600000Y-42450000D02*
X105600000Y-40165000D01*
X105230000Y-42450000D02*
X104140000Y-43540000D01*
X104750000Y-73542894D02*
X100047106Y-68840000D01*
X100047106Y-68840000D02*
X97226619Y-68840000D01*
X105600000Y-42450000D02*
X105230000Y-42450000D01*
X79960000Y-66250000D02*
X79960000Y-66790000D01*
X108695000Y-58000000D02*
X108695000Y-59488381D01*
X88300000Y-63750000D02*
X87500000Y-63750000D01*
X108695000Y-59488381D02*
X104750000Y-63433381D01*
X87000000Y-53500000D02*
X86000000Y-54500000D01*
X87000000Y-52500000D02*
X87750000Y-51750000D01*
X97226619Y-68840000D02*
X96316619Y-69750000D01*
X105600000Y-40165000D02*
X109265000Y-36500000D01*
X86000000Y-54500000D02*
X86000000Y-60750000D01*
X85921457Y-66250000D02*
X85000000Y-66250000D01*
X86000000Y-60750000D02*
X87750000Y-62500000D01*
X87750000Y-62500000D02*
X88250000Y-62500000D01*
X104750000Y-74250000D02*
X104750000Y-73542894D01*
X87500000Y-63750000D02*
X85000000Y-66250000D01*
X88300000Y-63750000D02*
X88300000Y-62550000D01*
X85000000Y-66250000D02*
X79960000Y-66250000D01*
X88300000Y-62550000D02*
X88250000Y-62500000D01*
X107492919Y-58000000D02*
X108695000Y-58000000D01*
X79960000Y-66790000D02*
X79250000Y-67500000D01*
X89421457Y-69750000D02*
X85921457Y-66250000D01*
X96316619Y-69750000D02*
X89421457Y-69750000D01*
X104140000Y-54647081D02*
X107492919Y-58000000D01*
X104750000Y-63433381D02*
X104750000Y-74250000D01*
D42*
%TO.N,Net-(C2-Pad2)*%
X90500000Y-47010000D02*
X89530000Y-47010000D01*
X90500000Y-47010000D02*
X90500000Y-47750000D01*
X89530000Y-47010000D02*
X89500000Y-46980000D01*
D44*
%TO.N,CAN_P*%
X88200000Y-46062500D02*
X88200000Y-46700000D01*
X86827400Y-42507600D02*
X89257600Y-42507600D01*
X89257600Y-42507600D02*
X89827400Y-43077400D01*
X85750000Y-43585000D02*
X86827400Y-42507600D01*
X89827400Y-43077400D02*
X89827400Y-44435100D01*
X88200000Y-46700000D02*
X89500000Y-48000000D01*
X89827400Y-44435100D02*
X88200000Y-46062500D01*
D45*
%TO.N,CAN_N*%
X98523200Y-61726800D02*
X98500000Y-61750000D01*
X102486800Y-61726800D02*
X98523200Y-61726800D01*
X103010000Y-62250000D02*
X102486800Y-61726800D01*
D44*
X86300000Y-46700000D02*
X85000000Y-48000000D01*
X88750000Y-43612500D02*
X86300000Y-46062500D01*
X88750000Y-43585000D02*
X88750000Y-43612500D01*
X86300000Y-46062500D02*
X86300000Y-46700000D01*
D46*
%TO.N,DC_IN*%
X86000000Y-72250000D02*
X86000000Y-74550000D01*
D47*
X76500000Y-43500000D02*
X75450000Y-44550000D01*
D48*
X86950000Y-75500000D02*
X86000000Y-74550000D01*
D46*
X85750000Y-74800000D02*
X78000000Y-74800000D01*
D48*
X111181802Y-75500000D02*
X86950000Y-75500000D01*
D46*
X78000000Y-74800000D02*
X74700000Y-71500000D01*
D48*
X82040000Y-62500000D02*
X82040000Y-63460000D01*
X113775000Y-58000000D02*
X115050000Y-59275000D01*
X115050000Y-71631802D02*
X111181802Y-75500000D01*
D47*
X75450000Y-44550000D02*
X75450000Y-49950000D01*
D48*
X82040000Y-63460000D02*
X80750000Y-64750000D01*
D47*
X82975970Y-40585000D02*
X80060970Y-43500000D01*
D48*
X115050000Y-59275000D02*
X115050000Y-71631802D01*
D47*
X79000000Y-43500000D02*
X76500000Y-43500000D01*
X80060970Y-43500000D02*
X79000000Y-43500000D01*
D46*
X74700000Y-71500000D02*
X74700000Y-50700000D01*
X86000000Y-74550000D02*
X85750000Y-74800000D01*
X74700000Y-50700000D02*
X75450000Y-49950000D01*
D47*
X85750000Y-40585000D02*
X82975970Y-40585000D01*
D42*
%TO.N,Net-(C7-Pad1)*%
X79270000Y-61980000D02*
X79270000Y-61000000D01*
X79000000Y-62250000D02*
X79270000Y-61980000D01*
%TO.N,Net-(C7-Pad2)*%
X79754947Y-62090207D02*
X80230000Y-61615154D01*
X80230000Y-61615154D02*
X80230000Y-61000000D01*
%TO.N,3V3*%
X102000000Y-72500000D02*
X101510000Y-72500000D01*
X90500000Y-42663460D02*
X91553960Y-41609500D01*
X94950000Y-64090790D02*
X93750000Y-62890790D01*
X98000000Y-42520000D02*
X97000000Y-42520000D01*
X94187500Y-72700000D02*
X93550000Y-72700000D01*
X101510000Y-72500000D02*
X101000000Y-71990000D01*
X88750000Y-52500000D02*
X92109210Y-52500000D01*
X111000000Y-44750000D02*
X110500000Y-44250000D01*
X87010000Y-69990000D02*
X86500000Y-70500000D01*
X100212500Y-46000000D02*
X100212500Y-48712500D01*
X99250000Y-53750000D02*
X99500000Y-54000000D01*
X97000000Y-42520000D02*
X95910000Y-42520000D01*
X90980000Y-53980000D02*
X90812500Y-53980000D01*
X91553960Y-41609500D02*
X94859500Y-41609500D01*
X92109210Y-52500000D02*
X92609210Y-53000000D01*
X109500000Y-49980000D02*
X109480000Y-50000000D01*
X90500000Y-45990000D02*
X90500000Y-42663460D01*
X93500000Y-53368719D02*
X92888719Y-53980000D01*
X98500000Y-59250000D02*
X98500000Y-57270000D01*
X111900000Y-44750000D02*
X111000000Y-44750000D01*
X109500000Y-49000000D02*
X109500000Y-47150000D01*
X100212500Y-44732500D02*
X98000000Y-42520000D01*
X91750000Y-54750000D02*
X90980000Y-53980000D01*
X109500000Y-47150000D02*
X111900000Y-44750000D01*
X95760000Y-50500000D02*
X95750000Y-50510000D01*
X93500000Y-53000000D02*
X93500000Y-53368719D01*
X99500000Y-54000000D02*
X99500000Y-56270000D01*
X100212500Y-48712500D02*
X100250000Y-48750000D01*
X92609210Y-53000000D02*
X93500000Y-53000000D01*
X94859500Y-41609500D02*
X95655000Y-42405000D01*
X97000000Y-50500000D02*
X95760000Y-50500000D01*
X100212500Y-46000000D02*
X100212500Y-44732500D01*
X92888719Y-53980000D02*
X90812500Y-53980000D01*
X87500000Y-69990000D02*
X87010000Y-69990000D01*
X94187500Y-72700000D02*
X100290000Y-72700000D01*
X95910000Y-42520000D02*
X95655000Y-42775000D01*
X91750000Y-45750000D02*
X90740000Y-45750000D01*
X94950000Y-64362500D02*
X94950000Y-64090790D01*
X100290000Y-72700000D02*
X101000000Y-71990000D01*
X109500000Y-49000000D02*
X109500000Y-49980000D01*
X90740000Y-45750000D02*
X90500000Y-45990000D01*
X95655000Y-42405000D02*
X95655000Y-42775000D01*
X111900000Y-44750000D02*
X105600000Y-44750000D01*
X93550000Y-72700000D02*
X91500000Y-74750000D01*
X93750000Y-62890790D02*
X93750000Y-62250000D01*
X98500000Y-57270000D02*
X99500000Y-56270000D01*
%TO.N,Net-(C10-Pad2)*%
X80260000Y-59000000D02*
X80260000Y-59510000D01*
X80270000Y-59500000D02*
X80750000Y-59500000D01*
X80260000Y-59510000D02*
X80270000Y-59500000D01*
X80260000Y-59970000D02*
X80230000Y-60000000D01*
X80260000Y-59510000D02*
X80260000Y-59970000D01*
%TO.N,Net-(C11-Pad2)*%
X79240000Y-59252602D02*
X79240000Y-59000000D01*
X78475152Y-60017450D02*
X79240000Y-59252602D01*
X79270000Y-58000000D02*
X79270000Y-58970000D01*
X79270000Y-58970000D02*
X79240000Y-59000000D01*
X78475152Y-60067267D02*
X78475152Y-60017450D01*
%TO.N,Net-(C15-Pad2)*%
X110770000Y-60750000D02*
X111250000Y-61230000D01*
X111235000Y-58000000D02*
X111235000Y-60285000D01*
X111250000Y-61950000D02*
X112950000Y-61950000D01*
X114500000Y-53000000D02*
X113250000Y-51750000D01*
X112950000Y-61950000D02*
X113250000Y-62250000D01*
X114500000Y-55000000D02*
X114235000Y-55000000D01*
X111250000Y-52200000D02*
X111250000Y-51250000D01*
X111250000Y-61230000D02*
X111250000Y-61950000D01*
X114235000Y-55000000D02*
X111235000Y-58000000D01*
X111235000Y-60285000D02*
X110770000Y-60750000D01*
X111250000Y-51250000D02*
X111500000Y-51000000D01*
X112500000Y-51000000D02*
X113250000Y-51750000D01*
X112500000Y-51000000D02*
X111500000Y-51000000D01*
X114500000Y-53000000D02*
X114500000Y-55000000D01*
%TO.N,Net-(C16-Pad1)*%
X84500000Y-62500000D02*
X84500000Y-63020000D01*
X84250000Y-63270000D02*
X85220000Y-63270000D01*
X84500000Y-63020000D02*
X84250000Y-63270000D01*
X85220000Y-63270000D02*
X85250000Y-63240000D01*
%TO.N,Net-(C17-Pad1)*%
X84250000Y-53230000D02*
X85220000Y-53230000D01*
X85220000Y-53230000D02*
X85250000Y-53260000D01*
X84250000Y-53800000D02*
X84250000Y-53230000D01*
%TO.N,Net-(C19-Pad2)*%
X80500000Y-36040000D02*
X81480000Y-36040000D01*
X87990000Y-39000000D02*
X89240000Y-37750000D01*
X81580000Y-36100000D02*
X83250000Y-36100000D01*
X85650000Y-38500000D02*
X87490000Y-38500000D01*
X83250000Y-36100000D02*
X85650000Y-38500000D01*
X81500000Y-36020000D02*
X81580000Y-36100000D01*
X87490000Y-38500000D02*
X87990000Y-39000000D01*
X89240000Y-37750000D02*
X90612500Y-37750000D01*
X81480000Y-36040000D02*
X81500000Y-36020000D01*
%TO.N,Net-(C23-Pad2)*%
X89010000Y-39000000D02*
X90312500Y-39000000D01*
X91210000Y-39297500D02*
X91210000Y-40000000D01*
X90612500Y-38700000D02*
X91210000Y-39297500D01*
X90312500Y-39000000D02*
X90612500Y-38700000D01*
D43*
%TO.N,Net-(C25-Pad1)*%
X92942500Y-34730000D02*
X91770000Y-34730000D01*
X91770000Y-34730000D02*
X91270000Y-35230000D01*
X93462500Y-35250000D02*
X92942500Y-34730000D01*
X91270000Y-35230000D02*
X91270000Y-35500000D01*
X91270000Y-36142500D02*
X90612500Y-36800000D01*
X91270000Y-35500000D02*
X91270000Y-36142500D01*
D42*
%TO.N,Net-(C25-Pad2)*%
X92230000Y-36142500D02*
X92887500Y-36800000D01*
X92230000Y-35500000D02*
X92230000Y-36142500D01*
D43*
%TO.N,Net-(C26-Pad2)*%
X95267500Y-35020000D02*
X96500000Y-35020000D01*
X96500000Y-35020000D02*
X97480000Y-35020000D01*
X97480000Y-35020000D02*
X97500000Y-35040000D01*
X99937500Y-35500000D02*
X99477500Y-35040000D01*
X97500000Y-35040000D02*
X98500000Y-35040000D01*
X99477500Y-35040000D02*
X98500000Y-35040000D01*
X95037500Y-35250000D02*
X95267500Y-35020000D01*
D42*
%TO.N,Net-(C32-Pad1)*%
X96240000Y-36500000D02*
X95240000Y-37500000D01*
X95240000Y-37500000D02*
X94040000Y-38700000D01*
X98750000Y-38480000D02*
X98010500Y-37740500D01*
X94040000Y-38700000D02*
X92887500Y-38700000D01*
X98780000Y-38510000D02*
X98750000Y-38480000D01*
X97750000Y-36500000D02*
X96240000Y-36500000D01*
X98010500Y-36760500D02*
X97750000Y-36500000D01*
X99750000Y-38510000D02*
X98780000Y-38510000D01*
X98010500Y-37740500D02*
X98010500Y-36760500D01*
%TO.N,1V1*%
X99279679Y-48779679D02*
X99750000Y-49250000D01*
X98750000Y-46480000D02*
X99279679Y-47009679D01*
X101250000Y-52500000D02*
X100000000Y-53750000D01*
X100000000Y-55790000D02*
X100500000Y-56290000D01*
X99279679Y-48730893D02*
X99279679Y-48779679D01*
X100000000Y-53750000D02*
X100000000Y-55790000D01*
X99750000Y-49250000D02*
X101000000Y-49250000D01*
X99279679Y-47009679D02*
X99279679Y-48730893D01*
X101000000Y-48500000D02*
X101000000Y-49250000D01*
X101000000Y-49250000D02*
X101250000Y-49500000D01*
X101250000Y-49500000D02*
X101250000Y-52500000D01*
%TO.N,Net-(C46-Pad2)*%
X89250000Y-55000000D02*
X89250000Y-54542500D01*
X89250000Y-54542500D02*
X88687500Y-53980000D01*
D45*
%TO.N,RTDIN_P*%
X91750600Y-68213800D02*
X101490200Y-68213800D01*
X90500000Y-65288287D02*
X90500000Y-66963200D01*
X90500000Y-66963200D02*
X91750600Y-68213800D01*
X91213200Y-64575087D02*
X90500000Y-65288287D01*
X91213200Y-63924913D02*
X91213200Y-64575087D01*
X90809970Y-63726800D02*
X91015087Y-63726800D01*
X91015087Y-63726800D02*
X91213200Y-63924913D01*
X90500000Y-63416830D02*
X90809970Y-63726800D01*
X90500000Y-62750000D02*
X90500000Y-63416830D01*
X101490200Y-68213800D02*
X102388200Y-69111800D01*
%TO.N,RTDIN_N*%
X97750000Y-69524500D02*
X99225500Y-71000000D01*
X105750000Y-69750000D02*
X105750000Y-69000000D01*
X99225500Y-71000000D02*
X99250000Y-71000000D01*
X105750000Y-69000000D02*
X106250000Y-68500000D01*
D42*
%TO.N,RUN*%
X104250000Y-60750000D02*
X106250000Y-60750000D01*
%TO.N,TH_0*%
X96970000Y-70490000D02*
X97000000Y-70520000D01*
X97000000Y-70520000D02*
X97520000Y-70520000D01*
X96000000Y-70490000D02*
X96970000Y-70490000D01*
X97520000Y-70520000D02*
X98000000Y-71000000D01*
%TO.N,Net-(D1-Pad2)*%
X111250000Y-66437500D02*
X111187500Y-66500000D01*
X111250000Y-64050000D02*
X112550000Y-64050000D01*
X112550000Y-64050000D02*
X113250000Y-64750000D01*
X111250000Y-64050000D02*
X111250000Y-66437500D01*
%TO.N,Net-(D3-Pad2)*%
X113250000Y-54250000D02*
X111300000Y-54250000D01*
X111300000Y-54250000D02*
X111250000Y-54300000D01*
X109437500Y-54500000D02*
X109637500Y-54300000D01*
X109637500Y-54300000D02*
X111250000Y-54300000D01*
%TO.N,Net-(D7-Pad3)*%
X88500000Y-73010000D02*
X89260000Y-72250000D01*
X92312500Y-71750000D02*
X95760000Y-71750000D01*
X95760000Y-71750000D02*
X96000000Y-71510000D01*
X89260000Y-72250000D02*
X91812500Y-72250000D01*
X91812500Y-72250000D02*
X92312500Y-71750000D01*
D43*
%TO.N,DC_5V*%
X98750000Y-37520000D02*
X99720000Y-37520000D01*
X101000000Y-36750000D02*
X102062500Y-35687500D01*
X100000000Y-36750000D02*
X101000000Y-36750000D01*
X109914405Y-34609405D02*
X102953095Y-34609405D01*
X99750000Y-37490000D02*
X99750000Y-37000000D01*
X102953095Y-34609405D02*
X102062500Y-35500000D01*
X99750000Y-37000000D02*
X100000000Y-36750000D01*
X99720000Y-37520000D02*
X99750000Y-37490000D01*
X111805000Y-36500000D02*
X109914405Y-34609405D01*
X102062500Y-35687500D02*
X102062500Y-35500000D01*
D42*
%TO.N,MOTOR_A2*%
X83899450Y-60809015D02*
X80090435Y-57000000D01*
X78750000Y-57000000D02*
X78000000Y-56250000D01*
X83899450Y-61991889D02*
X83899450Y-60809015D01*
X80090435Y-57000000D02*
X78750000Y-57000000D01*
%TO.N,MOTOR_A1*%
X77625965Y-55347000D02*
X76758000Y-56214965D01*
X85250000Y-62500000D02*
X85250000Y-61800355D01*
X78796645Y-55347000D02*
X77625965Y-55347000D01*
X76758000Y-57508000D02*
X78000000Y-58750000D01*
X85250000Y-61800355D02*
X78796645Y-55347000D01*
X76758000Y-56214965D02*
X76758000Y-57508000D01*
%TO.N,Net-(J8-Pad3)*%
X76754000Y-61250000D02*
X78000000Y-61250000D01*
X83643281Y-54937500D02*
X83459781Y-54754000D01*
X83459781Y-54754000D02*
X77496000Y-54754000D01*
X77496000Y-54754000D02*
X76504000Y-55746000D01*
X76504000Y-61000000D02*
X76754000Y-61250000D01*
X84312500Y-54937500D02*
X83643281Y-54937500D01*
X84750000Y-54500000D02*
X84312500Y-54937500D01*
X76504000Y-55746000D02*
X76504000Y-61000000D01*
%TO.N,Net-(J8-Pad4)*%
X83824500Y-54500000D02*
X77250000Y-54500000D01*
X77250000Y-54500000D02*
X76250000Y-55500000D01*
X76500000Y-63750000D02*
X78000000Y-63750000D01*
X76250000Y-55500000D02*
X76250000Y-63500000D01*
X76250000Y-63500000D02*
X76500000Y-63750000D01*
%TO.N,Net-(J9-PadB5)*%
X97500000Y-39000000D02*
X97500000Y-38510000D01*
%TO.N,Net-(J9-PadA5)*%
X100520000Y-39000000D02*
X101000000Y-38520000D01*
X100500000Y-39000000D02*
X100520000Y-39000000D01*
D45*
%TO.N,FORCE_P*%
X93750000Y-73500000D02*
X97375000Y-73500000D01*
X97375000Y-73500000D02*
X98125000Y-74250000D01*
D42*
%TO.N,RGB*%
X77750000Y-68500000D02*
X77750000Y-68750000D01*
X76750000Y-67500000D02*
X77750000Y-68500000D01*
%TO.N,SERVO*%
X95312500Y-56687500D02*
X95750000Y-56250000D01*
X95440640Y-57690640D02*
X95312500Y-57562500D01*
X95312500Y-57818781D02*
X95440640Y-57690640D01*
X95312500Y-58181219D02*
X95312500Y-57818781D01*
X97500000Y-60368719D02*
X95312500Y-58181219D01*
X97500000Y-60500000D02*
X97500000Y-60368719D01*
X95312500Y-57562500D02*
X95312500Y-56687500D01*
%TO.N,PROBE*%
X95058500Y-56191500D02*
X95750000Y-55500000D01*
X95750000Y-60000000D02*
X95058500Y-59308500D01*
X101000000Y-74250000D02*
X101000000Y-73010000D01*
X95058500Y-59308500D02*
X95058500Y-56191500D01*
X95750000Y-61750000D02*
X95750000Y-60000000D01*
%TO.N,Net-(J17-Pad2)*%
X88510000Y-71000000D02*
X90000000Y-71000000D01*
X88500000Y-71990000D02*
X88500000Y-71010000D01*
X87500000Y-71010000D02*
X88500000Y-71010000D01*
X88500000Y-71010000D02*
X88510000Y-71000000D01*
%TO.N,AVDD*%
X101787500Y-46000000D02*
X101787500Y-46537500D01*
X101787500Y-46537500D02*
X102500000Y-47250000D01*
%TO.N,Net-(Q1-Pad1)*%
X109312500Y-67450000D02*
X110240500Y-66522000D01*
X110240500Y-64750500D02*
X109750000Y-64260000D01*
X110240500Y-66522000D02*
X110240500Y-64750500D01*
%TO.N,Net-(Q2-Pad1)*%
X109510000Y-52990000D02*
X107562500Y-54937500D01*
X107562500Y-54937500D02*
X107562500Y-55450000D01*
X109510000Y-52000000D02*
X109510000Y-52990000D01*
%TO.N,Net-(Q3-Pad4)*%
X83000000Y-68750000D02*
X83730000Y-68020000D01*
X83730000Y-68020000D02*
X83730000Y-67750000D01*
%TO.N,FAN_0*%
X110000000Y-58750000D02*
X109750000Y-59000000D01*
X105000000Y-51250000D02*
X104799500Y-51450500D01*
X109750000Y-63240000D02*
X108760000Y-63240000D01*
X109500000Y-56750000D02*
X110000000Y-57250000D01*
X104799500Y-51450500D02*
X104799500Y-54549500D01*
X107000000Y-56750000D02*
X109500000Y-56750000D01*
X110000000Y-57250000D02*
X110000000Y-58750000D01*
X109750000Y-59000000D02*
X109750000Y-63240000D01*
X104799500Y-54549500D02*
X107000000Y-56750000D01*
X108760000Y-63240000D02*
X108750000Y-63230000D01*
%TO.N,FAN_1*%
X108490000Y-51000000D02*
X108490000Y-52000000D01*
X108490000Y-51000000D02*
X107750000Y-51000000D01*
%TO.N,HOT_0*%
X91250000Y-62250000D02*
X91742000Y-61758000D01*
X90381281Y-62250000D02*
X91250000Y-62250000D01*
X98000000Y-60640790D02*
X98000000Y-54000000D01*
X90062500Y-62568781D02*
X90381281Y-62250000D01*
X95568781Y-62187500D02*
X96453290Y-62187500D01*
X91742000Y-61758000D02*
X95139281Y-61758000D01*
X90740000Y-64034000D02*
X90062500Y-63356500D01*
X90062500Y-63356500D02*
X90062500Y-62568781D01*
X96453290Y-62187500D02*
X98000000Y-60640790D01*
X90740000Y-64250000D02*
X90740000Y-64034000D01*
X98000000Y-54000000D02*
X97750000Y-53750000D01*
X95139281Y-61758000D02*
X95568781Y-62187500D01*
X90740000Y-64250000D02*
X89700000Y-64250000D01*
%TO.N,Net-(R10-Pad2)*%
X89034157Y-66294157D02*
X89034157Y-67697062D01*
X88300000Y-65560000D02*
X88740000Y-66000000D01*
X88300000Y-64750000D02*
X88300000Y-65560000D01*
X86333590Y-69333590D02*
X84750000Y-67750000D01*
X88740000Y-66000000D02*
X89034157Y-66294157D01*
X87110940Y-69333590D02*
X86333590Y-69333590D01*
%TO.N,QSPI_SS*%
X94093960Y-46559500D02*
X93750000Y-46903460D01*
X93750000Y-46903460D02*
X93750000Y-49000000D01*
X95750000Y-49490000D02*
X94750000Y-49490000D01*
X94240000Y-49490000D02*
X94750000Y-49490000D01*
X95930000Y-48000000D02*
X95655000Y-47725000D01*
X95655000Y-47725000D02*
X95655000Y-47538460D01*
X94676040Y-46559500D02*
X94093960Y-46559500D01*
X96250000Y-48000000D02*
X95930000Y-48000000D01*
X95655000Y-47538460D02*
X94676040Y-46559500D01*
X93750000Y-49000000D02*
X94240000Y-49490000D01*
%TO.N,SCK*%
X89644790Y-61504000D02*
X94605210Y-61504000D01*
X88750000Y-61000000D02*
X89140790Y-61000000D01*
X88000000Y-61750000D02*
X88750000Y-61000000D01*
X95187500Y-60187500D02*
X94750000Y-59750000D01*
X89140790Y-61000000D02*
X89644790Y-61504000D01*
X94931219Y-61437500D02*
X95187500Y-61181219D01*
X95187500Y-61181219D02*
X95187500Y-60187500D01*
X94671710Y-61437500D02*
X94931219Y-61437500D01*
X94605210Y-61504000D02*
X94671710Y-61437500D01*
%TO.N,MOSI*%
X93000000Y-55500000D02*
X93000000Y-59750000D01*
X94500000Y-61250000D02*
X94750000Y-61000000D01*
X93540500Y-63040500D02*
X93540500Y-66178000D01*
X93000000Y-62500000D02*
X93540500Y-63040500D01*
X94250000Y-61000000D02*
X94750000Y-61000000D01*
X93000000Y-59750000D02*
X94250000Y-61000000D01*
X89750000Y-61250000D02*
X94500000Y-61250000D01*
X93540500Y-66178000D02*
X94000000Y-66637500D01*
X88500000Y-60000000D02*
X89750000Y-61250000D01*
%TO.N,MOSI_2*%
X93050000Y-64362500D02*
X92162500Y-65250000D01*
X92162500Y-65250000D02*
X91250000Y-65250000D01*
%TO.N,CS_ADXL*%
X96750000Y-62250000D02*
X96750000Y-64837500D01*
X94500000Y-62500000D02*
X94500000Y-62768460D01*
X94500000Y-62768460D02*
X96481540Y-64750000D01*
X96750000Y-64750000D02*
X96750000Y-64837500D01*
X96481540Y-64750000D02*
X96750000Y-64750000D01*
X102250000Y-55750000D02*
X102250000Y-56750000D01*
X96750000Y-64837500D02*
X94950000Y-66637500D01*
X96750000Y-65500000D02*
X96750000Y-64750000D01*
X102250000Y-56750000D02*
X96750000Y-62250000D01*
%TO.N,CS_E*%
X86523500Y-54726500D02*
X88250000Y-53000000D01*
X87500000Y-60750000D02*
X86523500Y-59773500D01*
X86523500Y-59773500D02*
X86523500Y-54726500D01*
X88250000Y-53000000D02*
X92250000Y-53000000D01*
X92250000Y-53000000D02*
X92750000Y-53500000D01*
%TO.N,STEP_E*%
X87750000Y-58500000D02*
X88750000Y-58500000D01*
X88750000Y-58500000D02*
X93000000Y-54250000D01*
%TO.N,DIR_E*%
X87750000Y-57750000D02*
X87750000Y-55500000D01*
X87750000Y-55500000D02*
X88000000Y-55250000D01*
%TO.N,DIAG1_E*%
X83746000Y-50004000D02*
X81000000Y-52750000D01*
X91254000Y-50004000D02*
X83746000Y-50004000D01*
X92750000Y-51500000D02*
X91254000Y-50004000D01*
%TO.N,EN_E*%
X83000000Y-49750000D02*
X80750000Y-52000000D01*
X93500000Y-50000000D02*
X93250000Y-49750000D01*
X93250000Y-49750000D02*
X83000000Y-49750000D01*
%TO.N,QSPI_SD1*%
X97000000Y-48500000D02*
X96609500Y-48890500D01*
X94385000Y-47911540D02*
X94385000Y-47725000D01*
X96609500Y-48890500D02*
X95363960Y-48890500D01*
X95363960Y-48890500D02*
X94385000Y-47911540D01*
%TO.N,QSPI_SD2*%
X97000000Y-50000000D02*
X94250000Y-50000000D01*
X94250000Y-50000000D02*
X93115000Y-48865000D01*
X93115000Y-48865000D02*
X93115000Y-47725000D01*
X97250000Y-49750000D02*
X97000000Y-50000000D01*
%TO.N,QSPI_SD0*%
X93191500Y-44941500D02*
X91845000Y-43595000D01*
X98000000Y-49220003D02*
X98000000Y-48613460D01*
X91845000Y-43595000D02*
X91845000Y-42775000D01*
X98000000Y-48613460D02*
X94328040Y-44941500D01*
X94328040Y-44941500D02*
X93191500Y-44941500D01*
%TO.N,QSPI_SCLK*%
X93937500Y-44687500D02*
X93115000Y-43865000D01*
X98750000Y-49250000D02*
X98750000Y-48756281D01*
X93115000Y-43865000D02*
X93115000Y-42775000D01*
X94681219Y-44687500D02*
X93937500Y-44687500D01*
X98750000Y-48756281D02*
X94681219Y-44687500D01*
%TO.N,QSPI_SD3*%
X94385000Y-44135000D02*
X94385000Y-42775000D01*
X94500000Y-44250000D02*
X94385000Y-44135000D01*
%TO.N,CAN_OUT*%
X101990000Y-62250000D02*
X101250000Y-62250000D01*
%TO.N,BOOT_IN*%
X97500000Y-59750000D02*
X97187500Y-59437500D01*
X95490000Y-51250000D02*
X94750000Y-50510000D01*
X97187500Y-59437500D02*
X97187500Y-51568781D01*
X96868719Y-51250000D02*
X95490000Y-51250000D01*
X97187500Y-51568781D02*
X96868719Y-51250000D01*
%TO.N,THO_IN*%
X87500000Y-71790327D02*
X86989500Y-71279827D01*
X87940500Y-70549500D02*
X88500000Y-69990000D01*
X93290500Y-72209500D02*
X91097000Y-74403000D01*
X87180173Y-70549500D02*
X87940500Y-70549500D01*
X86989500Y-71279827D02*
X86989500Y-70740173D01*
X87500000Y-73000000D02*
X87500000Y-71790327D01*
X86989500Y-70740173D02*
X87180173Y-70549500D01*
X91097000Y-74403000D02*
X88903000Y-74403000D01*
X88903000Y-74403000D02*
X87500000Y-73000000D01*
X99000000Y-72250000D02*
X98959500Y-72209500D01*
X98959500Y-72209500D02*
X93290500Y-72209500D01*
%TD*%
%TA.AperFunction,Conductor*%
%TO.N,GND*%
G36*
X109096032Y-60278338D02*
G01*
X109152868Y-60320885D01*
X109177679Y-60387405D01*
X109178000Y-60396394D01*
X109178000Y-62329790D01*
X109157998Y-62397911D01*
X109104342Y-62444404D01*
X109036586Y-62452842D01*
X109036466Y-62454371D01*
X109002444Y-62451693D01*
X109002438Y-62451693D01*
X108999989Y-62451500D01*
X108750152Y-62451500D01*
X108500012Y-62451501D01*
X108463534Y-62454371D01*
X108390243Y-62475664D01*
X108315017Y-62497519D01*
X108315015Y-62497520D01*
X108307404Y-62499731D01*
X108300582Y-62503766D01*
X108300581Y-62503766D01*
X108189373Y-62569534D01*
X108167459Y-62582494D01*
X108052494Y-62697459D01*
X108048460Y-62704280D01*
X107984003Y-62813272D01*
X107969731Y-62837404D01*
X107967520Y-62845015D01*
X107967519Y-62845017D01*
X107961033Y-62867341D01*
X107924371Y-62993534D01*
X107923867Y-62999941D01*
X107923866Y-62999945D01*
X107921797Y-63026233D01*
X107921500Y-63030011D01*
X107921501Y-63429988D01*
X107924371Y-63466466D01*
X107969731Y-63622596D01*
X108001523Y-63676353D01*
X108018982Y-63745166D01*
X108001522Y-63804630D01*
X107974229Y-63850780D01*
X107967981Y-63865217D01*
X107935039Y-63978605D01*
X107935079Y-63992705D01*
X107942349Y-63996000D01*
X108412458Y-63996000D01*
X108447610Y-64001003D01*
X108457353Y-64003834D01*
X108457360Y-64003835D01*
X108463534Y-64005629D01*
X108469941Y-64006133D01*
X108469945Y-64006134D01*
X108497556Y-64008307D01*
X108497562Y-64008307D01*
X108500011Y-64008500D01*
X108507811Y-64008500D01*
X108795501Y-64008499D01*
X108863620Y-64028501D01*
X108910113Y-64082156D01*
X108921500Y-64134498D01*
X108921501Y-64377999D01*
X108901499Y-64446120D01*
X108847844Y-64492613D01*
X108795501Y-64504000D01*
X107948100Y-64504000D01*
X107934569Y-64507973D01*
X107933434Y-64515871D01*
X107967981Y-64634783D01*
X107974230Y-64649222D01*
X108048854Y-64775405D01*
X108058501Y-64787841D01*
X108155328Y-64884668D01*
X108189354Y-64946980D01*
X108184289Y-65017795D01*
X108174687Y-65037902D01*
X108120352Y-65129779D01*
X108114107Y-65144210D01*
X108075061Y-65278605D01*
X108075101Y-65292706D01*
X108082370Y-65296000D01*
X109440500Y-65296000D01*
X109508621Y-65316002D01*
X109555114Y-65369658D01*
X109566500Y-65422000D01*
X109566500Y-66334880D01*
X109546498Y-66403001D01*
X109529595Y-66423975D01*
X109348975Y-66604595D01*
X109286663Y-66638621D01*
X109259880Y-66641500D01*
X108658498Y-66641500D01*
X108656050Y-66641693D01*
X108656042Y-66641693D01*
X108627579Y-66643933D01*
X108627574Y-66643934D01*
X108621169Y-66644438D01*
X108537248Y-66668819D01*
X108469012Y-66688643D01*
X108469010Y-66688644D01*
X108461399Y-66690855D01*
X108454572Y-66694892D01*
X108454573Y-66694892D01*
X108325020Y-66771509D01*
X108325017Y-66771511D01*
X108318193Y-66775547D01*
X108200547Y-66893193D01*
X108196511Y-66900017D01*
X108196509Y-66900020D01*
X108163987Y-66955012D01*
X108115855Y-67036399D01*
X108113644Y-67044010D01*
X108113643Y-67044012D01*
X108106457Y-67068747D01*
X108069438Y-67196169D01*
X108068934Y-67202574D01*
X108068933Y-67202579D01*
X108066733Y-67230535D01*
X108066500Y-67233498D01*
X108066500Y-67666502D01*
X108066693Y-67668950D01*
X108066693Y-67668958D01*
X108067789Y-67682877D01*
X108069438Y-67703831D01*
X108115855Y-67863601D01*
X108119892Y-67870427D01*
X108196509Y-67999980D01*
X108196511Y-67999983D01*
X108200547Y-68006807D01*
X108318193Y-68124453D01*
X108325017Y-68128489D01*
X108325020Y-68128491D01*
X108398247Y-68171797D01*
X108461399Y-68209145D01*
X108469010Y-68211356D01*
X108469012Y-68211357D01*
X108473074Y-68212537D01*
X108621169Y-68255562D01*
X108627574Y-68256066D01*
X108627579Y-68256067D01*
X108656042Y-68258307D01*
X108656050Y-68258307D01*
X108658498Y-68258500D01*
X109966502Y-68258500D01*
X109968950Y-68258307D01*
X109968958Y-68258307D01*
X109997421Y-68256067D01*
X109997426Y-68256066D01*
X110003831Y-68255562D01*
X110151926Y-68212537D01*
X110155988Y-68211357D01*
X110155990Y-68211356D01*
X110163601Y-68209145D01*
X110226753Y-68171797D01*
X110299980Y-68128491D01*
X110299983Y-68128489D01*
X110306807Y-68124453D01*
X110424453Y-68006807D01*
X110428489Y-67999983D01*
X110428491Y-67999980D01*
X110505108Y-67870427D01*
X110509145Y-67863601D01*
X110555562Y-67703831D01*
X110557212Y-67682877D01*
X110558307Y-67668958D01*
X110558307Y-67668950D01*
X110558500Y-67666502D01*
X110558500Y-67434500D01*
X110578502Y-67366379D01*
X110632158Y-67319886D01*
X110684500Y-67308500D01*
X111841502Y-67308500D01*
X111843950Y-67308307D01*
X111843958Y-67308307D01*
X111872421Y-67306067D01*
X111872426Y-67306066D01*
X111878831Y-67305562D01*
X111991393Y-67272860D01*
X112030988Y-67261357D01*
X112030990Y-67261356D01*
X112038601Y-67259145D01*
X112074391Y-67237979D01*
X112174980Y-67178491D01*
X112174983Y-67178489D01*
X112181807Y-67174453D01*
X112299453Y-67056807D01*
X112303489Y-67049983D01*
X112303491Y-67049980D01*
X112372632Y-66933069D01*
X112384145Y-66913601D01*
X112430562Y-66753831D01*
X112433146Y-66721010D01*
X112433307Y-66718958D01*
X112433307Y-66718950D01*
X112433500Y-66716502D01*
X112433500Y-66283498D01*
X112433307Y-66281042D01*
X112431067Y-66252579D01*
X112431066Y-66252574D01*
X112430562Y-66246169D01*
X112398905Y-66137204D01*
X112386357Y-66094012D01*
X112386356Y-66094010D01*
X112384145Y-66086399D01*
X112343094Y-66016986D01*
X112303491Y-65950020D01*
X112303489Y-65950017D01*
X112299453Y-65943193D01*
X112181807Y-65825547D01*
X112174983Y-65821511D01*
X112174980Y-65821509D01*
X112067411Y-65757893D01*
X112038601Y-65740855D01*
X112030990Y-65738644D01*
X112030988Y-65738643D01*
X111912847Y-65704320D01*
X111853012Y-65666107D01*
X111823334Y-65601611D01*
X111822000Y-65583323D01*
X111822000Y-65095278D01*
X111842002Y-65027157D01*
X111895658Y-64980664D01*
X111965932Y-64970560D01*
X112030512Y-65000054D01*
X112069707Y-65062667D01*
X112091604Y-65144386D01*
X112098253Y-65169202D01*
X112100575Y-65174183D01*
X112100576Y-65174184D01*
X112186218Y-65357845D01*
X112186221Y-65357850D01*
X112188544Y-65362832D01*
X112191700Y-65367339D01*
X112191701Y-65367341D01*
X112306088Y-65530702D01*
X112311087Y-65537842D01*
X112462158Y-65688913D01*
X112466666Y-65692070D01*
X112466669Y-65692072D01*
X112632659Y-65808299D01*
X112637168Y-65811456D01*
X112642150Y-65813779D01*
X112642155Y-65813782D01*
X112825816Y-65899424D01*
X112830798Y-65901747D01*
X112836106Y-65903169D01*
X112836108Y-65903170D01*
X113031851Y-65955619D01*
X113031853Y-65955619D01*
X113037166Y-65957043D01*
X113250000Y-65975664D01*
X113462834Y-65957043D01*
X113468147Y-65955619D01*
X113468149Y-65955619D01*
X113663892Y-65903170D01*
X113663894Y-65903169D01*
X113669202Y-65901747D01*
X113674184Y-65899424D01*
X113857845Y-65813782D01*
X113857850Y-65813779D01*
X113862832Y-65811456D01*
X113867341Y-65808299D01*
X114033331Y-65692072D01*
X114033334Y-65692070D01*
X114037842Y-65688913D01*
X114076405Y-65650350D01*
X114138717Y-65616324D01*
X114209532Y-65621389D01*
X114266368Y-65663936D01*
X114291179Y-65730456D01*
X114291500Y-65739445D01*
X114291500Y-67190961D01*
X114271498Y-67259082D01*
X114217842Y-67305575D01*
X114147568Y-67315679D01*
X114128241Y-67311326D01*
X114111252Y-67306067D01*
X113953768Y-67257318D01*
X113947643Y-67256674D01*
X113947642Y-67256674D01*
X113763204Y-67237289D01*
X113763202Y-67237289D01*
X113757075Y-67236645D01*
X113674576Y-67244153D01*
X113566251Y-67254011D01*
X113566248Y-67254012D01*
X113560112Y-67254570D01*
X113554206Y-67256308D01*
X113554202Y-67256309D01*
X113477825Y-67278788D01*
X113370381Y-67310410D01*
X113364923Y-67313263D01*
X113364919Y-67313265D01*
X113274147Y-67360720D01*
X113195110Y-67402040D01*
X113040975Y-67525968D01*
X113037011Y-67530692D01*
X113021929Y-67548666D01*
X112913846Y-67677474D01*
X112910879Y-67682872D01*
X112910875Y-67682877D01*
X112844653Y-67803337D01*
X112818567Y-67850787D01*
X112816706Y-67856654D01*
X112816705Y-67856656D01*
X112761290Y-68031347D01*
X112758765Y-68039306D01*
X112736719Y-68235851D01*
X112737235Y-68241995D01*
X112752333Y-68421797D01*
X112753268Y-68432934D01*
X112761269Y-68460837D01*
X112805591Y-68615404D01*
X112807783Y-68623050D01*
X112898187Y-68798956D01*
X112902014Y-68803785D01*
X112904717Y-68807979D01*
X112924804Y-68876075D01*
X112909218Y-68936933D01*
X112821998Y-69095585D01*
X112817166Y-69106858D01*
X112761120Y-69283538D01*
X112758570Y-69295532D01*
X112737909Y-69479733D01*
X112737738Y-69492002D01*
X112753248Y-69676705D01*
X112755461Y-69688764D01*
X112806554Y-69866945D01*
X112811066Y-69878342D01*
X112895793Y-70043205D01*
X112904681Y-70056996D01*
X112924770Y-70125092D01*
X112909185Y-70185952D01*
X112818567Y-70350787D01*
X112816706Y-70356654D01*
X112816705Y-70356656D01*
X112775342Y-70487048D01*
X112758765Y-70539306D01*
X112736719Y-70735851D01*
X112739693Y-70771270D01*
X112752342Y-70921904D01*
X112753268Y-70932934D01*
X112767994Y-70984290D01*
X112795741Y-71081053D01*
X112807783Y-71123050D01*
X112817459Y-71141877D01*
X112872387Y-71248754D01*
X112898187Y-71298956D01*
X113021035Y-71453953D01*
X113025728Y-71457947D01*
X113025729Y-71457948D01*
X113149209Y-71563037D01*
X113171650Y-71582136D01*
X113344294Y-71678624D01*
X113532392Y-71739740D01*
X113575818Y-71744918D01*
X113641091Y-71772845D01*
X113680904Y-71831628D01*
X113682616Y-71902604D01*
X113649994Y-71959127D01*
X110904526Y-74704595D01*
X110842214Y-74738621D01*
X110815431Y-74741500D01*
X107073557Y-74741500D01*
X107005436Y-74721498D01*
X106958943Y-74667842D01*
X106948839Y-74597568D01*
X106953999Y-74575728D01*
X106985759Y-74480253D01*
X106988479Y-74468281D01*
X107012039Y-74281784D01*
X107012531Y-74274757D01*
X107012828Y-74253523D01*
X107012533Y-74246494D01*
X106994188Y-74059397D01*
X106991805Y-74047362D01*
X106938233Y-73869924D01*
X106933559Y-73858584D01*
X106878562Y-73755148D01*
X106868702Y-73745067D01*
X106861575Y-73747635D01*
X106089095Y-74520115D01*
X106026783Y-74554141D01*
X105955968Y-74549076D01*
X105910905Y-74520115D01*
X105796100Y-74405310D01*
X105762074Y-74342998D01*
X105760189Y-74300426D01*
X105762985Y-74278295D01*
X105763380Y-74250000D01*
X105758245Y-74197631D01*
X105771504Y-74127885D01*
X105794549Y-74096241D01*
X106497834Y-73392956D01*
X106504594Y-73380576D01*
X106499935Y-73374353D01*
X106397924Y-73319196D01*
X106386619Y-73314444D01*
X106209554Y-73259633D01*
X106197541Y-73257167D01*
X106013199Y-73237792D01*
X106000931Y-73237707D01*
X105816345Y-73254505D01*
X105804287Y-73256805D01*
X105680075Y-73293363D01*
X105609079Y-73293409D01*
X105549328Y-73255063D01*
X105519794Y-73190501D01*
X105518500Y-73172490D01*
X105518500Y-70603081D01*
X105537340Y-70538918D01*
X107986917Y-70538918D01*
X107987334Y-70546156D01*
X108002682Y-70812320D01*
X108055405Y-71081053D01*
X108056792Y-71085103D01*
X108056793Y-71085108D01*
X108133795Y-71310012D01*
X108144112Y-71340144D01*
X108175137Y-71401830D01*
X108242837Y-71536437D01*
X108267160Y-71584799D01*
X108269586Y-71588328D01*
X108269589Y-71588334D01*
X108406512Y-71787556D01*
X108422274Y-71810490D01*
X108425161Y-71813663D01*
X108425162Y-71813664D01*
X108484256Y-71878608D01*
X108606582Y-72013043D01*
X108816675Y-72188707D01*
X108820316Y-72190991D01*
X109045024Y-72331951D01*
X109045028Y-72331953D01*
X109048664Y-72334234D01*
X109116544Y-72364883D01*
X109294345Y-72445164D01*
X109294349Y-72445166D01*
X109298257Y-72446930D01*
X109302377Y-72448150D01*
X109302376Y-72448150D01*
X109556723Y-72523491D01*
X109556727Y-72523492D01*
X109560836Y-72524709D01*
X109565070Y-72525357D01*
X109565075Y-72525358D01*
X109827298Y-72565483D01*
X109827300Y-72565483D01*
X109831540Y-72566132D01*
X109970912Y-72568322D01*
X110101071Y-72570367D01*
X110101077Y-72570367D01*
X110105362Y-72570434D01*
X110377235Y-72537534D01*
X110642127Y-72468041D01*
X110646087Y-72466401D01*
X110646092Y-72466399D01*
X110768631Y-72415641D01*
X110895136Y-72363241D01*
X111097361Y-72245070D01*
X111127879Y-72227237D01*
X111127880Y-72227236D01*
X111131582Y-72225073D01*
X111347089Y-72056094D01*
X111356412Y-72046474D01*
X111534686Y-71862509D01*
X111537669Y-71859431D01*
X111540202Y-71855983D01*
X111540206Y-71855978D01*
X111697257Y-71642178D01*
X111699795Y-71638723D01*
X111719726Y-71602015D01*
X111828418Y-71401830D01*
X111828419Y-71401828D01*
X111830468Y-71398054D01*
X111901924Y-71208952D01*
X111925751Y-71145895D01*
X111925752Y-71145891D01*
X111927269Y-71141877D01*
X111960934Y-70994889D01*
X111987449Y-70879117D01*
X111987450Y-70879113D01*
X111988407Y-70874933D01*
X111990655Y-70849752D01*
X112012531Y-70604627D01*
X112012531Y-70604625D01*
X112012751Y-70602161D01*
X112013193Y-70560000D01*
X112013024Y-70557519D01*
X111994859Y-70291055D01*
X111994858Y-70291049D01*
X111994567Y-70286778D01*
X111993273Y-70280527D01*
X111943336Y-70039396D01*
X111939032Y-70018612D01*
X111847617Y-69760465D01*
X111722013Y-69517112D01*
X111712040Y-69502921D01*
X111592685Y-69333096D01*
X111564545Y-69293057D01*
X111483125Y-69205439D01*
X111381046Y-69095588D01*
X111381043Y-69095585D01*
X111378125Y-69092445D01*
X111374810Y-69089731D01*
X111374806Y-69089728D01*
X111197488Y-68944595D01*
X111166205Y-68918990D01*
X110971242Y-68799517D01*
X110936366Y-68778145D01*
X110936365Y-68778145D01*
X110932704Y-68775901D01*
X110928768Y-68774173D01*
X110685873Y-68667549D01*
X110685869Y-68667548D01*
X110681945Y-68665825D01*
X110418566Y-68590800D01*
X110414324Y-68590196D01*
X110414318Y-68590195D01*
X110187584Y-68557926D01*
X110147443Y-68552213D01*
X110003589Y-68551460D01*
X109877877Y-68550802D01*
X109877871Y-68550802D01*
X109873591Y-68550780D01*
X109869347Y-68551339D01*
X109869343Y-68551339D01*
X109782851Y-68562726D01*
X109602078Y-68586525D01*
X109597938Y-68587658D01*
X109597936Y-68587658D01*
X109537714Y-68604133D01*
X109337928Y-68658788D01*
X109333980Y-68660472D01*
X109089982Y-68764546D01*
X109089978Y-68764548D01*
X109086030Y-68766232D01*
X108985443Y-68826432D01*
X108854725Y-68904664D01*
X108854721Y-68904667D01*
X108851043Y-68906868D01*
X108637318Y-69078094D01*
X108541919Y-69178624D01*
X108461699Y-69263158D01*
X108448808Y-69276742D01*
X108289002Y-69499136D01*
X108160857Y-69741161D01*
X108159385Y-69745184D01*
X108159383Y-69745188D01*
X108110655Y-69878342D01*
X108066743Y-69998337D01*
X108008404Y-70265907D01*
X108008068Y-70270177D01*
X107987640Y-70529738D01*
X107986917Y-70538918D01*
X105537340Y-70538918D01*
X105538502Y-70534960D01*
X105592158Y-70488467D01*
X105661163Y-70478188D01*
X105694978Y-70482700D01*
X105727562Y-70487048D01*
X105727565Y-70487048D01*
X105734542Y-70487979D01*
X105741553Y-70487341D01*
X105741557Y-70487341D01*
X105891403Y-70473704D01*
X105891404Y-70473704D01*
X105898424Y-70473065D01*
X105980087Y-70446531D01*
X106048230Y-70424390D01*
X106048233Y-70424389D01*
X106054929Y-70422213D01*
X106196279Y-70337951D01*
X106315449Y-70224468D01*
X106319350Y-70218597D01*
X106402614Y-70093275D01*
X106402615Y-70093273D01*
X106406515Y-70087403D01*
X106464951Y-69933568D01*
X106474009Y-69869119D01*
X106487302Y-69774534D01*
X106487303Y-69774527D01*
X106487853Y-69770610D01*
X106488141Y-69750000D01*
X106469798Y-69586466D01*
X106415680Y-69431060D01*
X106407899Y-69418607D01*
X106390194Y-69390274D01*
X106371058Y-69321905D01*
X106391923Y-69254043D01*
X106446165Y-69208235D01*
X106458112Y-69203671D01*
X106548230Y-69174390D01*
X106548233Y-69174389D01*
X106554929Y-69172213D01*
X106696279Y-69087951D01*
X106815449Y-68974468D01*
X106819632Y-68968172D01*
X106902614Y-68843275D01*
X106902615Y-68843273D01*
X106906515Y-68837403D01*
X106964951Y-68683568D01*
X106976906Y-68598501D01*
X106987302Y-68524534D01*
X106987303Y-68524527D01*
X106987853Y-68520610D01*
X106988141Y-68500000D01*
X106969798Y-68336466D01*
X106915680Y-68181060D01*
X106906057Y-68165659D01*
X106832209Y-68047479D01*
X106828476Y-68041505D01*
X106751862Y-67964354D01*
X106717486Y-67929737D01*
X106717482Y-67929734D01*
X106712522Y-67924739D01*
X106573580Y-67836563D01*
X106480271Y-67803337D01*
X106425189Y-67783723D01*
X106425187Y-67783722D01*
X106418555Y-67781361D01*
X106411569Y-67780528D01*
X106411565Y-67780527D01*
X106297071Y-67766875D01*
X106255153Y-67761877D01*
X106248150Y-67762613D01*
X106248149Y-67762613D01*
X106204935Y-67767155D01*
X106091495Y-67779078D01*
X106084827Y-67781348D01*
X105942382Y-67829840D01*
X105942379Y-67829841D01*
X105935715Y-67832110D01*
X105841769Y-67889906D01*
X105805565Y-67912179D01*
X105795555Y-67918337D01*
X105790520Y-67923268D01*
X105790517Y-67923270D01*
X105732657Y-67979930D01*
X105669992Y-68013300D01*
X105599233Y-68007494D01*
X105542846Y-67964354D01*
X105518734Y-67897578D01*
X105518500Y-67889906D01*
X105518500Y-67110344D01*
X105538502Y-67042223D01*
X105592158Y-66995730D01*
X105662432Y-66985626D01*
X105727012Y-67015120D01*
X105735137Y-67022817D01*
X105779491Y-67068747D01*
X105917189Y-67158854D01*
X106071428Y-67216215D01*
X106078409Y-67217146D01*
X106078411Y-67217147D01*
X106227561Y-67237048D01*
X106227565Y-67237048D01*
X106234542Y-67237979D01*
X106241553Y-67237341D01*
X106241557Y-67237341D01*
X106391403Y-67223704D01*
X106391404Y-67223704D01*
X106398424Y-67223065D01*
X106442822Y-67208639D01*
X106548230Y-67174390D01*
X106548233Y-67174389D01*
X106554929Y-67172213D01*
X106696279Y-67087951D01*
X106815449Y-66974468D01*
X106819350Y-66968597D01*
X106902614Y-66843275D01*
X106902615Y-66843273D01*
X106906515Y-66837403D01*
X106964951Y-66683568D01*
X106976552Y-66601025D01*
X106987302Y-66524534D01*
X106987303Y-66524527D01*
X106987853Y-66520610D01*
X106988141Y-66500000D01*
X106969798Y-66336466D01*
X106955065Y-66294157D01*
X106945709Y-66267292D01*
X106915680Y-66181060D01*
X106907899Y-66168607D01*
X106832209Y-66047479D01*
X106828476Y-66041505D01*
X106761905Y-65974468D01*
X106717486Y-65929737D01*
X106717482Y-65929734D01*
X106712522Y-65924739D01*
X106573580Y-65836563D01*
X106515470Y-65815871D01*
X108073456Y-65815871D01*
X108114107Y-65955790D01*
X108120352Y-65970221D01*
X108196911Y-66099678D01*
X108206551Y-66112104D01*
X108312896Y-66218449D01*
X108325322Y-66228089D01*
X108454779Y-66304648D01*
X108469210Y-66310893D01*
X108615065Y-66353269D01*
X108627667Y-66355570D01*
X108656084Y-66357807D01*
X108661014Y-66358000D01*
X109040385Y-66358000D01*
X109055624Y-66353525D01*
X109056829Y-66352135D01*
X109058500Y-66344452D01*
X109058500Y-65822115D01*
X109054025Y-65806876D01*
X109052635Y-65805671D01*
X109044952Y-65804000D01*
X108088122Y-65804000D01*
X108074591Y-65807973D01*
X108073456Y-65815871D01*
X106515470Y-65815871D01*
X106509036Y-65813580D01*
X106425189Y-65783723D01*
X106425187Y-65783722D01*
X106418555Y-65781361D01*
X106411569Y-65780528D01*
X106411565Y-65780527D01*
X106297071Y-65766875D01*
X106255153Y-65761877D01*
X106248150Y-65762613D01*
X106248149Y-65762613D01*
X106204935Y-65767155D01*
X106091495Y-65779078D01*
X106084827Y-65781348D01*
X105942382Y-65829840D01*
X105942379Y-65829841D01*
X105935715Y-65832110D01*
X105899948Y-65854114D01*
X105820209Y-65903170D01*
X105795555Y-65918337D01*
X105790520Y-65923268D01*
X105790517Y-65923270D01*
X105732657Y-65979930D01*
X105669992Y-66013300D01*
X105599233Y-66007494D01*
X105542846Y-65964354D01*
X105518734Y-65897578D01*
X105518500Y-65889906D01*
X105518500Y-63803894D01*
X105538502Y-63735773D01*
X105555405Y-63714799D01*
X108962905Y-60307299D01*
X109025217Y-60273273D01*
X109096032Y-60278338D01*
G37*
%TD.AperFunction*%
%TA.AperFunction,Conductor*%
G36*
X97819024Y-62094072D02*
G01*
X97875860Y-62136619D01*
X97882768Y-62146857D01*
X97915179Y-62200373D01*
X97920070Y-62205438D01*
X97920071Y-62205439D01*
X97935648Y-62221569D01*
X98029491Y-62318747D01*
X98167189Y-62408854D01*
X98321428Y-62466215D01*
X98328409Y-62467146D01*
X98328411Y-62467147D01*
X98477561Y-62487048D01*
X98477565Y-62487048D01*
X98484542Y-62487979D01*
X98491553Y-62487341D01*
X98491557Y-62487341D01*
X98641403Y-62473704D01*
X98641404Y-62473704D01*
X98648424Y-62473065D01*
X98707512Y-62453866D01*
X98798230Y-62424390D01*
X98798233Y-62424389D01*
X98804929Y-62422213D01*
X98946279Y-62337951D01*
X98947852Y-62336453D01*
X99012403Y-62311884D01*
X99022232Y-62311500D01*
X100407211Y-62311500D01*
X100475332Y-62331502D01*
X100521825Y-62385158D01*
X100527882Y-62403504D01*
X100527989Y-62403468D01*
X100579932Y-62559615D01*
X100583581Y-62565640D01*
X100653908Y-62681762D01*
X100665179Y-62700373D01*
X100779491Y-62818747D01*
X100917189Y-62908854D01*
X101071428Y-62966215D01*
X101078409Y-62967146D01*
X101078411Y-62967147D01*
X101227561Y-62987048D01*
X101227565Y-62987048D01*
X101234542Y-62987979D01*
X101241553Y-62987341D01*
X101241557Y-62987341D01*
X101391403Y-62973704D01*
X101391404Y-62973704D01*
X101398424Y-62973065D01*
X101410310Y-62969203D01*
X101481276Y-62967174D01*
X101513387Y-62980582D01*
X101528160Y-62989318D01*
X101581033Y-63020587D01*
X101597404Y-63030269D01*
X101605015Y-63032480D01*
X101605017Y-63032481D01*
X101639448Y-63042484D01*
X101753534Y-63075629D01*
X101759941Y-63076133D01*
X101759945Y-63076134D01*
X101787556Y-63078307D01*
X101787562Y-63078307D01*
X101790011Y-63078500D01*
X101989878Y-63078500D01*
X102189988Y-63078499D01*
X102226466Y-63075629D01*
X102343116Y-63041739D01*
X102374983Y-63032481D01*
X102374985Y-63032480D01*
X102382596Y-63030269D01*
X102389421Y-63026233D01*
X102389425Y-63026231D01*
X102435861Y-62998769D01*
X102504677Y-62981309D01*
X102564139Y-62998769D01*
X102610575Y-63026231D01*
X102610579Y-63026233D01*
X102617404Y-63030269D01*
X102625015Y-63032480D01*
X102625017Y-63032481D01*
X102659448Y-63042484D01*
X102773534Y-63075629D01*
X102779941Y-63076133D01*
X102779945Y-63076134D01*
X102807556Y-63078307D01*
X102807562Y-63078307D01*
X102810011Y-63078500D01*
X103009878Y-63078500D01*
X103209988Y-63078499D01*
X103246466Y-63075629D01*
X103363116Y-63041739D01*
X103394983Y-63032481D01*
X103394985Y-63032480D01*
X103402596Y-63030269D01*
X103418968Y-63020587D01*
X103535720Y-62951540D01*
X103542541Y-62947506D01*
X103657506Y-62832541D01*
X103688873Y-62779502D01*
X103736234Y-62699419D01*
X103736234Y-62699418D01*
X103740269Y-62692596D01*
X103748608Y-62663895D01*
X103777153Y-62565640D01*
X103785629Y-62536466D01*
X103786569Y-62524534D01*
X103788307Y-62502444D01*
X103788307Y-62502438D01*
X103788500Y-62499989D01*
X103788500Y-62461484D01*
X103808502Y-62393363D01*
X103862158Y-62346870D01*
X103932432Y-62336766D01*
X103997012Y-62366260D01*
X104034058Y-62421712D01*
X104079932Y-62559615D01*
X104083581Y-62565640D01*
X104153908Y-62681762D01*
X104165179Y-62700373D01*
X104170071Y-62705439D01*
X104170075Y-62705444D01*
X104192429Y-62728592D01*
X104225362Y-62791488D01*
X104219062Y-62862205D01*
X104189952Y-62906141D01*
X104150687Y-62944593D01*
X104146869Y-62950517D01*
X104146866Y-62950521D01*
X104128536Y-62978964D01*
X104121102Y-62989312D01*
X104095586Y-63021274D01*
X104092522Y-63027613D01*
X104092521Y-63027614D01*
X104081879Y-63049629D01*
X104074350Y-63063046D01*
X104057290Y-63089517D01*
X104043298Y-63127959D01*
X104038348Y-63139677D01*
X104020547Y-63176500D01*
X104018962Y-63183366D01*
X104013465Y-63207177D01*
X104009094Y-63221933D01*
X104000730Y-63244911D01*
X104000729Y-63244916D01*
X103998321Y-63251531D01*
X103997438Y-63258519D01*
X103997437Y-63258524D01*
X103993194Y-63292109D01*
X103990958Y-63304662D01*
X103981762Y-63344493D01*
X103981737Y-63351539D01*
X103981737Y-63351542D01*
X103981627Y-63383082D01*
X103981600Y-63383885D01*
X103981500Y-63384682D01*
X103981500Y-63419654D01*
X103981161Y-63516904D01*
X103981417Y-63518051D01*
X103981500Y-63519577D01*
X103981500Y-71383380D01*
X103961498Y-71451501D01*
X103907842Y-71497994D01*
X103837568Y-71508098D01*
X103772988Y-71478604D01*
X103766405Y-71472475D01*
X103065200Y-70771270D01*
X102353011Y-70059082D01*
X102318986Y-69996770D01*
X102324050Y-69925955D01*
X102366597Y-69869119D01*
X102430686Y-69844506D01*
X102529604Y-69835504D01*
X102529605Y-69835504D01*
X102536624Y-69834865D01*
X102571309Y-69823595D01*
X102686430Y-69786190D01*
X102686433Y-69786189D01*
X102693129Y-69784013D01*
X102834479Y-69699751D01*
X102953649Y-69586268D01*
X102957550Y-69580397D01*
X103040814Y-69455075D01*
X103040815Y-69455073D01*
X103044715Y-69449203D01*
X103103151Y-69295368D01*
X103126053Y-69132410D01*
X103126341Y-69111800D01*
X103107998Y-68948266D01*
X103104052Y-68936933D01*
X103069065Y-68836466D01*
X103053880Y-68792860D01*
X103036188Y-68764546D01*
X102970409Y-68659279D01*
X102966676Y-68653305D01*
X102908084Y-68594303D01*
X102855686Y-68541537D01*
X102855682Y-68541534D01*
X102850722Y-68536539D01*
X102711780Y-68448363D01*
X102655782Y-68428423D01*
X102563389Y-68395523D01*
X102563387Y-68395522D01*
X102556755Y-68393161D01*
X102549767Y-68392328D01*
X102549764Y-68392327D01*
X102531613Y-68390163D01*
X102466339Y-68362236D01*
X102457436Y-68354145D01*
X101936584Y-67833294D01*
X101925716Y-67820901D01*
X101912239Y-67803337D01*
X101907213Y-67796787D01*
X101829586Y-67737223D01*
X101785073Y-67703066D01*
X101736469Y-67682934D01*
X101642837Y-67644150D01*
X101634649Y-67643072D01*
X101528524Y-67629100D01*
X101528519Y-67629100D01*
X101490200Y-67624055D01*
X101482012Y-67625133D01*
X101460067Y-67628022D01*
X101443621Y-67629100D01*
X95802600Y-67629100D01*
X95734479Y-67609098D01*
X95687986Y-67555442D01*
X95677882Y-67485168D01*
X95694146Y-67438963D01*
X95709145Y-67413601D01*
X95711382Y-67405903D01*
X95741054Y-67303767D01*
X95755562Y-67253831D01*
X95756074Y-67247336D01*
X95758307Y-67218958D01*
X95758307Y-67218950D01*
X95758500Y-67216502D01*
X95758500Y-66690120D01*
X95778502Y-66621999D01*
X95795405Y-66601025D01*
X96236215Y-66160215D01*
X96298527Y-66126189D01*
X96369342Y-66131254D01*
X96394301Y-66143876D01*
X96417189Y-66158854D01*
X96571428Y-66216215D01*
X96578409Y-66217146D01*
X96578411Y-66217147D01*
X96727561Y-66237048D01*
X96727565Y-66237048D01*
X96734542Y-66237979D01*
X96741553Y-66237341D01*
X96741557Y-66237341D01*
X96891403Y-66223704D01*
X96891404Y-66223704D01*
X96898424Y-66223065D01*
X96927062Y-66213760D01*
X97048230Y-66174390D01*
X97048233Y-66174389D01*
X97054929Y-66172213D01*
X97196279Y-66087951D01*
X97201374Y-66083099D01*
X97201382Y-66083093D01*
X97280069Y-66008161D01*
X97343194Y-65975669D01*
X97383624Y-65974514D01*
X97417430Y-65979024D01*
X97484542Y-65987979D01*
X97491553Y-65987341D01*
X97491557Y-65987341D01*
X97641403Y-65973704D01*
X97641404Y-65973704D01*
X97648424Y-65973065D01*
X97740360Y-65943193D01*
X97798230Y-65924390D01*
X97798233Y-65924389D01*
X97804929Y-65922213D01*
X97946279Y-65837951D01*
X98065449Y-65724468D01*
X98075512Y-65709322D01*
X98152614Y-65593275D01*
X98152615Y-65593273D01*
X98156515Y-65587403D01*
X98214951Y-65433568D01*
X98223933Y-65369658D01*
X98237302Y-65274534D01*
X98237303Y-65274527D01*
X98237853Y-65270610D01*
X98237995Y-65260430D01*
X98238086Y-65253962D01*
X98238086Y-65253956D01*
X98238141Y-65250000D01*
X98219798Y-65086466D01*
X98165680Y-64931060D01*
X98148253Y-64903170D01*
X98082209Y-64797479D01*
X98078476Y-64791505D01*
X98000776Y-64713261D01*
X97967486Y-64679737D01*
X97967482Y-64679734D01*
X97962522Y-64674739D01*
X97823580Y-64586563D01*
X97686756Y-64537842D01*
X97675189Y-64533723D01*
X97675187Y-64533722D01*
X97668555Y-64531361D01*
X97661569Y-64530528D01*
X97661565Y-64530527D01*
X97540678Y-64516113D01*
X97505153Y-64511877D01*
X97461170Y-64516500D01*
X97391333Y-64503728D01*
X97339486Y-64455226D01*
X97322000Y-64391190D01*
X97322000Y-62539120D01*
X97342002Y-62470999D01*
X97358905Y-62450025D01*
X97685897Y-62123033D01*
X97748209Y-62089007D01*
X97819024Y-62094072D01*
G37*
%TD.AperFunction*%
%TA.AperFunction,Conductor*%
G36*
X92921493Y-70529738D02*
G01*
X92957371Y-70546000D01*
X94315500Y-70546000D01*
X94383621Y-70566002D01*
X94430114Y-70619658D01*
X94441500Y-70672000D01*
X94441500Y-70928000D01*
X94421498Y-70996121D01*
X94367842Y-71042614D01*
X94315500Y-71054000D01*
X93304842Y-71054000D01*
X93240703Y-71036453D01*
X93179064Y-71000000D01*
X93163601Y-70990855D01*
X93155990Y-70988644D01*
X93155988Y-70988643D01*
X93103769Y-70973472D01*
X93003831Y-70944438D01*
X92997426Y-70943934D01*
X92997421Y-70943933D01*
X92968958Y-70941693D01*
X92968950Y-70941693D01*
X92966502Y-70941500D01*
X91658498Y-70941500D01*
X91656050Y-70941693D01*
X91656042Y-70941693D01*
X91627579Y-70943933D01*
X91627574Y-70943934D01*
X91621169Y-70944438D01*
X91521231Y-70973472D01*
X91469012Y-70988643D01*
X91469010Y-70988644D01*
X91461399Y-70990855D01*
X91408720Y-71022010D01*
X91339906Y-71039468D01*
X91272574Y-71016951D01*
X91228105Y-70961607D01*
X91219063Y-70924537D01*
X91207524Y-70792658D01*
X91207523Y-70792652D01*
X91207043Y-70787166D01*
X91194940Y-70741995D01*
X91177554Y-70677111D01*
X91179244Y-70606135D01*
X91219038Y-70547339D01*
X91284303Y-70519391D01*
X91299261Y-70518500D01*
X92869476Y-70518500D01*
X92921493Y-70529738D01*
G37*
%TD.AperFunction*%
%TA.AperFunction,Conductor*%
G36*
X89792121Y-64928502D02*
G01*
X89838614Y-64982158D01*
X89850000Y-65034500D01*
X89850000Y-65113885D01*
X89854475Y-65129124D01*
X89872088Y-65144386D01*
X89910472Y-65204113D01*
X89914498Y-65256057D01*
X89910255Y-65288287D01*
X89911333Y-65296475D01*
X89914222Y-65318420D01*
X89915300Y-65334866D01*
X89915300Y-66916622D01*
X89914222Y-66933069D01*
X89910255Y-66963200D01*
X89915300Y-67001519D01*
X89915300Y-67001521D01*
X89930350Y-67115837D01*
X89933509Y-67123464D01*
X89933510Y-67123467D01*
X89954338Y-67173750D01*
X89969988Y-67211532D01*
X89989266Y-67258073D01*
X90013232Y-67289306D01*
X90082987Y-67380213D01*
X90089537Y-67385239D01*
X90089541Y-67385243D01*
X90107109Y-67398723D01*
X90119501Y-67409591D01*
X91304212Y-68594303D01*
X91315079Y-68606693D01*
X91333587Y-68630813D01*
X91364251Y-68654342D01*
X91455727Y-68724534D01*
X91483428Y-68736008D01*
X91490871Y-68739091D01*
X91546152Y-68783639D01*
X91568573Y-68851002D01*
X91551015Y-68919794D01*
X91499053Y-68968172D01*
X91442653Y-68981500D01*
X89791970Y-68981500D01*
X89723849Y-68961498D01*
X89702875Y-68944595D01*
X89321006Y-68562726D01*
X89286980Y-68500414D01*
X89292045Y-68429599D01*
X89334592Y-68372763D01*
X89345583Y-68365402D01*
X89410955Y-68326432D01*
X89480436Y-68285013D01*
X89599606Y-68171530D01*
X89603507Y-68165659D01*
X89686771Y-68040337D01*
X89686772Y-68040335D01*
X89690672Y-68034465D01*
X89749108Y-67880630D01*
X89760891Y-67796787D01*
X89771459Y-67721596D01*
X89771460Y-67721589D01*
X89772010Y-67717672D01*
X89772152Y-67707492D01*
X89772243Y-67701024D01*
X89772243Y-67701018D01*
X89772298Y-67697062D01*
X89753955Y-67533528D01*
X89699837Y-67378122D01*
X89675500Y-67339174D01*
X89625303Y-67258843D01*
X89606157Y-67192073D01*
X89606157Y-66339908D01*
X89607235Y-66323461D01*
X89610015Y-66302345D01*
X89611093Y-66294157D01*
X89591434Y-66144835D01*
X89533798Y-66005689D01*
X89534041Y-66005588D01*
X89518499Y-65947585D01*
X89518499Y-65750012D01*
X89515629Y-65713534D01*
X89512953Y-65704320D01*
X89511003Y-65697610D01*
X89506000Y-65662458D01*
X89506000Y-65221981D01*
X89526002Y-65153860D01*
X89536775Y-65139469D01*
X89548329Y-65126135D01*
X89550000Y-65118452D01*
X89550000Y-65034500D01*
X89570002Y-64966379D01*
X89623658Y-64919886D01*
X89676000Y-64908500D01*
X89724000Y-64908500D01*
X89792121Y-64928502D01*
G37*
%TD.AperFunction*%
%TA.AperFunction,Conductor*%
G36*
X92133202Y-65823078D02*
G01*
X92150779Y-65825392D01*
X92215706Y-65854114D01*
X92254798Y-65913379D01*
X92255330Y-65985467D01*
X92246732Y-66015062D01*
X92244430Y-66027667D01*
X92242193Y-66056084D01*
X92242000Y-66061014D01*
X92242000Y-66365385D01*
X92246475Y-66380624D01*
X92247865Y-66381829D01*
X92255548Y-66383500D01*
X92922302Y-66383500D01*
X92990423Y-66403502D01*
X93031628Y-66452807D01*
X93033569Y-66451686D01*
X93037699Y-66458840D01*
X93040859Y-66466468D01*
X93045885Y-66473017D01*
X93045885Y-66473018D01*
X93067956Y-66501781D01*
X93067957Y-66501782D01*
X93111968Y-66559138D01*
X93132545Y-66585955D01*
X93142206Y-66593368D01*
X93144162Y-66596047D01*
X93144935Y-66596820D01*
X93144814Y-66596941D01*
X93184072Y-66650707D01*
X93191500Y-66693329D01*
X93191500Y-66765500D01*
X93171498Y-66833621D01*
X93117842Y-66880114D01*
X93065500Y-66891500D01*
X92260116Y-66891500D01*
X92244877Y-66895975D01*
X92243672Y-66897365D01*
X92242001Y-66905048D01*
X92242001Y-67213984D01*
X92242195Y-67218920D01*
X92244430Y-67247336D01*
X92246730Y-67259931D01*
X92289107Y-67405790D01*
X92295353Y-67420223D01*
X92306434Y-67438960D01*
X92323894Y-67507776D01*
X92301378Y-67575108D01*
X92246034Y-67619577D01*
X92197981Y-67629100D01*
X92044982Y-67629100D01*
X91976861Y-67609098D01*
X91955887Y-67592196D01*
X91121605Y-66757915D01*
X91087580Y-66695602D01*
X91084700Y-66668819D01*
X91084700Y-66111914D01*
X91104702Y-66043793D01*
X91158358Y-65997300D01*
X91220492Y-65988045D01*
X91220516Y-65986900D01*
X91227237Y-65987041D01*
X91227366Y-65987021D01*
X91234542Y-65987979D01*
X91241553Y-65987341D01*
X91241557Y-65987341D01*
X91391403Y-65973704D01*
X91391404Y-65973704D01*
X91398424Y-65973065D01*
X91490360Y-65943193D01*
X91548230Y-65924390D01*
X91548233Y-65924389D01*
X91554929Y-65922213D01*
X91667644Y-65855021D01*
X91693226Y-65839771D01*
X91757744Y-65822000D01*
X92116756Y-65822000D01*
X92133202Y-65823078D01*
G37*
%TD.AperFunction*%
%TA.AperFunction,Conductor*%
G36*
X81697837Y-59416625D02*
G01*
X81703099Y-59421594D01*
X83290545Y-61009040D01*
X83324571Y-61071352D01*
X83327450Y-61098135D01*
X83327450Y-61488251D01*
X83307361Y-61556506D01*
X83238288Y-61663686D01*
X83235877Y-61670309D01*
X83235876Y-61670312D01*
X83184416Y-61811698D01*
X83184415Y-61811703D01*
X83182006Y-61818321D01*
X83161381Y-61981583D01*
X83177439Y-62145357D01*
X83229382Y-62301504D01*
X83233032Y-62307530D01*
X83233032Y-62307531D01*
X83235777Y-62312064D01*
X83254000Y-62377334D01*
X83254000Y-63293558D01*
X83257973Y-63307089D01*
X83265872Y-63308224D01*
X83270349Y-63306924D01*
X83341345Y-63307127D01*
X83400961Y-63345682D01*
X83430268Y-63410347D01*
X83431500Y-63427921D01*
X83431500Y-63475484D01*
X83431693Y-63477932D01*
X83431693Y-63477940D01*
X83433689Y-63503295D01*
X83434394Y-63512254D01*
X83446636Y-63554390D01*
X83467145Y-63624983D01*
X83480106Y-63669597D01*
X83484143Y-63676423D01*
X83490015Y-63686353D01*
X83507474Y-63755170D01*
X83490016Y-63814628D01*
X83484605Y-63823778D01*
X83478357Y-63838216D01*
X83443381Y-63958605D01*
X83443421Y-63972705D01*
X83450691Y-63976000D01*
X83728621Y-63976000D01*
X83792760Y-63993546D01*
X83796910Y-63996000D01*
X83820403Y-64009894D01*
X83828014Y-64012105D01*
X83828016Y-64012106D01*
X83878995Y-64026916D01*
X83977746Y-64055606D01*
X83984151Y-64056110D01*
X83984156Y-64056111D01*
X84012060Y-64058307D01*
X84012068Y-64058307D01*
X84014516Y-64058500D01*
X84485484Y-64058500D01*
X84487932Y-64058307D01*
X84487940Y-64058307D01*
X84515844Y-64056111D01*
X84515849Y-64056110D01*
X84522254Y-64055606D01*
X84621005Y-64026916D01*
X84671984Y-64012106D01*
X84671986Y-64012105D01*
X84679597Y-64009894D01*
X84707240Y-63993546D01*
X84771379Y-63976000D01*
X84809197Y-63976000D01*
X84844350Y-63981003D01*
X84912111Y-64000689D01*
X84963534Y-64015629D01*
X84969941Y-64016133D01*
X84969945Y-64016134D01*
X84997556Y-64018307D01*
X84997562Y-64018307D01*
X85000011Y-64018500D01*
X85009930Y-64018500D01*
X85378001Y-64018499D01*
X85446120Y-64038501D01*
X85492613Y-64092156D01*
X85504000Y-64144499D01*
X85504000Y-64388000D01*
X85483998Y-64456121D01*
X85430342Y-64502614D01*
X85378000Y-64514000D01*
X84522115Y-64514000D01*
X84506876Y-64518475D01*
X84505672Y-64519864D01*
X84504000Y-64527548D01*
X84504000Y-64998424D01*
X84508344Y-65013219D01*
X84518775Y-65015063D01*
X84528359Y-65013312D01*
X84671787Y-64971642D01*
X84673557Y-64970876D01*
X84675063Y-64970690D01*
X84679397Y-64969431D01*
X84679600Y-64970130D01*
X84744019Y-64962178D01*
X84787738Y-64978058D01*
X84800782Y-64985772D01*
X84815217Y-64992019D01*
X84886434Y-65012709D01*
X84946269Y-65050922D01*
X84975947Y-65115418D01*
X84966044Y-65185720D01*
X84940376Y-65222801D01*
X84718582Y-65444595D01*
X84656270Y-65478621D01*
X84629487Y-65481500D01*
X81395371Y-65481500D01*
X81327250Y-65461498D01*
X81280757Y-65407842D01*
X81270653Y-65337568D01*
X81300147Y-65272988D01*
X81306276Y-65266405D01*
X82076810Y-64495871D01*
X83441776Y-64495871D01*
X83478357Y-64621784D01*
X83484604Y-64636220D01*
X83559876Y-64763499D01*
X83569516Y-64775926D01*
X83674074Y-64880484D01*
X83686501Y-64890124D01*
X83813780Y-64965396D01*
X83828216Y-64971643D01*
X83971641Y-65013312D01*
X83979609Y-65014768D01*
X83993031Y-65011948D01*
X83996000Y-65000487D01*
X83996000Y-64502115D01*
X83991525Y-64486876D01*
X83990135Y-64485671D01*
X83982452Y-64484000D01*
X83456442Y-64484000D01*
X83442911Y-64487973D01*
X83441776Y-64495871D01*
X82076810Y-64495871D01*
X82528911Y-64043770D01*
X82543323Y-64031384D01*
X82554918Y-64022851D01*
X82554923Y-64022846D01*
X82560818Y-64018508D01*
X82565557Y-64012930D01*
X82565560Y-64012927D01*
X82595035Y-63978232D01*
X82601965Y-63970716D01*
X82607660Y-63965021D01*
X82625281Y-63942749D01*
X82628072Y-63939345D01*
X82670591Y-63889297D01*
X82670592Y-63889295D01*
X82675333Y-63883715D01*
X82678661Y-63877199D01*
X82682020Y-63872162D01*
X82685194Y-63867023D01*
X82689734Y-63861284D01*
X82700515Y-63838216D01*
X82720636Y-63795163D01*
X82722569Y-63791209D01*
X82740816Y-63755475D01*
X82755769Y-63726192D01*
X82757510Y-63719076D01*
X82759604Y-63713446D01*
X82761523Y-63707679D01*
X82764621Y-63701050D01*
X82767223Y-63688544D01*
X82779482Y-63629604D01*
X82780453Y-63625315D01*
X82787075Y-63598253D01*
X82797808Y-63554390D01*
X82798500Y-63543236D01*
X82798536Y-63543238D01*
X82798775Y-63539248D01*
X82799150Y-63535050D01*
X82800640Y-63527885D01*
X82798546Y-63450496D01*
X82798500Y-63447088D01*
X82798500Y-62883486D01*
X82803503Y-62848333D01*
X82804467Y-62845017D01*
X82815409Y-62807354D01*
X82823812Y-62778431D01*
X82823813Y-62778426D01*
X82825606Y-62772254D01*
X82826222Y-62764436D01*
X82828307Y-62737940D01*
X82828307Y-62737932D01*
X82828500Y-62735484D01*
X82828500Y-62264516D01*
X82828307Y-62262060D01*
X82826111Y-62234156D01*
X82826110Y-62234151D01*
X82825606Y-62227746D01*
X82787334Y-62096011D01*
X82782106Y-62078016D01*
X82782105Y-62078014D01*
X82779894Y-62070403D01*
X82763546Y-62042760D01*
X82746000Y-61978621D01*
X82746000Y-61706442D01*
X82742027Y-61692911D01*
X82734129Y-61691776D01*
X82608216Y-61728357D01*
X82593778Y-61734605D01*
X82584628Y-61740016D01*
X82515812Y-61757474D01*
X82456353Y-61740015D01*
X82446423Y-61734143D01*
X82446424Y-61734143D01*
X82439597Y-61730106D01*
X82431986Y-61727895D01*
X82431984Y-61727894D01*
X82358144Y-61706442D01*
X82282254Y-61684394D01*
X82275849Y-61683890D01*
X82275844Y-61683889D01*
X82247940Y-61681693D01*
X82247932Y-61681693D01*
X82245484Y-61681500D01*
X81834516Y-61681500D01*
X81832068Y-61681693D01*
X81832060Y-61681693D01*
X81804156Y-61683889D01*
X81804151Y-61683890D01*
X81797746Y-61684394D01*
X81721856Y-61706442D01*
X81648016Y-61727894D01*
X81648014Y-61727895D01*
X81640403Y-61730106D01*
X81633581Y-61734141D01*
X81633580Y-61734141D01*
X81594126Y-61757474D01*
X81499371Y-61813512D01*
X81383512Y-61929371D01*
X81379478Y-61936192D01*
X81319363Y-62037842D01*
X81300106Y-62070403D01*
X81297895Y-62078014D01*
X81297894Y-62078016D01*
X81292666Y-62096011D01*
X81254394Y-62227746D01*
X81253890Y-62234151D01*
X81253889Y-62234156D01*
X81251693Y-62262060D01*
X81251500Y-62264516D01*
X81251500Y-62735484D01*
X81251693Y-62737932D01*
X81251693Y-62737940D01*
X81253779Y-62764436D01*
X81254394Y-62772254D01*
X81256187Y-62778426D01*
X81256188Y-62778431D01*
X81264591Y-62807354D01*
X81275534Y-62845017D01*
X81276497Y-62848333D01*
X81281500Y-62883486D01*
X81281500Y-63093629D01*
X81261498Y-63161750D01*
X81244595Y-63182724D01*
X80182340Y-64244979D01*
X80100266Y-64348716D01*
X80097167Y-64355347D01*
X80097165Y-64355350D01*
X80028477Y-64502318D01*
X80028476Y-64502322D01*
X80025378Y-64508950D01*
X80023888Y-64516112D01*
X80023888Y-64516113D01*
X80018558Y-64541739D01*
X79989360Y-64682115D01*
X79994143Y-64858921D01*
X79996021Y-64866003D01*
X79996021Y-64866004D01*
X80036269Y-65017795D01*
X80039474Y-65029884D01*
X80042930Y-65036343D01*
X80116785Y-65174371D01*
X80122918Y-65185834D01*
X80127765Y-65191322D01*
X80127767Y-65191325D01*
X80154940Y-65222092D01*
X80185042Y-65286392D01*
X80175602Y-65356758D01*
X80129617Y-65410850D01*
X80060499Y-65431500D01*
X79754516Y-65431500D01*
X79752068Y-65431693D01*
X79752060Y-65431693D01*
X79724156Y-65433889D01*
X79724151Y-65433890D01*
X79717746Y-65434394D01*
X79641856Y-65456442D01*
X79568016Y-65477894D01*
X79568014Y-65477895D01*
X79560403Y-65480106D01*
X79552797Y-65484604D01*
X79543647Y-65490015D01*
X79474830Y-65507474D01*
X79415372Y-65490016D01*
X79406222Y-65484605D01*
X79391784Y-65478357D01*
X79271395Y-65443381D01*
X79257295Y-65443421D01*
X79254000Y-65450691D01*
X79254000Y-65728621D01*
X79236454Y-65792760D01*
X79220106Y-65820403D01*
X79217895Y-65828014D01*
X79217894Y-65828016D01*
X79215411Y-65836563D01*
X79174394Y-65977746D01*
X79173890Y-65984151D01*
X79173889Y-65984156D01*
X79172049Y-66007537D01*
X79171500Y-66014516D01*
X79171500Y-66378000D01*
X79151498Y-66446121D01*
X79097842Y-66492614D01*
X79045500Y-66504000D01*
X78215952Y-66504000D01*
X78189893Y-66506363D01*
X78013201Y-66487792D01*
X78000931Y-66487707D01*
X77816345Y-66504505D01*
X77804296Y-66506803D01*
X77626479Y-66559138D01*
X77615111Y-66563731D01*
X77450846Y-66649607D01*
X77444404Y-66653822D01*
X77376450Y-66674385D01*
X77315483Y-66659225D01*
X77200067Y-66596820D01*
X77142701Y-66565802D01*
X76953768Y-66507318D01*
X76947643Y-66506674D01*
X76947642Y-66506674D01*
X76763204Y-66487289D01*
X76763202Y-66487289D01*
X76757075Y-66486645D01*
X76691487Y-66492614D01*
X76566251Y-66504011D01*
X76566248Y-66504012D01*
X76560112Y-66504570D01*
X76554206Y-66506308D01*
X76554202Y-66506309D01*
X76370381Y-66560410D01*
X76369571Y-66557658D01*
X76311175Y-66563482D01*
X76247934Y-66531215D01*
X76212178Y-66469880D01*
X76208500Y-66439660D01*
X76208500Y-65979609D01*
X78215232Y-65979609D01*
X78218052Y-65993031D01*
X78229513Y-65996000D01*
X78727885Y-65996000D01*
X78743124Y-65991525D01*
X78744329Y-65990135D01*
X78746000Y-65982452D01*
X78746000Y-65456442D01*
X78742027Y-65442911D01*
X78734129Y-65441776D01*
X78608216Y-65478357D01*
X78593780Y-65484604D01*
X78466501Y-65559876D01*
X78454074Y-65569516D01*
X78349516Y-65674074D01*
X78339876Y-65686501D01*
X78264604Y-65813780D01*
X78258357Y-65828216D01*
X78216688Y-65971641D01*
X78215232Y-65979609D01*
X76208500Y-65979609D01*
X76208500Y-64432234D01*
X76228502Y-64364113D01*
X76282158Y-64317620D01*
X76350946Y-64307312D01*
X76404593Y-64314375D01*
X76462497Y-64321999D01*
X76462506Y-64322000D01*
X76462509Y-64322000D01*
X76462521Y-64322001D01*
X76491811Y-64325857D01*
X76491812Y-64325857D01*
X76500000Y-64326935D01*
X76508188Y-64325857D01*
X76508189Y-64325857D01*
X76529298Y-64323078D01*
X76545744Y-64322000D01*
X76844362Y-64322000D01*
X76912483Y-64342002D01*
X76947575Y-64375730D01*
X77057924Y-64533326D01*
X77057928Y-64533331D01*
X77061087Y-64537842D01*
X77212158Y-64688913D01*
X77216666Y-64692070D01*
X77216669Y-64692072D01*
X77382659Y-64808299D01*
X77387168Y-64811456D01*
X77392150Y-64813779D01*
X77392155Y-64813782D01*
X77553380Y-64888962D01*
X77580798Y-64901747D01*
X77586106Y-64903169D01*
X77586108Y-64903170D01*
X77781851Y-64955619D01*
X77781853Y-64955619D01*
X77787166Y-64957043D01*
X78000000Y-64975664D01*
X78212834Y-64957043D01*
X78218147Y-64955619D01*
X78218149Y-64955619D01*
X78413892Y-64903170D01*
X78413894Y-64903169D01*
X78419202Y-64901747D01*
X78446620Y-64888962D01*
X78607845Y-64813782D01*
X78607850Y-64813779D01*
X78612832Y-64811456D01*
X78617341Y-64808299D01*
X78783331Y-64692072D01*
X78783334Y-64692070D01*
X78787842Y-64688913D01*
X78938913Y-64537842D01*
X78942076Y-64533326D01*
X79058299Y-64367341D01*
X79058300Y-64367339D01*
X79061456Y-64362832D01*
X79063779Y-64357850D01*
X79063782Y-64357845D01*
X79149424Y-64174184D01*
X79149425Y-64174183D01*
X79151747Y-64169202D01*
X79172392Y-64092156D01*
X79205619Y-63968149D01*
X79205619Y-63968147D01*
X79207043Y-63962834D01*
X79225664Y-63750000D01*
X79207043Y-63537166D01*
X79201614Y-63516904D01*
X79153170Y-63336108D01*
X79153169Y-63336106D01*
X79151747Y-63330798D01*
X79149299Y-63325547D01*
X79109148Y-63239445D01*
X79066300Y-63147556D01*
X79055639Y-63077365D01*
X79084619Y-63012553D01*
X79144039Y-62973696D01*
X79145469Y-62973334D01*
X79148424Y-62973065D01*
X79236051Y-62944593D01*
X79298230Y-62924390D01*
X79298233Y-62924389D01*
X79304929Y-62922213D01*
X79446279Y-62837951D01*
X79451377Y-62833096D01*
X79456991Y-62828835D01*
X79458063Y-62830247D01*
X79513154Y-62801893D01*
X79567394Y-62803374D01*
X79569776Y-62803968D01*
X79576375Y-62806422D01*
X79583354Y-62807353D01*
X79583357Y-62807354D01*
X79732508Y-62827255D01*
X79732512Y-62827255D01*
X79739489Y-62828186D01*
X79746500Y-62827548D01*
X79746504Y-62827548D01*
X79896350Y-62813911D01*
X79896351Y-62813911D01*
X79903371Y-62813272D01*
X79970415Y-62791488D01*
X80053177Y-62764597D01*
X80053180Y-62764596D01*
X80059876Y-62762420D01*
X80201226Y-62678158D01*
X80320396Y-62564675D01*
X80328200Y-62552929D01*
X80407561Y-62433482D01*
X80407562Y-62433480D01*
X80411462Y-62427610D01*
X80469898Y-62273775D01*
X80478681Y-62211283D01*
X80507970Y-62146609D01*
X80514360Y-62139725D01*
X80602118Y-62051967D01*
X80614501Y-62041106D01*
X80637955Y-62023109D01*
X80660971Y-61993114D01*
X80660976Y-61993109D01*
X80660988Y-61993093D01*
X80660999Y-61993080D01*
X80724612Y-61910176D01*
X80729641Y-61903622D01*
X80787277Y-61764476D01*
X80788130Y-61758000D01*
X80791802Y-61730106D01*
X80796043Y-61697895D01*
X80824766Y-61632968D01*
X80831870Y-61625247D01*
X80886488Y-61570629D01*
X80897213Y-61552494D01*
X80965859Y-61436420D01*
X80965859Y-61436419D01*
X80969894Y-61429597D01*
X80972247Y-61421500D01*
X80991340Y-61355779D01*
X81015606Y-61272254D01*
X81018146Y-61239991D01*
X81018307Y-61237940D01*
X81018307Y-61237932D01*
X81018500Y-61235484D01*
X81018500Y-60764516D01*
X81015606Y-60727746D01*
X80969894Y-60570403D01*
X80965859Y-60563581D01*
X80962710Y-60556303D01*
X80964053Y-60555722D01*
X80948731Y-60495315D01*
X80963755Y-60444149D01*
X80962710Y-60443697D01*
X80965859Y-60436419D01*
X80969894Y-60429597D01*
X81015606Y-60272254D01*
X81016818Y-60256855D01*
X81042104Y-60190513D01*
X81077913Y-60158512D01*
X81190230Y-60091558D01*
X81190236Y-60091553D01*
X81196279Y-60087951D01*
X81315449Y-59974468D01*
X81319350Y-59968597D01*
X81402614Y-59843275D01*
X81402615Y-59843273D01*
X81406515Y-59837403D01*
X81464951Y-59683568D01*
X81480008Y-59576432D01*
X81487302Y-59524534D01*
X81487303Y-59524527D01*
X81487853Y-59520610D01*
X81488016Y-59508930D01*
X81508967Y-59441096D01*
X81563266Y-59395356D01*
X81633674Y-59386234D01*
X81697837Y-59416625D01*
G37*
%TD.AperFunction*%
%TA.AperFunction,Conductor*%
G36*
X86030512Y-61867789D02*
G01*
X86037095Y-61873918D01*
X87083866Y-62920689D01*
X87117892Y-62983001D01*
X87112827Y-63053816D01*
X87071997Y-63109344D01*
X87064762Y-63114956D01*
X87054305Y-63122250D01*
X87025610Y-63140181D01*
X87025607Y-63140183D01*
X87019627Y-63143920D01*
X86999471Y-63163936D01*
X86992233Y-63171124D01*
X86991662Y-63171658D01*
X86991024Y-63172153D01*
X86966374Y-63196803D01*
X86897289Y-63265408D01*
X86896659Y-63266400D01*
X86895630Y-63267547D01*
X86240289Y-63922888D01*
X86177977Y-63956914D01*
X86107162Y-63951849D01*
X86050326Y-63909302D01*
X86036636Y-63881856D01*
X86035167Y-63882492D01*
X86025771Y-63860780D01*
X85998478Y-63814630D01*
X85981018Y-63745813D01*
X85998477Y-63686353D01*
X86030269Y-63632596D01*
X86043691Y-63586399D01*
X86072284Y-63487979D01*
X86075629Y-63476466D01*
X86076922Y-63460047D01*
X86078307Y-63442444D01*
X86078307Y-63442438D01*
X86078500Y-63439989D01*
X86078499Y-63040012D01*
X86075629Y-63003534D01*
X86034569Y-62862205D01*
X86032481Y-62855017D01*
X86032480Y-62855015D01*
X86030269Y-62847404D01*
X86026233Y-62840579D01*
X86026231Y-62840575D01*
X85981350Y-62764685D01*
X85963890Y-62695869D01*
X85965029Y-62683010D01*
X85965205Y-62681762D01*
X85976941Y-62598253D01*
X85987302Y-62524534D01*
X85987303Y-62524527D01*
X85987853Y-62520610D01*
X85988141Y-62500000D01*
X85969798Y-62336466D01*
X85950244Y-62280313D01*
X85926205Y-62211283D01*
X85915680Y-62181060D01*
X85903037Y-62160826D01*
X85841146Y-62061781D01*
X85822000Y-61995011D01*
X85822000Y-61963013D01*
X85842002Y-61894892D01*
X85895658Y-61848399D01*
X85965932Y-61838295D01*
X86030512Y-61867789D01*
G37*
%TD.AperFunction*%
%TA.AperFunction,Conductor*%
G36*
X112356268Y-58904592D02*
G01*
X112413030Y-58947238D01*
X112430012Y-58978341D01*
X112437997Y-58999641D01*
X112474385Y-59096705D01*
X112561739Y-59213261D01*
X112678295Y-59300615D01*
X112814684Y-59351745D01*
X112876866Y-59358500D01*
X114008629Y-59358500D01*
X114076750Y-59378502D01*
X114097724Y-59395405D01*
X114254595Y-59552276D01*
X114288621Y-59614588D01*
X114291500Y-59641371D01*
X114291500Y-61260555D01*
X114271498Y-61328676D01*
X114217842Y-61375169D01*
X114147568Y-61385273D01*
X114082988Y-61355779D01*
X114076405Y-61349650D01*
X114037842Y-61311087D01*
X114033334Y-61307930D01*
X114033331Y-61307928D01*
X113867341Y-61191701D01*
X113867339Y-61191700D01*
X113862832Y-61188544D01*
X113857850Y-61186221D01*
X113857845Y-61186218D01*
X113674184Y-61100576D01*
X113674183Y-61100575D01*
X113669202Y-61098253D01*
X113663894Y-61096831D01*
X113663892Y-61096830D01*
X113468149Y-61044381D01*
X113468147Y-61044381D01*
X113462834Y-61042957D01*
X113250000Y-61024336D01*
X113037166Y-61042957D01*
X113031853Y-61044381D01*
X113031851Y-61044381D01*
X112836108Y-61096830D01*
X112836106Y-61096831D01*
X112830798Y-61098253D01*
X112825816Y-61100576D01*
X112825811Y-61100578D01*
X112690815Y-61163527D01*
X112620624Y-61174188D01*
X112555811Y-61145208D01*
X112516955Y-61085788D01*
X112513616Y-61026693D01*
X112514767Y-61020389D01*
X112511948Y-61006969D01*
X112500487Y-61004000D01*
X111857208Y-61004000D01*
X111789087Y-60983998D01*
X111750444Y-60943471D01*
X111749641Y-60941532D01*
X111659785Y-60824430D01*
X111634184Y-60758210D01*
X111648449Y-60688661D01*
X111659783Y-60671025D01*
X111691533Y-60629648D01*
X111734641Y-60573468D01*
X111737799Y-60565844D01*
X111741751Y-60558999D01*
X111793134Y-60510006D01*
X111850869Y-60496000D01*
X112498424Y-60496000D01*
X112513219Y-60491656D01*
X112515063Y-60481225D01*
X112513312Y-60471641D01*
X112471643Y-60328216D01*
X112465396Y-60313780D01*
X112390124Y-60186501D01*
X112380484Y-60174074D01*
X112275926Y-60069516D01*
X112263499Y-60059876D01*
X112136220Y-59984604D01*
X112121784Y-59978357D01*
X111978359Y-59936688D01*
X111965756Y-59934386D01*
X111937898Y-59932193D01*
X111930498Y-59931903D01*
X111930523Y-59931273D01*
X111864879Y-59911998D01*
X111818386Y-59858342D01*
X111807000Y-59806000D01*
X111807000Y-59311200D01*
X111827002Y-59243079D01*
X111877568Y-59198049D01*
X111928346Y-59173173D01*
X111932994Y-59170896D01*
X112114860Y-59041173D01*
X112223091Y-58933319D01*
X112285462Y-58899404D01*
X112356268Y-58904592D01*
G37*
%TD.AperFunction*%
%TA.AperFunction,Conductor*%
G36*
X104172041Y-55768923D02*
G01*
X104189753Y-55783657D01*
X106943242Y-58537146D01*
X106944170Y-58538083D01*
X107004131Y-58599313D01*
X107010055Y-58603131D01*
X107010059Y-58603134D01*
X107038499Y-58621462D01*
X107048852Y-58628901D01*
X107075306Y-58650019D01*
X107075313Y-58650023D01*
X107080813Y-58654414D01*
X107109178Y-58668127D01*
X107122581Y-58675649D01*
X107143128Y-58688891D01*
X107143132Y-58688893D01*
X107149055Y-58692710D01*
X107187478Y-58706694D01*
X107199213Y-58711652D01*
X107236038Y-58729454D01*
X107266731Y-58736540D01*
X107281469Y-58740905D01*
X107311069Y-58751679D01*
X107318059Y-58752562D01*
X107351629Y-58756803D01*
X107364170Y-58759036D01*
X107404031Y-58768239D01*
X107411077Y-58768264D01*
X107411080Y-58768264D01*
X107442637Y-58768374D01*
X107443427Y-58768400D01*
X107444220Y-58768500D01*
X107478753Y-58768500D01*
X107479191Y-58768501D01*
X107479515Y-58768502D01*
X107506260Y-58768595D01*
X107574309Y-58788833D01*
X107601057Y-58812095D01*
X107674903Y-58897345D01*
X107737866Y-58970032D01*
X107737869Y-58970035D01*
X107741250Y-58973938D01*
X107745225Y-58977238D01*
X107745228Y-58977241D01*
X107843271Y-59058638D01*
X107882906Y-59117541D01*
X107884404Y-59188522D01*
X107851881Y-59244677D01*
X106906212Y-60190346D01*
X106843900Y-60224372D01*
X106773085Y-60219307D01*
X106727710Y-60190034D01*
X106712522Y-60174739D01*
X106573580Y-60086563D01*
X106435773Y-60037492D01*
X106425189Y-60033723D01*
X106425187Y-60033722D01*
X106418555Y-60031361D01*
X106411569Y-60030528D01*
X106411565Y-60030527D01*
X106297071Y-60016875D01*
X106255153Y-60011877D01*
X106248150Y-60012613D01*
X106248149Y-60012613D01*
X106204935Y-60017155D01*
X106091495Y-60029078D01*
X106084827Y-60031348D01*
X105942382Y-60079840D01*
X105942379Y-60079841D01*
X105935715Y-60082110D01*
X105909475Y-60098253D01*
X105810215Y-60159318D01*
X105744193Y-60178000D01*
X104957307Y-60178000D01*
X104889186Y-60157998D01*
X104868212Y-60141095D01*
X104790629Y-60063512D01*
X104778529Y-60056356D01*
X104656420Y-59984141D01*
X104656419Y-59984141D01*
X104649597Y-59980106D01*
X104641986Y-59977895D01*
X104641984Y-59977894D01*
X104551030Y-59951470D01*
X104492254Y-59934394D01*
X104485849Y-59933890D01*
X104485844Y-59933889D01*
X104457940Y-59931693D01*
X104457932Y-59931693D01*
X104455484Y-59931500D01*
X104044516Y-59931500D01*
X104042068Y-59931693D01*
X104042060Y-59931693D01*
X104014156Y-59933889D01*
X104014151Y-59933890D01*
X104007746Y-59934394D01*
X103948970Y-59951470D01*
X103858016Y-59977894D01*
X103858014Y-59977895D01*
X103850403Y-59980106D01*
X103843576Y-59984143D01*
X103843577Y-59984143D01*
X103833647Y-59990015D01*
X103764830Y-60007474D01*
X103705372Y-59990016D01*
X103696222Y-59984605D01*
X103681784Y-59978357D01*
X103561395Y-59943381D01*
X103547295Y-59943421D01*
X103544000Y-59950691D01*
X103544000Y-60228621D01*
X103526454Y-60292760D01*
X103510106Y-60320403D01*
X103464394Y-60477746D01*
X103463890Y-60484151D01*
X103463889Y-60484156D01*
X103462642Y-60500000D01*
X103461500Y-60514516D01*
X103461500Y-60878000D01*
X103441498Y-60946121D01*
X103387842Y-60992614D01*
X103335500Y-61004000D01*
X102521576Y-61004000D01*
X102506781Y-61008344D01*
X102501926Y-61035813D01*
X102497580Y-61035045D01*
X102489026Y-61075718D01*
X102439173Y-61126267D01*
X102378023Y-61142100D01*
X98971020Y-61142100D01*
X98902899Y-61122098D01*
X98856406Y-61068442D01*
X98846302Y-60998168D01*
X98875796Y-60933588D01*
X98881925Y-60927005D01*
X99329321Y-60479609D01*
X102505232Y-60479609D01*
X102508052Y-60493031D01*
X102519513Y-60496000D01*
X103017885Y-60496000D01*
X103033124Y-60491525D01*
X103034329Y-60490135D01*
X103036000Y-60482452D01*
X103036000Y-59956442D01*
X103032027Y-59942911D01*
X103024129Y-59941776D01*
X102898216Y-59978357D01*
X102883780Y-59984604D01*
X102756501Y-60059876D01*
X102744074Y-60069516D01*
X102639516Y-60174074D01*
X102629876Y-60186501D01*
X102554604Y-60313780D01*
X102548357Y-60328216D01*
X102506688Y-60471641D01*
X102505232Y-60479609D01*
X99329321Y-60479609D01*
X102622114Y-57186816D01*
X102634505Y-57175949D01*
X102651405Y-57162981D01*
X102657955Y-57157955D01*
X102686251Y-57121080D01*
X102730925Y-57062859D01*
X102749641Y-57038468D01*
X102781509Y-56961532D01*
X102807278Y-56899322D01*
X102821949Y-56787878D01*
X102850671Y-56722951D01*
X102909936Y-56683859D01*
X102980927Y-56683014D01*
X102990792Y-56686227D01*
X103064823Y-56713759D01*
X103064826Y-56713760D01*
X103071428Y-56716215D01*
X103078409Y-56717146D01*
X103078411Y-56717147D01*
X103227561Y-56737048D01*
X103227565Y-56737048D01*
X103234542Y-56737979D01*
X103241553Y-56737341D01*
X103241557Y-56737341D01*
X103391403Y-56723704D01*
X103391404Y-56723704D01*
X103398424Y-56723065D01*
X103460085Y-56703030D01*
X103548230Y-56674390D01*
X103548233Y-56674389D01*
X103554929Y-56672213D01*
X103696279Y-56587951D01*
X103815449Y-56474468D01*
X103842623Y-56433568D01*
X103902614Y-56343275D01*
X103902615Y-56343273D01*
X103906515Y-56337403D01*
X103964951Y-56183568D01*
X103979220Y-56082039D01*
X103987302Y-56024534D01*
X103987303Y-56024527D01*
X103987853Y-56020610D01*
X103988141Y-56000000D01*
X103975443Y-55886795D01*
X103987727Y-55816872D01*
X104035866Y-55764687D01*
X104104576Y-55746813D01*
X104172041Y-55768923D01*
G37*
%TD.AperFunction*%
%TA.AperFunction,Conductor*%
G36*
X93741920Y-55686647D02*
G01*
X93814818Y-55713758D01*
X93814828Y-55713761D01*
X93821428Y-55716215D01*
X93828409Y-55717146D01*
X93828411Y-55717147D01*
X93878234Y-55723795D01*
X93943110Y-55752631D01*
X93950663Y-55759593D01*
X94141095Y-55950025D01*
X94175121Y-56012337D01*
X94178000Y-56039120D01*
X94178000Y-59246362D01*
X94157911Y-59314617D01*
X94088838Y-59421797D01*
X94086427Y-59428420D01*
X94086426Y-59428423D01*
X94034966Y-59569809D01*
X94034965Y-59569814D01*
X94032556Y-59576432D01*
X94027736Y-59614588D01*
X94020242Y-59673908D01*
X93991860Y-59738985D01*
X93932801Y-59778386D01*
X93861815Y-59779603D01*
X93806141Y-59747211D01*
X93608905Y-59549975D01*
X93574879Y-59487663D01*
X93572000Y-59460880D01*
X93572000Y-55804744D01*
X93592002Y-55736623D01*
X93645658Y-55690130D01*
X93715932Y-55680026D01*
X93741920Y-55686647D01*
G37*
%TD.AperFunction*%
%TA.AperFunction,Conductor*%
G36*
X100045582Y-57015215D02*
G01*
X100070403Y-57029894D01*
X100078014Y-57032105D01*
X100078016Y-57032106D01*
X100099915Y-57038468D01*
X100227746Y-57075606D01*
X100234151Y-57076110D01*
X100234156Y-57076111D01*
X100262060Y-57078307D01*
X100262068Y-57078307D01*
X100264516Y-57078500D01*
X100628000Y-57078500D01*
X100696121Y-57098502D01*
X100742614Y-57152158D01*
X100754000Y-57204500D01*
X100754000Y-57378000D01*
X100733998Y-57446121D01*
X100680342Y-57492614D01*
X100628000Y-57504000D01*
X99772115Y-57504000D01*
X99756876Y-57508475D01*
X99755671Y-57509865D01*
X99754000Y-57517548D01*
X99754000Y-57998424D01*
X99758344Y-58013219D01*
X99768775Y-58015063D01*
X99778356Y-58013313D01*
X99870059Y-57986670D01*
X99941056Y-57986872D01*
X100000672Y-58025426D01*
X100029981Y-58090091D01*
X100019677Y-58160336D01*
X99994308Y-58196762D01*
X99313964Y-58877106D01*
X99251652Y-58911132D01*
X99180837Y-58906067D01*
X99124001Y-58863520D01*
X99118015Y-58854780D01*
X99091146Y-58811780D01*
X99072000Y-58745011D01*
X99072000Y-58137079D01*
X99092002Y-58068958D01*
X99145658Y-58022465D01*
X99220637Y-58013129D01*
X99229609Y-58014768D01*
X99243031Y-58011948D01*
X99246000Y-58000487D01*
X99246000Y-57385120D01*
X99266002Y-57316999D01*
X99282905Y-57296025D01*
X99483525Y-57095405D01*
X99545837Y-57061379D01*
X99572620Y-57058500D01*
X99735484Y-57058500D01*
X99737932Y-57058307D01*
X99737940Y-57058307D01*
X99765844Y-57056111D01*
X99765849Y-57056110D01*
X99772254Y-57055606D01*
X99911282Y-57015215D01*
X99921984Y-57012106D01*
X99921986Y-57012105D01*
X99929597Y-57009894D01*
X99933104Y-57007820D01*
X100001865Y-56999334D01*
X100045582Y-57015215D01*
G37*
%TD.AperFunction*%
%TA.AperFunction,Conductor*%
G36*
X96573453Y-56596231D02*
G01*
X96610923Y-56656534D01*
X96615500Y-56690187D01*
X96615500Y-58371099D01*
X96595498Y-58439220D01*
X96541842Y-58485713D01*
X96471568Y-58495817D01*
X96406988Y-58466323D01*
X96400405Y-58460194D01*
X95993673Y-58053462D01*
X95959647Y-57991150D01*
X95966359Y-57916151D01*
X95997918Y-57839960D01*
X96006299Y-57776297D01*
X96014786Y-57711825D01*
X96014786Y-57711822D01*
X96016497Y-57698827D01*
X96017575Y-57690640D01*
X96015905Y-57677955D01*
X95997917Y-57541316D01*
X95944840Y-57413178D01*
X95944128Y-57411460D01*
X95941605Y-57405367D01*
X95941603Y-57405364D01*
X95940281Y-57402172D01*
X95940280Y-57402170D01*
X95910537Y-57363408D01*
X95884937Y-57297187D01*
X95884500Y-57286704D01*
X95884500Y-57069133D01*
X95904502Y-57001012D01*
X95958158Y-56954519D01*
X95971561Y-56949301D01*
X96002049Y-56939395D01*
X96048230Y-56924390D01*
X96048233Y-56924389D01*
X96054929Y-56922213D01*
X96196279Y-56837951D01*
X96315449Y-56724468D01*
X96384553Y-56620458D01*
X96438910Y-56574789D01*
X96509329Y-56565757D01*
X96573453Y-56596231D01*
G37*
%TD.AperFunction*%
%TA.AperFunction,Conductor*%
G36*
X110283001Y-45342002D02*
G01*
X110329494Y-45395658D01*
X110339598Y-45465932D01*
X110310104Y-45530512D01*
X110303975Y-45537095D01*
X109127886Y-46713184D01*
X109115495Y-46724051D01*
X109092045Y-46742045D01*
X109069025Y-46772045D01*
X109069024Y-46772046D01*
X109001261Y-46860357D01*
X109000359Y-46861532D01*
X108997196Y-46869168D01*
X108997195Y-46869170D01*
X108989480Y-46887797D01*
X108942723Y-47000678D01*
X108928000Y-47112508D01*
X108928000Y-47112514D01*
X108923065Y-47150000D01*
X108924143Y-47158188D01*
X108924143Y-47158189D01*
X108926922Y-47179298D01*
X108928000Y-47195744D01*
X108928000Y-48067408D01*
X108907998Y-48135529D01*
X108854342Y-48182022D01*
X108802359Y-48193407D01*
X108797295Y-48193421D01*
X108794000Y-48200691D01*
X108794000Y-48478621D01*
X108776454Y-48542760D01*
X108760106Y-48570403D01*
X108757895Y-48578014D01*
X108757894Y-48578016D01*
X108753275Y-48593916D01*
X108714394Y-48727746D01*
X108713890Y-48734151D01*
X108713889Y-48734156D01*
X108713191Y-48743031D01*
X108711500Y-48764516D01*
X108711500Y-49235484D01*
X108711693Y-49237932D01*
X108711693Y-49237940D01*
X108713184Y-49256876D01*
X108714394Y-49272254D01*
X108760106Y-49429597D01*
X108762180Y-49433104D01*
X108770666Y-49501865D01*
X108754785Y-49545582D01*
X108740106Y-49570403D01*
X108737895Y-49578014D01*
X108737894Y-49578016D01*
X108735167Y-49587403D01*
X108694394Y-49727746D01*
X108693890Y-49734151D01*
X108693889Y-49734156D01*
X108692589Y-49750677D01*
X108691500Y-49764516D01*
X108691500Y-50045500D01*
X108671498Y-50113621D01*
X108617842Y-50160114D01*
X108565500Y-50171500D01*
X108297800Y-50171501D01*
X108290012Y-50171501D01*
X108253534Y-50174371D01*
X108187964Y-50193421D01*
X108105017Y-50217519D01*
X108105015Y-50217520D01*
X108097404Y-50219731D01*
X108090579Y-50223767D01*
X108090575Y-50223769D01*
X108069127Y-50236453D01*
X108004988Y-50254000D01*
X107751578Y-50254000D01*
X107718764Y-50263635D01*
X107696441Y-50268048D01*
X107591495Y-50279078D01*
X107584827Y-50281348D01*
X107442382Y-50329840D01*
X107442379Y-50329841D01*
X107435715Y-50332110D01*
X107295555Y-50418337D01*
X107257668Y-50455439D01*
X107208118Y-50503962D01*
X107177982Y-50533473D01*
X107088838Y-50671797D01*
X107086427Y-50678420D01*
X107086426Y-50678423D01*
X107034966Y-50819809D01*
X107034965Y-50819814D01*
X107032556Y-50826432D01*
X107011931Y-50989694D01*
X107027989Y-51153468D01*
X107079932Y-51309615D01*
X107083581Y-51315640D01*
X107146457Y-51419459D01*
X107165179Y-51450373D01*
X107170070Y-51455438D01*
X107170071Y-51455439D01*
X107212630Y-51499510D01*
X107279491Y-51568747D01*
X107417189Y-51658854D01*
X107423793Y-51661310D01*
X107564826Y-51713760D01*
X107564828Y-51713761D01*
X107571428Y-51716215D01*
X107578411Y-51717147D01*
X107578412Y-51717147D01*
X107589280Y-51718597D01*
X107602164Y-51720316D01*
X107667041Y-51749151D01*
X107706029Y-51808484D01*
X107711500Y-51845209D01*
X107711501Y-52047176D01*
X107711501Y-52249988D01*
X107714371Y-52286466D01*
X107728926Y-52336563D01*
X107753447Y-52420965D01*
X107759731Y-52442596D01*
X107763766Y-52449418D01*
X107763766Y-52449419D01*
X107842494Y-52582541D01*
X107840406Y-52583776D01*
X107861948Y-52638618D01*
X107848058Y-52708242D01*
X107831668Y-52732289D01*
X107818171Y-52747865D01*
X107816500Y-52755548D01*
X107816500Y-53678000D01*
X107796498Y-53746121D01*
X107742842Y-53792614D01*
X107690500Y-53804000D01*
X106338122Y-53804000D01*
X106324591Y-53807973D01*
X106323456Y-53815871D01*
X106364107Y-53955790D01*
X106370352Y-53970221D01*
X106446911Y-54099678D01*
X106456551Y-54112104D01*
X106562896Y-54218449D01*
X106575322Y-54228089D01*
X106704779Y-54304648D01*
X106719210Y-54310893D01*
X106865065Y-54353269D01*
X106877667Y-54355570D01*
X106906084Y-54357807D01*
X106911014Y-54358000D01*
X107030673Y-54358000D01*
X107098794Y-54378002D01*
X107145287Y-54431658D01*
X107155391Y-54501932D01*
X107130635Y-54560704D01*
X107106464Y-54592204D01*
X107049126Y-54634071D01*
X107006502Y-54641500D01*
X106908498Y-54641500D01*
X106906050Y-54641693D01*
X106906042Y-54641693D01*
X106877579Y-54643933D01*
X106877574Y-54643934D01*
X106871169Y-54644438D01*
X106776819Y-54671849D01*
X106719012Y-54688643D01*
X106719010Y-54688644D01*
X106711399Y-54690855D01*
X106704572Y-54694892D01*
X106704573Y-54694892D01*
X106575020Y-54771509D01*
X106575017Y-54771511D01*
X106568193Y-54775547D01*
X106450547Y-54893193D01*
X106446511Y-54900017D01*
X106446509Y-54900020D01*
X106409109Y-54963261D01*
X106365855Y-55036399D01*
X106363643Y-55044012D01*
X106360494Y-55051289D01*
X106358614Y-55050475D01*
X106326192Y-55101256D01*
X106261699Y-55130941D01*
X106191396Y-55121046D01*
X106154302Y-55095372D01*
X105408405Y-54349475D01*
X105374379Y-54287163D01*
X105371500Y-54260380D01*
X105371500Y-53278605D01*
X106325061Y-53278605D01*
X106325101Y-53292706D01*
X106332370Y-53296000D01*
X107290385Y-53296000D01*
X107305624Y-53291525D01*
X107306829Y-53290135D01*
X107308500Y-53282452D01*
X107308500Y-52760116D01*
X107304025Y-52744877D01*
X107302635Y-52743672D01*
X107294952Y-52742001D01*
X106911017Y-52742001D01*
X106906080Y-52742195D01*
X106877664Y-52744430D01*
X106865069Y-52746730D01*
X106719210Y-52789107D01*
X106704779Y-52795352D01*
X106575322Y-52871911D01*
X106562896Y-52881551D01*
X106456551Y-52987896D01*
X106446911Y-53000322D01*
X106370352Y-53129779D01*
X106364107Y-53144210D01*
X106325061Y-53278605D01*
X105371500Y-53278605D01*
X105371500Y-51954106D01*
X105391502Y-51885985D01*
X105432983Y-51845877D01*
X105440227Y-51841559D01*
X105440229Y-51841558D01*
X105446279Y-51837951D01*
X105565449Y-51724468D01*
X105570313Y-51717147D01*
X105652614Y-51593275D01*
X105652615Y-51593273D01*
X105656515Y-51587403D01*
X105714951Y-51433568D01*
X105729533Y-51329812D01*
X105737302Y-51274534D01*
X105737303Y-51274527D01*
X105737853Y-51270610D01*
X105738141Y-51250000D01*
X105719798Y-51086466D01*
X105665680Y-50931060D01*
X105643137Y-50894983D01*
X105582209Y-50797479D01*
X105578476Y-50791505D01*
X105515160Y-50727746D01*
X105467486Y-50679737D01*
X105467482Y-50679734D01*
X105462522Y-50674739D01*
X105323580Y-50586563D01*
X105256947Y-50562836D01*
X105175189Y-50533723D01*
X105175187Y-50533722D01*
X105168555Y-50531361D01*
X105161569Y-50530528D01*
X105161565Y-50530527D01*
X105019581Y-50513597D01*
X104954308Y-50485670D01*
X104914495Y-50426886D01*
X104908500Y-50388483D01*
X104908500Y-50109953D01*
X104928502Y-50041832D01*
X104982158Y-49995339D01*
X105023080Y-49984472D01*
X105141404Y-49973704D01*
X105141405Y-49973704D01*
X105148424Y-49973065D01*
X105208432Y-49953567D01*
X105298230Y-49924390D01*
X105298233Y-49924389D01*
X105304929Y-49922213D01*
X105446279Y-49837951D01*
X105560050Y-49729609D01*
X107735232Y-49729609D01*
X107738052Y-49743031D01*
X107749513Y-49746000D01*
X108247885Y-49746000D01*
X108263124Y-49741525D01*
X108264329Y-49740135D01*
X108266000Y-49732452D01*
X108266000Y-49272115D01*
X108261525Y-49256876D01*
X108260135Y-49255671D01*
X108252452Y-49254000D01*
X107771576Y-49254000D01*
X107756781Y-49258344D01*
X107754937Y-49268775D01*
X107756688Y-49278359D01*
X107798356Y-49421780D01*
X107802532Y-49431430D01*
X107811229Y-49501892D01*
X107795349Y-49545610D01*
X107784606Y-49563776D01*
X107778357Y-49578216D01*
X107736688Y-49721641D01*
X107735232Y-49729609D01*
X105560050Y-49729609D01*
X105565449Y-49724468D01*
X105569350Y-49718597D01*
X105652614Y-49593275D01*
X105652615Y-49593273D01*
X105656515Y-49587403D01*
X105714951Y-49433568D01*
X105731824Y-49313512D01*
X105737302Y-49274534D01*
X105737303Y-49274527D01*
X105737853Y-49270610D01*
X105737995Y-49260430D01*
X105738086Y-49253962D01*
X105738086Y-49253956D01*
X105738141Y-49250000D01*
X105719798Y-49086466D01*
X105713726Y-49069028D01*
X105695709Y-49017292D01*
X105665680Y-48931060D01*
X105610823Y-48843270D01*
X105582209Y-48797479D01*
X105578476Y-48791505D01*
X105517011Y-48729609D01*
X107755232Y-48729609D01*
X107758052Y-48743031D01*
X107769513Y-48746000D01*
X108267885Y-48746000D01*
X108283124Y-48741525D01*
X108284329Y-48740135D01*
X108286000Y-48732452D01*
X108286000Y-48206442D01*
X108282027Y-48192911D01*
X108274129Y-48191776D01*
X108148216Y-48228357D01*
X108133780Y-48234604D01*
X108006501Y-48309876D01*
X107994074Y-48319516D01*
X107889516Y-48424074D01*
X107879876Y-48436501D01*
X107804604Y-48563780D01*
X107798357Y-48578216D01*
X107756688Y-48721641D01*
X107755232Y-48729609D01*
X105517011Y-48729609D01*
X105509098Y-48721641D01*
X105467486Y-48679737D01*
X105467482Y-48679734D01*
X105462522Y-48674739D01*
X105323580Y-48586563D01*
X105228479Y-48552699D01*
X105171015Y-48511005D01*
X105145215Y-48444862D01*
X105159270Y-48375271D01*
X105208718Y-48324325D01*
X105270746Y-48308000D01*
X105327885Y-48308000D01*
X105343124Y-48303525D01*
X105344329Y-48302135D01*
X105346000Y-48294452D01*
X105346000Y-48289884D01*
X105854000Y-48289884D01*
X105858475Y-48305123D01*
X105859865Y-48306328D01*
X105867548Y-48307999D01*
X106644669Y-48307999D01*
X106651490Y-48307629D01*
X106702352Y-48302105D01*
X106717604Y-48298479D01*
X106838054Y-48253324D01*
X106853649Y-48244786D01*
X106955724Y-48168285D01*
X106968285Y-48155724D01*
X107044786Y-48053649D01*
X107053324Y-48038054D01*
X107098478Y-47917606D01*
X107102105Y-47902351D01*
X107107631Y-47851486D01*
X107108000Y-47844672D01*
X107108000Y-47322115D01*
X107103525Y-47306876D01*
X107102135Y-47305671D01*
X107094452Y-47304000D01*
X105872115Y-47304000D01*
X105856876Y-47308475D01*
X105855671Y-47309865D01*
X105854000Y-47317548D01*
X105854000Y-48289884D01*
X105346000Y-48289884D01*
X105346000Y-46922000D01*
X105366002Y-46853879D01*
X105419658Y-46807386D01*
X105472000Y-46796000D01*
X107089884Y-46796000D01*
X107105123Y-46791525D01*
X107106328Y-46790135D01*
X107107999Y-46782452D01*
X107107999Y-46255331D01*
X107107629Y-46248510D01*
X107102105Y-46197648D01*
X107098479Y-46182396D01*
X107053324Y-46061946D01*
X107044786Y-46046352D01*
X106992047Y-45975982D01*
X106967199Y-45909476D01*
X106982252Y-45840093D01*
X106992047Y-45824852D01*
X107018159Y-45790011D01*
X107050615Y-45746705D01*
X107101745Y-45610316D01*
X107108500Y-45548134D01*
X107108500Y-45448000D01*
X107128502Y-45379879D01*
X107182158Y-45333386D01*
X107234500Y-45322000D01*
X110214880Y-45322000D01*
X110283001Y-45342002D01*
G37*
%TD.AperFunction*%
%TA.AperFunction,Conductor*%
G36*
X84577507Y-42863502D02*
G01*
X84624000Y-42917158D01*
X84634104Y-42987432D01*
X84623581Y-43022750D01*
X84562880Y-43152924D01*
X84505885Y-43365629D01*
X84486693Y-43585000D01*
X84505885Y-43804371D01*
X84562880Y-44017076D01*
X84595827Y-44087732D01*
X84653618Y-44211666D01*
X84653621Y-44211671D01*
X84655944Y-44216653D01*
X84659100Y-44221160D01*
X84659101Y-44221162D01*
X84762172Y-44368362D01*
X84782251Y-44397038D01*
X84937962Y-44552749D01*
X84942471Y-44555906D01*
X84942473Y-44555908D01*
X85015953Y-44607359D01*
X85118346Y-44679056D01*
X85317924Y-44772120D01*
X85530629Y-44829115D01*
X85536107Y-44829594D01*
X85536117Y-44829596D01*
X85568576Y-44832436D01*
X85634694Y-44858299D01*
X85676334Y-44915803D01*
X85680274Y-44986690D01*
X85646689Y-45047051D01*
X85625547Y-45068193D01*
X85621511Y-45075017D01*
X85621509Y-45075020D01*
X85561384Y-45176686D01*
X85540855Y-45211399D01*
X85494438Y-45371169D01*
X85493934Y-45377574D01*
X85493933Y-45377579D01*
X85491693Y-45406042D01*
X85491500Y-45408498D01*
X85491500Y-46489695D01*
X85471498Y-46557816D01*
X85454595Y-46578790D01*
X84858790Y-47174595D01*
X84796478Y-47208621D01*
X84769695Y-47211500D01*
X84764516Y-47211500D01*
X84762068Y-47211693D01*
X84762060Y-47211693D01*
X84734156Y-47213889D01*
X84734151Y-47213890D01*
X84727746Y-47214394D01*
X84628995Y-47243084D01*
X84578016Y-47257894D01*
X84578014Y-47257895D01*
X84570403Y-47260106D01*
X84563581Y-47264141D01*
X84563580Y-47264141D01*
X84496182Y-47304000D01*
X84429371Y-47343512D01*
X84313512Y-47459371D01*
X84309478Y-47466192D01*
X84251767Y-47563777D01*
X84230106Y-47600403D01*
X84227895Y-47608014D01*
X84227894Y-47608016D01*
X84217111Y-47645131D01*
X84184394Y-47757746D01*
X84183890Y-47764151D01*
X84183889Y-47764156D01*
X84182715Y-47779078D01*
X84181500Y-47794516D01*
X84181500Y-48205484D01*
X84181693Y-48207932D01*
X84181693Y-48207940D01*
X84183792Y-48234604D01*
X84184394Y-48242254D01*
X84203387Y-48307629D01*
X84226867Y-48388447D01*
X84230106Y-48399597D01*
X84234143Y-48406423D01*
X84240015Y-48416353D01*
X84257474Y-48485170D01*
X84240016Y-48544628D01*
X84234605Y-48553778D01*
X84228357Y-48568216D01*
X84193381Y-48688605D01*
X84193421Y-48702705D01*
X84200691Y-48706000D01*
X84478621Y-48706000D01*
X84542760Y-48723546D01*
X84560701Y-48734156D01*
X84570403Y-48739894D01*
X84578014Y-48742105D01*
X84578016Y-48742106D01*
X84591420Y-48746000D01*
X84727746Y-48785606D01*
X84734151Y-48786110D01*
X84734156Y-48786111D01*
X84762060Y-48788307D01*
X84762068Y-48788307D01*
X84764516Y-48788500D01*
X85128000Y-48788500D01*
X85196121Y-48808502D01*
X85242614Y-48862158D01*
X85254000Y-48914500D01*
X85254000Y-49052000D01*
X85233998Y-49120121D01*
X85180342Y-49166614D01*
X85128000Y-49178000D01*
X83045751Y-49178000D01*
X83029305Y-49176922D01*
X83000000Y-49173064D01*
X82850678Y-49192722D01*
X82759394Y-49230534D01*
X82711532Y-49250359D01*
X82704981Y-49255386D01*
X82704979Y-49255387D01*
X82683179Y-49272115D01*
X82657910Y-49291505D01*
X82629230Y-49313512D01*
X82592045Y-49342045D01*
X82587019Y-49348595D01*
X82574051Y-49365495D01*
X82563184Y-49377886D01*
X80701823Y-51239247D01*
X80639511Y-51273273D01*
X80625901Y-51275462D01*
X80591495Y-51279078D01*
X80584829Y-51281347D01*
X80584826Y-51281348D01*
X80442382Y-51329840D01*
X80442379Y-51329841D01*
X80435715Y-51332110D01*
X80295555Y-51418337D01*
X80262841Y-51450373D01*
X80204014Y-51507981D01*
X80177982Y-51533473D01*
X80088838Y-51671797D01*
X80086427Y-51678420D01*
X80086426Y-51678423D01*
X80034966Y-51819809D01*
X80034965Y-51819814D01*
X80032556Y-51826432D01*
X80011931Y-51989694D01*
X80027989Y-52153468D01*
X80079932Y-52309615D01*
X80083581Y-52315640D01*
X80147369Y-52420965D01*
X80165179Y-52450373D01*
X80241126Y-52529019D01*
X80274057Y-52591913D01*
X80275494Y-52632334D01*
X80261931Y-52739694D01*
X80277989Y-52903468D01*
X80329932Y-53059615D01*
X80333581Y-53065640D01*
X80397369Y-53170965D01*
X80415179Y-53200373D01*
X80529491Y-53318747D01*
X80667189Y-53408854D01*
X80821428Y-53466215D01*
X80828409Y-53467146D01*
X80828411Y-53467147D01*
X80977561Y-53487048D01*
X80977565Y-53487048D01*
X80984542Y-53487979D01*
X80991553Y-53487341D01*
X80991557Y-53487341D01*
X81141403Y-53473704D01*
X81141404Y-53473704D01*
X81148424Y-53473065D01*
X81193986Y-53458261D01*
X81298230Y-53424390D01*
X81298233Y-53424389D01*
X81304929Y-53422213D01*
X81446279Y-53337951D01*
X81565449Y-53224468D01*
X81581458Y-53200373D01*
X81652614Y-53093275D01*
X81652615Y-53093273D01*
X81656515Y-53087403D01*
X81714951Y-52933568D01*
X81723734Y-52871076D01*
X81753023Y-52806402D01*
X81759413Y-52799518D01*
X82560326Y-51998605D01*
X83443381Y-51998605D01*
X83443421Y-52012705D01*
X83450691Y-52016000D01*
X83977885Y-52016000D01*
X83993124Y-52011525D01*
X83994329Y-52010135D01*
X83996000Y-52002452D01*
X83996000Y-51967885D01*
X84504000Y-51967885D01*
X84508475Y-51983124D01*
X84509865Y-51984329D01*
X84517548Y-51986000D01*
X84977885Y-51986000D01*
X84993124Y-51981525D01*
X84994329Y-51980135D01*
X84996000Y-51972452D01*
X84996000Y-51480434D01*
X84991656Y-51465639D01*
X84979997Y-51463579D01*
X84970023Y-51464363D01*
X84957436Y-51466662D01*
X84815217Y-51507981D01*
X84800782Y-51514228D01*
X84787738Y-51521942D01*
X84718921Y-51539401D01*
X84679430Y-51530455D01*
X84679397Y-51530569D01*
X84677491Y-51530015D01*
X84673557Y-51529124D01*
X84671787Y-51528358D01*
X84528359Y-51486688D01*
X84520391Y-51485232D01*
X84506969Y-51488052D01*
X84504000Y-51499513D01*
X84504000Y-51967885D01*
X83996000Y-51967885D01*
X83996000Y-51501576D01*
X83991656Y-51486781D01*
X83981225Y-51484937D01*
X83971641Y-51486688D01*
X83828216Y-51528357D01*
X83813780Y-51534604D01*
X83686501Y-51609876D01*
X83674074Y-51619516D01*
X83569516Y-51724074D01*
X83559876Y-51736501D01*
X83484604Y-51863780D01*
X83478357Y-51878216D01*
X83443381Y-51998605D01*
X82560326Y-51998605D01*
X83946026Y-50612905D01*
X84008338Y-50578879D01*
X84035121Y-50576000D01*
X90964880Y-50576000D01*
X91033001Y-50596002D01*
X91053975Y-50612905D01*
X91988853Y-51547783D01*
X92022879Y-51610095D01*
X92025157Y-51624583D01*
X92027989Y-51653468D01*
X92064052Y-51761877D01*
X92064169Y-51762228D01*
X92066692Y-51833180D01*
X92030455Y-51894232D01*
X91966963Y-51926001D01*
X91944611Y-51928000D01*
X89254267Y-51928000D01*
X89186752Y-51908385D01*
X89186505Y-51908228D01*
X89073580Y-51836563D01*
X89024447Y-51819068D01*
X88925189Y-51783723D01*
X88925187Y-51783722D01*
X88918555Y-51781361D01*
X88911569Y-51780528D01*
X88911565Y-51780527D01*
X88797010Y-51766868D01*
X88755153Y-51761877D01*
X88707669Y-51766868D01*
X88637833Y-51754096D01*
X88585986Y-51705595D01*
X88568500Y-51641558D01*
X88568500Y-51544516D01*
X88568307Y-51542060D01*
X88566111Y-51514156D01*
X88566110Y-51514151D01*
X88565606Y-51507746D01*
X88519894Y-51350403D01*
X88511440Y-51336108D01*
X88509985Y-51333647D01*
X88492526Y-51264830D01*
X88509984Y-51205372D01*
X88515395Y-51196222D01*
X88521643Y-51181784D01*
X88556619Y-51061395D01*
X88556579Y-51047295D01*
X88549309Y-51044000D01*
X88271379Y-51044000D01*
X88207240Y-51026454D01*
X88186420Y-51014141D01*
X88186419Y-51014141D01*
X88179597Y-51010106D01*
X88171986Y-51007895D01*
X88171984Y-51007894D01*
X88085264Y-50982700D01*
X88022254Y-50964394D01*
X88015849Y-50963890D01*
X88015844Y-50963889D01*
X87987940Y-50961693D01*
X87987932Y-50961693D01*
X87985484Y-50961500D01*
X87514516Y-50961500D01*
X87512068Y-50961693D01*
X87512060Y-50961693D01*
X87484156Y-50963889D01*
X87484151Y-50963890D01*
X87477746Y-50964394D01*
X87414736Y-50982700D01*
X87328016Y-51007894D01*
X87328014Y-51007895D01*
X87320403Y-51010106D01*
X87313581Y-51014141D01*
X87313580Y-51014141D01*
X87292760Y-51026454D01*
X87228621Y-51044000D01*
X86956442Y-51044000D01*
X86942911Y-51047973D01*
X86941776Y-51055871D01*
X86978357Y-51181784D01*
X86984605Y-51196222D01*
X86990016Y-51205372D01*
X87007474Y-51274188D01*
X86990015Y-51333647D01*
X86988560Y-51336108D01*
X86980106Y-51350403D01*
X86977895Y-51358014D01*
X86977894Y-51358016D01*
X86955279Y-51435858D01*
X86923377Y-51489800D01*
X86462854Y-51950323D01*
X86461917Y-51951251D01*
X86413561Y-51998605D01*
X86400687Y-52011212D01*
X86396869Y-52017136D01*
X86396866Y-52017140D01*
X86378536Y-52045583D01*
X86371102Y-52055931D01*
X86345586Y-52087893D01*
X86342522Y-52094232D01*
X86342521Y-52094233D01*
X86331879Y-52116248D01*
X86324349Y-52129666D01*
X86309911Y-52152069D01*
X86256196Y-52198493D01*
X86185909Y-52208507D01*
X86121366Y-52178932D01*
X86083059Y-52119157D01*
X86078000Y-52083813D01*
X86078000Y-52042527D01*
X86077807Y-52037597D01*
X86075637Y-52010032D01*
X86073335Y-51997428D01*
X86032019Y-51855217D01*
X86025770Y-51840778D01*
X85951146Y-51714595D01*
X85941499Y-51702159D01*
X85837841Y-51598501D01*
X85825405Y-51588854D01*
X85699222Y-51514230D01*
X85684783Y-51507981D01*
X85542564Y-51466662D01*
X85529977Y-51464363D01*
X85522057Y-51463740D01*
X85506970Y-51466910D01*
X85504000Y-51478374D01*
X85504000Y-52355500D01*
X85483998Y-52423621D01*
X85430342Y-52470114D01*
X85378000Y-52481500D01*
X85009942Y-52481501D01*
X85000012Y-52481501D01*
X84963534Y-52484371D01*
X84887524Y-52506454D01*
X84844350Y-52518997D01*
X84809197Y-52524000D01*
X84771379Y-52524000D01*
X84707240Y-52506454D01*
X84686420Y-52494141D01*
X84686419Y-52494141D01*
X84679597Y-52490106D01*
X84671986Y-52487895D01*
X84671984Y-52487894D01*
X84612787Y-52470696D01*
X84522254Y-52444394D01*
X84515849Y-52443890D01*
X84515844Y-52443889D01*
X84487940Y-52441693D01*
X84487932Y-52441693D01*
X84485484Y-52441500D01*
X84014516Y-52441500D01*
X84012068Y-52441693D01*
X84012060Y-52441693D01*
X83984156Y-52443889D01*
X83984151Y-52443890D01*
X83977746Y-52444394D01*
X83887213Y-52470696D01*
X83828016Y-52487894D01*
X83828014Y-52487895D01*
X83820403Y-52490106D01*
X83813581Y-52494141D01*
X83813580Y-52494141D01*
X83792760Y-52506454D01*
X83728621Y-52524000D01*
X83456442Y-52524000D01*
X83442911Y-52527973D01*
X83441776Y-52535871D01*
X83478357Y-52661784D01*
X83484605Y-52676222D01*
X83490016Y-52685372D01*
X83507474Y-52754188D01*
X83490015Y-52813647D01*
X83485353Y-52821531D01*
X83480106Y-52830403D01*
X83434394Y-52987746D01*
X83433890Y-52994151D01*
X83433889Y-52994156D01*
X83431693Y-53022060D01*
X83431500Y-53024516D01*
X83431500Y-53435484D01*
X83431693Y-53437932D01*
X83431693Y-53437940D01*
X83433293Y-53458261D01*
X83434394Y-53472254D01*
X83480106Y-53629597D01*
X83491735Y-53649261D01*
X83501035Y-53664986D01*
X83518495Y-53733802D01*
X83517588Y-53744918D01*
X83513832Y-53774647D01*
X83485449Y-53839724D01*
X83454848Y-53866172D01*
X83384715Y-53909318D01*
X83318693Y-53928000D01*
X77295751Y-53928000D01*
X77279305Y-53926922D01*
X77276806Y-53926593D01*
X77250000Y-53923064D01*
X77241812Y-53924142D01*
X77108864Y-53941644D01*
X77108862Y-53941645D01*
X77100678Y-53942722D01*
X77093054Y-53945880D01*
X77093047Y-53945882D01*
X77002291Y-53983476D01*
X77002288Y-53983478D01*
X76961532Y-54000359D01*
X76913222Y-54037429D01*
X76880081Y-54062859D01*
X76842045Y-54092045D01*
X76837019Y-54098595D01*
X76837016Y-54098598D01*
X76824051Y-54115495D01*
X76813184Y-54127886D01*
X76423595Y-54517475D01*
X76361283Y-54551501D01*
X76290468Y-54546436D01*
X76233632Y-54503889D01*
X76208821Y-54437369D01*
X76208500Y-54428380D01*
X76208500Y-52165426D01*
X76228502Y-52097305D01*
X76282158Y-52050812D01*
X76290992Y-52047176D01*
X76317027Y-52037597D01*
X76370671Y-52017860D01*
X76374371Y-52015909D01*
X76374376Y-52015907D01*
X76632367Y-51879884D01*
X76632368Y-51879883D01*
X76636071Y-51877931D01*
X76880633Y-51704129D01*
X77100061Y-51499510D01*
X77290498Y-51267667D01*
X77448600Y-51012675D01*
X77571589Y-50739012D01*
X77657304Y-50451487D01*
X77658192Y-50445884D01*
X77699323Y-50186189D01*
X77704239Y-50155152D01*
X77708500Y-50061319D01*
X77708500Y-45884500D01*
X77728502Y-45816379D01*
X77782158Y-45769886D01*
X77834500Y-45758500D01*
X80017110Y-45758500D01*
X80021507Y-45758577D01*
X80132070Y-45762438D01*
X80222878Y-45753534D01*
X80244092Y-45751454D01*
X80248038Y-45751130D01*
X80356174Y-45743948D01*
X80356179Y-45743947D01*
X80360340Y-45743671D01*
X80364426Y-45742847D01*
X80364434Y-45742846D01*
X80388985Y-45737895D01*
X80401597Y-45736010D01*
X80405944Y-45735584D01*
X80430667Y-45733160D01*
X80540246Y-45707458D01*
X80544115Y-45706615D01*
X80654450Y-45684368D01*
X80682092Y-45674850D01*
X80694324Y-45671320D01*
X80718702Y-45665602D01*
X80718703Y-45665602D01*
X80722769Y-45664648D01*
X80828020Y-45624667D01*
X80831686Y-45623341D01*
X80938133Y-45586688D01*
X80941868Y-45584818D01*
X80941872Y-45584816D01*
X80964260Y-45573605D01*
X80975935Y-45568480D01*
X80999340Y-45559589D01*
X81003244Y-45558106D01*
X81006912Y-45556123D01*
X81006918Y-45556120D01*
X81102266Y-45504566D01*
X81105776Y-45502739D01*
X81154219Y-45478480D01*
X81206405Y-45452347D01*
X81230579Y-45435918D01*
X81241460Y-45429303D01*
X81263480Y-45417397D01*
X81263486Y-45417393D01*
X81267165Y-45415404D01*
X81270547Y-45412947D01*
X81270561Y-45412938D01*
X81358208Y-45349259D01*
X81361445Y-45346983D01*
X81368051Y-45342494D01*
X81454554Y-45283706D01*
X81476341Y-45264226D01*
X81486262Y-45256221D01*
X81509893Y-45239052D01*
X81540177Y-45211399D01*
X81578193Y-45176686D01*
X81578201Y-45176678D01*
X81579256Y-45175715D01*
X81609871Y-45145100D01*
X81614983Y-45140265D01*
X81652014Y-45107155D01*
X81678218Y-45083726D01*
X81716900Y-45038595D01*
X81723473Y-45031498D01*
X83874567Y-42880405D01*
X83936879Y-42846379D01*
X83963662Y-42843500D01*
X84509386Y-42843500D01*
X84577507Y-42863502D01*
G37*
%TD.AperFunction*%
%TA.AperFunction,Conductor*%
G36*
X99421722Y-49724978D02*
G01*
X99451522Y-49741961D01*
X99454976Y-49744611D01*
X99454979Y-49744613D01*
X99458532Y-49747339D01*
X99461532Y-49749641D01*
X99600678Y-49807277D01*
X99631375Y-49811318D01*
X99712497Y-49821999D01*
X99712506Y-49822000D01*
X99712509Y-49822000D01*
X99712521Y-49822001D01*
X99741811Y-49825857D01*
X99741812Y-49825857D01*
X99750000Y-49826935D01*
X99758188Y-49825857D01*
X99758189Y-49825857D01*
X99779298Y-49823078D01*
X99795744Y-49822000D01*
X100552000Y-49822000D01*
X100620121Y-49842002D01*
X100666614Y-49895658D01*
X100678000Y-49948000D01*
X100678000Y-52210880D01*
X100657998Y-52279001D01*
X100641095Y-52299975D01*
X99951823Y-52989247D01*
X99889511Y-53023273D01*
X99875901Y-53025462D01*
X99841495Y-53029078D01*
X99834829Y-53031347D01*
X99834826Y-53031348D01*
X99771433Y-53052929D01*
X99685715Y-53082110D01*
X99679720Y-53085798D01*
X99678613Y-53086319D01*
X99608459Y-53097225D01*
X99574048Y-53086860D01*
X99573580Y-53086563D01*
X99566944Y-53084200D01*
X99566942Y-53084199D01*
X99425189Y-53033723D01*
X99425187Y-53033722D01*
X99418555Y-53031361D01*
X99411569Y-53030528D01*
X99411565Y-53030527D01*
X99295173Y-53016649D01*
X99255153Y-53011877D01*
X99248150Y-53012613D01*
X99248149Y-53012613D01*
X99209750Y-53016649D01*
X99091495Y-53029078D01*
X99084827Y-53031348D01*
X98942382Y-53079840D01*
X98942379Y-53079841D01*
X98935715Y-53082110D01*
X98795555Y-53168337D01*
X98677982Y-53283473D01*
X98605537Y-53395886D01*
X98551822Y-53442310D01*
X98481536Y-53452325D01*
X98416992Y-53422749D01*
X98392772Y-53394400D01*
X98347910Y-53322605D01*
X98328476Y-53291505D01*
X98266730Y-53229327D01*
X98217486Y-53179737D01*
X98217482Y-53179734D01*
X98212522Y-53174739D01*
X98073580Y-53086563D01*
X98024142Y-53068959D01*
X97925189Y-53033723D01*
X97925187Y-53033722D01*
X97918555Y-53031361D01*
X97888172Y-53027738D01*
X97870580Y-53025640D01*
X97805307Y-52997712D01*
X97765495Y-52938928D01*
X97759500Y-52900526D01*
X97759500Y-51614525D01*
X97760578Y-51598079D01*
X97763357Y-51576970D01*
X97763357Y-51576969D01*
X97764435Y-51568781D01*
X97759500Y-51531295D01*
X97759500Y-51531289D01*
X97744777Y-51419459D01*
X97687141Y-51280313D01*
X97674055Y-51263259D01*
X97618476Y-51190826D01*
X97618471Y-51190821D01*
X97595455Y-51160826D01*
X97585877Y-51153477D01*
X97583970Y-51150865D01*
X97583064Y-51149959D01*
X97583205Y-51149818D01*
X97544009Y-51096143D01*
X97539784Y-51025273D01*
X97564762Y-50975122D01*
X97565449Y-50974468D01*
X97630619Y-50876380D01*
X97652614Y-50843275D01*
X97652615Y-50843273D01*
X97656515Y-50837403D01*
X97714951Y-50683568D01*
X97723507Y-50622689D01*
X97737302Y-50524534D01*
X97737303Y-50524527D01*
X97737853Y-50520610D01*
X97738141Y-50500000D01*
X97729940Y-50426886D01*
X97724651Y-50379729D01*
X97736936Y-50309803D01*
X97762973Y-50274440D01*
X97815449Y-50224468D01*
X97847540Y-50176168D01*
X97902614Y-50093275D01*
X97902615Y-50093273D01*
X97906515Y-50087403D01*
X97922432Y-50045500D01*
X97926685Y-50034305D01*
X97969573Y-49977726D01*
X98033053Y-49953567D01*
X98116223Y-49945998D01*
X98141403Y-49943707D01*
X98141404Y-49943707D01*
X98148424Y-49943068D01*
X98304929Y-49892216D01*
X98305877Y-49895133D01*
X98362748Y-49887148D01*
X98404430Y-49902967D01*
X98405009Y-49901821D01*
X98411291Y-49904994D01*
X98417189Y-49908854D01*
X98571428Y-49966215D01*
X98578409Y-49967146D01*
X98578411Y-49967147D01*
X98727561Y-49987048D01*
X98727565Y-49987048D01*
X98734542Y-49987979D01*
X98741553Y-49987341D01*
X98741557Y-49987341D01*
X98891403Y-49973704D01*
X98891404Y-49973704D01*
X98898424Y-49973065D01*
X98958432Y-49953567D01*
X99048230Y-49924390D01*
X99048233Y-49924389D01*
X99054929Y-49922213D01*
X99196279Y-49837951D01*
X99201373Y-49833100D01*
X99201377Y-49833097D01*
X99285696Y-49752801D01*
X99287927Y-49750676D01*
X99351051Y-49718185D01*
X99421722Y-49724978D01*
G37*
%TD.AperFunction*%
%TA.AperFunction,Conductor*%
G36*
X114920150Y-43259515D02*
G01*
X114972854Y-43307083D01*
X114991500Y-43373046D01*
X114991500Y-52378380D01*
X114971498Y-52446501D01*
X114917842Y-52492994D01*
X114847568Y-52503098D01*
X114782988Y-52473604D01*
X114776405Y-52467475D01*
X114469329Y-52160399D01*
X114435303Y-52098087D01*
X114436717Y-52038693D01*
X114455619Y-51968149D01*
X114455619Y-51968147D01*
X114457043Y-51962834D01*
X114475664Y-51750000D01*
X114457043Y-51537166D01*
X114447505Y-51501569D01*
X114403170Y-51336108D01*
X114403169Y-51336106D01*
X114401747Y-51330798D01*
X114391350Y-51308502D01*
X114313782Y-51142155D01*
X114313779Y-51142150D01*
X114311456Y-51137168D01*
X114291640Y-51108868D01*
X114192072Y-50966669D01*
X114192070Y-50966666D01*
X114188913Y-50962158D01*
X114037842Y-50811087D01*
X114033334Y-50807930D01*
X114033331Y-50807928D01*
X113867341Y-50691701D01*
X113867339Y-50691700D01*
X113862832Y-50688544D01*
X113857850Y-50686221D01*
X113857845Y-50686218D01*
X113674184Y-50600576D01*
X113674183Y-50600575D01*
X113669202Y-50598253D01*
X113663894Y-50596831D01*
X113663892Y-50596830D01*
X113468149Y-50544381D01*
X113468147Y-50544381D01*
X113462834Y-50542957D01*
X113250000Y-50524336D01*
X113037166Y-50542957D01*
X112954001Y-50565241D01*
X112883026Y-50563551D01*
X112844687Y-50543497D01*
X112814860Y-50520610D01*
X112788468Y-50500359D01*
X112649322Y-50442723D01*
X112618625Y-50438682D01*
X112537503Y-50428001D01*
X112537494Y-50428000D01*
X112537491Y-50428000D01*
X112537479Y-50427999D01*
X112508189Y-50424143D01*
X112508188Y-50424143D01*
X112500000Y-50423065D01*
X112491812Y-50424143D01*
X112491811Y-50424143D01*
X112470702Y-50426922D01*
X112454256Y-50428000D01*
X112207307Y-50428000D01*
X112139186Y-50407998D01*
X112118212Y-50391095D01*
X112040629Y-50313512D01*
X111981160Y-50278342D01*
X111906420Y-50234141D01*
X111906419Y-50234141D01*
X111899597Y-50230106D01*
X111891986Y-50227895D01*
X111891984Y-50227894D01*
X111818144Y-50206442D01*
X111742254Y-50184394D01*
X111735849Y-50183890D01*
X111735844Y-50183889D01*
X111707940Y-50181693D01*
X111707932Y-50181693D01*
X111705484Y-50181500D01*
X111294516Y-50181500D01*
X111292068Y-50181693D01*
X111292060Y-50181693D01*
X111264156Y-50183889D01*
X111264151Y-50183890D01*
X111257746Y-50184394D01*
X111181856Y-50206442D01*
X111108016Y-50227894D01*
X111108014Y-50227895D01*
X111100403Y-50230106D01*
X111093576Y-50234143D01*
X111093577Y-50234143D01*
X111083647Y-50240015D01*
X111014830Y-50257474D01*
X110955372Y-50240016D01*
X110946222Y-50234605D01*
X110931784Y-50228357D01*
X110811395Y-50193381D01*
X110797295Y-50193421D01*
X110794000Y-50200691D01*
X110794000Y-50478621D01*
X110776454Y-50542760D01*
X110776338Y-50542957D01*
X110760106Y-50570403D01*
X110757895Y-50578014D01*
X110757894Y-50578016D01*
X110747758Y-50612905D01*
X110714394Y-50727746D01*
X110713890Y-50734151D01*
X110713889Y-50734156D01*
X110712799Y-50748006D01*
X110711500Y-50764516D01*
X110711500Y-51030283D01*
X110701909Y-51078501D01*
X110692723Y-51100678D01*
X110691645Y-51108863D01*
X110691644Y-51108868D01*
X110686961Y-51144445D01*
X110658239Y-51209373D01*
X110598974Y-51248465D01*
X110562039Y-51254000D01*
X109995012Y-51254000D01*
X109930873Y-51236453D01*
X109909425Y-51223769D01*
X109909421Y-51223767D01*
X109902596Y-51219731D01*
X109894985Y-51217520D01*
X109894983Y-51217519D01*
X109804250Y-51191159D01*
X109746466Y-51174371D01*
X109740059Y-51173867D01*
X109740055Y-51173866D01*
X109712444Y-51171693D01*
X109712438Y-51171693D01*
X109709989Y-51171500D01*
X109698632Y-51171500D01*
X109394499Y-51171501D01*
X109326380Y-51151499D01*
X109279887Y-51097844D01*
X109268500Y-51045502D01*
X109268499Y-50944501D01*
X109288500Y-50876380D01*
X109342156Y-50829887D01*
X109394499Y-50818500D01*
X109685484Y-50818500D01*
X109687932Y-50818307D01*
X109687940Y-50818307D01*
X109715844Y-50816111D01*
X109715849Y-50816110D01*
X109722254Y-50815606D01*
X109841790Y-50780878D01*
X109871984Y-50772106D01*
X109871986Y-50772105D01*
X109879597Y-50769894D01*
X109890331Y-50763546D01*
X109954470Y-50746000D01*
X110267885Y-50746000D01*
X110283124Y-50741525D01*
X110284329Y-50740135D01*
X110286000Y-50732452D01*
X110286000Y-50206442D01*
X110273604Y-50164225D01*
X110268500Y-50128727D01*
X110268500Y-49764516D01*
X110267411Y-49750677D01*
X110266111Y-49734156D01*
X110266110Y-49734151D01*
X110265606Y-49727746D01*
X110224833Y-49587403D01*
X110222106Y-49578016D01*
X110222105Y-49578014D01*
X110219894Y-49570403D01*
X110217820Y-49566896D01*
X110209334Y-49498135D01*
X110225215Y-49454418D01*
X110235858Y-49436422D01*
X110235859Y-49436420D01*
X110239894Y-49429597D01*
X110285606Y-49272254D01*
X110286817Y-49256876D01*
X110288307Y-49237940D01*
X110288307Y-49237932D01*
X110288500Y-49235484D01*
X110288500Y-48764516D01*
X110286809Y-48743031D01*
X110286111Y-48734156D01*
X110286110Y-48734151D01*
X110285606Y-48727746D01*
X110246725Y-48593916D01*
X110242106Y-48578016D01*
X110242105Y-48578014D01*
X110239894Y-48570403D01*
X110190598Y-48487047D01*
X110160522Y-48436192D01*
X110156488Y-48429371D01*
X110108905Y-48381788D01*
X110074879Y-48319476D01*
X110072000Y-48292693D01*
X110072000Y-47439120D01*
X110092002Y-47370999D01*
X110108905Y-47350025D01*
X110407438Y-47051492D01*
X110469750Y-47017466D01*
X110540565Y-47022531D01*
X110572097Y-47039761D01*
X110653295Y-47100615D01*
X110789684Y-47151745D01*
X110851866Y-47158500D01*
X111197063Y-47158500D01*
X111265184Y-47178502D01*
X111311677Y-47232158D01*
X111322190Y-47299308D01*
X111301995Y-47469938D01*
X111315740Y-47679649D01*
X111367471Y-47883343D01*
X111369890Y-47888590D01*
X111453038Y-48068953D01*
X111453041Y-48068958D01*
X111455457Y-48074199D01*
X111458788Y-48078912D01*
X111458789Y-48078914D01*
X111568821Y-48234604D01*
X111576751Y-48245825D01*
X111727289Y-48392474D01*
X111732085Y-48395679D01*
X111732088Y-48395681D01*
X111837650Y-48466215D01*
X111902031Y-48509233D01*
X111907339Y-48511514D01*
X111907340Y-48511514D01*
X112089822Y-48589914D01*
X112089825Y-48589915D01*
X112095125Y-48592192D01*
X112100754Y-48593466D01*
X112100755Y-48593466D01*
X112294467Y-48637299D01*
X112294473Y-48637300D01*
X112300104Y-48638574D01*
X112305875Y-48638801D01*
X112305877Y-48638801D01*
X112369433Y-48641298D01*
X112510103Y-48646825D01*
X112718088Y-48616669D01*
X112723552Y-48614814D01*
X112723557Y-48614813D01*
X112911624Y-48550973D01*
X112911629Y-48550971D01*
X112917096Y-48549115D01*
X112960989Y-48524534D01*
X113027926Y-48487047D01*
X113100460Y-48446426D01*
X113262041Y-48312041D01*
X113396426Y-48150460D01*
X113487941Y-47987048D01*
X113496291Y-47972139D01*
X113496292Y-47972137D01*
X113499115Y-47967096D01*
X113500971Y-47961629D01*
X113500973Y-47961624D01*
X113564813Y-47773557D01*
X113564814Y-47773552D01*
X113566669Y-47768088D01*
X113596825Y-47560103D01*
X113598399Y-47500000D01*
X113579169Y-47290721D01*
X113567685Y-47250000D01*
X113528908Y-47112508D01*
X113522123Y-47088451D01*
X113429171Y-46899963D01*
X113417247Y-46883995D01*
X113392515Y-46817446D01*
X113398571Y-46775737D01*
X113397145Y-46775398D01*
X113398973Y-46767710D01*
X113401745Y-46760316D01*
X113408500Y-46698134D01*
X113408500Y-43560319D01*
X113428502Y-43492198D01*
X113482158Y-43445705D01*
X113552432Y-43435601D01*
X113584234Y-43444550D01*
X113695125Y-43492192D01*
X113700754Y-43493466D01*
X113700755Y-43493466D01*
X113894467Y-43537299D01*
X113894473Y-43537300D01*
X113900104Y-43538574D01*
X113905875Y-43538801D01*
X113905877Y-43538801D01*
X113965030Y-43541125D01*
X114110103Y-43546825D01*
X114318088Y-43516669D01*
X114323552Y-43514814D01*
X114323557Y-43514813D01*
X114511624Y-43450973D01*
X114511629Y-43450971D01*
X114517096Y-43449115D01*
X114700460Y-43346426D01*
X114784932Y-43276171D01*
X114850095Y-43247991D01*
X114920150Y-43259515D01*
G37*
%TD.AperFunction*%
%TA.AperFunction,Conductor*%
G36*
X87309532Y-46123749D02*
G01*
X87366368Y-46166296D01*
X87391179Y-46232816D01*
X87391500Y-46241805D01*
X87391500Y-46716502D01*
X87391693Y-46718950D01*
X87391693Y-46718958D01*
X87393115Y-46737019D01*
X87394438Y-46753831D01*
X87409361Y-46805196D01*
X87435549Y-46895336D01*
X87440855Y-46913601D01*
X87459865Y-46945745D01*
X87486453Y-46990703D01*
X87504000Y-47054842D01*
X87504000Y-47665385D01*
X87508475Y-47680624D01*
X87509865Y-47681829D01*
X87517548Y-47683500D01*
X88039884Y-47683500D01*
X88077986Y-47672312D01*
X88099240Y-47658652D01*
X88170236Y-47658650D01*
X88223837Y-47690452D01*
X88644595Y-48111210D01*
X88678621Y-48173522D01*
X88681500Y-48200305D01*
X88681500Y-48205484D01*
X88681693Y-48207932D01*
X88681693Y-48207940D01*
X88683792Y-48234604D01*
X88684394Y-48242254D01*
X88703387Y-48307629D01*
X88726867Y-48388447D01*
X88730106Y-48399597D01*
X88734143Y-48406423D01*
X88740015Y-48416353D01*
X88757474Y-48485170D01*
X88740016Y-48544628D01*
X88734605Y-48553778D01*
X88728357Y-48568216D01*
X88693381Y-48688605D01*
X88693421Y-48702705D01*
X88700691Y-48706000D01*
X88978621Y-48706000D01*
X89042760Y-48723546D01*
X89060701Y-48734156D01*
X89070403Y-48739894D01*
X89078014Y-48742105D01*
X89078016Y-48742106D01*
X89091420Y-48746000D01*
X89227746Y-48785606D01*
X89234151Y-48786110D01*
X89234156Y-48786111D01*
X89262060Y-48788307D01*
X89262068Y-48788307D01*
X89264516Y-48788500D01*
X89735484Y-48788500D01*
X89737932Y-48788307D01*
X89737940Y-48788307D01*
X89765844Y-48786111D01*
X89765849Y-48786110D01*
X89772254Y-48785606D01*
X89908580Y-48746000D01*
X89921984Y-48742106D01*
X89921986Y-48742105D01*
X89929597Y-48739894D01*
X89939300Y-48734156D01*
X89957240Y-48723546D01*
X90021379Y-48706000D01*
X90293558Y-48706000D01*
X90307089Y-48702027D01*
X90308224Y-48694130D01*
X90292730Y-48640801D01*
X90292932Y-48569805D01*
X90331486Y-48510188D01*
X90396150Y-48480879D01*
X90430391Y-48480754D01*
X90449185Y-48483261D01*
X90484542Y-48487979D01*
X90491553Y-48487341D01*
X90491557Y-48487341D01*
X90641403Y-48473704D01*
X90641404Y-48473704D01*
X90648424Y-48473065D01*
X90697211Y-48457213D01*
X90798230Y-48424390D01*
X90798233Y-48424389D01*
X90804929Y-48422213D01*
X90810980Y-48418606D01*
X90810982Y-48418605D01*
X90846484Y-48397442D01*
X90915239Y-48379742D01*
X90982648Y-48402024D01*
X91027310Y-48457213D01*
X91037001Y-48505671D01*
X91037001Y-48613984D01*
X91037195Y-48618920D01*
X91039430Y-48647336D01*
X91041730Y-48659931D01*
X91084107Y-48805790D01*
X91090352Y-48820221D01*
X91166911Y-48949678D01*
X91176551Y-48962104D01*
X91177352Y-48962905D01*
X91177779Y-48963687D01*
X91181407Y-48968364D01*
X91180653Y-48968949D01*
X91211378Y-49025217D01*
X91206313Y-49096032D01*
X91163766Y-49152868D01*
X91097246Y-49177679D01*
X91088257Y-49178000D01*
X87981743Y-49178000D01*
X87913622Y-49157998D01*
X87867129Y-49104342D01*
X87857025Y-49034068D01*
X87886519Y-48969488D01*
X87892648Y-48962905D01*
X87918449Y-48937104D01*
X87928089Y-48924678D01*
X88004648Y-48795221D01*
X88010893Y-48780790D01*
X88053269Y-48634935D01*
X88055570Y-48622333D01*
X88057807Y-48593916D01*
X88058000Y-48588986D01*
X88058000Y-48209615D01*
X88053525Y-48194376D01*
X88052135Y-48193171D01*
X88044452Y-48191500D01*
X87122000Y-48191500D01*
X87053879Y-48171498D01*
X87007386Y-48117842D01*
X86996000Y-48065500D01*
X86996000Y-47054842D01*
X87013547Y-46990703D01*
X87040135Y-46945745D01*
X87059145Y-46913601D01*
X87064452Y-46895336D01*
X87090639Y-46805196D01*
X87105562Y-46753831D01*
X87106886Y-46737019D01*
X87108307Y-46718958D01*
X87108307Y-46718950D01*
X87108500Y-46716502D01*
X87108500Y-46272805D01*
X87128502Y-46204684D01*
X87145405Y-46183710D01*
X87176405Y-46152710D01*
X87238717Y-46118684D01*
X87309532Y-46123749D01*
G37*
%TD.AperFunction*%
%TA.AperFunction,Conductor*%
G36*
X97555851Y-43253755D02*
G01*
X97556303Y-43252710D01*
X97563581Y-43255859D01*
X97570403Y-43259894D01*
X97578014Y-43262105D01*
X97578016Y-43262106D01*
X97607357Y-43270630D01*
X97727746Y-43305606D01*
X97734151Y-43306110D01*
X97734156Y-43306111D01*
X97762060Y-43308307D01*
X97762068Y-43308307D01*
X97764516Y-43308500D01*
X97927380Y-43308500D01*
X97995501Y-43328502D01*
X98016475Y-43345405D01*
X98217095Y-43546025D01*
X98251121Y-43608337D01*
X98254000Y-43635120D01*
X98254000Y-44248424D01*
X98258344Y-44263219D01*
X98268775Y-44265063D01*
X98278359Y-44263312D01*
X98421784Y-44221643D01*
X98436220Y-44215396D01*
X98563499Y-44140124D01*
X98575926Y-44130484D01*
X98599645Y-44106765D01*
X98661957Y-44072739D01*
X98732772Y-44077804D01*
X98777835Y-44106765D01*
X99216117Y-44545047D01*
X99250143Y-44607359D01*
X99245078Y-44678174D01*
X99202531Y-44735010D01*
X99136011Y-44759821D01*
X99091869Y-44755139D01*
X99028359Y-44736688D01*
X99020391Y-44735232D01*
X99006969Y-44738052D01*
X99004000Y-44749513D01*
X99004000Y-45565500D01*
X98983998Y-45633621D01*
X98930342Y-45680114D01*
X98878000Y-45691500D01*
X98514516Y-45691500D01*
X98512068Y-45691693D01*
X98512060Y-45691693D01*
X98484156Y-45693889D01*
X98484151Y-45693890D01*
X98477746Y-45694394D01*
X98378995Y-45723084D01*
X98328016Y-45737894D01*
X98328014Y-45737895D01*
X98320403Y-45740106D01*
X98313581Y-45744141D01*
X98313580Y-45744141D01*
X98292760Y-45756454D01*
X98228621Y-45774000D01*
X97956442Y-45774000D01*
X97942911Y-45777973D01*
X97941776Y-45785871D01*
X97978357Y-45911784D01*
X97984605Y-45926222D01*
X97990016Y-45935372D01*
X98007474Y-46004188D01*
X97990015Y-46063647D01*
X97985353Y-46071531D01*
X97980106Y-46080403D01*
X97934394Y-46237746D01*
X97933890Y-46244151D01*
X97933889Y-46244156D01*
X97933010Y-46255331D01*
X97931500Y-46274516D01*
X97931500Y-46685484D01*
X97931693Y-46687932D01*
X97931693Y-46687940D01*
X97933747Y-46714033D01*
X97934394Y-46722254D01*
X97958491Y-46805196D01*
X97965168Y-46828179D01*
X97964965Y-46899175D01*
X97926411Y-46958792D01*
X97861746Y-46988100D01*
X97791502Y-46977796D01*
X97755076Y-46952427D01*
X96051254Y-45248605D01*
X97943381Y-45248605D01*
X97943421Y-45262705D01*
X97950691Y-45266000D01*
X98477885Y-45266000D01*
X98493124Y-45261525D01*
X98494329Y-45260135D01*
X98496000Y-45252452D01*
X98496000Y-44751576D01*
X98491656Y-44736781D01*
X98481225Y-44734937D01*
X98471641Y-44736688D01*
X98328216Y-44778357D01*
X98313780Y-44784604D01*
X98186501Y-44859876D01*
X98174074Y-44869516D01*
X98069516Y-44974074D01*
X98059876Y-44986501D01*
X97984604Y-45113780D01*
X97978357Y-45128216D01*
X97943381Y-45248605D01*
X96051254Y-45248605D01*
X95264774Y-44462125D01*
X95230748Y-44399813D01*
X95235813Y-44328998D01*
X95278360Y-44272162D01*
X95344880Y-44247351D01*
X95389022Y-44252033D01*
X95401169Y-44255562D01*
X95407574Y-44256066D01*
X95407579Y-44256067D01*
X95436042Y-44258307D01*
X95436050Y-44258307D01*
X95438498Y-44258500D01*
X95871502Y-44258500D01*
X95873950Y-44258307D01*
X95873958Y-44258307D01*
X95902421Y-44256067D01*
X95902426Y-44256066D01*
X95908831Y-44255562D01*
X96027238Y-44221162D01*
X96060988Y-44211357D01*
X96060990Y-44211356D01*
X96068601Y-44209145D01*
X96178199Y-44144329D01*
X96204980Y-44128491D01*
X96204983Y-44128489D01*
X96211807Y-44124453D01*
X96225830Y-44110430D01*
X96288142Y-44076404D01*
X96358957Y-44081469D01*
X96404020Y-44110430D01*
X96424074Y-44130484D01*
X96436501Y-44140124D01*
X96563780Y-44215396D01*
X96578216Y-44221643D01*
X96721641Y-44263312D01*
X96729609Y-44264768D01*
X96743031Y-44261948D01*
X96746000Y-44250487D01*
X96746000Y-44248424D01*
X97254000Y-44248424D01*
X97258344Y-44263219D01*
X97268775Y-44265063D01*
X97278359Y-44263312D01*
X97421784Y-44221643D01*
X97443497Y-44212247D01*
X97444053Y-44213531D01*
X97504674Y-44198149D01*
X97556073Y-44213241D01*
X97556503Y-44212247D01*
X97578216Y-44221643D01*
X97721641Y-44263312D01*
X97729609Y-44264768D01*
X97743031Y-44261948D01*
X97746000Y-44250487D01*
X97746000Y-43752115D01*
X97741525Y-43736876D01*
X97740135Y-43735671D01*
X97732452Y-43734000D01*
X97272115Y-43734000D01*
X97256876Y-43738475D01*
X97255671Y-43739865D01*
X97254000Y-43747548D01*
X97254000Y-44248424D01*
X96746000Y-44248424D01*
X96746000Y-43434500D01*
X96766002Y-43366379D01*
X96819658Y-43319886D01*
X96872000Y-43308500D01*
X97235484Y-43308500D01*
X97237932Y-43308307D01*
X97237940Y-43308307D01*
X97265844Y-43306111D01*
X97265849Y-43306110D01*
X97272254Y-43305606D01*
X97392643Y-43270630D01*
X97421984Y-43262106D01*
X97421986Y-43262105D01*
X97429597Y-43259894D01*
X97436419Y-43255859D01*
X97443697Y-43252710D01*
X97444278Y-43254053D01*
X97504685Y-43238731D01*
X97555851Y-43253755D01*
G37*
%TD.AperFunction*%
%TA.AperFunction,Conductor*%
G36*
X105321385Y-35397907D02*
G01*
X105367878Y-35451563D01*
X105377982Y-35521837D01*
X105375955Y-35532482D01*
X105373255Y-35539684D01*
X105366500Y-35601866D01*
X105366500Y-37398134D01*
X105373255Y-37460316D01*
X105424385Y-37596705D01*
X105511739Y-37713261D01*
X105628295Y-37800615D01*
X105764684Y-37851745D01*
X105826866Y-37858500D01*
X106515487Y-37858500D01*
X106583608Y-37878502D01*
X106630101Y-37932158D01*
X106640205Y-38002432D01*
X106610711Y-38067012D01*
X106604582Y-38073595D01*
X105062854Y-39615323D01*
X105061917Y-39616251D01*
X105000687Y-39676212D01*
X104996869Y-39682136D01*
X104996866Y-39682140D01*
X104978536Y-39710583D01*
X104971102Y-39720931D01*
X104945586Y-39752893D01*
X104942522Y-39759232D01*
X104942521Y-39759233D01*
X104931879Y-39781248D01*
X104924349Y-39794666D01*
X104912972Y-39812320D01*
X104907290Y-39821136D01*
X104893298Y-39859578D01*
X104888348Y-39871296D01*
X104870547Y-39908119D01*
X104868962Y-39914985D01*
X104863465Y-39938796D01*
X104859094Y-39953552D01*
X104850730Y-39976530D01*
X104850729Y-39976535D01*
X104848321Y-39983150D01*
X104847438Y-39990138D01*
X104847437Y-39990143D01*
X104843194Y-40023728D01*
X104840958Y-40036281D01*
X104831762Y-40076112D01*
X104831737Y-40083158D01*
X104831737Y-40083161D01*
X104831627Y-40114701D01*
X104831600Y-40115504D01*
X104831500Y-40116301D01*
X104831500Y-40151273D01*
X104831161Y-40248523D01*
X104831417Y-40249670D01*
X104831500Y-40251196D01*
X104831500Y-41065500D01*
X104811498Y-41133621D01*
X104757842Y-41180114D01*
X104705500Y-41191500D01*
X104551866Y-41191500D01*
X104489684Y-41198255D01*
X104353295Y-41249385D01*
X104236739Y-41336739D01*
X104149385Y-41453295D01*
X104098255Y-41589684D01*
X104091500Y-41651866D01*
X104091500Y-42449487D01*
X104071498Y-42517608D01*
X104054595Y-42538582D01*
X103602854Y-42990323D01*
X103601917Y-42991251D01*
X103540687Y-43051212D01*
X103536869Y-43057136D01*
X103536866Y-43057140D01*
X103518536Y-43085583D01*
X103511102Y-43095931D01*
X103485586Y-43127893D01*
X103482522Y-43134232D01*
X103482521Y-43134233D01*
X103471879Y-43156248D01*
X103464350Y-43169665D01*
X103447290Y-43196136D01*
X103433298Y-43234578D01*
X103428348Y-43246296D01*
X103410547Y-43283119D01*
X103406396Y-43301102D01*
X103403465Y-43313796D01*
X103399094Y-43328552D01*
X103390730Y-43351530D01*
X103390729Y-43351535D01*
X103388321Y-43358150D01*
X103387438Y-43365138D01*
X103387437Y-43365143D01*
X103383194Y-43398728D01*
X103380958Y-43411281D01*
X103371762Y-43451112D01*
X103371737Y-43458158D01*
X103371737Y-43458161D01*
X103371627Y-43489701D01*
X103371600Y-43490504D01*
X103371500Y-43491301D01*
X103371500Y-43526273D01*
X103371161Y-43623523D01*
X103371417Y-43624670D01*
X103371500Y-43626196D01*
X103371500Y-46821027D01*
X103351498Y-46889148D01*
X103297842Y-46935641D01*
X103227568Y-46945745D01*
X103162988Y-46916251D01*
X103138646Y-46887797D01*
X103090041Y-46810012D01*
X103078476Y-46791505D01*
X103006500Y-46719025D01*
X102967486Y-46679737D01*
X102967482Y-46679734D01*
X102962522Y-46674739D01*
X102823580Y-46586563D01*
X102796033Y-46576754D01*
X102738569Y-46535059D01*
X102712770Y-46468916D01*
X102718708Y-46418390D01*
X102723238Y-46404731D01*
X102724756Y-46389920D01*
X102733172Y-46307771D01*
X102733500Y-46304572D01*
X102733500Y-45695428D01*
X102733113Y-45691693D01*
X102727087Y-45633621D01*
X102722978Y-45594018D01*
X102669308Y-45433151D01*
X102580071Y-45288945D01*
X102460053Y-45169136D01*
X102315692Y-45080151D01*
X102300223Y-45075020D01*
X102161262Y-45028928D01*
X102161260Y-45028928D01*
X102154731Y-45026762D01*
X102054572Y-45016500D01*
X101520428Y-45016500D01*
X101517182Y-45016837D01*
X101517178Y-45016837D01*
X101483397Y-45020342D01*
X101419018Y-45027022D01*
X101258151Y-45080692D01*
X101113945Y-45169929D01*
X101089113Y-45194805D01*
X101026832Y-45228884D01*
X100956012Y-45223882D01*
X100910922Y-45194960D01*
X100890232Y-45174306D01*
X100885053Y-45169136D01*
X100844383Y-45144067D01*
X100796891Y-45091296D01*
X100784500Y-45036808D01*
X100784500Y-44778251D01*
X100785578Y-44761805D01*
X100788358Y-44740688D01*
X100789436Y-44732500D01*
X100781985Y-44675899D01*
X100770856Y-44591364D01*
X100770855Y-44591362D01*
X100769778Y-44583178D01*
X100724510Y-44473893D01*
X100712141Y-44444032D01*
X100620455Y-44324545D01*
X100597005Y-44306551D01*
X100584614Y-44295684D01*
X98855405Y-42566475D01*
X98821379Y-42504163D01*
X98818500Y-42477380D01*
X98818500Y-42314516D01*
X98815606Y-42277746D01*
X98769894Y-42120403D01*
X98686488Y-41979371D01*
X98570629Y-41863512D01*
X98563808Y-41859478D01*
X98436420Y-41784141D01*
X98436419Y-41784141D01*
X98429597Y-41780106D01*
X98421986Y-41777895D01*
X98421984Y-41777894D01*
X98363654Y-41760948D01*
X98272254Y-41734394D01*
X98265849Y-41733890D01*
X98265844Y-41733889D01*
X98237940Y-41731693D01*
X98237932Y-41731693D01*
X98235484Y-41731500D01*
X97764516Y-41731500D01*
X97762068Y-41731693D01*
X97762060Y-41731693D01*
X97734156Y-41733889D01*
X97734151Y-41733890D01*
X97727746Y-41734394D01*
X97636346Y-41760948D01*
X97578016Y-41777894D01*
X97578014Y-41777895D01*
X97570403Y-41780106D01*
X97563581Y-41784141D01*
X97556303Y-41787290D01*
X97555722Y-41785947D01*
X97495315Y-41801269D01*
X97444149Y-41786245D01*
X97443697Y-41787290D01*
X97436419Y-41784141D01*
X97429597Y-41780106D01*
X97421986Y-41777895D01*
X97421984Y-41777894D01*
X97363654Y-41760948D01*
X97272254Y-41734394D01*
X97265849Y-41733890D01*
X97265844Y-41733889D01*
X97237940Y-41731693D01*
X97237932Y-41731693D01*
X97235484Y-41731500D01*
X96764516Y-41731500D01*
X96762068Y-41731693D01*
X96762060Y-41731693D01*
X96734156Y-41733889D01*
X96734151Y-41733890D01*
X96727746Y-41734394D01*
X96572410Y-41779523D01*
X96501413Y-41779320D01*
X96441797Y-41740766D01*
X96420218Y-41700979D01*
X96419505Y-41701288D01*
X96416358Y-41694016D01*
X96414145Y-41686399D01*
X96345719Y-41570697D01*
X96333491Y-41550020D01*
X96333489Y-41550017D01*
X96329453Y-41543193D01*
X96211807Y-41425547D01*
X96204983Y-41421511D01*
X96204980Y-41421509D01*
X96075427Y-41344892D01*
X96075428Y-41344892D01*
X96068601Y-41340855D01*
X96060990Y-41338644D01*
X96060988Y-41338643D01*
X96008769Y-41323472D01*
X95908831Y-41294438D01*
X95902426Y-41293934D01*
X95902421Y-41293933D01*
X95873958Y-41291693D01*
X95873950Y-41291693D01*
X95871502Y-41291500D01*
X95438498Y-41291500D01*
X95436051Y-41291693D01*
X95436041Y-41291693D01*
X95414762Y-41293368D01*
X95345281Y-41278772D01*
X95315781Y-41256851D01*
X95296316Y-41237386D01*
X95285449Y-41224995D01*
X95272484Y-41208098D01*
X95272481Y-41208095D01*
X95267455Y-41201545D01*
X95250725Y-41188707D01*
X95207544Y-41155573D01*
X95177610Y-41132604D01*
X95147968Y-41109859D01*
X95024568Y-41058745D01*
X95016642Y-41055462D01*
X95016641Y-41055462D01*
X95008822Y-41052223D01*
X95008814Y-41052222D01*
X94960277Y-41045832D01*
X94897003Y-41037501D01*
X94896994Y-41037500D01*
X94896991Y-41037500D01*
X94896979Y-41037499D01*
X94867689Y-41033643D01*
X94867688Y-41033643D01*
X94859500Y-41032565D01*
X94851312Y-41033643D01*
X94851311Y-41033643D01*
X94830202Y-41036422D01*
X94813756Y-41037500D01*
X91599711Y-41037500D01*
X91583267Y-41036422D01*
X91565445Y-41034076D01*
X91500517Y-41005355D01*
X91461424Y-40946090D01*
X91460578Y-40875099D01*
X91498248Y-40814920D01*
X91546736Y-40788157D01*
X91601984Y-40772106D01*
X91601986Y-40772105D01*
X91609597Y-40769894D01*
X91617205Y-40765395D01*
X91743808Y-40690522D01*
X91750629Y-40686488D01*
X91866488Y-40570629D01*
X91949894Y-40429597D01*
X91995606Y-40272254D01*
X91996817Y-40256876D01*
X91998307Y-40237940D01*
X91998307Y-40237932D01*
X91998500Y-40235484D01*
X91998500Y-39764516D01*
X91998307Y-39762060D01*
X91996111Y-39734156D01*
X91996110Y-39734151D01*
X91995606Y-39727746D01*
X91993628Y-39720937D01*
X91963645Y-39617733D01*
X91963848Y-39546737D01*
X92002402Y-39487121D01*
X92067067Y-39457813D01*
X92119794Y-39461584D01*
X92271169Y-39505562D01*
X92277574Y-39506066D01*
X92277579Y-39506067D01*
X92306042Y-39508307D01*
X92306050Y-39508307D01*
X92308498Y-39508500D01*
X93466502Y-39508500D01*
X93468950Y-39508307D01*
X93468958Y-39508307D01*
X93497421Y-39506067D01*
X93497426Y-39506066D01*
X93503831Y-39505562D01*
X93631067Y-39468597D01*
X93655988Y-39461357D01*
X93655990Y-39461356D01*
X93663601Y-39459145D01*
X93723358Y-39423805D01*
X93799980Y-39378491D01*
X93799983Y-39378489D01*
X93806807Y-39374453D01*
X93872355Y-39308905D01*
X93934667Y-39274879D01*
X93961450Y-39272000D01*
X93994256Y-39272000D01*
X94010702Y-39273078D01*
X94031811Y-39275857D01*
X94031812Y-39275857D01*
X94040000Y-39276935D01*
X94048188Y-39275857D01*
X94048189Y-39275857D01*
X94077479Y-39272001D01*
X94077491Y-39272000D01*
X94077494Y-39272000D01*
X94077503Y-39271999D01*
X94158625Y-39261318D01*
X94189322Y-39257277D01*
X94328468Y-39199641D01*
X94352110Y-39181500D01*
X94417954Y-39130976D01*
X94417955Y-39130975D01*
X94447955Y-39107955D01*
X94465953Y-39084500D01*
X94476820Y-39072110D01*
X95183525Y-38365405D01*
X95245837Y-38331379D01*
X95272619Y-38328500D01*
X95430059Y-38328499D01*
X95439988Y-38328499D01*
X95442439Y-38328306D01*
X95442443Y-38328306D01*
X95445559Y-38328061D01*
X95460699Y-38326870D01*
X95530176Y-38341465D01*
X95580736Y-38391308D01*
X95596322Y-38460572D01*
X95587572Y-38499272D01*
X95552470Y-38587034D01*
X95551356Y-38593762D01*
X95551355Y-38593766D01*
X95526954Y-38741161D01*
X95522892Y-38765698D01*
X95523249Y-38772515D01*
X95523249Y-38772519D01*
X95527905Y-38861355D01*
X95532370Y-38946547D01*
X95534181Y-38953120D01*
X95534181Y-38953123D01*
X95576829Y-39107955D01*
X95580461Y-39121141D01*
X95664922Y-39281336D01*
X95669327Y-39286549D01*
X95669330Y-39286553D01*
X95777406Y-39414443D01*
X95777410Y-39414447D01*
X95781813Y-39419657D01*
X95787237Y-39423804D01*
X95787238Y-39423805D01*
X95920257Y-39525506D01*
X95920261Y-39525509D01*
X95925678Y-39529650D01*
X96019916Y-39573594D01*
X96083631Y-39603305D01*
X96083634Y-39603306D01*
X96089808Y-39606185D01*
X96096456Y-39607671D01*
X96096459Y-39607672D01*
X96202421Y-39631357D01*
X96266543Y-39645690D01*
X96272088Y-39646000D01*
X96405244Y-39646000D01*
X96540037Y-39631357D01*
X96658305Y-39591555D01*
X96705204Y-39575772D01*
X96705206Y-39575771D01*
X96711675Y-39573594D01*
X96829847Y-39502589D01*
X96898538Y-39484650D01*
X96966025Y-39506697D01*
X96985376Y-39523066D01*
X97024592Y-39563675D01*
X97024597Y-39563679D01*
X97029491Y-39568747D01*
X97167189Y-39658854D01*
X97321428Y-39716215D01*
X97328409Y-39717146D01*
X97328411Y-39717147D01*
X97477561Y-39737048D01*
X97477565Y-39737048D01*
X97484542Y-39737979D01*
X97491553Y-39737341D01*
X97491557Y-39737341D01*
X97641403Y-39723704D01*
X97641404Y-39723704D01*
X97648424Y-39723065D01*
X97727086Y-39697506D01*
X97798230Y-39674390D01*
X97798233Y-39674389D01*
X97804929Y-39672213D01*
X97946279Y-39587951D01*
X98065449Y-39474468D01*
X98081458Y-39450373D01*
X98152614Y-39343275D01*
X98152615Y-39343273D01*
X98156515Y-39337403D01*
X98171717Y-39297383D01*
X98214606Y-39240805D01*
X98281275Y-39216396D01*
X98324657Y-39221130D01*
X98477746Y-39265606D01*
X98484151Y-39266110D01*
X98484156Y-39266111D01*
X98512060Y-39268307D01*
X98512068Y-39268307D01*
X98514516Y-39268500D01*
X98985484Y-39268500D01*
X98987932Y-39268307D01*
X98987940Y-39268307D01*
X99015844Y-39266111D01*
X99015849Y-39266110D01*
X99022254Y-39265606D01*
X99123361Y-39236232D01*
X99171984Y-39222106D01*
X99171986Y-39222105D01*
X99174846Y-39221274D01*
X99174848Y-39221274D01*
X99179597Y-39219894D01*
X99179820Y-39220660D01*
X99243994Y-39212742D01*
X99287707Y-39228621D01*
X99300577Y-39236232D01*
X99300580Y-39236233D01*
X99307404Y-39240269D01*
X99315015Y-39242480D01*
X99315017Y-39242481D01*
X99364328Y-39256807D01*
X99463534Y-39285629D01*
X99469941Y-39286133D01*
X99469945Y-39286134D01*
X99497556Y-39288307D01*
X99497562Y-39288307D01*
X99500011Y-39288500D01*
X99510073Y-39288500D01*
X99746146Y-39288499D01*
X99814266Y-39308501D01*
X99853922Y-39349227D01*
X99902460Y-39429371D01*
X99915179Y-39450373D01*
X100029491Y-39568747D01*
X100167189Y-39658854D01*
X100321428Y-39716215D01*
X100328409Y-39717146D01*
X100328411Y-39717147D01*
X100477561Y-39737048D01*
X100477565Y-39737048D01*
X100484542Y-39737979D01*
X100491553Y-39737341D01*
X100491557Y-39737341D01*
X100641403Y-39723704D01*
X100641404Y-39723704D01*
X100648424Y-39723065D01*
X100727086Y-39697506D01*
X100798230Y-39674390D01*
X100798233Y-39674389D01*
X100804929Y-39672213D01*
X100946279Y-39587951D01*
X101065449Y-39474468D01*
X101085460Y-39444350D01*
X101144975Y-39354772D01*
X101199333Y-39309101D01*
X101245081Y-39299514D01*
X101245045Y-39298596D01*
X101247513Y-39298499D01*
X101249988Y-39298499D01*
X101286466Y-39295629D01*
X101292649Y-39293833D01*
X101292653Y-39293832D01*
X101344810Y-39278679D01*
X101415806Y-39278882D01*
X101476200Y-39318348D01*
X101557406Y-39414443D01*
X101557410Y-39414447D01*
X101561813Y-39419657D01*
X101567237Y-39423804D01*
X101567238Y-39423805D01*
X101700257Y-39525506D01*
X101700261Y-39525509D01*
X101705678Y-39529650D01*
X101799916Y-39573594D01*
X101863631Y-39603305D01*
X101863634Y-39603306D01*
X101869808Y-39606185D01*
X101876456Y-39607671D01*
X101876459Y-39607672D01*
X101982421Y-39631357D01*
X102046543Y-39645690D01*
X102052088Y-39646000D01*
X102185244Y-39646000D01*
X102320037Y-39631357D01*
X102438305Y-39591555D01*
X102485204Y-39575772D01*
X102485206Y-39575771D01*
X102491675Y-39573594D01*
X102646905Y-39480323D01*
X102651862Y-39475635D01*
X102651865Y-39475633D01*
X102773527Y-39360582D01*
X102773529Y-39360580D01*
X102778485Y-39355893D01*
X102782317Y-39350255D01*
X102782320Y-39350251D01*
X102876442Y-39211755D01*
X102880277Y-39206112D01*
X102947530Y-39037966D01*
X102948644Y-39031238D01*
X102948645Y-39031234D01*
X102975993Y-38866039D01*
X102975993Y-38866036D01*
X102977108Y-38859302D01*
X102976705Y-38851600D01*
X102967987Y-38685266D01*
X102967630Y-38678453D01*
X102964643Y-38667606D01*
X102921352Y-38510441D01*
X102919539Y-38503859D01*
X102835078Y-38343664D01*
X102830673Y-38338451D01*
X102830670Y-38338447D01*
X102722594Y-38210557D01*
X102722590Y-38210553D01*
X102718187Y-38205343D01*
X102707937Y-38197506D01*
X102579743Y-38099494D01*
X102579739Y-38099491D01*
X102574322Y-38095350D01*
X102469186Y-38046325D01*
X102416369Y-38021695D01*
X102416366Y-38021694D01*
X102410192Y-38018815D01*
X102403544Y-38017329D01*
X102403541Y-38017328D01*
X102238494Y-37980436D01*
X102238495Y-37980436D01*
X102233457Y-37979310D01*
X102227912Y-37979000D01*
X102094756Y-37979000D01*
X101959963Y-37993643D01*
X101953495Y-37995820D01*
X101946830Y-37997285D01*
X101946398Y-37995319D01*
X101885166Y-37997710D01*
X101823988Y-37961686D01*
X101791997Y-37898305D01*
X101794923Y-37840368D01*
X101814961Y-37771395D01*
X101814921Y-37757295D01*
X101807651Y-37754000D01*
X101337542Y-37754000D01*
X101302390Y-37748997D01*
X101292647Y-37746166D01*
X101292640Y-37746165D01*
X101286466Y-37744371D01*
X101280059Y-37743867D01*
X101280055Y-37743866D01*
X101252444Y-37741693D01*
X101252438Y-37741693D01*
X101249989Y-37741500D01*
X101234699Y-37741500D01*
X101166578Y-37721498D01*
X101120085Y-37667842D01*
X101109981Y-37597568D01*
X101139475Y-37532988D01*
X101193258Y-37496510D01*
X101201073Y-37493789D01*
X101215884Y-37489625D01*
X101239790Y-37484457D01*
X101239793Y-37484456D01*
X101246671Y-37482969D01*
X101283737Y-37465685D01*
X101295527Y-37460897D01*
X101334159Y-37447444D01*
X101360874Y-37430751D01*
X101374382Y-37423417D01*
X101402930Y-37410105D01*
X101435237Y-37385045D01*
X101445695Y-37377750D01*
X101474390Y-37359819D01*
X101474393Y-37359817D01*
X101480373Y-37356080D01*
X101507768Y-37328875D01*
X101508338Y-37328342D01*
X101508976Y-37327847D01*
X101533629Y-37303194D01*
X101554373Y-37282594D01*
X101616802Y-37248787D01*
X101643156Y-37246000D01*
X101801900Y-37246000D01*
X101815431Y-37242027D01*
X101816566Y-37234129D01*
X101789208Y-37139962D01*
X101789411Y-37068966D01*
X101821110Y-37015714D01*
X102191419Y-36645405D01*
X102253731Y-36611379D01*
X102280514Y-36608500D01*
X102329572Y-36608500D01*
X102332818Y-36608163D01*
X102332822Y-36608163D01*
X102366603Y-36604658D01*
X102430982Y-36597978D01*
X102591849Y-36544308D01*
X102736055Y-36455071D01*
X102855864Y-36335053D01*
X102944849Y-36190692D01*
X102950998Y-36172154D01*
X102996072Y-36036262D01*
X102996072Y-36036260D01*
X102998238Y-36029731D01*
X103008500Y-35929572D01*
X103008500Y-35693013D01*
X103028502Y-35624892D01*
X103045405Y-35603918D01*
X103234513Y-35414810D01*
X103296825Y-35380784D01*
X103323608Y-35377905D01*
X105253264Y-35377905D01*
X105321385Y-35397907D01*
G37*
%TD.AperFunction*%
%TA.AperFunction,Conductor*%
G36*
X113302957Y-36030990D02*
G01*
X113335224Y-36054352D01*
X114954595Y-37673723D01*
X114988621Y-37736035D01*
X114991500Y-37762818D01*
X114991500Y-41424925D01*
X114971498Y-41493046D01*
X114917842Y-41539539D01*
X114847568Y-41549643D01*
X114779971Y-41517450D01*
X114753341Y-41492833D01*
X114753338Y-41492831D01*
X114749101Y-41488914D01*
X114571362Y-41376769D01*
X114376163Y-41298892D01*
X114370506Y-41297767D01*
X114370500Y-41297765D01*
X114175707Y-41259019D01*
X114175705Y-41259019D01*
X114170040Y-41257892D01*
X114164265Y-41257816D01*
X114164261Y-41257816D01*
X114059001Y-41256438D01*
X113959898Y-41255141D01*
X113954201Y-41256120D01*
X113954200Y-41256120D01*
X113758469Y-41289753D01*
X113752772Y-41290732D01*
X113555601Y-41363472D01*
X113550640Y-41366424D01*
X113550639Y-41366424D01*
X113445034Y-41429253D01*
X113374988Y-41470926D01*
X113216981Y-41609494D01*
X113213410Y-41614024D01*
X113095712Y-41763324D01*
X113086872Y-41774537D01*
X113084181Y-41779653D01*
X113084179Y-41779655D01*
X112991710Y-41955410D01*
X112989018Y-41960527D01*
X112926696Y-42161234D01*
X112926017Y-42166969D01*
X112926017Y-42166970D01*
X112918521Y-42230309D01*
X112890651Y-42295606D01*
X112831903Y-42335471D01*
X112793394Y-42341500D01*
X110851866Y-42341500D01*
X110789684Y-42348255D01*
X110653295Y-42399385D01*
X110536739Y-42486739D01*
X110449385Y-42603295D01*
X110398255Y-42739684D01*
X110391500Y-42801866D01*
X110391500Y-43421847D01*
X110371498Y-43489968D01*
X110317842Y-43536461D01*
X110306106Y-43541125D01*
X110192382Y-43579840D01*
X110192379Y-43579841D01*
X110185715Y-43582110D01*
X110045555Y-43668337D01*
X109927982Y-43783473D01*
X109838838Y-43921797D01*
X109782556Y-44076432D01*
X109781841Y-44082090D01*
X109746647Y-44143136D01*
X109683563Y-44175708D01*
X109659640Y-44178000D01*
X107234500Y-44178000D01*
X107166379Y-44157998D01*
X107119886Y-44104342D01*
X107108500Y-44052000D01*
X107108500Y-43951866D01*
X107101745Y-43889684D01*
X107050615Y-43753295D01*
X107037407Y-43735671D01*
X106992360Y-43675565D01*
X106967512Y-43609058D01*
X106982565Y-43539676D01*
X106992360Y-43524435D01*
X107045229Y-43453892D01*
X107045230Y-43453890D01*
X107050615Y-43446705D01*
X107101745Y-43310316D01*
X107108500Y-43248134D01*
X107108500Y-41651866D01*
X107101745Y-41589684D01*
X107050615Y-41453295D01*
X106963261Y-41336739D01*
X106846705Y-41249385D01*
X106710316Y-41198255D01*
X106648134Y-41191500D01*
X106494500Y-41191500D01*
X106426379Y-41171498D01*
X106379886Y-41117842D01*
X106368500Y-41065500D01*
X106368500Y-40535513D01*
X106388502Y-40467392D01*
X106405405Y-40446418D01*
X107822508Y-39029315D01*
X107884820Y-38995289D01*
X107955635Y-39000354D01*
X108012471Y-39042901D01*
X108037282Y-39109421D01*
X108034711Y-39145250D01*
X108008404Y-39265907D01*
X108002967Y-39334992D01*
X107989684Y-39503767D01*
X107986917Y-39538918D01*
X107987334Y-39546156D01*
X108002682Y-39812320D01*
X108055405Y-40081053D01*
X108056792Y-40085103D01*
X108056793Y-40085108D01*
X108135464Y-40314885D01*
X108144112Y-40340144D01*
X108173238Y-40398054D01*
X108256603Y-40563808D01*
X108267160Y-40584799D01*
X108269586Y-40588328D01*
X108269589Y-40588334D01*
X108375563Y-40742526D01*
X108422274Y-40810490D01*
X108606582Y-41013043D01*
X108609877Y-41015798D01*
X108609878Y-41015799D01*
X108652052Y-41051062D01*
X108816675Y-41188707D01*
X108820316Y-41190991D01*
X109045024Y-41331951D01*
X109045028Y-41331953D01*
X109048664Y-41334234D01*
X109113419Y-41363472D01*
X109294345Y-41445164D01*
X109294349Y-41445166D01*
X109298257Y-41446930D01*
X109302377Y-41448150D01*
X109302376Y-41448150D01*
X109556723Y-41523491D01*
X109556727Y-41523492D01*
X109560836Y-41524709D01*
X109565070Y-41525357D01*
X109565075Y-41525358D01*
X109827298Y-41565483D01*
X109827300Y-41565483D01*
X109831540Y-41566132D01*
X109970912Y-41568322D01*
X110101071Y-41570367D01*
X110101077Y-41570367D01*
X110105362Y-41570434D01*
X110377235Y-41537534D01*
X110642127Y-41468041D01*
X110646087Y-41466401D01*
X110646092Y-41466399D01*
X110855038Y-41379850D01*
X110895136Y-41363241D01*
X111058477Y-41267792D01*
X111127879Y-41227237D01*
X111127880Y-41227236D01*
X111131582Y-41225073D01*
X111347089Y-41056094D01*
X111350841Y-41052223D01*
X111505954Y-40892158D01*
X111537669Y-40859431D01*
X111540202Y-40855983D01*
X111540206Y-40855978D01*
X111697257Y-40642178D01*
X111699795Y-40638723D01*
X111727154Y-40588334D01*
X111828418Y-40401830D01*
X111828419Y-40401828D01*
X111830468Y-40398054D01*
X111891898Y-40235484D01*
X111925751Y-40145895D01*
X111925752Y-40145891D01*
X111927269Y-40141877D01*
X111973781Y-39938796D01*
X111987449Y-39879117D01*
X111987450Y-39879113D01*
X111988407Y-39874933D01*
X111992808Y-39825629D01*
X112012531Y-39604627D01*
X112012531Y-39604625D01*
X112012751Y-39602161D01*
X112013016Y-39576935D01*
X112013167Y-39562484D01*
X112013167Y-39562483D01*
X112013193Y-39560000D01*
X112013024Y-39557519D01*
X111994859Y-39291055D01*
X111994858Y-39291049D01*
X111994567Y-39286778D01*
X111992306Y-39275857D01*
X111957534Y-39107955D01*
X111939032Y-39018612D01*
X111847617Y-38760465D01*
X111758989Y-38588751D01*
X111723978Y-38520919D01*
X111723978Y-38520918D01*
X111722013Y-38517112D01*
X111717995Y-38511394D01*
X111640150Y-38400632D01*
X111564545Y-38293057D01*
X111451588Y-38171501D01*
X111381046Y-38095588D01*
X111381043Y-38095585D01*
X111378125Y-38092445D01*
X111290306Y-38020566D01*
X111250261Y-37961942D01*
X111248268Y-37890974D01*
X111284959Y-37830193D01*
X111348686Y-37798898D01*
X111415058Y-37805352D01*
X111419853Y-37807183D01*
X111419862Y-37807186D01*
X111424692Y-37809030D01*
X111429760Y-37810061D01*
X111429763Y-37810062D01*
X111528711Y-37830193D01*
X111643597Y-37853567D01*
X111648772Y-37853757D01*
X111648774Y-37853757D01*
X111861673Y-37861564D01*
X111861677Y-37861564D01*
X111866837Y-37861753D01*
X111871957Y-37861097D01*
X111871959Y-37861097D01*
X112083288Y-37834025D01*
X112083289Y-37834025D01*
X112088416Y-37833368D01*
X112098999Y-37830193D01*
X112297429Y-37770661D01*
X112297434Y-37770659D01*
X112302384Y-37769174D01*
X112502994Y-37670896D01*
X112684860Y-37541173D01*
X112694989Y-37531080D01*
X112782663Y-37443711D01*
X112843096Y-37383489D01*
X112866361Y-37351113D01*
X112970435Y-37206277D01*
X112973453Y-37202077D01*
X112982624Y-37183522D01*
X113070136Y-37006453D01*
X113070137Y-37006451D01*
X113072430Y-37001811D01*
X113108783Y-36882158D01*
X113135865Y-36793023D01*
X113135865Y-36793021D01*
X113137370Y-36788069D01*
X113166529Y-36566590D01*
X113167028Y-36546169D01*
X113168074Y-36503365D01*
X113168074Y-36503361D01*
X113168156Y-36500000D01*
X113149852Y-36277361D01*
X113123925Y-36174142D01*
X113126729Y-36103202D01*
X113167442Y-36045038D01*
X113233137Y-36018119D01*
X113302957Y-36030990D01*
G37*
%TD.AperFunction*%
%TA.AperFunction,Conductor*%
G36*
X85933818Y-34528502D02*
G01*
X85980311Y-34582158D01*
X85990415Y-34652432D01*
X85960921Y-34717012D01*
X85953224Y-34725137D01*
X85756913Y-34914712D01*
X85756909Y-34914717D01*
X85753748Y-34917769D01*
X85580812Y-35139118D01*
X85578616Y-35142922D01*
X85578611Y-35142929D01*
X85486789Y-35301970D01*
X85440364Y-35382381D01*
X85335138Y-35642824D01*
X85334073Y-35647097D01*
X85334072Y-35647099D01*
X85268445Y-35910315D01*
X85267183Y-35915376D01*
X85266724Y-35919744D01*
X85266723Y-35919749D01*
X85244848Y-36127886D01*
X85237822Y-36194733D01*
X85237975Y-36199121D01*
X85237975Y-36199127D01*
X85246958Y-36456353D01*
X85247625Y-36475458D01*
X85248387Y-36479781D01*
X85248388Y-36479788D01*
X85269354Y-36598689D01*
X85296402Y-36752087D01*
X85383203Y-37019235D01*
X85385131Y-37023188D01*
X85385133Y-37023193D01*
X85438773Y-37133170D01*
X85450658Y-37203165D01*
X85422813Y-37268474D01*
X85364081Y-37308361D01*
X85293107Y-37310163D01*
X85236430Y-37277500D01*
X84395405Y-36436475D01*
X84361379Y-36374163D01*
X84358500Y-36347380D01*
X84358500Y-35601866D01*
X84351745Y-35539684D01*
X84300615Y-35403295D01*
X84213261Y-35286739D01*
X84096705Y-35199385D01*
X83960316Y-35148255D01*
X83898134Y-35141500D01*
X82601866Y-35141500D01*
X82539684Y-35148255D01*
X82403295Y-35199385D01*
X82286739Y-35286739D01*
X82281358Y-35293919D01*
X82281357Y-35293920D01*
X82247138Y-35339578D01*
X82190278Y-35382093D01*
X82119460Y-35387118D01*
X82072095Y-35364978D01*
X82070629Y-35363512D01*
X81929597Y-35280106D01*
X81921986Y-35277895D01*
X81921984Y-35277894D01*
X81841095Y-35254394D01*
X81772254Y-35234394D01*
X81765849Y-35233890D01*
X81765844Y-35233889D01*
X81737940Y-35231693D01*
X81737932Y-35231693D01*
X81735484Y-35231500D01*
X81264516Y-35231500D01*
X81262068Y-35231693D01*
X81262060Y-35231693D01*
X81234156Y-35233889D01*
X81234151Y-35233890D01*
X81227746Y-35234394D01*
X81158905Y-35254394D01*
X81078016Y-35277894D01*
X81078014Y-35277895D01*
X81070403Y-35280106D01*
X81063580Y-35284141D01*
X81063578Y-35284142D01*
X81045582Y-35294785D01*
X80976766Y-35312245D01*
X80933584Y-35302464D01*
X80929597Y-35300106D01*
X80921986Y-35297895D01*
X80921984Y-35297894D01*
X80853142Y-35277894D01*
X80772254Y-35254394D01*
X80765849Y-35253890D01*
X80765844Y-35253889D01*
X80737940Y-35251693D01*
X80737932Y-35251693D01*
X80735484Y-35251500D01*
X80264516Y-35251500D01*
X80262068Y-35251693D01*
X80262060Y-35251693D01*
X80234156Y-35253889D01*
X80234151Y-35253890D01*
X80227746Y-35254394D01*
X80146858Y-35277894D01*
X80078016Y-35297894D01*
X80078014Y-35297895D01*
X80070403Y-35300106D01*
X79929371Y-35383512D01*
X79813512Y-35499371D01*
X79809478Y-35506192D01*
X79785026Y-35547539D01*
X79730106Y-35640403D01*
X79727895Y-35648014D01*
X79727894Y-35648016D01*
X79713084Y-35698995D01*
X79684394Y-35797746D01*
X79683890Y-35804151D01*
X79683889Y-35804156D01*
X79681973Y-35828500D01*
X79681500Y-35834516D01*
X79681500Y-36245484D01*
X79681693Y-36247932D01*
X79681693Y-36247940D01*
X79683614Y-36272342D01*
X79684394Y-36282254D01*
X79703315Y-36347380D01*
X79725057Y-36422217D01*
X79730106Y-36439597D01*
X79734143Y-36446423D01*
X79740015Y-36456353D01*
X79757474Y-36525170D01*
X79740016Y-36584628D01*
X79734605Y-36593778D01*
X79728357Y-36608216D01*
X79693381Y-36728605D01*
X79693421Y-36742705D01*
X79700691Y-36746000D01*
X79978621Y-36746000D01*
X80042760Y-36763546D01*
X80070403Y-36779894D01*
X80078014Y-36782105D01*
X80078016Y-36782106D01*
X80128267Y-36796705D01*
X80227746Y-36825606D01*
X80234151Y-36826110D01*
X80234156Y-36826111D01*
X80262060Y-36828307D01*
X80262068Y-36828307D01*
X80264516Y-36828500D01*
X80735484Y-36828500D01*
X80737932Y-36828307D01*
X80737940Y-36828307D01*
X80765844Y-36826111D01*
X80765849Y-36826110D01*
X80772254Y-36825606D01*
X80871733Y-36796705D01*
X80921984Y-36782106D01*
X80921986Y-36782105D01*
X80929597Y-36779894D01*
X80954418Y-36765215D01*
X81023234Y-36747755D01*
X81066416Y-36757536D01*
X81070403Y-36759894D01*
X81078014Y-36762105D01*
X81078016Y-36762106D01*
X81082973Y-36763546D01*
X81227746Y-36805606D01*
X81234151Y-36806110D01*
X81234156Y-36806111D01*
X81262060Y-36808307D01*
X81262068Y-36808307D01*
X81264516Y-36808500D01*
X81628000Y-36808500D01*
X81696121Y-36828502D01*
X81742614Y-36882158D01*
X81754000Y-36934500D01*
X81754000Y-37748424D01*
X81758344Y-37763219D01*
X81768775Y-37765063D01*
X81778359Y-37763312D01*
X81921784Y-37721643D01*
X81936220Y-37715396D01*
X82063499Y-37640124D01*
X82075926Y-37630484D01*
X82180484Y-37525926D01*
X82190124Y-37513499D01*
X82265396Y-37386220D01*
X82271643Y-37371784D01*
X82313312Y-37228359D01*
X82315614Y-37215756D01*
X82317807Y-37187898D01*
X82318000Y-37182969D01*
X82318000Y-37150438D01*
X82338002Y-37082317D01*
X82391658Y-37035824D01*
X82461932Y-37025720D01*
X82488229Y-37032456D01*
X82532282Y-37048971D01*
X82532288Y-37048973D01*
X82539684Y-37051745D01*
X82601866Y-37058500D01*
X83347380Y-37058500D01*
X83415501Y-37078502D01*
X83436475Y-37095405D01*
X84452475Y-38111405D01*
X84486501Y-38173717D01*
X84481436Y-38244532D01*
X84438889Y-38301368D01*
X84372369Y-38326179D01*
X84363380Y-38326500D01*
X83019849Y-38326500D01*
X83015451Y-38326423D01*
X82904870Y-38322561D01*
X82792825Y-38333547D01*
X82788891Y-38333871D01*
X82676600Y-38341329D01*
X82672503Y-38342155D01*
X82672496Y-38342156D01*
X82647953Y-38347105D01*
X82635346Y-38348989D01*
X82606273Y-38351840D01*
X82602199Y-38352795D01*
X82602196Y-38352796D01*
X82496695Y-38377541D01*
X82492828Y-38378384D01*
X82386590Y-38399805D01*
X82386586Y-38399806D01*
X82382490Y-38400632D01*
X82378542Y-38401991D01*
X82378540Y-38401992D01*
X82354861Y-38410146D01*
X82342627Y-38413677D01*
X82314171Y-38420351D01*
X82310265Y-38421835D01*
X82310261Y-38421836D01*
X82264385Y-38439263D01*
X82208922Y-38460332D01*
X82205217Y-38461672D01*
X82102762Y-38496950D01*
X82102760Y-38496951D01*
X82098807Y-38498312D01*
X82072678Y-38511397D01*
X82061023Y-38516514D01*
X82033696Y-38526894D01*
X82030023Y-38528880D01*
X81934684Y-38580429D01*
X81931174Y-38582256D01*
X81908190Y-38593766D01*
X81830535Y-38632653D01*
X81806364Y-38649080D01*
X81795483Y-38655695D01*
X81773454Y-38667606D01*
X81773451Y-38667608D01*
X81769776Y-38669595D01*
X81678705Y-38735763D01*
X81675541Y-38737986D01*
X81582386Y-38801294D01*
X81579270Y-38804080D01*
X81560600Y-38820773D01*
X81550679Y-38828778D01*
X81527047Y-38845948D01*
X81524444Y-38848324D01*
X81524445Y-38848324D01*
X81505045Y-38866039D01*
X81457684Y-38909285D01*
X81427069Y-38939900D01*
X81421957Y-38944735D01*
X81358722Y-39001274D01*
X81356005Y-39004444D01*
X81356004Y-39004445D01*
X81320040Y-39046405D01*
X81313467Y-39053502D01*
X81174379Y-39192590D01*
X81112067Y-39226616D01*
X81041252Y-39221551D01*
X80984416Y-39179004D01*
X80961902Y-39129046D01*
X80941646Y-39031234D01*
X80939032Y-39018612D01*
X80847617Y-38760465D01*
X80758989Y-38588751D01*
X80723978Y-38520919D01*
X80723978Y-38520918D01*
X80722013Y-38517112D01*
X80717995Y-38511394D01*
X80640150Y-38400632D01*
X80564545Y-38293057D01*
X80451588Y-38171501D01*
X80381046Y-38095588D01*
X80381043Y-38095585D01*
X80378125Y-38092445D01*
X80374807Y-38089729D01*
X80374806Y-38089728D01*
X80262382Y-37997710D01*
X80240919Y-37980143D01*
X80200873Y-37921518D01*
X80198880Y-37850549D01*
X80232266Y-37792911D01*
X80242909Y-37782418D01*
X80246000Y-37770487D01*
X80246000Y-37768424D01*
X80754000Y-37768424D01*
X80758344Y-37783219D01*
X80768775Y-37785063D01*
X80778359Y-37783312D01*
X80921784Y-37741643D01*
X80936224Y-37735394D01*
X80954390Y-37724651D01*
X81023206Y-37707192D01*
X81068570Y-37717468D01*
X81078220Y-37721644D01*
X81221641Y-37763312D01*
X81229609Y-37764768D01*
X81243031Y-37761948D01*
X81246000Y-37750487D01*
X81246000Y-37272115D01*
X81241525Y-37256876D01*
X81240135Y-37255671D01*
X81232452Y-37254000D01*
X80772115Y-37254000D01*
X80756876Y-37258475D01*
X80755671Y-37259865D01*
X80754000Y-37267548D01*
X80754000Y-37768424D01*
X80246000Y-37768424D01*
X80246000Y-37272115D01*
X80241525Y-37256876D01*
X80240135Y-37255671D01*
X80232452Y-37254000D01*
X79706442Y-37254000D01*
X79692911Y-37257973D01*
X79691776Y-37265871D01*
X79728357Y-37391784D01*
X79734605Y-37406222D01*
X79769140Y-37464617D01*
X79786600Y-37533433D01*
X79764084Y-37600765D01*
X79708739Y-37645234D01*
X79638139Y-37652723D01*
X79626169Y-37649937D01*
X79591720Y-37640124D01*
X79418566Y-37590800D01*
X79414324Y-37590196D01*
X79414318Y-37590195D01*
X79196149Y-37559145D01*
X79147443Y-37552213D01*
X79003589Y-37551460D01*
X78877877Y-37550802D01*
X78877871Y-37550802D01*
X78873591Y-37550780D01*
X78869347Y-37551339D01*
X78869343Y-37551339D01*
X78750302Y-37567011D01*
X78602078Y-37586525D01*
X78597938Y-37587658D01*
X78597936Y-37587658D01*
X78564866Y-37596705D01*
X78337928Y-37658788D01*
X78333980Y-37660472D01*
X78089982Y-37764546D01*
X78089978Y-37764548D01*
X78086030Y-37766232D01*
X77967414Y-37837222D01*
X77854725Y-37904664D01*
X77854721Y-37904667D01*
X77851043Y-37906868D01*
X77637318Y-38078094D01*
X77448808Y-38276742D01*
X77289002Y-38499136D01*
X77160857Y-38741161D01*
X77159385Y-38745184D01*
X77159383Y-38745188D01*
X77083289Y-38953123D01*
X77066743Y-38998337D01*
X77008404Y-39265907D01*
X77002967Y-39334992D01*
X76989684Y-39503767D01*
X76986917Y-39538918D01*
X76987334Y-39546156D01*
X77002682Y-39812320D01*
X77055405Y-40081053D01*
X77056792Y-40085103D01*
X77056793Y-40085108D01*
X77135464Y-40314885D01*
X77144112Y-40340144D01*
X77173238Y-40398054D01*
X77256603Y-40563808D01*
X77267160Y-40584799D01*
X77269586Y-40588328D01*
X77269589Y-40588334D01*
X77375563Y-40742526D01*
X77422274Y-40810490D01*
X77606582Y-41013043D01*
X77613511Y-41018837D01*
X77652941Y-41077874D01*
X77654194Y-41148860D01*
X77616870Y-41209254D01*
X77552819Y-41239882D01*
X77532690Y-41241500D01*
X76543860Y-41241500D01*
X76539463Y-41241423D01*
X76428900Y-41237562D01*
X76361381Y-41244182D01*
X76316876Y-41248546D01*
X76312931Y-41248870D01*
X76270492Y-41251689D01*
X76200630Y-41256329D01*
X76196529Y-41257156D01*
X76196528Y-41257156D01*
X76171993Y-41262103D01*
X76159386Y-41263988D01*
X76134449Y-41266433D01*
X76134444Y-41266434D01*
X76130302Y-41266840D01*
X76126248Y-41267791D01*
X76126241Y-41267792D01*
X76020731Y-41292539D01*
X76016866Y-41293382D01*
X75906520Y-41315632D01*
X75878878Y-41325150D01*
X75866646Y-41328680D01*
X75842967Y-41334234D01*
X75838201Y-41335352D01*
X75732950Y-41375333D01*
X75729284Y-41376659D01*
X75622837Y-41413312D01*
X75619102Y-41415182D01*
X75619098Y-41415184D01*
X75596710Y-41426395D01*
X75585035Y-41431520D01*
X75557726Y-41441894D01*
X75554058Y-41443877D01*
X75554052Y-41443880D01*
X75458704Y-41495434D01*
X75455194Y-41497261D01*
X75406751Y-41521520D01*
X75354565Y-41547653D01*
X75330391Y-41564082D01*
X75319510Y-41570697D01*
X75297490Y-41582603D01*
X75297484Y-41582607D01*
X75293805Y-41584596D01*
X75290423Y-41587053D01*
X75290409Y-41587062D01*
X75202762Y-41650741D01*
X75199532Y-41653012D01*
X75106416Y-41716294D01*
X75103302Y-41719078D01*
X75103301Y-41719079D01*
X75084630Y-41735773D01*
X75074709Y-41743778D01*
X75051077Y-41760948D01*
X75048474Y-41763324D01*
X75048475Y-41763324D01*
X75023700Y-41785947D01*
X74981714Y-41824285D01*
X74951099Y-41854900D01*
X74945987Y-41859735D01*
X74882752Y-41916274D01*
X74880035Y-41919444D01*
X74880034Y-41919445D01*
X74844070Y-41961405D01*
X74837497Y-41968502D01*
X74223595Y-42582404D01*
X74161283Y-42616430D01*
X74090468Y-42611365D01*
X74033632Y-42568818D01*
X74008821Y-42502298D01*
X74008500Y-42493309D01*
X74008500Y-38262817D01*
X74028502Y-38194696D01*
X74045405Y-38173722D01*
X77673722Y-34545405D01*
X77736034Y-34511379D01*
X77762817Y-34508500D01*
X85865697Y-34508500D01*
X85933818Y-34528502D01*
G37*
%TD.AperFunction*%
%TA.AperFunction,Conductor*%
G36*
X90363621Y-39766002D02*
G01*
X90410114Y-39819658D01*
X90421500Y-39872000D01*
X90421500Y-40235484D01*
X90421693Y-40237932D01*
X90421693Y-40237940D01*
X90423184Y-40256876D01*
X90424394Y-40272254D01*
X90470106Y-40429597D01*
X90474141Y-40436419D01*
X90474141Y-40436420D01*
X90486454Y-40457240D01*
X90504000Y-40521379D01*
X90504000Y-40793558D01*
X90507973Y-40807089D01*
X90515871Y-40808224D01*
X90641784Y-40771643D01*
X90656222Y-40765395D01*
X90665372Y-40759984D01*
X90734188Y-40742526D01*
X90793647Y-40759985D01*
X90801531Y-40764647D01*
X90810403Y-40769894D01*
X90818014Y-40772105D01*
X90818016Y-40772106D01*
X90868995Y-40786916D01*
X90967746Y-40815606D01*
X90974151Y-40816110D01*
X90974156Y-40816111D01*
X91002060Y-40818307D01*
X91002068Y-40818307D01*
X91004516Y-40818500D01*
X91335450Y-40818500D01*
X91403571Y-40838502D01*
X91450064Y-40892158D01*
X91460168Y-40962432D01*
X91430674Y-41027012D01*
X91383670Y-41060907D01*
X91338348Y-41079681D01*
X91265492Y-41109859D01*
X91146005Y-41201545D01*
X91140979Y-41208095D01*
X91128011Y-41224995D01*
X91117144Y-41237386D01*
X90127886Y-42226644D01*
X90115505Y-42237503D01*
X90111858Y-42240302D01*
X90045641Y-42265906D01*
X89976091Y-42251646D01*
X89946054Y-42229439D01*
X89760756Y-42044141D01*
X89754902Y-42037876D01*
X89723304Y-42001655D01*
X89718310Y-41995930D01*
X89667936Y-41960527D01*
X89662677Y-41956620D01*
X89620249Y-41923352D01*
X89614272Y-41918665D01*
X89607348Y-41915539D01*
X89603039Y-41912929D01*
X89593624Y-41907558D01*
X89589176Y-41905173D01*
X89582961Y-41900805D01*
X89525639Y-41878456D01*
X89519571Y-41875906D01*
X89464846Y-41851196D01*
X89410993Y-41804934D01*
X89390699Y-41736899D01*
X89410409Y-41668694D01*
X89418276Y-41657689D01*
X89435522Y-41636113D01*
X89428455Y-41622667D01*
X88479884Y-40674095D01*
X88445859Y-40611783D01*
X88450924Y-40540967D01*
X88479885Y-40495905D01*
X88660905Y-40314885D01*
X88723217Y-40280859D01*
X88794032Y-40285924D01*
X88839095Y-40314884D01*
X89788389Y-41264178D01*
X89800162Y-41270606D01*
X89812176Y-41261311D01*
X89840466Y-41220907D01*
X89845946Y-41211417D01*
X89934326Y-41021887D01*
X89938072Y-41011595D01*
X89990764Y-40814941D01*
X89996000Y-40800311D01*
X89996000Y-40272115D01*
X89991525Y-40256876D01*
X89990135Y-40255671D01*
X89982452Y-40254000D01*
X89548000Y-40254000D01*
X89479879Y-40233998D01*
X89433386Y-40180342D01*
X89422000Y-40128000D01*
X89422000Y-39872000D01*
X89442002Y-39803879D01*
X89495658Y-39757386D01*
X89548000Y-39746000D01*
X90295500Y-39746000D01*
X90363621Y-39766002D01*
G37*
%TD.AperFunction*%
%TA.AperFunction,Conductor*%
G36*
X96454711Y-37198385D02*
G01*
X96493191Y-37221216D01*
X96519865Y-37244329D01*
X96527548Y-37246000D01*
X96613885Y-37246000D01*
X96630559Y-37241104D01*
X96666057Y-37236000D01*
X97227885Y-37236000D01*
X97277002Y-37221578D01*
X97347999Y-37221578D01*
X97407725Y-37259962D01*
X97437218Y-37324543D01*
X97438500Y-37342474D01*
X97438500Y-37605501D01*
X97418498Y-37673622D01*
X97364842Y-37720115D01*
X97312500Y-37731501D01*
X97250012Y-37731501D01*
X97213534Y-37734371D01*
X97207352Y-37736167D01*
X97207347Y-37736168D01*
X97197610Y-37738997D01*
X97162458Y-37744000D01*
X97096115Y-37744000D01*
X97079441Y-37748896D01*
X97043943Y-37754000D01*
X96144500Y-37754000D01*
X96076379Y-37733998D01*
X96029886Y-37680342D01*
X96018500Y-37628000D01*
X96018500Y-37582620D01*
X96038502Y-37514499D01*
X96055405Y-37493525D01*
X96321584Y-37227346D01*
X96383896Y-37193320D01*
X96454711Y-37198385D01*
G37*
%TD.AperFunction*%
%TA.AperFunction,Conductor*%
G36*
X94293988Y-36026118D02*
G01*
X94339078Y-36055040D01*
X94364947Y-36080864D01*
X94371177Y-36084704D01*
X94371178Y-36084705D01*
X94383086Y-36092045D01*
X94509308Y-36169849D01*
X94516256Y-36172154D01*
X94516257Y-36172154D01*
X94663738Y-36221072D01*
X94663740Y-36221072D01*
X94670269Y-36223238D01*
X94770428Y-36233500D01*
X95304572Y-36233500D01*
X95307818Y-36233163D01*
X95307822Y-36233163D01*
X95341051Y-36229715D01*
X95389904Y-36224646D01*
X95459724Y-36237511D01*
X95511507Y-36286081D01*
X95528809Y-36354937D01*
X95506139Y-36422217D01*
X95492002Y-36439068D01*
X95296475Y-36634595D01*
X95234163Y-36668621D01*
X95207381Y-36671500D01*
X95049941Y-36671501D01*
X95040012Y-36671501D01*
X95003534Y-36674371D01*
X94927407Y-36696488D01*
X94855017Y-36717519D01*
X94855015Y-36717520D01*
X94847404Y-36719731D01*
X94840582Y-36723766D01*
X94840581Y-36723766D01*
X94717248Y-36796705D01*
X94707459Y-36802494D01*
X94592494Y-36917459D01*
X94588460Y-36924280D01*
X94542609Y-37001811D01*
X94509731Y-37057404D01*
X94464371Y-37213534D01*
X94463867Y-37219941D01*
X94463866Y-37219945D01*
X94461693Y-37247556D01*
X94461500Y-37250011D01*
X94461500Y-37417380D01*
X94441498Y-37485501D01*
X94424595Y-37506475D01*
X94273094Y-37657976D01*
X94210782Y-37692002D01*
X94139967Y-37686937D01*
X94083131Y-37644390D01*
X94058320Y-37577870D01*
X94057999Y-37568881D01*
X94057999Y-37536017D01*
X94057805Y-37531080D01*
X94055570Y-37502664D01*
X94053270Y-37490069D01*
X94010893Y-37344210D01*
X94002872Y-37325674D01*
X93994176Y-37255212D01*
X94002872Y-37225596D01*
X94005111Y-37220423D01*
X94009145Y-37213601D01*
X94055562Y-37053831D01*
X94056485Y-37042113D01*
X94058307Y-37018958D01*
X94058307Y-37018950D01*
X94058500Y-37016502D01*
X94058500Y-36583498D01*
X94058274Y-36580629D01*
X94056067Y-36552579D01*
X94056066Y-36552574D01*
X94055562Y-36546169D01*
X94022389Y-36431984D01*
X94011357Y-36394012D01*
X94011356Y-36394010D01*
X94009145Y-36386399D01*
X93973386Y-36325934D01*
X93955926Y-36257118D01*
X93978443Y-36189787D01*
X94015536Y-36154650D01*
X94098676Y-36103202D01*
X94136055Y-36080071D01*
X94160887Y-36055195D01*
X94223168Y-36021116D01*
X94293988Y-36026118D01*
G37*
%TD.AperFunction*%
%TA.AperFunction,Conductor*%
G36*
X98200058Y-35817562D02*
G01*
X98227746Y-35825606D01*
X98234156Y-35826111D01*
X98234159Y-35826111D01*
X98262060Y-35828307D01*
X98262068Y-35828307D01*
X98264516Y-35828500D01*
X98628000Y-35828500D01*
X98696121Y-35848502D01*
X98742614Y-35902158D01*
X98754000Y-35954500D01*
X98754000Y-36128000D01*
X98733998Y-36196121D01*
X98680342Y-36242614D01*
X98628000Y-36254000D01*
X98365120Y-36254000D01*
X98296999Y-36233998D01*
X98276025Y-36217095D01*
X98186816Y-36127886D01*
X98175949Y-36115495D01*
X98162984Y-36098598D01*
X98162981Y-36098595D01*
X98157955Y-36092045D01*
X98117109Y-36060702D01*
X98088204Y-36038522D01*
X98046337Y-35981186D01*
X98042115Y-35910315D01*
X98076878Y-35848412D01*
X98139590Y-35815130D01*
X98200058Y-35817562D01*
G37*
%TD.AperFunction*%
%TD*%
M02*
